g mesh_structure0
v -0.000000 3.000000 5.500000
v -0.000000 3.000000 0.000000
v -0.000000 3.240000 0.000000
v -0.000000 3.240000 5.500000
v -0.000000 3.000000 0.000000
v -9.000000 3.000000 0.000000
v -9.000000 3.240000 0.000000
v -0.000000 3.240000 0.000000
v -9.000000 3.000000 0.000000
v -9.000000 3.000000 5.500000
v -9.000000 3.240000 5.500000
v -9.000000 3.240000 0.000000
v -9.000000 3.000000 5.500000
v -0.000000 3.000000 5.500000
v -0.000000 3.240000 5.500000
v -9.000000 3.240000 5.500000
v -0.000000 3.000000 5.500000
v -9.000000 3.000000 5.500000
v -9.000000 3.000000 0.000000
v -0.000000 3.000000 0.000000
v -0.000000 3.240000 5.500000
v -9.000000 3.240000 0.000000
v -9.000000 3.240000 5.500000
v -0.000000 3.240000 0.000000
v -8.424649 0.000000 0.316606
v -8.356847 0.000000 0.361142
v -8.312310 0.000000 0.428944
v -8.498268 0.000000 0.302563
v -8.698268 0.000000 0.502563
v -8.312310 0.000000 0.576182
v -8.298268 0.000000 0.502563
v -8.356847 0.000000 0.643985
v -8.424649 0.000000 0.688521
v -8.498268 0.000000 0.702563
v -8.639689 0.000000 0.361142
v -8.571887 0.000000 0.316606
v -8.684226 0.000000 0.428944
v -8.571887 0.000000 0.688521
v -8.639689 0.000000 0.643985
v -8.684226 0.000000 0.576182
v -8.424649 3.000000 0.316606
v -8.312310 3.000000 0.428944
v -8.356847 3.000000 0.361142
v -8.498268 3.000000 0.302563
v -8.698268 3.000000 0.502563
v -8.312310 3.000000 0.576182
v -8.298268 3.000000 0.502563
v -8.424649 3.000000 0.688521
v -8.356847 3.000000 0.643985
v -8.498268 3.000000 0.702563
v -8.571887 3.000000 0.316606
v -8.639689 3.000000 0.361142
v -8.684226 3.000000 0.428944
v -8.571887 3.000000 0.688521
v -8.639689 3.000000 0.643985
v -8.684226 3.000000 0.576182
v -4.424649 0.000000 0.316606
v -4.356846 0.000000 0.361142
v -4.312310 0.000000 0.428944
v -4.498268 0.000000 0.302563
v -4.684226 0.000000 0.576182
v -4.312310 0.000000 0.576182
v -4.298268 0.000000 0.502563
v -4.356846 0.000000 0.643985
v -4.424649 0.000000 0.688521
v -4.498268 0.000000 0.702563
v -4.639689 0.000000 0.361142
v -4.684226 0.000000 0.428944
v -4.698268 0.000000 0.502563
v -4.639689 0.000000 0.643985
v -4.571887 0.000000 0.688521
v -4.571887 0.000000 0.316606
v -4.424649 3.000000 0.316606
v -4.312310 3.000000 0.428944
v -4.356846 3.000000 0.361142
v -4.498268 3.000000 0.302563
v -4.684226 3.000000 0.576182
v -4.312310 3.000000 0.576182
v -4.298268 3.000000 0.502563
v -4.424649 3.000000 0.688521
v -4.356846 3.000000 0.643985
v -4.498268 3.000000 0.702563
v -4.639689 3.000000 0.361142
v -4.684226 3.000000 0.428944
v -4.698268 3.000000 0.502563
v -4.639689 3.000000 0.643985
v -4.571887 3.000000 0.688521
v -4.571887 3.000000 0.316606
v -0.356847 0.000000 0.361142
v -0.312310 0.000000 0.428944
v -0.298268 0.000000 0.502563
v -0.498268 0.000000 0.302563
v -0.424649 0.000000 0.316606
v -0.498268 0.000000 0.702563
v -0.356847 0.000000 0.643985
v -0.312310 0.000000 0.576182
v -0.424649 0.000000 0.688521
v -0.684226 0.000000 0.428944
v -0.639689 0.000000 0.361142
v -0.698268 0.000000 0.502563
v -0.639689 0.000000 0.643985
v -0.571887 0.000000 0.688521
v -0.684226 0.000000 0.576182
v -0.571887 0.000000 0.316606
v -0.356847 3.000000 0.361142
v -0.298268 3.000000 0.502563
v -0.312310 3.000000 0.428944
v -0.424649 3.000000 0.316606
v -0.498268 3.000000 0.302563
v -0.498268 3.000000 0.702563
v -0.356847 3.000000 0.643985
v -0.312310 3.000000 0.576182
v -0.424649 3.000000 0.688521
v -0.639689 3.000000 0.361142
v -0.684226 3.000000 0.428944
v -0.698268 3.000000 0.502563
v -0.639689 3.000000 0.643985
v -0.571887 3.000000 0.688521
v -0.684226 3.000000 0.576182
v -0.571887 3.000000 0.316606
v -8.698268 0.000000 0.502563
v -8.684226 0.000000 0.576182
v -8.684226 3.000000 0.576182
v -8.698268 3.000000 0.502563
v -8.639689 0.000000 0.643985
v -8.639689 3.000000 0.643985
v -8.571887 0.000000 0.688521
v -8.571887 3.000000 0.688521
v -8.498268 0.000000 0.702563
v -8.498268 3.000000 0.702563
v -8.424649 0.000000 0.688521
v -8.424649 3.000000 0.688521
v -8.356847 0.000000 0.643985
v -8.356847 3.000000 0.643985
v -8.312310 0.000000 0.576182
v -8.312310 3.000000 0.576182
v -8.298268 0.000000 0.502563
v -8.298268 3.000000 0.502563
v -8.312310 0.000000 0.428944
v -8.312310 3.000000 0.428944
v -8.356847 0.000000 0.361142
v -8.356847 3.000000 0.361142
v -8.424649 0.000000 0.316606
v -8.424649 3.000000 0.316606
v -8.498268 0.000000 0.302563
v -8.498268 3.000000 0.302563
v -8.571887 0.000000 0.316606
v -8.571887 3.000000 0.316606
v -8.639689 0.000000 0.361142
v -8.639689 3.000000 0.361142
v -8.684226 0.000000 0.428944
v -8.684226 3.000000 0.428944
v -8.698268 0.000000 0.502563
v -8.698268 3.000000 0.502563
v -4.698268 0.000000 0.502563
v -4.684226 0.000000 0.576182
v -4.684226 3.000000 0.576182
v -4.698268 3.000000 0.502563
v -4.639689 0.000000 0.643985
v -4.639689 3.000000 0.643985
v -4.571887 0.000000 0.688521
v -4.571887 3.000000 0.688521
v -4.498268 0.000000 0.702563
v -4.498268 3.000000 0.702563
v -4.424649 0.000000 0.688521
v -4.424649 3.000000 0.688521
v -4.356846 0.000000 0.643985
v -4.356846 3.000000 0.643985
v -4.312310 0.000000 0.576182
v -4.312310 3.000000 0.576182
v -4.298268 0.000000 0.502563
v -4.298268 3.000000 0.502563
v -4.312310 0.000000 0.428944
v -4.312310 3.000000 0.428944
v -4.356846 0.000000 0.361142
v -4.356846 3.000000 0.361142
v -4.424649 0.000000 0.316606
v -4.424649 3.000000 0.316606
v -4.498268 0.000000 0.302563
v -4.498268 3.000000 0.302563
v -4.571887 0.000000 0.316606
v -4.571887 3.000000 0.316606
v -4.639689 0.000000 0.361142
v -4.639689 3.000000 0.361142
v -4.684226 0.000000 0.428944
v -4.684226 3.000000 0.428944
v -4.698268 0.000000 0.502563
v -4.698268 3.000000 0.502563
v -0.698268 0.000000 0.502563
v -0.684226 0.000000 0.576182
v -0.684226 3.000000 0.576182
v -0.698268 3.000000 0.502563
v -0.639689 0.000000 0.643985
v -0.639689 3.000000 0.643985
v -0.571887 0.000000 0.688521
v -0.571887 3.000000 0.688521
v -0.498268 0.000000 0.702563
v -0.498268 3.000000 0.702563
v -0.424649 0.000000 0.688521
v -0.424649 3.000000 0.688521
v -0.356847 0.000000 0.643985
v -0.356847 3.000000 0.643985
v -0.312310 0.000000 0.576182
v -0.312310 3.000000 0.576182
v -0.298268 0.000000 0.502563
v -0.298268 3.000000 0.502563
v -0.312310 0.000000 0.428944
v -0.312310 3.000000 0.428944
v -0.356847 0.000000 0.361142
v -0.356847 3.000000 0.361142
v -0.424649 0.000000 0.316606
v -0.424649 3.000000 0.316606
v -0.498268 0.000000 0.302563
v -0.498268 3.000000 0.302563
v -0.571887 0.000000 0.316606
v -0.571887 3.000000 0.316606
v -0.639689 0.000000 0.361142
v -0.639689 3.000000 0.361142
v -0.684226 0.000000 0.428944
v -0.684226 3.000000 0.428944
v -0.698268 0.000000 0.502563
v -0.698268 3.000000 0.502563
vt 0.000000 0.000000
vt 0.189655 0.000000
vt 0.189655 0.510676
vt 0.000000 0.510676
vt 0.189655 0.000000
vt 0.500000 0.000000
vt 0.500000 0.510676
vt 0.189655 0.510676
vt 0.500000 0.000000
vt 0.689655 0.000000
vt 0.689655 0.510676
vt 0.500000 0.510676
vt 0.689655 0.000000
vt 1.000000 0.000000
vt 1.000000 0.510676
vt 0.689655 0.510676
vt 0.310345 1.000000
vt 0.000000 1.000000
vt 0.000000 0.510676
vt 0.310345 0.510676
vt 1.000000 0.510676
vt 0.689655 1.000000
vt 0.689655 0.510676
vt 1.000000 1.000000
vt 0.866432 0.128653
vt 0.833334 0.113807
vt 0.811594 0.091206
vt 0.902370 0.133333
vt 1.000000 0.066667
vt 0.811594 0.042127
vt 0.804739 0.066667
vt 0.833334 0.019526
vt 0.866432 0.004681
vt 0.902370 0.000000
vt 0.971405 0.113807
vt 0.938307 0.128653
vt 0.993145 0.091206
vt 0.938307 0.004681
vt 0.971405 0.019526
vt 0.993145 0.042127
vt 0.866432 0.004681
vt 0.811594 0.042127
vt 0.833334 0.019526
vt 0.902370 0.000000
vt 1.000000 0.066667
vt 0.811594 0.091206
vt 0.804739 0.066667
vt 0.866432 0.128653
vt 0.833334 0.113807
vt 0.902370 0.133333
vt 0.938307 0.004681
vt 0.971405 0.019526
vt 0.993145 0.042127
vt 0.938307 0.128653
vt 0.971405 0.113807
vt 0.993145 0.091206
vt 0.993145 0.091206
vt 0.971405 0.113807
vt 0.938307 0.128653
vt 1.000000 0.066667
vt 0.866432 0.004681
vt 0.866432 0.128653
vt 0.902370 0.133333
vt 0.833334 0.113807
vt 0.811594 0.091206
vt 0.804739 0.066667
vt 0.971405 0.019526
vt 0.938307 0.004681
vt 0.902370 0.000000
vt 0.833334 0.019526
vt 0.811594 0.042127
vt 0.993145 0.042127
vt 0.993145 0.042127
vt 0.938307 0.004681
vt 0.971405 0.019526
vt 1.000000 0.066667
vt 0.866432 0.128653
vt 0.866432 0.004681
vt 0.902370 0.000000
vt 0.811594 0.042127
vt 0.833334 0.019526
vt 0.804739 0.066667
vt 0.971405 0.113807
vt 0.938307 0.128653
vt 0.902370 0.133333
vt 0.833334 0.113807
vt 0.811594 0.091206
vt 0.993145 0.091206
vt 0.971405 0.113807
vt 0.938307 0.128653
vt 0.902370 0.133333
vt 1.000000 0.066667
vt 0.993145 0.091206
vt 0.804739 0.066667
vt 0.833334 0.113807
vt 0.866432 0.128653
vt 0.811594 0.091206
vt 0.938307 0.004681
vt 0.971405 0.019526
vt 0.902370 0.000000
vt 0.833334 0.019526
vt 0.811594 0.042127
vt 0.866432 0.004681
vt 0.993145 0.042127
vt 0.971405 0.019526
vt 0.902370 0.000000
vt 0.938307 0.004681
vt 0.993145 0.042127
vt 1.000000 0.066667
vt 0.804739 0.066667
vt 0.833334 0.019526
vt 0.866432 0.004681
vt 0.811594 0.042127
vt 0.971405 0.113807
vt 0.938307 0.128653
vt 0.902370 0.133333
vt 0.833334 0.113807
vt 0.811594 0.091206
vt 0.866432 0.128653
vt 0.993145 0.091206
vt 0.000000 0.000000
vt 0.050296 0.000000
vt 0.050296 1.000000
vt 0.000000 1.000000
vt 0.100592 0.000000
vt 0.100592 1.000000
vt 0.150888 0.000000
vt 0.150888 1.000000
vt 0.201185 0.000000
vt 0.201185 1.000000
vt 0.251481 0.000000
vt 0.251481 1.000000
vt 0.301777 0.000000
vt 0.301777 1.000000
vt 0.352073 0.000000
vt 0.352073 1.000000
vt 0.402369 0.000000
vt 0.402369 1.000000
vt 0.452665 0.000000
vt 0.452665 1.000000
vt 0.502961 0.000000
vt 0.502961 1.000000
vt 0.553258 0.000000
vt 0.553258 1.000000
vt 0.603554 0.000000
vt 0.603554 1.000000
vt 0.653850 0.000000
vt 0.653850 1.000000
vt 0.704146 0.000000
vt 0.704146 1.000000
vt 0.754442 0.000000
vt 0.754442 1.000000
vt 0.804738 0.000000
vt 0.804738 1.000000
vt 0.000000 0.000000
vt 0.050296 0.000000
vt 0.050296 1.000000
vt 0.000000 1.000000
vt 0.100592 0.000000
vt 0.100592 1.000000
vt 0.150888 0.000000
vt 0.150888 1.000000
vt 0.201185 0.000000
vt 0.201185 1.000000
vt 0.251481 0.000000
vt 0.251481 1.000000
vt 0.301777 0.000000
vt 0.301777 1.000000
vt 0.352073 0.000000
vt 0.352073 1.000000
vt 0.402369 0.000000
vt 0.402369 1.000000
vt 0.452665 0.000000
vt 0.452665 1.000000
vt 0.502961 0.000000
vt 0.502961 1.000000
vt 0.553258 0.000000
vt 0.553258 1.000000
vt 0.603554 0.000000
vt 0.603554 1.000000
vt 0.653850 0.000000
vt 0.653850 1.000000
vt 0.704146 0.000000
vt 0.704146 1.000000
vt 0.754442 0.000000
vt 0.754442 1.000000
vt 0.804738 0.000000
vt 0.804738 1.000000
vt 0.000000 0.000000
vt 0.050296 0.000000
vt 0.050296 1.000000
vt 0.000000 1.000000
vt 0.100592 0.000000
vt 0.100592 1.000000
vt 0.150888 0.000000
vt 0.150888 1.000000
vt 0.201185 0.000000
vt 0.201185 1.000000
vt 0.251481 0.000000
vt 0.251481 1.000000
vt 0.301777 0.000000
vt 0.301777 1.000000
vt 0.352073 0.000000
vt 0.352073 1.000000
vt 0.402369 0.000000
vt 0.402369 1.000000
vt 0.452665 0.000000
vt 0.452665 1.000000
vt 0.502961 0.000000
vt 0.502961 1.000000
vt 0.553258 0.000000
vt 0.553258 1.000000
vt 0.603554 0.000000
vt 0.603554 1.000000
vt 0.653850 0.000000
vt 0.653850 1.000000
vt 0.704146 0.000000
vt 0.704146 1.000000
vt 0.754442 0.000000
vt 0.754442 1.000000
vt 0.804738 0.000000
vt 0.804738 1.000000
vn 1.000000 0.000000 0.000000
vn 1.000000 0.000000 0.000000
vn 1.000000 0.000000 0.000000
vn 1.000000 0.000000 0.000000
vn -0.000000 0.000000 -1.000000
vn -0.000000 0.000000 -1.000000
vn -0.000000 0.000000 -1.000000
vn -0.000000 0.000000 -1.000000
vn -1.000000 0.000000 0.000000
vn -1.000000 0.000000 0.000000
vn -1.000000 0.000000 0.000000
vn -1.000000 0.000000 0.000000
vn -0.000000 -0.000000 1.000000
vn -0.000000 -0.000000 1.000000
vn -0.000000 -0.000000 1.000000
vn -0.000000 -0.000000 1.000000
vn 0.000000 -1.000000 -0.000000
vn 0.000000 -1.000000 -0.000000
vn 0.000000 -1.000000 -0.000000
vn 0.000000 -1.000000 -0.000000
vn -0.000000 1.000000 0.000000
vn -0.000000 1.000000 0.000000
vn -0.000000 1.000000 0.000000
vn -0.000000 1.000000 0.000000
vn 0.000000 -1.000000 -0.000000
vn 0.000000 -1.000000 -0.000000
vn 0.000000 -1.000000 -0.000000
vn 0.000000 -1.000000 -0.000000
vn 0.000000 -1.000000 -0.000000
vn 0.000000 -1.000000 -0.000000
vn 0.000000 -1.000000 -0.000000
vn 0.000000 -1.000000 -0.000000
vn 0.000000 -1.000000 -0.000000
vn 0.000000 -1.000000 -0.000000
vn 0.000000 -1.000000 -0.000000
vn 0.000000 -1.000000 -0.000000
vn 0.000000 -1.000000 -0.000000
vn 0.000000 -1.000000 -0.000000
vn 0.000000 -1.000000 -0.000000
vn 0.000000 -1.000000 -0.000000
vn -0.000000 1.000000 0.000000
vn -0.000000 1.000000 0.000000
vn -0.000000 1.000000 0.000000
vn -0.000000 1.000000 0.000000
vn -0.000000 1.000000 0.000000
vn -0.000000 1.000000 0.000000
vn -0.000000 1.000000 0.000000
vn -0.000000 1.000000 0.000000
vn -0.000000 1.000000 0.000000
vn -0.000000 1.000000 0.000000
vn -0.000000 1.000000 0.000000
vn -0.000000 1.000000 0.000000
vn -0.000000 1.000000 0.000000
vn -0.000000 1.000000 0.000000
vn -0.000000 1.000000 0.000000
vn -0.000000 1.000000 0.000000
vn 0.000000 -1.000000 -0.000000
vn 0.000000 -1.000000 -0.000000
vn 0.000000 -1.000000 -0.000000
vn 0.000000 -1.000000 -0.000000
vn 0.000000 -1.000000 -0.000000
vn 0.000000 -1.000000 -0.000000
vn 0.000000 -1.000000 -0.000000
vn 0.000000 -1.000000 -0.000000
vn 0.000000 -1.000000 -0.000000
vn 0.000000 -1.000000 -0.000000
vn 0.000000 -1.000000 -0.000000
vn 0.000000 -1.000000 -0.000000
vn 0.000000 -1.000000 -0.000000
vn 0.000000 -1.000000 -0.000000
vn 0.000000 -1.000000 -0.000000
vn 0.000000 -1.000000 -0.000000
vn -0.000000 1.000000 0.000000
vn -0.000000 1.000000 0.000000
vn -0.000000 1.000000 0.000000
vn -0.000000 1.000000 0.000000
vn -0.000000 1.000000 0.000000
vn -0.000000 1.000000 0.000000
vn -0.000000 1.000000 0.000000
vn -0.000000 1.000000 0.000000
vn -0.000000 1.000000 0.000000
vn -0.000000 1.000000 0.000000
vn -0.000000 1.000000 0.000000
vn -0.000000 1.000000 0.000000
vn -0.000000 1.000000 0.000000
vn -0.000000 1.000000 0.000000
vn -0.000000 1.000000 0.000000
vn -0.000000 1.000000 0.000000
vn 0.000000 -1.000000 -0.000000
vn 0.000000 -1.000000 -0.000000
vn 0.000000 -1.000000 -0.000000
vn 0.000000 -1.000000 -0.000000
vn 0.000000 -1.000000 -0.000000
vn 0.000000 -1.000000 -0.000000
vn 0.000000 -1.000000 -0.000000
vn 0.000000 -1.000000 -0.000000
vn 0.000000 -1.000000 -0.000000
vn 0.000000 -1.000000 -0.000000
vn 0.000000 -1.000000 -0.000000
vn 0.000000 -1.000000 -0.000000
vn 0.000000 -1.000000 -0.000000
vn 0.000000 -1.000000 -0.000000
vn 0.000000 -1.000000 -0.000000
vn 0.000000 -1.000000 -0.000000
vn -0.000000 1.000000 0.000000
vn -0.000000 1.000000 0.000000
vn -0.000000 1.000000 0.000000
vn -0.000000 1.000000 0.000000
vn -0.000000 1.000000 0.000000
vn -0.000000 1.000000 0.000000
vn -0.000000 1.000000 0.000000
vn -0.000000 1.000000 0.000000
vn -0.000000 1.000000 0.000000
vn -0.000000 1.000000 0.000000
vn -0.000000 1.000000 0.000000
vn -0.000000 1.000000 0.000000
vn -0.000000 1.000000 0.000000
vn -0.000000 1.000000 0.000000
vn -0.000000 1.000000 0.000000
vn -0.000000 1.000000 0.000000
vn -1.000000 0.000000 -0.000000
vn -0.929788 0.000000 0.368095
vn -0.929788 0.000000 0.368095
vn -1.000000 0.000000 -0.000000
vn -0.707107 0.000000 0.707107
vn -0.707107 0.000000 0.707107
vn -0.368095 0.000000 0.929788
vn -0.368095 0.000000 0.929788
vn -0.000000 0.000000 1.000000
vn -0.000000 0.000000 1.000000
vn 0.368095 0.000000 0.929788
vn 0.368095 0.000000 0.929788
vn 0.707107 0.000000 0.707107
vn 0.707107 0.000000 0.707107
vn 0.929788 0.000000 0.368095
vn 0.929788 0.000000 0.368095
vn 1.000000 0.000000 -0.000000
vn 1.000000 0.000000 -0.000000
vn 0.929788 0.000000 -0.368095
vn 0.929788 0.000000 -0.368095
vn 0.707107 0.000000 -0.707107
vn 0.707107 0.000000 -0.707107
vn 0.368095 0.000000 -0.929788
vn 0.368095 0.000000 -0.929788
vn 0.000000 0.000000 -1.000000
vn 0.000000 0.000000 -1.000000
vn -0.368095 0.000000 -0.929788
vn -0.368095 0.000000 -0.929788
vn -0.707107 0.000000 -0.707107
vn -0.707107 0.000000 -0.707107
vn -0.929788 0.000000 -0.368095
vn -0.929788 0.000000 -0.368095
vn -1.000000 0.000000 0.000000
vn -1.000000 0.000000 0.000000
vn -1.000000 0.000000 0.000000
vn -0.929788 0.000000 0.368095
vn -0.929788 0.000000 0.368095
vn -1.000000 0.000000 0.000000
vn -0.707107 0.000000 0.707107
vn -0.707107 0.000000 0.707107
vn -0.368095 0.000000 0.929788
vn -0.368095 0.000000 0.929788
vn -0.000000 0.000000 1.000000
vn -0.000000 0.000000 1.000000
vn 0.368095 0.000000 0.929788
vn 0.368095 0.000000 0.929788
vn 0.707107 0.000000 0.707107
vn 0.707107 0.000000 0.707107
vn 0.929788 0.000000 0.368095
vn 0.929788 0.000000 0.368095
vn 1.000000 0.000000 -0.000000
vn 1.000000 0.000000 -0.000000
vn 0.929788 0.000000 -0.368095
vn 0.929788 0.000000 -0.368095
vn 0.707107 0.000000 -0.707107
vn 0.707107 0.000000 -0.707107
vn 0.368095 0.000000 -0.929788
vn 0.368095 0.000000 -0.929788
vn 0.000000 0.000000 -1.000000
vn 0.000000 0.000000 -1.000000
vn -0.368095 0.000000 -0.929788
vn -0.368095 0.000000 -0.929788
vn -0.707107 0.000000 -0.707107
vn -0.707107 0.000000 -0.707107
vn -0.929788 0.000000 -0.368095
vn -0.929788 0.000000 -0.368095
vn -1.000000 0.000000 -0.000000
vn -1.000000 0.000000 -0.000000
vn -1.000000 0.000000 0.000000
vn -0.929788 0.000000 0.368095
vn -0.929788 0.000000 0.368095
vn -1.000000 0.000000 0.000000
vn -0.707107 0.000000 0.707107
vn -0.707107 0.000000 0.707107
vn -0.368095 0.000000 0.929788
vn -0.368095 0.000000 0.929788
vn -0.000000 0.000000 1.000000
vn -0.000000 0.000000 1.000000
vn 0.368095 0.000000 0.929788
vn 0.368095 0.000000 0.929788
vn 0.707107 0.000000 0.707107
vn 0.707107 0.000000 0.707107
vn 0.929788 0.000000 0.368095
vn 0.929788 0.000000 0.368095
vn 1.000000 0.000000 -0.000000
vn 1.000000 0.000000 -0.000000
vn 0.929788 0.000000 -0.368095
vn 0.929788 0.000000 -0.368095
vn 0.707107 0.000000 -0.707107
vn 0.707107 0.000000 -0.707107
vn 0.368095 0.000000 -0.929788
vn 0.368095 0.000000 -0.929788
vn 0.000000 0.000000 -1.000000
vn 0.000000 0.000000 -1.000000
vn -0.368095 0.000000 -0.929788
vn -0.368095 0.000000 -0.929788
vn -0.707107 0.000000 -0.707107
vn -0.707107 0.000000 -0.707107
vn -0.929788 0.000000 -0.368095
vn -0.929788 0.000000 -0.368095
vn -1.000000 0.000000 0.000000
vn -1.000000 0.000000 0.000000
f 1/1/1 2/2/2 3/3/3
f 5/5/5 6/6/6 7/7/7
f 9/9/9 10/10/10 11/11/11
f 13/13/13 14/14/14 15/15/15
f 17/17/17 18/18/18 19/19/19
f 19/19/19 20/20/20 17/17/17
f 21/21/21 22/22/22 23/23/23
f 22/22/22 21/21/21 24/24/24
f 25/25/25 26/26/26 27/27/27
f 27/27/27 28/28/28 25/25/25
f 29/29/29 27/27/27 30/30/30
f 30/30/30 27/27/27 31/31/31
f 30/30/30 32/32/32 33/33/33
f 33/33/33 34/34/34 30/30/30
f 28/28/28 27/27/27 29/29/29
f 29/29/29 35/35/35 36/36/36
f 35/35/35 29/29/29 37/37/37
f 30/30/30 34/34/34 29/29/29
f 38/38/38 29/29/29 34/34/34
f 39/39/39 29/29/29 38/38/38
f 39/39/39 40/40/40 29/29/29
f 36/36/36 28/28/28 29/29/29
f 41/41/41 42/42/42 43/43/43
f 42/42/42 41/41/41 44/44/44
f 45/45/45 46/46/46 42/42/42
f 46/46/46 47/47/47 42/42/42
f 46/46/46 48/48/48 49/49/49
f 48/48/48 46/46/46 50/50/50
f 44/44/44 45/45/45 42/42/42
f 45/45/45 51/51/51 52/52/52
f 52/52/52 53/53/53 45/45/45
f 46/46/46 45/45/45 50/50/50
f 54/54/54 50/50/50 45/45/45
f 55/55/55 54/54/54 45/45/45
f 55/55/55 45/45/45 56/56/56
f 51/51/51 45/45/45 44/44/44
f 57/57/57 58/58/58 59/59/59
f 59/59/59 60/60/60 57/57/57
f 61/61/61 59/59/59 62/62/62
f 62/62/62 59/59/59 63/63/63
f 62/62/62 64/64/64 65/65/65
f 65/65/65 66/66/66 62/62/62
f 60/60/60 59/59/59 67/67/67
f 59/59/59 68/68/68 67/67/67
f 59/59/59 61/61/61 68/68/68
f 69/69/69 68/68/68 61/61/61
f 70/70/70 66/66/66 71/71/71
f 62/62/62 66/66/66 70/70/70
f 62/62/62 70/70/70 61/61/61
f 72/72/72 60/60/60 67/67/67
f 73/73/73 74/74/74 75/75/75
f 74/74/74 73/73/73 76/76/76
f 77/77/77 78/78/78 74/74/74
f 78/78/78 79/79/79 74/74/74
f 78/78/78 80/80/80 81/81/81
f 80/80/80 78/78/78 82/82/82
f 76/76/76 83/83/83 74/74/74
f 74/74/74 83/83/83 84/84/84
f 74/74/74 84/84/84 77/77/77
f 85/85/85 77/77/77 84/84/84
f 86/86/86 87/87/87 82/82/82
f 78/78/78 86/86/86 82/82/82
f 78/78/78 77/77/77 86/86/86
f 88/88/88 83/83/83 76/76/76
f 89/89/89 90/90/90 91/91/91
f 89/89/89 92/92/92 93/93/93
f 89/89/89 91/91/91 94/94/94
f 95/95/95 91/91/91 96/96/96
f 91/91/91 95/95/95 94/94/94
f 97/97/97 94/94/94 95/95/95
f 89/89/89 94/94/94 92/92/92
f 92/92/92 98/98/98 99/99/99
f 98/98/98 92/92/92 100/100/100
f 100/100/100 92/92/92 94/94/94
f 101/101/101 94/94/94 102/102/102
f 94/94/94 101/101/101 103/103/103
f 103/103/103 100/100/100 94/94/94
f 104/104/104 92/92/92 99/99/99
f 105/105/105 106/106/106 107/107/107
f 105/105/105 108/108/108 109/109/109
f 105/105/105 110/110/110 106/106/106
f 111/111/111 112/112/112 106/106/106
f 106/106/106 110/110/110 111/111/111
f 113/113/113 111/111/111 110/110/110
f 105/105/105 109/109/109 110/110/110
f 109/109/109 114/114/114 115/115/115
f 115/115/115 116/116/116 109/109/109
f 116/116/116 110/110/110 109/109/109
f 117/117/117 118/118/118 110/110/110
f 110/110/110 119/119/119 117/117/117
f 119/119/119 110/110/110 116/116/116
f 120/120/120 114/114/114 109/109/109
f 121/121/121 122/122/122 123/123/123
f 122/122/122 125/125/125 126/126/126
f 125/125/125 127/127/127 128/128/128
f 127/127/127 129/129/129 130/130/130
f 129/129/129 131/131/131 132/132/132
f 131/131/131 133/133/133 134/134/134
f 133/133/133 135/135/135 136/136/136
f 135/135/135 137/137/137 138/138/138
f 137/137/137 139/139/139 140/140/140
f 139/139/139 141/141/141 142/142/142
f 141/141/141 143/143/143 144/144/144
f 143/143/143 145/145/145 146/146/146
f 145/145/145 147/147/147 148/148/148
f 147/147/147 149/149/149 150/150/150
f 149/149/149 151/151/151 152/152/152
f 151/151/151 153/153/153 154/154/154
f 155/155/155 156/156/156 157/157/157
f 156/156/156 159/159/159 160/160/160
f 159/159/159 161/161/161 162/162/162
f 161/161/161 163/163/163 164/164/164
f 163/163/163 165/165/165 166/166/166
f 165/165/165 167/167/167 168/168/168
f 167/167/167 169/169/169 170/170/170
f 169/169/169 171/171/171 172/172/172
f 171/171/171 173/173/173 174/174/174
f 173/173/173 175/175/175 176/176/176
f 175/175/175 177/177/177 178/178/178
f 177/177/177 179/179/179 180/180/180
f 179/179/179 181/181/181 182/182/182
f 181/181/181 183/183/183 184/184/184
f 183/183/183 185/185/185 186/186/186
f 185/185/185 187/187/187 188/188/188
f 189/189/189 190/190/190 191/191/191
f 190/190/190 193/193/193 194/194/194
f 193/193/193 195/195/195 196/196/196
f 195/195/195 197/197/197 198/198/198
f 197/197/197 199/199/199 200/200/200
f 199/199/199 201/201/201 202/202/202
f 201/201/201 203/203/203 204/204/204
f 203/203/203 205/205/205 206/206/206
f 205/205/205 207/207/207 208/208/208
f 207/207/207 209/209/209 210/210/210
f 209/209/209 211/211/211 212/212/212
f 211/211/211 213/213/213 214/214/214
f 213/213/213 215/215/215 216/216/216
f 215/215/215 217/217/217 218/218/218
f 217/217/217 219/219/219 220/220/220
f 219/219/219 221/221/221 222/222/222
f 1/1/1 3/3/3 4/4/4
f 5/5/5 7/7/7 8/8/8
f 9/9/9 11/11/11 12/12/12
f 13/13/13 15/15/15 16/16/16
f 121/121/121 123/123/123 124/124/124
f 122/122/122 126/126/126 123/123/123
f 125/125/125 128/128/128 126/126/126
f 127/127/127 130/130/130 128/128/128
f 129/129/129 132/132/132 130/130/130
f 131/131/131 134/134/134 132/132/132
f 133/133/133 136/136/136 134/134/134
f 135/135/135 138/138/138 136/136/136
f 137/137/137 140/140/140 138/138/138
f 139/139/139 142/142/142 140/140/140
f 141/141/141 144/144/144 142/142/142
f 143/143/143 146/146/146 144/144/144
f 145/145/145 148/148/148 146/146/146
f 147/147/147 150/150/150 148/148/148
f 149/149/149 152/152/152 150/150/150
f 151/151/151 154/154/154 152/152/152
f 155/155/155 157/157/157 158/158/158
f 156/156/156 160/160/160 157/157/157
f 159/159/159 162/162/162 160/160/160
f 161/161/161 164/164/164 162/162/162
f 163/163/163 166/166/166 164/164/164
f 165/165/165 168/168/168 166/166/166
f 167/167/167 170/170/170 168/168/168
f 169/169/169 172/172/172 170/170/170
f 171/171/171 174/174/174 172/172/172
f 173/173/173 176/176/176 174/174/174
f 175/175/175 178/178/178 176/176/176
f 177/177/177 180/180/180 178/178/178
f 179/179/179 182/182/182 180/180/180
f 181/181/181 184/184/184 182/182/182
f 183/183/183 186/186/186 184/184/184
f 185/185/185 188/188/188 186/186/186
f 189/189/189 191/191/191 192/192/192
f 190/190/190 194/194/194 191/191/191
f 193/193/193 196/196/196 194/194/194
f 195/195/195 198/198/198 196/196/196
f 197/197/197 200/200/200 198/198/198
f 199/199/199 202/202/202 200/200/200
f 201/201/201 204/204/204 202/202/202
f 203/203/203 206/206/206 204/204/204
f 205/205/205 208/208/208 206/206/206
f 207/207/207 210/210/210 208/208/208
f 209/209/209 212/212/212 210/210/210
f 211/211/211 214/214/214 212/212/212
f 213/213/213 216/216/216 214/214/214
f 215/215/215 218/218/218 216/216/216
f 217/217/217 220/220/220 218/218/218
f 219/219/219 222/222/222 220/220/220

