g mesh_BB0
v -4.500000 4.010000 1.000000
v -0.000000 4.010000 1.000000
v -0.000000 4.010000 0.000000
v -4.500000 4.010000 0.000000
v -4.500000 4.000000 1.000000
v -0.000000 4.000000 1.000000
v -0.000000 4.000000 0.000000
v -4.500000 4.000000 0.000000
v -9.000000 4.010000 1.000000
v -9.000000 4.010000 0.000000
v -9.000000 4.000000 1.000000
v -9.000000 4.000000 0.000000
v -0.000000 4.000000 1.000000
v -0.000000 4.000000 0.000000
v -0.000000 4.010000 0.000000
v -0.000000 4.010000 1.000000
v -0.000000 4.000000 0.000000
v -4.500000 4.000000 0.000000
v -4.500000 4.010000 0.000000
v -0.000000 4.010000 0.000000
v -4.500000 4.000000 1.000000
v -0.000000 4.000000 1.000000
v -0.000000 4.010000 1.000000
v -4.500000 4.010000 1.000000
v -4.500000 4.000000 0.000000
v -9.000000 4.000000 0.000000
v -9.000000 4.010000 0.000000
v -4.500000 4.010000 0.000000
v -9.000000 4.000000 1.000000
v -4.500000 4.000000 1.000000
v -4.500000 4.010000 1.000000
v -9.000000 4.010000 1.000000
v -9.000000 4.000000 0.000000
v -9.000000 4.000000 1.000000
v -9.000000 4.010000 1.000000
v -9.000000 4.010000 0.000000
v -5.000000 2.010000 1.000000
v -5.000000 2.010000 0.000000
v -4.000000 2.010000 0.000000
v -4.000000 2.010000 1.000000
v -5.000000 2.000000 1.000000
v -5.000000 2.000000 0.000000
v -4.000000 2.000000 0.000000
v -4.000000 2.000000 1.000000
v -5.000000 2.000000 0.000000
v -4.000000 2.000000 0.000000
v -4.000000 2.010000 0.000000
v -5.000000 2.010000 0.000000
v -4.000000 2.000000 0.000000
v -4.000000 2.000000 1.000000
v -4.000000 2.010000 1.000000
v -4.000000 2.010000 0.000000
v -5.000000 2.000000 1.000000
v -5.000000 2.000000 0.000000
v -5.000000 2.010000 0.000000
v -5.000000 2.010000 1.000000
v -4.000000 2.000000 1.000000
v -5.000000 2.000000 1.000000
v -5.000000 2.010000 1.000000
v -4.000000 2.010000 1.000000
v -9.000000 2.010000 0.000000
v -8.000000 2.010000 0.000000
v -8.000000 2.010000 1.000000
v -9.000000 2.010000 1.000000
v -9.000000 2.000000 0.000000
v -8.000000 2.000000 0.000000
v -8.000000 2.000000 1.000000
v -9.000000 2.000000 1.000000
v -8.000000 2.000000 0.000000
v -8.000000 2.000000 1.000000
v -8.000000 2.010000 1.000000
v -8.000000 2.010000 0.000000
v -8.000000 2.000000 1.000000
v -9.000000 2.000000 1.000000
v -9.000000 2.010000 1.000000
v -8.000000 2.010000 1.000000
v -9.000000 2.000000 0.000000
v -8.000000 2.000000 0.000000
v -8.000000 2.010000 0.000000
v -9.000000 2.010000 0.000000
v -9.000000 2.000000 1.000000
v -9.000000 2.000000 0.000000
v -9.000000 2.010000 0.000000
v -9.000000 2.010000 1.000000
v -6.500000 5.010000 1.000000
v -5.000000 5.010000 1.000000
v -5.000000 5.010000 0.000000
v -6.500000 5.010000 0.000000
v -6.500000 5.000000 1.000000
v -5.000000 5.000000 1.000000
v -5.000000 5.000000 0.000000
v -6.500000 5.000000 0.000000
v -8.000000 5.010000 1.000000
v -8.000000 5.010000 0.000000
v -8.000000 5.000000 1.000000
v -8.000000 5.000000 0.000000
v -5.000000 5.000000 1.000000
v -5.000000 5.000000 0.000000
v -5.000000 5.010000 0.000000
v -5.000000 5.010000 1.000000
v -5.000000 5.000000 0.000000
v -6.500000 5.000000 0.000000
v -6.500000 5.010000 0.000000
v -5.000000 5.010000 0.000000
v -6.500000 5.000000 1.000000
v -5.000000 5.000000 1.000000
v -5.000000 5.010000 1.000000
v -6.500000 5.010000 1.000000
v -6.500000 5.000000 0.000000
v -8.000000 5.000000 0.000000
v -8.000000 5.010000 0.000000
v -6.500000 5.010000 0.000000
v -8.000000 5.000000 1.000000
v -6.500000 5.000000 1.000000
v -6.500000 5.010000 1.000000
v -8.000000 5.010000 1.000000
v -8.000000 5.000000 0.000000
v -8.000000 5.000000 1.000000
v -8.000000 5.010000 1.000000
v -8.000000 5.010000 0.000000
v -2.500000 5.010000 1.000000
v -1.000000 5.010000 1.000000
v -1.000000 5.010000 0.000000
v -2.500000 5.010000 0.000000
v -2.500000 5.000000 1.000000
v -1.000000 5.000000 1.000000
v -1.000000 5.000000 0.000000
v -2.500000 5.000000 0.000000
v -4.000000 5.010000 1.000000
v -4.000000 5.010000 0.000000
v -4.000000 5.000000 1.000000
v -4.000000 5.000000 0.000000
v -1.000000 5.000000 1.000000
v -1.000000 5.000000 0.000000
v -1.000000 5.010000 0.000000
v -1.000000 5.010000 1.000000
v -1.000000 5.000000 0.000000
v -2.500000 5.000000 0.000000
v -2.500000 5.010000 0.000000
v -1.000000 5.010000 0.000000
v -2.500000 5.000000 1.000000
v -1.000000 5.000000 1.000000
v -1.000000 5.010000 1.000000
v -2.500000 5.010000 1.000000
v -2.500000 5.000000 0.000000
v -4.000000 5.000000 0.000000
v -4.000000 5.010000 0.000000
v -2.500000 5.010000 0.000000
v -4.000000 5.000000 1.000000
v -2.500000 5.000000 1.000000
v -2.500000 5.010000 1.000000
v -4.000000 5.010000 1.000000
v -4.000000 5.000000 0.000000
v -4.000000 5.000000 1.000000
v -4.000000 5.010000 1.000000
v -4.000000 5.010000 0.000000
v -1.000000 2.010000 1.000000
v -1.000000 2.010000 0.000000
v -0.000000 2.010000 0.000000
v -0.000000 2.010000 1.000000
v -1.000000 2.000000 1.000000
v -1.000000 2.000000 0.000000
v -0.000000 2.000000 0.000000
v -0.000000 2.000000 1.000000
v -1.000000 2.000000 0.000000
v -0.000000 2.000000 0.000000
v -0.000000 2.010000 0.000000
v -1.000000 2.010000 0.000000
v -0.000000 2.000000 0.000000
v -0.000000 2.000000 1.000000
v -0.000000 2.010000 1.000000
v -0.000000 2.010000 0.000000
v -1.000000 2.000000 1.000000
v -1.000000 2.000000 0.000000
v -1.000000 2.010000 0.000000
v -1.000000 2.010000 1.000000
v -0.000000 2.000000 1.000000
v -1.000000 2.000000 1.000000
v -1.000000 2.010000 1.000000
v -0.000000 2.010000 1.000000
vt 0.375000 0.750000
vt 0.125000 0.750000
vt 0.125000 0.250000
vt 0.375000 0.250000
vt 0.500000 1.000000
vt 0.000000 1.000000
vt 0.000000 0.000000
vt 0.500000 0.000000
vt 0.875000 0.750000
vt 0.875000 0.250000
vt 1.000000 1.000000
vt 1.000000 0.000000
vt 0.000000 1.000000
vt 0.000000 0.000000
vt 0.125000 0.250000
vt 0.125000 0.750000
vt 0.000000 0.000000
vt 0.500000 0.000000
vt 0.375000 0.250000
vt 0.125000 0.250000
vt 0.500000 1.000000
vt 0.000000 1.000000
vt 0.125000 0.750000
vt 0.375000 0.750000
vt 0.500000 0.000000
vt 1.000000 0.000000
vt 0.875000 0.250000
vt 0.375000 0.250000
vt 1.000000 1.000000
vt 0.500000 1.000000
vt 0.375000 0.750000
vt 0.875000 0.750000
vt 1.000000 0.000000
vt 1.000000 1.000000
vt 0.875000 0.750000
vt 0.875000 0.250000
vt 0.750000 0.750000
vt 0.250000 0.750000
vt 0.250000 0.250000
vt 0.750000 0.250000
vt 1.000000 1.000000
vt 0.000000 1.000000
vt 0.000000 0.000000
vt 1.000000 0.000000
vt 0.000000 1.000000
vt 0.000000 0.000000
vt 0.250000 0.250000
vt 0.250000 0.750000
vt 0.000000 0.000000
vt 1.000000 0.000000
vt 0.750000 0.250000
vt 0.250000 0.250000
vt 1.000000 1.000000
vt 0.000000 1.000000
vt 0.250000 0.750000
vt 0.750000 0.750000
vt 1.000000 0.000000
vt 1.000000 1.000000
vt 0.750000 0.750000
vt 0.750000 0.250000
vt 0.750000 0.750000
vt 0.250000 0.750000
vt 0.250000 0.250000
vt 0.750000 0.250000
vt 1.000000 1.000000
vt 0.000000 1.000000
vt 0.000000 0.000000
vt 1.000000 0.000000
vt 0.000000 1.000000
vt 0.000000 0.000000
vt 0.250000 0.250000
vt 0.250000 0.750000
vt 0.000000 0.000000
vt 1.000000 0.000000
vt 0.750000 0.250000
vt 0.250000 0.250000
vt 1.000000 1.000000
vt 0.000000 1.000000
vt 0.250000 0.750000
vt 0.750000 0.750000
vt 1.000000 0.000000
vt 1.000000 1.000000
vt 0.750000 0.750000
vt 0.750000 0.250000
vt 0.375000 0.750000
vt 0.125000 0.750000
vt 0.125000 0.250000
vt 0.375000 0.250000
vt 0.500000 1.000000
vt 0.000000 1.000000
vt 0.000000 0.000000
vt 0.500000 0.000000
vt 0.875000 0.750000
vt 0.875000 0.250000
vt 1.000000 1.000000
vt 1.000000 0.000000
vt 0.000000 1.000000
vt 0.000000 0.000000
vt 0.125000 0.250000
vt 0.125000 0.750000
vt 0.000000 0.000000
vt 0.500000 0.000000
vt 0.375000 0.250000
vt 0.125000 0.250000
vt 0.500000 1.000000
vt 0.000000 1.000000
vt 0.125000 0.750000
vt 0.375000 0.750000
vt 0.500000 0.000000
vt 1.000000 0.000000
vt 0.875000 0.250000
vt 0.375000 0.250000
vt 1.000000 1.000000
vt 0.500000 1.000000
vt 0.375000 0.750000
vt 0.875000 0.750000
vt 1.000000 0.000000
vt 1.000000 1.000000
vt 0.875000 0.750000
vt 0.875000 0.250000
vt 0.375000 0.750000
vt 0.125000 0.750000
vt 0.125000 0.250000
vt 0.375000 0.250000
vt 0.500000 1.000000
vt 0.000000 1.000000
vt 0.000000 0.000000
vt 0.500000 0.000000
vt 0.875000 0.750000
vt 0.875000 0.250000
vt 1.000000 1.000000
vt 1.000000 0.000000
vt 0.000000 1.000000
vt 0.000000 0.000000
vt 0.125000 0.250000
vt 0.125000 0.750000
vt 0.000000 0.000000
vt 0.500000 0.000000
vt 0.375000 0.250000
vt 0.125000 0.250000
vt 0.500000 1.000000
vt 0.000000 1.000000
vt 0.125000 0.750000
vt 0.375000 0.750000
vt 0.500000 0.000000
vt 1.000000 0.000000
vt 0.875000 0.250000
vt 0.375000 0.250000
vt 1.000000 1.000000
vt 0.500000 1.000000
vt 0.375000 0.750000
vt 0.875000 0.750000
vt 1.000000 0.000000
vt 1.000000 1.000000
vt 0.875000 0.750000
vt 0.875000 0.250000
vt 0.750000 0.750000
vt 0.250000 0.750000
vt 0.250000 0.250000
vt 0.750000 0.250000
vt 1.000000 1.000000
vt 0.000000 1.000000
vt 0.000000 0.000000
vt 1.000000 0.000000
vt 0.000000 1.000000
vt 0.000000 0.000000
vt 0.250000 0.250000
vt 0.250000 0.750000
vt 0.000000 0.000000
vt 1.000000 0.000000
vt 0.750000 0.250000
vt 0.250000 0.250000
vt 1.000000 1.000000
vt 0.000000 1.000000
vt 0.250000 0.750000
vt 0.750000 0.750000
vt 1.000000 0.000000
vt 1.000000 1.000000
vt 0.750000 0.750000
vt 0.750000 0.250000
vn -0.000000 1.000000 0.000000
vn -0.000000 1.000000 0.000000
vn -0.000000 1.000000 0.000000
vn -0.000000 1.000000 0.000000
vn -0.000000 -1.000000 0.000000
vn -0.000000 -1.000000 0.000000
vn -0.000000 -1.000000 0.000000
vn -0.000000 -1.000000 0.000000
vn -0.000000 1.000000 0.000000
vn -0.000000 1.000000 0.000000
vn -0.000000 -1.000000 0.000000
vn -0.000000 -1.000000 0.000000
vn 1.000000 0.000000 0.000000
vn 1.000000 0.000000 0.000000
vn 1.000000 0.000000 0.000000
vn 1.000000 -0.000000 -0.000000
vn -0.000000 0.000000 -1.000000
vn -0.000000 0.000000 -1.000000
vn 0.000000 -0.000000 -1.000000
vn -0.000000 0.000000 -1.000000
vn -0.000000 0.000000 1.000000
vn -0.000000 0.000000 1.000000
vn -0.000000 0.000000 1.000000
vn -0.000000 0.000000 1.000000
vn -0.000000 0.000000 -1.000000
vn -0.000000 0.000000 -1.000000
vn 0.000000 -0.000000 -1.000000
vn -0.000000 0.000000 -1.000000
vn -0.000000 0.000000 1.000000
vn -0.000000 0.000000 1.000000
vn -0.000000 0.000000 1.000000
vn -0.000000 0.000000 1.000000
vn -1.000000 0.000000 0.000000
vn -1.000000 0.000000 0.000000
vn -1.000000 0.000000 0.000000
vn -1.000000 0.000000 0.000000
vn -0.000000 1.000000 0.000000
vn -0.000000 1.000000 0.000000
vn -0.000000 1.000000 0.000000
vn -0.000000 1.000000 0.000000
vn -0.000000 -1.000000 0.000000
vn -0.000000 -1.000000 0.000000
vn -0.000000 -1.000000 0.000000
vn -0.000000 -1.000000 0.000000
vn -0.000000 0.000000 -1.000000
vn -0.000000 0.000000 -1.000000
vn -0.000000 0.000000 -1.000000
vn 0.000000 -0.000000 -1.000000
vn 1.000000 0.000000 0.000000
vn 1.000000 0.000000 0.000000
vn 1.000000 -0.000000 -0.000000
vn 1.000000 0.000000 0.000000
vn -1.000000 0.000000 0.000000
vn -1.000000 0.000000 0.000000
vn -1.000000 0.000000 0.000000
vn -1.000000 0.000000 0.000000
vn -0.000000 0.000000 1.000000
vn -0.000000 0.000000 1.000000
vn -0.000000 0.000000 1.000000
vn -0.000000 0.000000 1.000000
vn -0.000000 1.000000 0.000000
vn -0.000000 1.000000 0.000000
vn -0.000000 1.000000 0.000000
vn -0.000000 1.000000 0.000000
vn -0.000000 -1.000000 0.000000
vn -0.000000 -1.000000 0.000000
vn -0.000000 -1.000000 0.000000
vn -0.000000 -1.000000 0.000000
vn 1.000000 0.000000 0.000000
vn 1.000000 0.000000 0.000000
vn 1.000000 -0.000000 -0.000000
vn 1.000000 0.000000 0.000000
vn -0.000000 0.000000 1.000000
vn -0.000000 0.000000 1.000000
vn -0.000000 0.000000 1.000000
vn -0.000000 0.000000 1.000000
vn -0.000000 0.000000 -1.000000
vn -0.000000 0.000000 -1.000000
vn -0.000000 0.000000 -1.000000
vn 0.000000 -0.000000 -1.000000
vn -1.000000 0.000000 0.000000
vn -1.000000 0.000000 0.000000
vn -1.000000 0.000000 0.000000
vn -1.000000 0.000000 0.000000
vn -0.000000 1.000000 0.000000
vn -0.000000 1.000000 0.000000
vn -0.000000 1.000000 0.000000
vn -0.000000 1.000000 0.000000
vn 0.000000 -1.000000 -0.000000
vn 0.000000 -1.000000 -0.000000
vn 0.000000 -1.000000 -0.000000
vn 0.000000 -1.000000 -0.000000
vn -0.000000 1.000000 0.000000
vn -0.000000 1.000000 0.000000
vn 0.000000 -1.000000 -0.000000
vn 0.000000 -1.000000 -0.000000
vn 1.000000 0.000000 0.000000
vn 1.000000 0.000000 0.000000
vn 1.000000 0.000000 0.000000
vn 1.000000 -0.000000 -0.000000
vn -0.000000 0.000000 -1.000000
vn -0.000000 0.000000 -1.000000
vn 0.000000 -0.000000 -1.000000
vn -0.000000 0.000000 -1.000000
vn -0.000000 0.000000 1.000000
vn -0.000000 0.000000 1.000000
vn -0.000000 0.000000 1.000000
vn -0.000000 0.000000 1.000000
vn -0.000000 0.000000 -1.000000
vn -0.000000 0.000000 -1.000000
vn 0.000000 -0.000000 -1.000000
vn -0.000000 0.000000 -1.000000
vn -0.000000 0.000000 1.000000
vn -0.000000 0.000000 1.000000
vn -0.000000 0.000000 1.000000
vn -0.000000 0.000000 1.000000
vn -1.000000 0.000000 0.000000
vn -1.000000 0.000000 0.000000
vn -1.000000 0.000000 0.000000
vn -1.000000 0.000000 0.000000
vn -0.000000 1.000000 0.000000
vn -0.000000 1.000000 0.000000
vn -0.000000 1.000000 0.000000
vn -0.000000 1.000000 0.000000
vn 0.000000 -1.000000 -0.000000
vn 0.000000 -1.000000 -0.000000
vn 0.000000 -1.000000 -0.000000
vn 0.000000 -1.000000 -0.000000
vn -0.000000 1.000000 0.000000
vn -0.000000 1.000000 0.000000
vn 0.000000 -1.000000 -0.000000
vn 0.000000 -1.000000 -0.000000
vn 1.000000 0.000000 0.000000
vn 1.000000 0.000000 0.000000
vn 1.000000 0.000000 0.000000
vn 1.000000 -0.000000 -0.000000
vn -0.000000 0.000000 -1.000000
vn -0.000000 0.000000 -1.000000
vn 0.000000 -0.000000 -1.000000
vn -0.000000 0.000000 -1.000000
vn -0.000000 0.000000 1.000000
vn -0.000000 0.000000 1.000000
vn -0.000000 0.000000 1.000000
vn -0.000000 0.000000 1.000000
vn -0.000000 0.000000 -1.000000
vn -0.000000 0.000000 -1.000000
vn 0.000000 -0.000000 -1.000000
vn -0.000000 0.000000 -1.000000
vn -0.000000 0.000000 1.000000
vn -0.000000 0.000000 1.000000
vn -0.000000 0.000000 1.000000
vn -0.000000 0.000000 1.000000
vn -1.000000 0.000000 0.000000
vn -1.000000 0.000000 0.000000
vn -1.000000 0.000000 0.000000
vn -1.000000 0.000000 0.000000
vn -0.000000 1.000000 0.000000
vn -0.000000 1.000000 0.000000
vn -0.000000 1.000000 0.000000
vn -0.000000 1.000000 0.000000
vn -0.000000 -1.000000 0.000000
vn -0.000000 -1.000000 0.000000
vn -0.000000 -1.000000 0.000000
vn -0.000000 -1.000000 0.000000
vn -0.000000 0.000000 -1.000000
vn -0.000000 0.000000 -1.000000
vn -0.000000 0.000000 -1.000000
vn 0.000000 -0.000000 -1.000000
vn 1.000000 0.000000 0.000000
vn 1.000000 0.000000 0.000000
vn 1.000000 -0.000000 -0.000000
vn 1.000000 0.000000 0.000000
vn -1.000000 0.000000 0.000000
vn -1.000000 0.000000 0.000000
vn -1.000000 0.000000 0.000000
vn -1.000000 0.000000 0.000000
vn -0.000000 0.000000 1.000000
vn -0.000000 0.000000 1.000000
vn -0.000000 0.000000 1.000000
vn -0.000000 0.000000 1.000000
f 1/1/1 2/2/2 3/3/3
f 5/5/5 8/8/8 7/7/7
f 9/9/9 1/1/1 4/4/4
f 11/11/11 12/12/12 8/8/8
f 13/13/13 14/14/14 15/15/15
f 17/17/17 18/18/18 19/19/19
f 21/21/21 22/22/22 23/23/23
f 25/25/25 26/26/26 27/27/27
f 29/29/29 30/30/30 31/31/31
f 33/33/33 34/34/34 35/35/35
f 37/37/37 40/40/40 39/39/39
f 41/41/41 42/42/42 43/43/43
f 45/45/45 48/48/48 47/47/47
f 49/49/49 52/52/52 51/51/51
f 53/53/53 56/56/56 55/55/55
f 57/57/57 60/60/60 59/59/59
f 61/61/61 64/64/64 63/63/63
f 65/65/65 66/66/66 67/67/67
f 69/69/69 72/72/72 71/71/71
f 73/73/73 76/76/76 75/75/75
f 77/77/77 80/80/80 79/79/79
f 81/81/81 84/84/84 83/83/83
f 85/85/85 86/86/86 87/87/87
f 89/89/89 92/92/92 91/91/91
f 93/93/93 85/85/85 88/88/88
f 95/95/95 96/96/96 92/92/92
f 97/97/97 98/98/98 99/99/99
f 101/101/101 102/102/102 103/103/103
f 105/105/105 106/106/106 107/107/107
f 109/109/109 110/110/110 111/111/111
f 113/113/113 114/114/114 115/115/115
f 117/117/117 118/118/118 119/119/119
f 121/121/121 122/122/122 123/123/123
f 125/125/125 128/128/128 127/127/127
f 129/129/129 121/121/121 124/124/124
f 131/131/131 132/132/132 128/128/128
f 133/133/133 134/134/134 135/135/135
f 137/137/137 138/138/138 139/139/139
f 141/141/141 142/142/142 143/143/143
f 145/145/145 146/146/146 147/147/147
f 149/149/149 150/150/150 151/151/151
f 153/153/153 154/154/154 155/155/155
f 157/157/157 160/160/160 159/159/159
f 161/161/161 162/162/162 163/163/163
f 165/165/165 168/168/168 167/167/167
f 169/169/169 172/172/172 171/171/171
f 173/173/173 176/176/176 175/175/175
f 177/177/177 180/180/180 179/179/179
f 1/1/1 3/3/3 4/4/4
f 5/5/5 7/7/7 6/6/6
f 9/9/9 4/4/4 10/10/10
f 11/11/11 8/8/8 5/5/5
f 13/13/13 15/15/15 16/16/16
f 17/17/17 19/19/19 20/20/20
f 21/21/21 23/23/23 24/24/24
f 25/25/25 27/27/27 28/28/28
f 29/29/29 31/31/31 32/32/32
f 33/33/33 35/35/35 36/36/36
f 37/37/37 39/39/39 38/38/38
f 41/41/41 43/43/43 44/44/44
f 45/45/45 47/47/47 46/46/46
f 49/49/49 51/51/51 50/50/50
f 53/53/53 55/55/55 54/54/54
f 57/57/57 59/59/59 58/58/58
f 61/61/61 63/63/63 62/62/62
f 65/65/65 67/67/67 68/68/68
f 69/69/69 71/71/71 70/70/70
f 73/73/73 75/75/75 74/74/74
f 77/77/77 79/79/79 78/78/78
f 81/81/81 83/83/83 82/82/82
f 85/85/85 87/87/87 88/88/88
f 89/89/89 91/91/91 90/90/90
f 93/93/93 88/88/88 94/94/94
f 95/95/95 92/92/92 89/89/89
f 97/97/97 99/99/99 100/100/100
f 101/101/101 103/103/103 104/104/104
f 105/105/105 107/107/107 108/108/108
f 109/109/109 111/111/111 112/112/112
f 113/113/113 115/115/115 116/116/116
f 117/117/117 119/119/119 120/120/120
f 121/121/121 123/123/123 124/124/124
f 125/125/125 127/127/127 126/126/126
f 129/129/129 124/124/124 130/130/130
f 131/131/131 128/128/128 125/125/125
f 133/133/133 135/135/135 136/136/136
f 137/137/137 139/139/139 140/140/140
f 141/141/141 143/143/143 144/144/144
f 145/145/145 147/147/147 148/148/148
f 149/149/149 151/151/151 152/152/152
f 153/153/153 155/155/155 156/156/156
f 157/157/157 159/159/159 158/158/158
f 161/161/161 163/163/163 164/164/164
f 165/165/165 167/167/167 166/166/166
f 169/169/169 171/171/171 170/170/170
f 173/173/173 175/175/175 174/174/174
f 177/177/177 179/179/179 178/178/178

