g mesh_load_distribution0
v -0.000000 2.610000 1.000000
v -0.000000 2.610000 0.000000
v -1.000000 2.610000 1.000000
v -1.000000 2.610000 0.000000
v -1.000000 2.610000 1.000000
v -1.000000 3.610000 1.000000
v -0.000000 2.610000 1.000000
v -0.000000 3.610000 1.000000
v -1.000000 2.610000 0.000000
v -1.000000 3.610000 0.000000
v -1.000000 2.610000 1.000000
v -1.000000 3.610000 1.000000
v -0.000000 2.610000 0.000000
v -0.000000 3.610000 0.000000
v -1.000000 2.610000 0.000000
v -1.000000 3.610000 0.000000
v -0.000000 2.610000 1.000000
v -0.000000 3.610000 1.000000
v -0.000000 2.610000 0.000000
v -0.000000 3.610000 0.000000
v -0.000000 3.610000 1.000000
v -0.000000 3.610000 0.000000
v -1.000000 3.610000 1.000000
v -1.000000 3.610000 0.000000
v -4.000000 2.610000 1.000000
v -4.000000 2.610000 0.000000
v -5.000000 2.610000 1.000000
v -5.000000 2.610000 0.000000
v -5.000000 2.610000 1.000000
v -5.000000 3.610000 1.000000
v -4.000000 2.610000 1.000000
v -4.000000 3.610000 1.000000
v -5.000000 2.610000 0.000000
v -5.000000 3.610000 0.000000
v -5.000000 2.610000 1.000000
v -5.000000 3.610000 1.000000
v -4.000000 2.610000 0.000000
v -4.000000 3.610000 0.000000
v -5.000000 2.610000 0.000000
v -5.000000 3.610000 0.000000
v -4.000000 2.610000 1.000000
v -4.000000 3.610000 1.000000
v -4.000000 2.610000 0.000000
v -4.000000 3.610000 0.000000
v -4.000000 3.610000 1.000000
v -4.000000 3.610000 0.000000
v -5.000000 3.610000 1.000000
v -5.000000 3.610000 0.000000
v -8.000000 2.610000 1.000000
v -8.000000 2.610000 0.000000
v -9.000000 2.610000 1.000000
v -9.000000 2.610000 0.000000
v -9.000000 2.610000 1.000000
v -9.000000 3.610000 1.000000
v -8.000000 2.610000 1.000000
v -8.000000 3.610000 1.000000
v -9.000000 2.610000 0.000000
v -9.000000 3.610000 0.000000
v -9.000000 2.610000 1.000000
v -9.000000 3.610000 1.000000
v -8.000000 2.610000 0.000000
v -8.000000 3.610000 0.000000
v -9.000000 2.610000 0.000000
v -9.000000 3.610000 0.000000
v -8.000000 2.610000 1.000000
v -8.000000 3.610000 1.000000
v -8.000000 2.610000 0.000000
v -8.000000 3.610000 0.000000
v -8.000000 3.610000 1.000000
v -8.000000 3.610000 0.000000
v -9.000000 3.610000 1.000000
v -9.000000 3.610000 0.000000
vt 0.333333 0.666667
vt 0.333333 0.998535
vt 0.665202 0.666667
vt 0.665202 0.998535
vt 0.000000 0.666667
vt 0.000000 0.998535
vt 0.331868 0.666667
vt 0.331868 0.998535
vt 0.000000 0.333333
vt 0.000000 0.665202
vt 0.333333 0.333333
vt 0.333333 0.665202
vt 0.998535 0.500000
vt 0.666667 0.500000
vt 0.998535 0.833333
vt 0.666667 0.833333
vt 0.000000 0.000000
vt 0.000000 0.331868
vt 0.333333 0.000000
vt 0.333333 0.331868
vt 0.998535 0.000000
vt 0.666667 0.000000
vt 0.998535 0.333333
vt 0.666667 0.333333
vt 0.333333 0.666667
vt 0.333333 0.998535
vt 0.665202 0.666667
vt 0.665202 0.998535
vt 0.000000 0.666667
vt 0.000000 0.998535
vt 0.331868 0.666667
vt 0.331868 0.998535
vt 0.000000 0.333333
vt 0.000000 0.665202
vt 0.333333 0.333333
vt 0.333333 0.665202
vt 0.998535 0.500000
vt 0.666667 0.500000
vt 0.998535 0.833333
vt 0.666667 0.833333
vt 0.000000 0.000000
vt 0.000000 0.331868
vt 0.333333 0.000000
vt 0.333333 0.331868
vt 0.998535 0.000000
vt 0.666667 0.000000
vt 0.998535 0.333333
vt 0.666667 0.333333
vt 0.333333 0.666667
vt 0.333333 0.998535
vt 0.665202 0.666667
vt 0.665202 0.998535
vt 0.000000 0.666667
vt 0.000000 0.998535
vt 0.331868 0.666667
vt 0.331868 0.998535
vt 0.000000 0.333333
vt 0.000000 0.665202
vt 0.333333 0.333333
vt 0.333333 0.665202
vt 0.998535 0.500000
vt 0.666667 0.500000
vt 0.998535 0.833333
vt 0.666667 0.833333
vt 0.000000 0.000000
vt 0.000000 0.331868
vt 0.333333 0.000000
vt 0.333333 0.331868
vt 0.998535 0.000000
vt 0.666667 0.000000
vt 0.998535 0.333333
vt 0.666667 0.333333
vn -0.000000 -1.000000 0.000000
vn -0.000000 -1.000000 0.000000
vn -0.000000 -1.000000 0.000000
vn -0.000000 -1.000000 0.000000
vn -0.000000 -0.000000 1.000000
vn -0.000000 -0.000000 1.000000
vn -0.000000 -0.000000 1.000000
vn -0.000000 -0.000000 1.000000
vn -1.000000 0.000000 0.000000
vn -1.000000 0.000000 0.000000
vn -1.000000 0.000000 0.000000
vn -1.000000 0.000000 0.000000
vn -0.000000 0.000000 -1.000000
vn -0.000000 0.000000 -1.000000
vn -0.000000 0.000000 -1.000000
vn -0.000000 0.000000 -1.000000
vn 1.000000 0.000000 0.000000
vn 1.000000 0.000000 0.000000
vn 1.000000 0.000000 0.000000
vn 1.000000 0.000000 0.000000
vn 0.000000 1.000000 -0.000000
vn 0.000000 1.000000 -0.000000
vn 0.000000 1.000000 -0.000000
vn 0.000000 1.000000 -0.000000
vn -0.000000 -1.000000 0.000000
vn -0.000000 -1.000000 0.000000
vn -0.000000 -1.000000 0.000000
vn -0.000000 -1.000000 0.000000
vn -0.000000 -0.000000 1.000000
vn -0.000000 -0.000000 1.000000
vn -0.000000 -0.000000 1.000000
vn -0.000000 -0.000000 1.000000
vn -1.000000 0.000000 0.000000
vn -1.000000 0.000000 0.000000
vn -1.000000 0.000000 0.000000
vn -1.000000 0.000000 0.000000
vn -0.000000 0.000000 -1.000000
vn -0.000000 0.000000 -1.000000
vn -0.000000 0.000000 -1.000000
vn -0.000000 0.000000 -1.000000
vn 1.000000 0.000000 0.000000
vn 1.000000 0.000000 0.000000
vn 1.000000 0.000000 0.000000
vn 1.000000 0.000000 0.000000
vn 0.000000 1.000000 -0.000000
vn 0.000000 1.000000 -0.000000
vn 0.000000 1.000000 -0.000000
vn 0.000000 1.000000 -0.000000
vn -0.000000 -1.000000 0.000000
vn -0.000000 -1.000000 0.000000
vn -0.000000 -1.000000 0.000000
vn -0.000000 -1.000000 0.000000
vn -0.000000 -0.000000 1.000000
vn -0.000000 -0.000000 1.000000
vn -0.000000 -0.000000 1.000000
vn -0.000000 -0.000000 1.000000
vn -1.000000 0.000000 0.000000
vn -1.000000 0.000000 0.000000
vn -1.000000 0.000000 0.000000
vn -1.000000 0.000000 0.000000
vn -0.000000 0.000000 -1.000000
vn -0.000000 0.000000 -1.000000
vn -0.000000 0.000000 -1.000000
vn -0.000000 0.000000 -1.000000
vn 1.000000 0.000000 0.000000
vn 1.000000 0.000000 0.000000
vn 1.000000 0.000000 0.000000
vn 1.000000 0.000000 0.000000
vn 0.000000 1.000000 -0.000000
vn 0.000000 1.000000 -0.000000
vn 0.000000 1.000000 -0.000000
vn 0.000000 1.000000 -0.000000
f 2/2/2 1/1/1 3/3/3
f 6/6/6 5/5/5 7/7/7
f 10/10/10 9/9/9 11/11/11
f 14/14/14 13/13/13 15/15/15
f 18/18/18 17/17/17 19/19/19
f 22/22/22 24/24/24 23/23/23
f 26/26/26 25/25/25 27/27/27
f 30/30/30 29/29/29 31/31/31
f 34/34/34 33/33/33 35/35/35
f 38/38/38 37/37/37 39/39/39
f 42/42/42 41/41/41 43/43/43
f 46/46/46 48/48/48 47/47/47
f 50/50/50 49/49/49 51/51/51
f 54/54/54 53/53/53 55/55/55
f 58/58/58 57/57/57 59/59/59
f 62/62/62 61/61/61 63/63/63
f 66/66/66 65/65/65 67/67/67
f 70/70/70 72/72/72 71/71/71
f 2/2/2 3/3/3 4/4/4
f 6/6/6 7/7/7 8/8/8
f 10/10/10 11/11/11 12/12/12
f 14/14/14 15/15/15 16/16/16
f 18/18/18 19/19/19 20/20/20
f 22/22/22 23/23/23 21/21/21
f 26/26/26 27/27/27 28/28/28
f 30/30/30 31/31/31 32/32/32
f 34/34/34 35/35/35 36/36/36
f 38/38/38 39/39/39 40/40/40
f 42/42/42 43/43/43 44/44/44
f 46/46/46 47/47/47 45/45/45
f 50/50/50 51/51/51 52/52/52
f 54/54/54 55/55/55 56/56/56
f 58/58/58 59/59/59 60/60/60
f 62/62/62 63/63/63 64/64/64
f 66/66/66 67/67/67 68/68/68
f 70/70/70 71/71/71 69/69/69

