g mesh_DD_EE0
v -4.000000 4.760000 1.000000
v -4.000000 4.760000 5.500000
v -5.000000 4.760000 5.500000
v -5.000000 4.760000 1.000000
v -4.000000 4.750000 1.000000
v -4.000000 4.750000 5.500000
v -5.000000 4.750000 5.500000
v -5.000000 4.750000 1.000000
v -4.000000 4.750000 5.500000
v -5.000000 4.750000 5.500000
v -5.000000 4.760000 5.500000
v -4.000000 4.760000 5.500000
v -5.000000 4.750000 5.500000
v -5.000000 4.750000 1.000000
v -5.000000 4.760000 1.000000
v -5.000000 4.760000 5.500000
v -4.000000 4.750000 1.000000
v -4.000000 4.750000 5.500000
v -4.000000 4.760000 5.500000
v -4.000000 4.760000 1.000000
v -5.000000 4.750000 1.000000
v -4.000000 4.750000 1.000000
v -4.000000 4.760000 1.000000
v -5.000000 4.760000 1.000000
v -4.000000 4.010000 5.500000
v -5.000000 4.010000 5.500000
v -5.000000 4.010000 0.000000
v -4.000000 4.010000 0.000000
v -4.000000 4.000000 5.500000
v -5.000000 4.000000 5.500000
v -5.000000 4.000000 0.000000
v -4.000000 4.000000 0.000000
v -5.000000 4.000000 5.500000
v -5.000000 4.000000 0.000000
v -5.000000 4.010000 0.000000
v -5.000000 4.010000 5.500000
v -5.000000 4.000000 0.000000
v -4.000000 4.000000 0.000000
v -4.000000 4.010000 0.000000
v -5.000000 4.010000 0.000000
v -4.000000 4.000000 5.500000
v -5.000000 4.000000 5.500000
v -5.000000 4.010000 5.500000
v -4.000000 4.010000 5.500000
v -4.000000 4.000000 0.000000
v -4.000000 4.000000 5.500000
v -4.000000 4.010000 5.500000
v -4.000000 4.010000 0.000000
v -5.000000 2.260000 1.000000
v -5.000000 2.260000 0.000000
v -4.000000 2.260000 0.000000
v -4.000000 2.260000 1.000000
v -5.000000 2.250000 1.000000
v -5.000000 2.250000 0.000000
v -4.000000 2.250000 0.000000
v -4.000000 2.250000 1.000000
v -5.000000 2.250000 0.000000
v -4.000000 2.250000 0.000000
v -4.000000 2.260000 0.000000
v -5.000000 2.260000 0.000000
v -4.000000 2.250000 0.000000
v -4.000000 2.250000 1.000000
v -4.000000 2.260000 1.000000
v -4.000000 2.260000 0.000000
v -5.000000 2.250000 1.000000
v -5.000000 2.250000 0.000000
v -5.000000 2.260000 0.000000
v -5.000000 2.260000 1.000000
v -4.000000 2.250000 1.000000
v -5.000000 2.250000 1.000000
v -5.000000 2.260000 1.000000
v -4.000000 2.260000 1.000000
v -0.000000 4.760000 1.000000
v -0.000000 4.760000 5.500000
v -1.000000 4.760000 5.500000
v -1.000000 4.760000 1.000000
v -0.000000 4.750000 1.000000
v -0.000000 4.750000 5.500000
v -1.000000 4.750000 5.500000
v -1.000000 4.750000 1.000000
v -0.000000 4.750000 5.500000
v -1.000000 4.750000 5.500000
v -1.000000 4.760000 5.500000
v -0.000000 4.760000 5.500000
v -1.000000 4.750000 5.500000
v -1.000000 4.750000 1.000000
v -1.000000 4.760000 1.000000
v -1.000000 4.760000 5.500000
v -0.000000 4.750000 1.000000
v -0.000000 4.750000 5.500000
v -0.000000 4.760000 5.500000
v -0.000000 4.760000 1.000000
v -1.000000 4.750000 1.000000
v -0.000000 4.750000 1.000000
v -0.000000 4.760000 1.000000
v -1.000000 4.760000 1.000000
v -0.000000 4.010000 5.500000
v -1.000000 4.010000 5.500000
v -1.000000 4.010000 0.000000
v -0.000000 4.010000 0.000000
v -0.000000 4.000000 5.500000
v -1.000000 4.000000 5.500000
v -1.000000 4.000000 0.000000
v -0.000000 4.000000 0.000000
v -1.000000 4.000000 5.500000
v -1.000000 4.000000 0.000000
v -1.000000 4.010000 0.000000
v -1.000000 4.010000 5.500000
v -1.000000 4.000000 0.000000
v -0.000000 4.000000 0.000000
v -0.000000 4.010000 0.000000
v -1.000000 4.010000 0.000000
v -0.000000 4.000000 5.500000
v -1.000000 4.000000 5.500000
v -1.000000 4.010000 5.500000
v -0.000000 4.010000 5.500000
v -0.000000 4.000000 0.000000
v -0.000000 4.000000 5.500000
v -0.000000 4.010000 5.500000
v -0.000000 4.010000 0.000000
v -1.000000 2.260000 1.000000
v -1.000000 2.260000 0.000000
v -0.000000 2.260000 0.000000
v -0.000000 2.260000 1.000000
v -1.000000 2.250000 1.000000
v -1.000000 2.250000 0.000000
v -0.000000 2.250000 0.000000
v -0.000000 2.250000 1.000000
v -1.000000 2.250000 0.000000
v -0.000000 2.250000 0.000000
v -0.000000 2.260000 0.000000
v -1.000000 2.260000 0.000000
v -0.000000 2.250000 0.000000
v -0.000000 2.250000 1.000000
v -0.000000 2.260000 1.000000
v -0.000000 2.260000 0.000000
v -1.000000 2.250000 1.000000
v -1.000000 2.250000 0.000000
v -1.000000 2.260000 0.000000
v -1.000000 2.260000 1.000000
v -0.000000 2.250000 1.000000
v -1.000000 2.250000 1.000000
v -1.000000 2.260000 1.000000
v -0.000000 2.260000 1.000000
vt 0.750000 0.750000
vt 0.250000 0.750000
vt 0.250000 0.250000
vt 0.750000 0.250000
vt 1.000000 1.000000
vt 0.000000 1.000000
vt 0.000000 0.000000
vt 1.000000 0.000000
vt 0.000000 1.000000
vt 0.000000 0.000000
vt 0.250000 0.250000
vt 0.250000 0.750000
vt 0.000000 0.000000
vt 1.000000 0.000000
vt 0.750000 0.250000
vt 0.250000 0.250000
vt 1.000000 1.000000
vt 0.000000 1.000000
vt 0.250000 0.750000
vt 0.750000 0.750000
vt 1.000000 0.000000
vt 1.000000 1.000000
vt 0.750000 0.750000
vt 0.750000 0.250000
vt 0.750000 0.750000
vt 0.250000 0.750000
vt 0.250000 0.250000
vt 0.750000 0.250000
vt 1.000000 1.000000
vt 0.000000 1.000000
vt 0.000000 0.000000
vt 1.000000 0.000000
vt 0.000000 1.000000
vt 0.000000 0.000000
vt 0.250000 0.250000
vt 0.250000 0.750000
vt 0.000000 0.000000
vt 1.000000 0.000000
vt 0.750000 0.250000
vt 0.250000 0.250000
vt 1.000000 1.000000
vt 0.000000 1.000000
vt 0.250000 0.750000
vt 0.750000 0.750000
vt 1.000000 0.000000
vt 1.000000 1.000000
vt 0.750000 0.750000
vt 0.750000 0.250000
vt 0.750000 0.750000
vt 0.250000 0.750000
vt 0.250000 0.250000
vt 0.750000 0.250000
vt 1.000000 1.000000
vt 0.000000 1.000000
vt 0.000000 0.000000
vt 1.000000 0.000000
vt 0.000000 1.000000
vt 0.000000 0.000000
vt 0.250000 0.250000
vt 0.250000 0.750000
vt 0.000000 0.000000
vt 1.000000 0.000000
vt 0.750000 0.250000
vt 0.250000 0.250000
vt 1.000000 1.000000
vt 0.000000 1.000000
vt 0.250000 0.750000
vt 0.750000 0.750000
vt 1.000000 0.000000
vt 1.000000 1.000000
vt 0.750000 0.750000
vt 0.750000 0.250000
vt 0.750000 0.750000
vt 0.250000 0.750000
vt 0.250000 0.250000
vt 0.750000 0.250000
vt 1.000000 1.000000
vt 0.000000 1.000000
vt 0.000000 0.000000
vt 1.000000 0.000000
vt 0.000000 1.000000
vt 0.000000 0.000000
vt 0.250000 0.250000
vt 0.250000 0.750000
vt 0.000000 0.000000
vt 1.000000 0.000000
vt 0.750000 0.250000
vt 0.250000 0.250000
vt 1.000000 1.000000
vt 0.000000 1.000000
vt 0.250000 0.750000
vt 0.750000 0.750000
vt 1.000000 0.000000
vt 1.000000 1.000000
vt 0.750000 0.750000
vt 0.750000 0.250000
vt 0.750000 0.750000
vt 0.250000 0.750000
vt 0.250000 0.250000
vt 0.750000 0.250000
vt 1.000000 1.000000
vt 0.000000 1.000000
vt 0.000000 0.000000
vt 1.000000 0.000000
vt 0.000000 1.000000
vt 0.000000 0.000000
vt 0.250000 0.250000
vt 0.250000 0.750000
vt 0.000000 0.000000
vt 1.000000 0.000000
vt 0.750000 0.250000
vt 0.250000 0.250000
vt 1.000000 1.000000
vt 0.000000 1.000000
vt 0.250000 0.750000
vt 0.750000 0.750000
vt 1.000000 0.000000
vt 1.000000 1.000000
vt 0.750000 0.750000
vt 0.750000 0.250000
vt 0.750000 0.750000
vt 0.250000 0.750000
vt 0.250000 0.250000
vt 0.750000 0.250000
vt 1.000000 1.000000
vt 0.000000 1.000000
vt 0.000000 0.000000
vt 1.000000 0.000000
vt 0.000000 1.000000
vt 0.000000 0.000000
vt 0.250000 0.250000
vt 0.250000 0.750000
vt 0.000000 0.000000
vt 1.000000 0.000000
vt 0.750000 0.250000
vt 0.250000 0.250000
vt 1.000000 1.000000
vt 0.000000 1.000000
vt 0.250000 0.750000
vt 0.750000 0.750000
vt 1.000000 0.000000
vt 1.000000 1.000000
vt 0.750000 0.750000
vt 0.750000 0.250000
vn -0.000000 1.000000 0.000000
vn -0.000000 1.000000 0.000000
vn -0.000000 1.000000 0.000000
vn -0.000000 1.000000 0.000000
vn 0.000000 -1.000000 -0.000000
vn 0.000000 -1.000000 -0.000000
vn 0.000000 -1.000000 -0.000000
vn 0.000000 -1.000000 -0.000000
vn -0.000000 0.000000 1.000000
vn -0.000000 0.000000 1.000000
vn -0.000000 0.000000 1.000000
vn -0.000000 0.000000 1.000000
vn -1.000000 0.000000 0.000000
vn -1.000000 0.000000 0.000000
vn -1.000000 0.000000 0.000000
vn -1.000000 0.000000 0.000000
vn 1.000000 0.000000 0.000000
vn 1.000000 0.000000 0.000000
vn 1.000000 -0.000000 -0.000000
vn 1.000000 0.000000 0.000000
vn -0.000000 0.000000 -1.000000
vn -0.000000 0.000000 -1.000000
vn -0.000000 0.000000 -1.000000
vn 0.000000 -0.000000 -1.000000
vn -0.000000 1.000000 0.000000
vn -0.000000 1.000000 0.000000
vn -0.000000 1.000000 0.000000
vn -0.000000 1.000000 0.000000
vn -0.000000 -1.000000 0.000000
vn -0.000000 -1.000000 0.000000
vn -0.000000 -1.000000 0.000000
vn -0.000000 -1.000000 0.000000
vn -1.000000 0.000000 0.000000
vn -1.000000 0.000000 0.000000
vn -1.000000 0.000000 0.000000
vn -1.000000 0.000000 0.000000
vn -0.000000 0.000000 -1.000000
vn -0.000000 0.000000 -1.000000
vn -0.000000 0.000000 -1.000000
vn 0.000000 -0.000000 -1.000000
vn -0.000000 0.000000 1.000000
vn -0.000000 0.000000 1.000000
vn -0.000000 0.000000 1.000000
vn -0.000000 0.000000 1.000000
vn 1.000000 0.000000 0.000000
vn 1.000000 0.000000 0.000000
vn 1.000000 -0.000000 -0.000000
vn 1.000000 0.000000 0.000000
vn -0.000000 1.000000 0.000000
vn -0.000000 1.000000 0.000000
vn -0.000000 1.000000 0.000000
vn -0.000000 1.000000 0.000000
vn -0.000000 -1.000000 0.000000
vn -0.000000 -1.000000 0.000000
vn -0.000000 -1.000000 0.000000
vn -0.000000 -1.000000 0.000000
vn -0.000000 0.000000 -1.000000
vn -0.000000 0.000000 -1.000000
vn -0.000000 0.000000 -1.000000
vn 0.000000 -0.000000 -1.000000
vn 1.000000 0.000000 0.000000
vn 1.000000 0.000000 0.000000
vn 1.000000 -0.000000 -0.000000
vn 1.000000 0.000000 0.000000
vn -1.000000 0.000000 0.000000
vn -1.000000 0.000000 0.000000
vn -1.000000 0.000000 0.000000
vn -1.000000 0.000000 0.000000
vn -0.000000 0.000000 1.000000
vn -0.000000 0.000000 1.000000
vn -0.000000 0.000000 1.000000
vn -0.000000 0.000000 1.000000
vn -0.000000 1.000000 0.000000
vn -0.000000 1.000000 0.000000
vn -0.000000 1.000000 0.000000
vn -0.000000 1.000000 0.000000
vn 0.000000 -1.000000 -0.000000
vn 0.000000 -1.000000 -0.000000
vn 0.000000 -1.000000 -0.000000
vn 0.000000 -1.000000 -0.000000
vn -0.000000 0.000000 1.000000
vn -0.000000 0.000000 1.000000
vn -0.000000 0.000000 1.000000
vn -0.000000 0.000000 1.000000
vn -1.000000 0.000000 0.000000
vn -1.000000 0.000000 0.000000
vn -1.000000 0.000000 0.000000
vn -1.000000 0.000000 0.000000
vn 1.000000 0.000000 0.000000
vn 1.000000 0.000000 0.000000
vn 1.000000 -0.000000 -0.000000
vn 1.000000 0.000000 0.000000
vn -0.000000 0.000000 -1.000000
vn -0.000000 0.000000 -1.000000
vn -0.000000 0.000000 -1.000000
vn 0.000000 -0.000000 -1.000000
vn -0.000000 1.000000 0.000000
vn -0.000000 1.000000 0.000000
vn -0.000000 1.000000 0.000000
vn -0.000000 1.000000 0.000000
vn -0.000000 -1.000000 0.000000
vn -0.000000 -1.000000 0.000000
vn -0.000000 -1.000000 0.000000
vn -0.000000 -1.000000 0.000000
vn -1.000000 0.000000 0.000000
vn -1.000000 0.000000 0.000000
vn -1.000000 0.000000 0.000000
vn -1.000000 0.000000 0.000000
vn -0.000000 0.000000 -1.000000
vn -0.000000 0.000000 -1.000000
vn -0.000000 0.000000 -1.000000
vn 0.000000 -0.000000 -1.000000
vn -0.000000 0.000000 1.000000
vn -0.000000 0.000000 1.000000
vn -0.000000 0.000000 1.000000
vn -0.000000 0.000000 1.000000
vn 1.000000 0.000000 0.000000
vn 1.000000 0.000000 0.000000
vn 1.000000 -0.000000 -0.000000
vn 1.000000 0.000000 0.000000
vn -0.000000 1.000000 0.000000
vn -0.000000 1.000000 0.000000
vn -0.000000 1.000000 0.000000
vn -0.000000 1.000000 0.000000
vn -0.000000 -1.000000 0.000000
vn -0.000000 -1.000000 0.000000
vn -0.000000 -1.000000 0.000000
vn -0.000000 -1.000000 0.000000
vn -0.000000 0.000000 -1.000000
vn -0.000000 0.000000 -1.000000
vn -0.000000 0.000000 -1.000000
vn 0.000000 -0.000000 -1.000000
vn 1.000000 0.000000 0.000000
vn 1.000000 0.000000 0.000000
vn 1.000000 -0.000000 -0.000000
vn 1.000000 0.000000 0.000000
vn -1.000000 0.000000 0.000000
vn -1.000000 0.000000 0.000000
vn -1.000000 0.000000 0.000000
vn -1.000000 0.000000 0.000000
vn -0.000000 0.000000 1.000000
vn -0.000000 0.000000 1.000000
vn -0.000000 0.000000 1.000000
vn -0.000000 0.000000 1.000000
f 1/1/1 4/4/4 3/3/3
f 5/5/5 6/6/6 7/7/7
f 9/9/9 12/12/12 11/11/11
f 13/13/13 16/16/16 15/15/15
f 17/17/17 20/20/20 19/19/19
f 21/21/21 24/24/24 23/23/23
f 25/25/25 28/28/28 27/27/27
f 29/29/29 30/30/30 31/31/31
f 33/33/33 36/36/36 35/35/35
f 37/37/37 40/40/40 39/39/39
f 41/41/41 44/44/44 43/43/43
f 45/45/45 48/48/48 47/47/47
f 49/49/49 52/52/52 51/51/51
f 53/53/53 54/54/54 55/55/55
f 57/57/57 60/60/60 59/59/59
f 61/61/61 64/64/64 63/63/63
f 65/65/65 68/68/68 67/67/67
f 69/69/69 72/72/72 71/71/71
f 73/73/73 76/76/76 75/75/75
f 77/77/77 78/78/78 79/79/79
f 81/81/81 84/84/84 83/83/83
f 85/85/85 88/88/88 87/87/87
f 89/89/89 92/92/92 91/91/91
f 93/93/93 96/96/96 95/95/95
f 97/97/97 100/100/100 99/99/99
f 101/101/101 102/102/102 103/103/103
f 105/105/105 108/108/108 107/107/107
f 109/109/109 112/112/112 111/111/111
f 113/113/113 116/116/116 115/115/115
f 117/117/117 120/120/120 119/119/119
f 121/121/121 124/124/124 123/123/123
f 125/125/125 126/126/126 127/127/127
f 129/129/129 132/132/132 131/131/131
f 133/133/133 136/136/136 135/135/135
f 137/137/137 140/140/140 139/139/139
f 141/141/141 144/144/144 143/143/143
f 1/1/1 3/3/3 2/2/2
f 5/5/5 7/7/7 8/8/8
f 9/9/9 11/11/11 10/10/10
f 13/13/13 15/15/15 14/14/14
f 17/17/17 19/19/19 18/18/18
f 21/21/21 23/23/23 22/22/22
f 25/25/25 27/27/27 26/26/26
f 29/29/29 31/31/31 32/32/32
f 33/33/33 35/35/35 34/34/34
f 37/37/37 39/39/39 38/38/38
f 41/41/41 43/43/43 42/42/42
f 45/45/45 47/47/47 46/46/46
f 49/49/49 51/51/51 50/50/50
f 53/53/53 55/55/55 56/56/56
f 57/57/57 59/59/59 58/58/58
f 61/61/61 63/63/63 62/62/62
f 65/65/65 67/67/67 66/66/66
f 69/69/69 71/71/71 70/70/70
f 73/73/73 75/75/75 74/74/74
f 77/77/77 79/79/79 80/80/80
f 81/81/81 83/83/83 82/82/82
f 85/85/85 87/87/87 86/86/86
f 89/89/89 91/91/91 90/90/90
f 93/93/93 95/95/95 94/94/94
f 97/97/97 99/99/99 98/98/98
f 101/101/101 103/103/103 104/104/104
f 105/105/105 107/107/107 106/106/106
f 109/109/109 111/111/111 110/110/110
f 113/113/113 115/115/115 114/114/114
f 117/117/117 119/119/119 118/118/118
f 121/121/121 123/123/123 122/122/122
f 125/125/125 127/127/127 128/128/128
f 129/129/129 131/131/131 130/130/130
f 133/133/133 135/135/135 134/134/134
f 137/137/137 139/139/139 138/138/138
f 141/141/141 143/143/143 142/142/142

