g mesh_slab_section_DD0
v 0.010000 3.250000 5.510000
v -1.010000 3.250000 5.510000
v 0.010000 3.250000 -0.010000
v -1.010000 3.250000 -0.010000
v 0.010000 3.250000 -0.010000
v 0.010000 2.990000 -0.010000
v 0.010000 3.250000 5.510000
v 0.010000 2.990000 5.510000
v -1.010000 3.250000 -0.010000
v -1.010000 2.990000 -0.010000
v 0.010000 3.250000 -0.010000
v 0.010000 2.990000 -0.010000
v -1.010000 3.250000 5.510000
v -1.010000 2.990000 5.510000
v -1.010000 3.250000 -0.010000
v -1.010000 2.990000 -0.010000
v 0.010000 3.250000 5.510000
v 0.010000 2.990000 5.510000
v -1.010000 3.250000 5.510000
v -1.010000 2.990000 5.510000
v 0.010000 2.990000 5.510000
v -1.010000 2.990000 5.510000
v 0.010000 2.990000 -0.010000
v -1.010000 2.990000 -0.010000
v -0.676777 2.800000 5.323223
v -0.676777 2.800000 5.676777
v -0.323223 2.800000 5.323223
v -0.323223 2.800000 5.676777
v -0.676777 2.800000 5.323223
v -0.676777 2.800000 5.676777
v -0.500000 3.000000 5.500000
v -0.323223 2.800000 5.323223
v -0.676777 2.800000 5.323223
v -0.500000 3.000000 5.500000
v -0.323223 2.800000 5.676777
v -0.323223 2.800000 5.323223
v -0.500000 3.000000 5.500000
v -0.676777 2.800000 5.676777
v -0.323223 2.800000 5.676777
v -0.500000 3.000000 5.500000
v -0.176777 2.800000 5.323223
v -0.176777 2.800000 5.676777
v 0.176777 2.800000 5.323223
v 0.176777 2.800000 5.676777
v -0.176777 2.800000 5.323223
v -0.176777 2.800000 5.676777
v -0.000000 3.000000 5.500000
v 0.176777 2.800000 5.323223
v -0.176777 2.800000 5.323223
v -0.000000 3.000000 5.500000
v 0.176777 2.800000 5.676777
v 0.176777 2.800000 5.323223
v -0.000000 3.000000 5.500000
v -0.176777 2.800000 5.676777
v 0.176777 2.800000 5.676777
v -0.000000 3.000000 5.500000
v -1.176777 2.800000 5.323223
v -1.176777 2.800000 5.676777
v -0.823223 2.800000 5.323223
v -0.823223 2.800000 5.676777
v -1.176777 2.800000 5.323223
v -1.176777 2.800000 5.676777
v -1.000000 3.000000 5.500000
v -0.823223 2.800000 5.323223
v -1.176777 2.800000 5.323223
v -1.000000 3.000000 5.500000
v -0.823223 2.800000 5.676777
v -0.823223 2.800000 5.323223
v -1.000000 3.000000 5.500000
v -1.176777 2.800000 5.676777
v -0.823223 2.800000 5.676777
v -1.000000 3.000000 5.500000
v -0.490000 3.230000 6.260000
v -0.510000 3.250000 6.260000
v -0.510000 3.230000 6.260000
v -0.490000 3.250000 6.260000
v -0.490000 3.230000 5.760000
v -0.510000 3.230000 5.760000
v -0.510000 3.250000 5.760000
v -0.490000 3.250000 5.760000
v -0.510000 3.230000 5.760000
v -0.490000 3.230000 5.760000
v -0.490000 3.230000 6.260000
v -0.510000 3.230000 6.260000
v -0.510000 3.250000 5.760000
v -0.510000 3.230000 5.760000
v -0.510000 3.230000 6.260000
v -0.510000 3.250000 6.260000
v -0.490000 3.250000 5.760000
v -0.510000 3.250000 5.760000
v -0.510000 3.250000 6.260000
v -0.490000 3.250000 6.260000
v -0.490000 3.230000 5.760000
v -0.490000 3.250000 5.760000
v -0.490000 3.250000 6.260000
v -0.490000 3.230000 6.260000
v -0.990000 3.250000 6.260000
v -0.990000 3.250000 6.240000
v -0.990000 3.230000 6.240000
v -0.990000 3.230000 6.260000
v -0.510000 3.230000 6.260000
v -0.990000 3.230000 6.260000
v -0.990000 3.230000 6.240000
v -0.510000 3.230000 6.240000
v -0.510000 3.250000 6.260000
v -0.990000 3.250000 6.260000
v -0.990000 3.230000 6.260000
v -0.510000 3.230000 6.260000
v -0.510000 3.250000 6.240000
v -0.990000 3.250000 6.240000
v -0.990000 3.250000 6.260000
v -0.510000 3.250000 6.260000
v -0.510000 3.230000 6.240000
v -0.990000 3.230000 6.240000
v -0.990000 3.250000 6.240000
v -0.510000 3.250000 6.240000
v -0.490000 3.230000 -0.760000
v -0.490000 3.250000 -0.740000
v -0.490000 3.230000 -0.740000
v -0.490000 3.250000 -0.760000
v -0.990000 3.230000 -0.760000
v -0.990000 3.230000 -0.740000
v -0.990000 3.250000 -0.740000
v -0.990000 3.250000 -0.760000
v -0.990000 3.230000 -0.740000
v -0.990000 3.230000 -0.760000
v -0.490000 3.230000 -0.760000
v -0.490000 3.230000 -0.740000
v -0.990000 3.250000 -0.740000
v -0.990000 3.230000 -0.740000
v -0.490000 3.230000 -0.740000
v -0.490000 3.250000 -0.740000
v -0.990000 3.250000 -0.760000
v -0.990000 3.250000 -0.740000
v -0.490000 3.250000 -0.740000
v -0.490000 3.250000 -0.760000
v -0.990000 3.230000 -0.760000
v -0.990000 3.250000 -0.760000
v -0.490000 3.250000 -0.760000
v -0.490000 3.230000 -0.760000
v -0.490000 3.250000 -0.260000
v -0.510000 3.250000 -0.260000
v -0.510000 3.230000 -0.260000
v -0.490000 3.230000 -0.260000
v -0.490000 3.230000 -0.740000
v -0.490000 3.230000 -0.260000
v -0.510000 3.230000 -0.260000
v -0.510000 3.230000 -0.740000
v -0.490000 3.250000 -0.740000
v -0.490000 3.250000 -0.260000
v -0.490000 3.230000 -0.260000
v -0.490000 3.230000 -0.740000
v -0.510000 3.250000 -0.740000
v -0.510000 3.250000 -0.260000
v -0.490000 3.250000 -0.260000
v -0.490000 3.250000 -0.740000
v -0.510000 3.230000 -0.740000
v -0.510000 3.230000 -0.260000
v -0.510000 3.250000 -0.260000
v -0.510000 3.250000 -0.740000
v -0.490000 3.230000 5.760000
v -0.490000 3.230000 6.260000
v -0.490000 3.250000 5.760000
v -0.490000 3.250000 6.260000
v -0.490000 3.250000 5.760000
v -0.490000 3.250000 6.260000
v -0.510000 3.250000 5.760000
v -0.510000 3.250000 6.260000
v -0.510000 3.250000 5.760000
v -0.510000 3.250000 6.260000
v -0.510000 3.230000 5.760000
v -0.510000 3.230000 6.260000
v -0.510000 3.230000 5.760000
v -0.510000 3.230000 6.260000
v -0.490000 3.230000 5.760000
v -0.490000 3.230000 6.260000
v -0.490000 3.230000 5.760000
v -0.490000 3.250000 5.760000
v -0.510000 3.250000 5.760000
v -0.510000 3.230000 5.760000
v -0.490000 3.230000 6.260000
v -0.490000 3.250000 6.260000
v -0.510000 3.250000 6.260000
v -0.510000 3.230000 6.260000
v -0.990000 3.230000 6.240000
v -0.510000 3.230000 6.240000
v -0.990000 3.250000 6.240000
v -0.510000 3.250000 6.240000
v -0.990000 3.250000 6.240000
v -0.510000 3.250000 6.240000
v -0.990000 3.250000 6.260000
v -0.510000 3.250000 6.260000
v -0.990000 3.250000 6.260000
v -0.510000 3.250000 6.260000
v -0.990000 3.230000 6.260000
v -0.510000 3.230000 6.260000
v -0.990000 3.230000 6.260000
v -0.510000 3.230000 6.260000
v -0.990000 3.230000 6.240000
v -0.510000 3.230000 6.240000
v -0.990000 3.230000 6.260000
v -0.990000 3.250000 6.260000
v -0.990000 3.230000 6.240000
v -0.990000 3.250000 6.240000
v -0.990000 3.230000 -0.760000
v -0.490000 3.230000 -0.760000
v -0.990000 3.250000 -0.760000
v -0.490000 3.250000 -0.760000
v -0.990000 3.250000 -0.760000
v -0.490000 3.250000 -0.760000
v -0.990000 3.250000 -0.740000
v -0.490000 3.250000 -0.740000
v -0.990000 3.250000 -0.740000
v -0.490000 3.250000 -0.740000
v -0.990000 3.230000 -0.740000
v -0.490000 3.230000 -0.740000
v -0.990000 3.230000 -0.740000
v -0.490000 3.230000 -0.740000
v -0.990000 3.230000 -0.760000
v -0.490000 3.230000 -0.760000
v -0.990000 3.230000 -0.760000
v -0.990000 3.250000 -0.760000
v -0.990000 3.250000 -0.740000
v -0.990000 3.230000 -0.740000
v -0.490000 3.230000 -0.760000
v -0.490000 3.250000 -0.760000
v -0.490000 3.250000 -0.740000
v -0.490000 3.230000 -0.740000
v -0.510000 3.230000 -0.260000
v -0.510000 3.230000 -0.740000
v -0.510000 3.250000 -0.260000
v -0.510000 3.250000 -0.740000
v -0.510000 3.250000 -0.260000
v -0.510000 3.250000 -0.740000
v -0.490000 3.250000 -0.260000
v -0.490000 3.250000 -0.740000
v -0.490000 3.250000 -0.260000
v -0.490000 3.250000 -0.740000
v -0.490000 3.230000 -0.260000
v -0.490000 3.230000 -0.740000
v -0.490000 3.230000 -0.260000
v -0.490000 3.230000 -0.740000
v -0.510000 3.230000 -0.260000
v -0.510000 3.230000 -0.740000
v -0.490000 3.230000 -0.260000
v -0.490000 3.250000 -0.260000
v -0.510000 3.230000 -0.260000
v -0.510000 3.250000 -0.260000
v -0.671069 3.316103 5.826931
v -0.671069 3.316103 5.834551
v -0.681584 3.316103 5.834551
v -0.691344 3.316103 5.835584
v -0.700149 3.316103 5.839250
v -0.706774 3.316103 5.845911
v -0.710643 3.316103 5.860868
v -0.711289 3.316103 5.876461
v -0.711289 3.316103 6.058071
v -0.710946 3.316103 6.069742
v -0.709583 3.316103 6.080823
v -0.705504 3.316103 6.090881
v -0.694830 3.316103 6.097952
v -0.681584 3.316103 6.099981
v -0.671069 3.316103 6.099981
v -0.671069 3.316103 6.107601
v -0.785159 3.316103 6.107601
v -0.834032 3.316103 6.104928
v -0.880764 3.316103 6.093351
v -0.910805 3.316103 6.073882
v -0.933469 3.316103 6.045726
v -0.948668 3.316103 6.008960
v -0.953434 3.316103 5.968746
v -0.944739 3.316103 5.915502
v -0.917874 3.316103 5.870816
v -0.862046 3.316103 5.836027
v -0.796309 3.316103 5.826931
v -0.751079 3.316103 5.847531
v -0.795039 3.316103 5.841746
v -0.751079 3.316103 6.085941
v -0.751079 3.316103 5.966736
v -0.793344 3.316103 6.091941
v -0.772041 3.316103 6.090234
v -0.874484 3.316103 6.058426
v -0.837596 3.316103 6.083893
v -0.874484 3.316103 5.875471
v -0.898848 3.316103 5.917269
v -0.906024 3.316103 5.966841
v -0.898622 3.316103 6.017365
v -0.838863 3.316103 5.850192
v -0.671069 3.316103 5.834551
v -0.671069 3.296103 5.834551
v -0.671069 3.316103 5.826931
v -0.671069 3.296103 5.826931
v -0.681584 3.316103 5.834551
v -0.681584 3.296103 5.834551
v -0.671069 3.316103 5.834551
v -0.671069 3.296103 5.834551
v -0.706774 3.316103 5.845911
v -0.706774 3.296103 5.845911
v -0.700149 3.316103 5.839250
v -0.700149 3.296103 5.839250
v -0.691344 3.316103 5.835584
v -0.691344 3.296103 5.835584
v -0.681584 3.316103 5.834551
v -0.681584 3.296103 5.834551
v -0.706774 3.306103 5.845911
v -0.711289 3.316103 5.876461
v -0.711289 3.296103 5.876461
v -0.710643 3.316103 5.860868
v -0.710643 3.296103 5.860868
v -0.706774 3.316103 5.845911
v -0.706774 3.296103 5.845911
v -0.706774 3.306103 5.845911
v -0.711289 3.316103 6.058071
v -0.711289 3.296103 6.058071
v -0.711289 3.316103 5.876461
v -0.711289 3.296103 5.876461
v -0.705504 3.316103 6.090881
v -0.705504 3.296103 6.090881
v -0.709583 3.316103 6.080823
v -0.709583 3.296103 6.080823
v -0.710946 3.316103 6.069742
v -0.710946 3.296103 6.069742
v -0.711289 3.316103 6.058071
v -0.711289 3.296103 6.058071
v -0.705504 3.306103 6.090881
v -0.681584 3.316103 6.099981
v -0.681584 3.296103 6.099981
v -0.694830 3.316103 6.097952
v -0.694830 3.296103 6.097952
v -0.705504 3.316103 6.090881
v -0.705504 3.296103 6.090881
v -0.705504 3.306103 6.090881
v -0.671069 3.316103 6.099981
v -0.671069 3.296103 6.099981
v -0.681584 3.316103 6.099981
v -0.681584 3.296103 6.099981
v -0.671069 3.316103 6.107601
v -0.671069 3.296103 6.107601
v -0.671069 3.316103 6.099981
v -0.671069 3.296103 6.099981
v -0.785159 3.316103 6.107601
v -0.785159 3.296103 6.107601
v -0.671069 3.316103 6.107601
v -0.671069 3.296103 6.107601
v -0.880764 3.316103 6.093351
v -0.880764 3.296103 6.093351
v -0.834032 3.316103 6.104928
v -0.834032 3.296103 6.104928
v -0.785159 3.316103 6.107601
v -0.785159 3.296103 6.107601
v -0.933469 3.316103 6.045726
v -0.933469 3.296103 6.045726
v -0.910805 3.316103 6.073882
v -0.910805 3.296103 6.073882
v -0.880764 3.316103 6.093351
v -0.880764 3.296103 6.093351
v -0.953434 3.316103 5.968746
v -0.953434 3.296103 5.968746
v -0.948668 3.316103 6.008960
v -0.948668 3.296103 6.008960
v -0.933469 3.316103 6.045726
v -0.933469 3.296103 6.045726
v -0.917874 3.316103 5.870816
v -0.917874 3.296103 5.870816
v -0.944739 3.316103 5.915502
v -0.944739 3.296103 5.915502
v -0.953434 3.316103 5.968746
v -0.953434 3.296103 5.968746
v -0.796309 3.316103 5.826931
v -0.796309 3.296103 5.826931
v -0.862046 3.316103 5.836027
v -0.862046 3.296103 5.836027
v -0.917874 3.316103 5.870816
v -0.917874 3.296103 5.870816
v -0.671069 3.316103 5.826931
v -0.671069 3.296103 5.826931
v -0.796309 3.316103 5.826931
v -0.796309 3.296103 5.826931
v -0.751079 3.316103 6.085941
v -0.751079 3.296103 6.085941
v -0.772041 3.316103 6.090234
v -0.772041 3.296103 6.090234
v -0.793344 3.316103 6.091941
v -0.793344 3.296103 6.091941
v -0.751079 3.306103 6.085941
v -0.793344 3.306103 6.091941
v -0.751079 3.316103 5.847531
v -0.751079 3.296103 5.847531
v -0.751079 3.316103 5.966736
v -0.751079 3.296103 5.966736
v -0.751079 3.316103 6.085941
v -0.751079 3.296103 6.085941
v -0.751079 3.306103 6.085941
v -0.751079 3.306103 6.026339
v -0.751079 3.306103 6.056140
v -0.751079 3.311103 6.026339
v -0.751079 3.311103 6.056140
v -0.751079 3.301103 6.026339
v -0.751079 3.301103 6.056140
v -0.671069 3.296103 5.826931
v -0.671069 3.296103 5.834551
v -0.681584 3.296103 5.834551
v -0.691344 3.296103 5.835584
v -0.700149 3.296103 5.839250
v -0.706774 3.296103 5.845911
v -0.710643 3.296103 5.860868
v -0.711289 3.296103 5.876461
v -0.711289 3.296103 6.058071
v -0.710946 3.296103 6.069742
v -0.709583 3.296103 6.080823
v -0.705504 3.296103 6.090881
v -0.694830 3.296103 6.097952
v -0.681584 3.296103 6.099981
v -0.671069 3.296103 6.099981
v -0.671069 3.296103 6.107601
v -0.785159 3.296103 6.107601
v -0.834032 3.296103 6.104928
v -0.880764 3.296103 6.093351
v -0.910805 3.296103 6.073882
v -0.933469 3.296103 6.045726
v -0.948668 3.296103 6.008960
v -0.953434 3.296103 5.968746
v -0.944739 3.296103 5.915502
v -0.917874 3.296103 5.870816
v -0.862046 3.296103 5.836027
v -0.796309 3.296103 5.826931
v -0.751079 3.296103 5.847531
v -0.795039 3.296103 5.841746
v -0.751079 3.296103 6.085941
v -0.751079 3.296103 5.966736
v -0.793344 3.296103 6.091941
v -0.772041 3.296103 6.090234
v -0.874484 3.296103 6.058426
v -0.837596 3.296103 6.083893
v -0.874484 3.296103 5.875471
v -0.898848 3.296103 5.917269
v -0.906024 3.296103 5.966841
v -0.898622 3.296103 6.017365
v -0.838863 3.296103 5.850192
v -0.793344 3.316103 6.091941
v -0.793344 3.296103 6.091941
v -0.837596 3.316103 6.083893
v -0.837596 3.296103 6.083893
v -0.874484 3.316103 6.058426
v -0.874484 3.296103 6.058426
v -0.793344 3.306103 6.091941
v -0.874484 3.316103 6.058426
v -0.874484 3.296103 6.058426
v -0.898622 3.316103 6.017365
v -0.898622 3.296103 6.017365
v -0.906024 3.316103 5.966841
v -0.906024 3.296103 5.966841
v -0.898848 3.316103 5.917269
v -0.898848 3.296103 5.917269
v -0.874484 3.316103 5.875471
v -0.874484 3.296103 5.875471
v -0.874484 3.316103 5.875471
v -0.874484 3.296103 5.875471
v -0.838863 3.316103 5.850192
v -0.838863 3.296103 5.850192
v -0.795039 3.316103 5.841746
v -0.795039 3.296103 5.841746
v -0.795039 3.316103 5.841746
v -0.795039 3.296103 5.841746
v -0.751079 3.316103 5.847531
v -0.751079 3.296103 5.847531
v -0.671069 3.316103 -0.583496
v -0.671069 3.316103 -0.575876
v -0.681584 3.316103 -0.575876
v -0.691344 3.316103 -0.574843
v -0.700149 3.316103 -0.571177
v -0.706774 3.316103 -0.564516
v -0.710643 3.316103 -0.549559
v -0.711289 3.316103 -0.533966
v -0.711289 3.316103 -0.352356
v -0.710946 3.316103 -0.340684
v -0.709583 3.316103 -0.329603
v -0.705504 3.316103 -0.319546
v -0.694830 3.316103 -0.312475
v -0.681584 3.316103 -0.310446
v -0.671069 3.316103 -0.310446
v -0.671069 3.316103 -0.302826
v -0.785159 3.316103 -0.302826
v -0.834032 3.316103 -0.305498
v -0.880764 3.316103 -0.317076
v -0.910805 3.316103 -0.336545
v -0.933469 3.316103 -0.364701
v -0.948668 3.316103 -0.401467
v -0.953434 3.316103 -0.441681
v -0.944739 3.316103 -0.494925
v -0.917874 3.316103 -0.539611
v -0.862046 3.316103 -0.574399
v -0.796309 3.316103 -0.583496
v -0.751079 3.316103 -0.562896
v -0.795039 3.316103 -0.568681
v -0.751079 3.316103 -0.324486
v -0.751079 3.316103 -0.443691
v -0.793344 3.316103 -0.318486
v -0.772041 3.316103 -0.320192
v -0.874484 3.316103 -0.352001
v -0.837596 3.316103 -0.326534
v -0.874484 3.316103 -0.534956
v -0.898848 3.316103 -0.493158
v -0.906024 3.316103 -0.443586
v -0.898622 3.316103 -0.393061
v -0.838863 3.316103 -0.560235
v -0.671069 3.316103 -0.575876
v -0.671069 3.296103 -0.575876
v -0.671069 3.316103 -0.583496
v -0.671069 3.296103 -0.583496
v -0.681584 3.316103 -0.575876
v -0.681584 3.296103 -0.575876
v -0.671069 3.316103 -0.575876
v -0.671069 3.296103 -0.575876
v -0.706774 3.316103 -0.564516
v -0.706774 3.296103 -0.564516
v -0.700149 3.316103 -0.571177
v -0.700149 3.296103 -0.571177
v -0.691344 3.316103 -0.574843
v -0.691344 3.296103 -0.574843
v -0.681584 3.316103 -0.575876
v -0.681584 3.296103 -0.575876
v -0.706774 3.306103 -0.564516
v -0.711289 3.316103 -0.533966
v -0.711289 3.296103 -0.533966
v -0.710643 3.316103 -0.549559
v -0.710643 3.296103 -0.549559
v -0.706774 3.316103 -0.564516
v -0.706774 3.296103 -0.564516
v -0.706774 3.306103 -0.564516
v -0.711289 3.316103 -0.352356
v -0.711289 3.296103 -0.352356
v -0.711289 3.316103 -0.533966
v -0.711289 3.296103 -0.533966
v -0.705504 3.316103 -0.319546
v -0.705504 3.296103 -0.319546
v -0.709583 3.316103 -0.329603
v -0.709583 3.296103 -0.329603
v -0.710946 3.316103 -0.340684
v -0.710946 3.296103 -0.340684
v -0.711289 3.316103 -0.352356
v -0.711289 3.296103 -0.352356
v -0.705504 3.306103 -0.319546
v -0.681584 3.316103 -0.310446
v -0.681584 3.296103 -0.310446
v -0.694830 3.316103 -0.312475
v -0.694830 3.296103 -0.312475
v -0.705504 3.316103 -0.319546
v -0.705504 3.296103 -0.319546
v -0.705504 3.306103 -0.319546
v -0.671069 3.316103 -0.310446
v -0.671069 3.296103 -0.310446
v -0.681584 3.316103 -0.310446
v -0.681584 3.296103 -0.310446
v -0.671069 3.316103 -0.302826
v -0.671069 3.296103 -0.302826
v -0.671069 3.316103 -0.310446
v -0.671069 3.296103 -0.310446
v -0.785159 3.316103 -0.302826
v -0.785159 3.296103 -0.302826
v -0.671069 3.316103 -0.302826
v -0.671069 3.296103 -0.302826
v -0.880764 3.316103 -0.317076
v -0.880764 3.296103 -0.317076
v -0.834032 3.316103 -0.305498
v -0.834032 3.296103 -0.305498
v -0.785159 3.316103 -0.302826
v -0.785159 3.296103 -0.302826
v -0.933469 3.316103 -0.364701
v -0.933469 3.296103 -0.364701
v -0.910805 3.316103 -0.336545
v -0.910805 3.296103 -0.336545
v -0.880764 3.316103 -0.317076
v -0.880764 3.296103 -0.317076
v -0.953434 3.316103 -0.441681
v -0.953434 3.296103 -0.441681
v -0.948668 3.316103 -0.401467
v -0.948668 3.296103 -0.401467
v -0.933469 3.316103 -0.364701
v -0.933469 3.296103 -0.364701
v -0.917874 3.316103 -0.539611
v -0.917874 3.296103 -0.539611
v -0.944739 3.316103 -0.494925
v -0.944739 3.296103 -0.494925
v -0.953434 3.316103 -0.441681
v -0.953434 3.296103 -0.441681
v -0.796309 3.316103 -0.583496
v -0.796309 3.296103 -0.583496
v -0.862046 3.316103 -0.574399
v -0.862046 3.296103 -0.574399
v -0.917874 3.316103 -0.539611
v -0.917874 3.296103 -0.539611
v -0.671069 3.316103 -0.583496
v -0.671069 3.296103 -0.583496
v -0.796309 3.316103 -0.583496
v -0.796309 3.296103 -0.583496
v -0.751079 3.316103 -0.324486
v -0.751079 3.296103 -0.324486
v -0.772041 3.316103 -0.320192
v -0.772041 3.296103 -0.320192
v -0.793344 3.316103 -0.318486
v -0.793344 3.296103 -0.318486
v -0.751079 3.306103 -0.324486
v -0.793344 3.306103 -0.318486
v -0.751079 3.316103 -0.562896
v -0.751079 3.296103 -0.562896
v -0.751079 3.316103 -0.443691
v -0.751079 3.296103 -0.443691
v -0.751079 3.316103 -0.324486
v -0.751079 3.296103 -0.324486
v -0.751079 3.306103 -0.324486
v -0.751079 3.306103 -0.384088
v -0.751079 3.306103 -0.354287
v -0.751079 3.311103 -0.384088
v -0.751079 3.311103 -0.354287
v -0.751079 3.301103 -0.384088
v -0.751079 3.301103 -0.354287
v -0.671069 3.296103 -0.583496
v -0.671069 3.296103 -0.575876
v -0.681584 3.296103 -0.575876
v -0.691344 3.296103 -0.574843
v -0.700149 3.296103 -0.571177
v -0.706774 3.296103 -0.564516
v -0.710643 3.296103 -0.549559
v -0.711289 3.296103 -0.533966
v -0.711289 3.296103 -0.352356
v -0.710946 3.296103 -0.340684
v -0.709583 3.296103 -0.329603
v -0.705504 3.296103 -0.319546
v -0.694830 3.296103 -0.312475
v -0.681584 3.296103 -0.310446
v -0.671069 3.296103 -0.310446
v -0.671069 3.296103 -0.302826
v -0.785159 3.296103 -0.302826
v -0.834032 3.296103 -0.305498
v -0.880764 3.296103 -0.317076
v -0.910805 3.296103 -0.336545
v -0.933469 3.296103 -0.364701
v -0.948668 3.296103 -0.401467
v -0.953434 3.296103 -0.441681
v -0.944739 3.296103 -0.494925
v -0.917874 3.296103 -0.539611
v -0.862046 3.296103 -0.574399
v -0.796309 3.296103 -0.583496
v -0.751079 3.296103 -0.562896
v -0.795039 3.296103 -0.568681
v -0.751079 3.296103 -0.324486
v -0.751079 3.296103 -0.443691
v -0.793344 3.296103 -0.318486
v -0.772041 3.296103 -0.320192
v -0.874484 3.296103 -0.352001
v -0.837596 3.296103 -0.326534
v -0.874484 3.296103 -0.534956
v -0.898848 3.296103 -0.493158
v -0.906024 3.296103 -0.443586
v -0.898622 3.296103 -0.393061
v -0.838863 3.296103 -0.560235
v -0.793344 3.316103 -0.318486
v -0.793344 3.296103 -0.318486
v -0.837596 3.316103 -0.326534
v -0.837596 3.296103 -0.326534
v -0.874484 3.316103 -0.352001
v -0.874484 3.296103 -0.352001
v -0.793344 3.306103 -0.318486
v -0.874484 3.316103 -0.352001
v -0.874484 3.296103 -0.352001
v -0.898622 3.316103 -0.393061
v -0.898622 3.296103 -0.393061
v -0.906024 3.316103 -0.443586
v -0.906024 3.296103 -0.443586
v -0.898848 3.316103 -0.493158
v -0.898848 3.296103 -0.493158
v -0.874484 3.316103 -0.534956
v -0.874484 3.296103 -0.534956
v -0.874484 3.316103 -0.534956
v -0.874484 3.296103 -0.534956
v -0.838863 3.316103 -0.560235
v -0.838863 3.296103 -0.560235
v -0.795039 3.316103 -0.568681
v -0.795039 3.296103 -0.568681
v -0.795039 3.316103 -0.568681
v -0.795039 3.296103 -0.568681
v -0.751079 3.316103 -0.562896
v -0.751079 3.296103 -0.562896
vt 0.086093 0.549772
vt 0.086093 0.718647
vt 0.998535 0.549772
vt 0.998535 0.718647
vt 0.084628 0.000000
vt 0.043046 0.000000
vt 0.084628 0.912442
vt 0.043046 0.912442
vt 0.086093 0.092819
vt 0.086093 0.135865
vt 0.254967 0.092819
vt 0.254967 0.135865
vt 0.041582 0.000000
vt 0.000000 0.000000
vt 0.041582 0.912442
vt 0.000000 0.912442
vt 0.086093 0.000000
vt 0.086093 0.043046
vt 0.254967 0.000000
vt 0.254967 0.043046
vt 0.086093 0.185637
vt 0.086093 0.354512
vt 0.998535 0.185637
vt 0.998535 0.354512
vt 0.482162 0.241814
vt 0.241081 0.483627
vt 0.241081 0.000000
vt 0.000000 0.241814
vt 0.740349 0.341976
vt 0.740349 0.682487
vt 0.483627 0.512232
vt 0.998535 0.000000
vt 0.998535 0.340511
vt 0.741814 0.170256
vt 0.998535 0.341976
vt 0.998535 0.682487
vt 0.741814 0.512232
vt 0.740349 0.000000
vt 0.740349 0.340511
vt 0.483627 0.170256
vt 0.482162 0.241814
vt 0.241081 0.483627
vt 0.241081 0.000000
vt 0.000000 0.241814
vt 0.740349 0.341976
vt 0.740349 0.682487
vt 0.483627 0.512232
vt 0.998535 0.000000
vt 0.998535 0.340511
vt 0.741814 0.170256
vt 0.998535 0.341976
vt 0.998535 0.682487
vt 0.741814 0.512232
vt 0.740349 0.000000
vt 0.740349 0.340511
vt 0.483627 0.170256
vt 0.482162 0.241814
vt 0.241081 0.483627
vt 0.241081 0.000000
vt 0.000000 0.241814
vt 0.740349 0.341976
vt 0.740349 0.682487
vt 0.483627 0.512232
vt 0.998535 0.000000
vt 0.998535 0.340511
vt 0.741814 0.170256
vt 0.998535 0.341976
vt 0.998535 0.682487
vt 0.741814 0.512232
vt 0.740349 0.000000
vt 0.740349 0.340511
vt 0.483627 0.170256
vt 1.000000 0.960000
vt 0.833333 1.000000
vt 0.833333 0.960000
vt 1.000000 1.000000
vt 1.000000 0.040000
vt 0.833333 0.040000
vt 0.833333 0.000000
vt 1.000000 0.000000
vt 0.624999 0.000000
vt 0.833333 0.000000
vt 0.833333 1.000000
vt 0.624999 1.000000
vt 0.416666 0.000000
vt 0.624999 0.000000
vt 0.624999 1.000000
vt 0.416666 1.000000
vt 0.208333 0.000000
vt 0.416666 0.000000
vt 0.416666 1.000000
vt 0.208333 1.000000
vt 0.000000 0.000000
vt 0.208333 0.000000
vt 0.208333 1.000000
vt 0.000000 1.000000
vt 0.040000 0.000000
vt 0.040000 0.040000
vt 0.080000 0.040000
vt 0.080000 0.000000
vt 0.040000 0.240000
vt 0.998535 0.240000
vt 0.998535 0.280000
vt 0.040000 0.280000
vt 0.040000 0.480000
vt 0.998535 0.480000
vt 0.998535 0.520000
vt 0.040000 0.520000
vt 0.000000 0.958535
vt 0.000000 0.000000
vt 0.038535 0.000000
vt 0.038535 0.958535
vt 0.040000 0.720000
vt 0.998535 0.720000
vt 0.998535 0.760000
vt 0.040000 0.760000
vt 1.000000 0.960000
vt 0.833333 1.000000
vt 0.833333 0.960000
vt 1.000000 1.000000
vt 1.000000 0.040000
vt 0.833333 0.040000
vt 0.833333 0.000000
vt 1.000000 0.000000
vt 0.624999 0.000000
vt 0.833333 0.000000
vt 0.833333 1.000000
vt 0.624999 1.000000
vt 0.416666 0.000000
vt 0.624999 0.000000
vt 0.624999 1.000000
vt 0.416666 1.000000
vt 0.208333 0.000000
vt 0.416666 0.000000
vt 0.416666 1.000000
vt 0.208333 1.000000
vt 0.000000 0.000000
vt 0.208333 0.000000
vt 0.208333 1.000000
vt 0.000000 1.000000
vt 0.040000 0.000000
vt 0.040000 0.040000
vt 0.080000 0.040000
vt 0.080000 0.000000
vt 0.000000 0.958535
vt 0.000000 0.000000
vt 0.038535 0.000000
vt 0.038535 0.958535
vt 0.040000 0.480000
vt 0.998535 0.480000
vt 0.998535 0.520000
vt 0.040000 0.520000
vt 0.040000 0.240000
vt 0.998535 0.240000
vt 0.998535 0.280000
vt 0.040000 0.280000
vt 0.040000 0.720000
vt 0.998535 0.720000
vt 0.998535 0.760000
vt 0.040000 0.760000
vt 0.000000 0.000000
vt 0.000000 1.000000
vt 0.208333 0.000000
vt 0.208333 1.000000
vt 0.208333 0.000000
vt 0.208333 1.000000
vt 0.416666 0.000000
vt 0.416666 1.000000
vt 0.416666 0.000000
vt 0.416666 1.000000
vt 0.624999 0.000000
vt 0.624999 1.000000
vt 0.624999 0.000000
vt 0.624999 1.000000
vt 0.833333 0.000000
vt 0.833333 1.000000
vt 1.000000 0.040000
vt 1.000000 0.000000
vt 0.833333 0.000000
vt 0.833333 0.040000
vt 1.000000 0.960000
vt 1.000000 1.000000
vt 0.833333 1.000000
vt 0.833333 0.960000
vt 0.998535 0.720000
vt 0.040000 0.720000
vt 0.998535 0.760000
vt 0.040000 0.760000
vt 0.000000 0.000000
vt 0.000000 0.958535
vt 0.038535 0.000000
vt 0.038535 0.958535
vt 0.998535 0.480000
vt 0.040000 0.480000
vt 0.998535 0.520000
vt 0.040000 0.520000
vt 0.998535 0.240000
vt 0.040000 0.240000
vt 0.998535 0.280000
vt 0.040000 0.280000
vt 0.080000 0.000000
vt 0.040000 0.000000
vt 0.080000 0.040000
vt 0.040000 0.040000
vt 0.000000 0.000000
vt 0.000000 1.000000
vt 0.208333 0.000000
vt 0.208333 1.000000
vt 0.208333 0.000000
vt 0.208333 1.000000
vt 0.416666 0.000000
vt 0.416666 1.000000
vt 0.416666 0.000000
vt 0.416666 1.000000
vt 0.624999 0.000000
vt 0.624999 1.000000
vt 0.624999 0.000000
vt 0.624999 1.000000
vt 0.833333 0.000000
vt 0.833333 1.000000
vt 1.000000 0.040000
vt 1.000000 0.000000
vt 0.833333 0.000000
vt 0.833333 0.040000
vt 1.000000 0.960000
vt 1.000000 1.000000
vt 0.833333 1.000000
vt 0.833333 0.960000
vt 0.998535 0.720000
vt 0.040000 0.720000
vt 0.998535 0.760000
vt 0.040000 0.760000
vt 0.998535 0.240000
vt 0.040000 0.240000
vt 0.998535 0.280000
vt 0.040000 0.280000
vt 0.998535 0.480000
vt 0.040000 0.480000
vt 0.998535 0.520000
vt 0.040000 0.520000
vt 0.000000 0.000000
vt 0.000000 0.958535
vt 0.038535 0.000000
vt 0.038535 0.958535
vt 0.080000 0.000000
vt 0.040000 0.000000
vt 0.080000 0.040000
vt 0.040000 0.040000
vt 0.498495 0.994335
vt 0.498495 0.980841
vt 0.517116 0.980841
vt 0.534400 0.979012
vt 0.549992 0.972521
vt 0.561725 0.960724
vt 0.568576 0.934237
vt 0.569720 0.906624
vt 0.569720 0.585016
vt 0.569112 0.564348
vt 0.566698 0.544724
vt 0.559476 0.526914
vt 0.540572 0.514392
vt 0.517116 0.510799
vt 0.498495 0.510799
vt 0.498495 0.497305
vt 0.700537 0.497305
vt 0.787086 0.502038
vt 0.869844 0.522540
vt 0.923043 0.557017
vt 0.963179 0.606877
vt 0.990095 0.671985
vt 0.998535 0.743199
vt 0.983137 0.837487
vt 0.935562 0.916620
vt 0.836695 0.978227
vt 0.720282 0.994335
vt 0.640185 0.957855
vt 0.718033 0.968099
vt 0.640185 0.535662
vt 0.640185 0.746758
vt 0.715032 0.525037
vt 0.677306 0.528059
vt 0.858723 0.584387
vt 0.793397 0.539289
vt 0.858723 0.908377
vt 0.901868 0.834358
vt 0.914577 0.746572
vt 0.901469 0.657101
vt 0.795640 0.953143
vt 0.534017 0.015362
vt 0.498495 0.015362
vt 0.534017 0.028896
vt 0.498495 0.028896
vt 0.579062 0.030724
vt 0.579062 0.066245
vt 0.597737 0.030724
vt 0.597737 0.066245
vt 0.579277 0.355218
vt 0.543755 0.355218
vt 0.579277 0.373564
vt 0.543755 0.373564
vt 0.579277 0.391087
vt 0.543755 0.391087
vt 0.579277 0.406521
vt 0.543755 0.406521
vt 0.561516 0.355218
vt 0.534017 0.420672
vt 0.498495 0.420672
vt 0.534017 0.441721
vt 0.498495 0.441721
vt 0.534017 0.476071
vt 0.498495 0.476071
vt 0.516256 0.476071
vt 0.589015 0.461783
vt 0.589015 0.495840
vt 0.911571 0.461783
vt 0.911571 0.495840
vt 0.579277 0.420672
vt 0.543755 0.420672
vt 0.579277 0.448023
vt 0.543755 0.448023
vt 0.579277 0.466034
vt 0.543755 0.466034
vt 0.579277 0.480737
vt 0.543755 0.480737
vt 0.561516 0.420672
vt 0.534017 0.355218
vt 0.498495 0.355218
vt 0.534017 0.377365
vt 0.498495 0.377365
vt 0.534017 0.402124
vt 0.498495 0.402124
vt 0.516256 0.402124
vt 0.498495 0.030724
vt 0.498495 0.066245
vt 0.517170 0.030724
vt 0.517170 0.066245
vt 0.534017 0.000000
vt 0.498495 0.000000
vt 0.534017 0.013534
vt 0.498495 0.013534
vt 0.498495 0.284174
vt 0.498495 0.318231
vt 0.701129 0.284174
vt 0.701129 0.318231
vt 0.498495 0.177609
vt 0.498495 0.211666
vt 0.596337 0.177609
vt 0.596337 0.211666
vt 0.671279 0.177609
vt 0.671279 0.211666
vt 0.589015 0.355218
vt 0.589015 0.389275
vt 0.652039 0.355218
vt 0.652039 0.389275
vt 0.717314 0.355218
vt 0.717314 0.389275
vt 0.589015 0.390739
vt 0.589015 0.424796
vt 0.658963 0.390739
vt 0.658963 0.424796
vt 0.732038 0.390739
vt 0.732038 0.424796
vt 0.498495 0.248652
vt 0.498495 0.282709
vt 0.594282 0.248652
vt 0.594282 0.282709
vt 0.687996 0.248652
vt 0.687996 0.282709
vt 0.589015 0.426261
vt 0.589015 0.460318
vt 0.696756 0.426261
vt 0.696756 0.460318
vt 0.825565 0.426261
vt 0.825565 0.460318
vt 0.498495 0.106565
vt 0.498495 0.140622
vt 0.720932 0.106565
vt 0.720932 0.140622
vt 0.659629 0.000000
vt 0.659629 0.034057
vt 0.695006 0.000000
vt 0.695006 0.034057
vt 0.735640 0.000000
vt 0.735640 0.034057
vt 0.659629 0.017028
vt 0.735640 0.017028
vt 0.498495 0.319696
vt 0.498495 0.353753
vt 0.710213 0.319696
vt 0.710213 0.353753
vt 0.921932 0.319696
vt 0.921932 0.353753
vt 0.921932 0.336724
vt 0.816073 0.336724
vt 0.869002 0.336724
vt 0.816073 0.328210
vt 0.869002 0.328210
vt 0.816073 0.345239
vt 0.869002 0.345239
vt 0.000000 0.000000
vt 0.013494 0.000000
vt 0.013494 0.018676
vt 0.015323 0.036010
vt 0.021814 0.051648
vt 0.033611 0.063415
vt 0.060098 0.070286
vt 0.087711 0.071434
vt 0.409319 0.071434
vt 0.429987 0.070824
vt 0.449610 0.068403
vt 0.467421 0.061160
vt 0.479942 0.042200
vt 0.483536 0.018676
vt 0.483536 0.000000
vt 0.497030 0.000000
vt 0.497030 0.202634
vt 0.492297 0.289436
vt 0.471795 0.372437
vt 0.437318 0.425792
vt 0.387457 0.466046
vt 0.322349 0.493040
vt 0.251136 0.501505
vt 0.156848 0.486062
vt 0.077715 0.438348
vt 0.016108 0.339191
vt 0.000000 0.222437
vt 0.036480 0.142105
vt 0.026235 0.220182
vt 0.458673 0.142105
vt 0.247576 0.142105
vt 0.469298 0.217171
vt 0.466276 0.179335
vt 0.409947 0.361283
vt 0.455046 0.295766
vt 0.085958 0.361283
vt 0.159977 0.404555
vt 0.247762 0.417301
vt 0.337234 0.404155
vt 0.041191 0.298016
vt 0.498495 0.142087
vt 0.498495 0.176144
vt 0.577246 0.142087
vt 0.577246 0.176144
vt 0.659120 0.142087
vt 0.659120 0.176144
vt 0.498495 0.159116
vt 0.498495 0.213131
vt 0.498495 0.247188
vt 0.589321 0.213131
vt 0.589321 0.247188
vt 0.674657 0.213131
vt 0.674657 0.247188
vt 0.758683 0.213131
vt 0.758683 0.247188
vt 0.850820 0.213131
vt 0.850820 0.247188
vt 0.498495 0.071044
vt 0.498495 0.105100
vt 0.577370 0.071044
vt 0.577370 0.105100
vt 0.656454 0.071044
vt 0.656454 0.105100
vt 0.659629 0.035522
vt 0.659629 0.069579
vt 0.738527 0.035522
vt 0.738527 0.069579
vt 0.498495 0.994335
vt 0.498495 0.980841
vt 0.517116 0.980841
vt 0.534400 0.979012
vt 0.549992 0.972521
vt 0.561725 0.960724
vt 0.568576 0.934237
vt 0.569720 0.906624
vt 0.569720 0.585016
vt 0.569112 0.564348
vt 0.566698 0.544724
vt 0.559476 0.526914
vt 0.540572 0.514392
vt 0.517116 0.510799
vt 0.498495 0.510799
vt 0.498495 0.497305
vt 0.700537 0.497305
vt 0.787086 0.502038
vt 0.869844 0.522540
vt 0.923043 0.557017
vt 0.963179 0.606877
vt 0.990095 0.671985
vt 0.998535 0.743199
vt 0.983137 0.837487
vt 0.935562 0.916620
vt 0.836695 0.978227
vt 0.720282 0.994335
vt 0.640185 0.957855
vt 0.718033 0.968099
vt 0.640185 0.535662
vt 0.640185 0.746758
vt 0.715032 0.525037
vt 0.677306 0.528059
vt 0.858723 0.584387
vt 0.793397 0.539289
vt 0.858723 0.908377
vt 0.901868 0.834358
vt 0.914577 0.746572
vt 0.901469 0.657101
vt 0.795640 0.953143
vt 0.534017 0.015362
vt 0.498495 0.015362
vt 0.534017 0.028896
vt 0.498495 0.028896
vt 0.579062 0.030724
vt 0.579062 0.066245
vt 0.597737 0.030724
vt 0.597737 0.066245
vt 0.579277 0.355218
vt 0.543755 0.355218
vt 0.579277 0.373564
vt 0.543755 0.373564
vt 0.579277 0.391087
vt 0.543755 0.391087
vt 0.579277 0.406521
vt 0.543755 0.406521
vt 0.561516 0.355218
vt 0.534017 0.420672
vt 0.498495 0.420672
vt 0.534017 0.441721
vt 0.498495 0.441721
vt 0.534017 0.476071
vt 0.498495 0.476071
vt 0.516256 0.476071
vt 0.589015 0.461783
vt 0.589015 0.495840
vt 0.911571 0.461783
vt 0.911571 0.495840
vt 0.579277 0.420672
vt 0.543755 0.420672
vt 0.579277 0.448023
vt 0.543755 0.448023
vt 0.579277 0.466034
vt 0.543755 0.466034
vt 0.579277 0.480737
vt 0.543755 0.480737
vt 0.561516 0.420672
vt 0.534017 0.355218
vt 0.498495 0.355218
vt 0.534017 0.377365
vt 0.498495 0.377365
vt 0.534017 0.402124
vt 0.498495 0.402124
vt 0.516256 0.402124
vt 0.498495 0.030724
vt 0.498495 0.066245
vt 0.517170 0.030724
vt 0.517170 0.066245
vt 0.534017 0.000000
vt 0.498495 0.000000
vt 0.534017 0.013534
vt 0.498495 0.013534
vt 0.498495 0.284174
vt 0.498495 0.318231
vt 0.701129 0.284174
vt 0.701129 0.318231
vt 0.498495 0.177609
vt 0.498495 0.211666
vt 0.596337 0.177609
vt 0.596337 0.211666
vt 0.671279 0.177609
vt 0.671279 0.211666
vt 0.589015 0.355218
vt 0.589015 0.389275
vt 0.652039 0.355218
vt 0.652039 0.389275
vt 0.717314 0.355218
vt 0.717314 0.389275
vt 0.589015 0.390739
vt 0.589015 0.424796
vt 0.658963 0.390739
vt 0.658963 0.424796
vt 0.732038 0.390739
vt 0.732038 0.424796
vt 0.498495 0.248652
vt 0.498495 0.282709
vt 0.594282 0.248652
vt 0.594282 0.282709
vt 0.687996 0.248652
vt 0.687996 0.282709
vt 0.589015 0.426261
vt 0.589015 0.460318
vt 0.696756 0.426261
vt 0.696756 0.460318
vt 0.825565 0.426261
vt 0.825565 0.460318
vt 0.498495 0.106565
vt 0.498495 0.140622
vt 0.720932 0.106565
vt 0.720932 0.140622
vt 0.659629 0.000000
vt 0.659629 0.034057
vt 0.695006 0.000000
vt 0.695006 0.034057
vt 0.735640 0.000000
vt 0.735640 0.034057
vt 0.659629 0.017028
vt 0.735640 0.017028
vt 0.498495 0.319696
vt 0.498495 0.353753
vt 0.710213 0.319696
vt 0.710213 0.353753
vt 0.921932 0.319696
vt 0.921932 0.353753
vt 0.921932 0.336724
vt 0.816073 0.336724
vt 0.869002 0.336724
vt 0.816073 0.328210
vt 0.869002 0.328210
vt 0.816073 0.345239
vt 0.869002 0.345239
vt 0.000000 0.000000
vt 0.013494 0.000000
vt 0.013494 0.018676
vt 0.015323 0.036010
vt 0.021814 0.051648
vt 0.033611 0.063415
vt 0.060098 0.070286
vt 0.087711 0.071434
vt 0.409319 0.071434
vt 0.429987 0.070824
vt 0.449610 0.068403
vt 0.467421 0.061160
vt 0.479942 0.042200
vt 0.483536 0.018676
vt 0.483536 0.000000
vt 0.497030 0.000000
vt 0.497030 0.202634
vt 0.492297 0.289436
vt 0.471795 0.372437
vt 0.437318 0.425792
vt 0.387457 0.466046
vt 0.322349 0.493040
vt 0.251136 0.501505
vt 0.156848 0.486062
vt 0.077715 0.438348
vt 0.016108 0.339191
vt 0.000000 0.222437
vt 0.036480 0.142105
vt 0.026235 0.220182
vt 0.458673 0.142105
vt 0.247576 0.142105
vt 0.469298 0.217171
vt 0.466276 0.179335
vt 0.409947 0.361283
vt 0.455046 0.295766
vt 0.085958 0.361283
vt 0.159977 0.404555
vt 0.247762 0.417301
vt 0.337234 0.404155
vt 0.041191 0.298016
vt 0.498495 0.142087
vt 0.498495 0.176144
vt 0.577246 0.142087
vt 0.577246 0.176144
vt 0.659120 0.142087
vt 0.659120 0.176144
vt 0.498495 0.159116
vt 0.498495 0.213131
vt 0.498495 0.247188
vt 0.589321 0.213131
vt 0.589321 0.247188
vt 0.674657 0.213131
vt 0.674657 0.247188
vt 0.758683 0.213131
vt 0.758683 0.247188
vt 0.850820 0.213131
vt 0.850820 0.247188
vt 0.498495 0.071044
vt 0.498495 0.105100
vt 0.577370 0.071044
vt 0.577370 0.105100
vt 0.656454 0.071044
vt 0.656454 0.105100
vt 0.659629 0.035522
vt 0.659629 0.069579
vt 0.738527 0.035522
vt 0.738527 0.069579
vn -0.000000 1.000000 0.000000
vn -0.000000 1.000000 0.000000
vn -0.000000 1.000000 0.000000
vn -0.000000 1.000000 0.000000
vn 1.000000 0.000000 0.000000
vn 1.000000 0.000000 0.000000
vn 1.000000 0.000000 0.000000
vn 1.000000 0.000000 0.000000
vn 0.000000 -0.000000 -1.000000
vn 0.000000 -0.000000 -1.000000
vn 0.000000 -0.000000 -1.000000
vn 0.000000 -0.000000 -1.000000
vn -1.000000 0.000000 0.000000
vn -1.000000 0.000000 0.000000
vn -1.000000 0.000000 0.000000
vn -1.000000 0.000000 0.000000
vn -0.000000 0.000000 1.000000
vn -0.000000 0.000000 1.000000
vn -0.000000 0.000000 1.000000
vn -0.000000 0.000000 1.000000
vn -0.000000 -1.000000 0.000000
vn -0.000000 -1.000000 0.000000
vn -0.000000 -1.000000 0.000000
vn -0.000000 -1.000000 0.000000
vn -0.000000 -1.000000 0.000000
vn -0.000000 -1.000000 0.000000
vn -0.000000 -1.000000 0.000000
vn -0.000000 -1.000000 0.000000
vn -0.749269 0.662266 0.000000
vn -0.749269 0.662266 0.000000
vn -0.749269 0.662266 0.000000
vn -0.000000 0.662266 -0.749269
vn -0.000000 0.662266 -0.749269
vn 0.000000 0.662266 -0.749269
vn 0.749269 0.662266 -0.000000
vn 0.749269 0.662266 -0.000000
vn 0.749269 0.662266 -0.000000
vn -0.000000 0.662266 0.749269
vn -0.000000 0.662266 0.749269
vn -0.000000 0.662266 0.749269
vn -0.000000 -1.000000 0.000000
vn -0.000000 -1.000000 0.000000
vn -0.000000 -1.000000 0.000000
vn -0.000000 -1.000000 0.000000
vn -0.749269 0.662266 0.000000
vn -0.749269 0.662266 0.000000
vn -0.749269 0.662266 0.000000
vn -0.000000 0.662266 -0.749269
vn -0.000000 0.662266 -0.749269
vn 0.000000 0.662266 -0.749269
vn 0.749269 0.662266 -0.000000
vn 0.749269 0.662266 -0.000000
vn 0.749269 0.662266 -0.000000
vn -0.000000 0.662266 0.749269
vn -0.000000 0.662266 0.749269
vn -0.000000 0.662266 0.749269
vn -0.000000 -1.000000 0.000000
vn -0.000000 -1.000000 0.000000
vn -0.000000 -1.000000 0.000000
vn -0.000000 -1.000000 0.000000
vn -0.749269 0.662266 0.000000
vn -0.749269 0.662266 0.000000
vn -0.749269 0.662266 0.000000
vn -0.000000 0.662266 -0.749269
vn -0.000000 0.662266 -0.749269
vn 0.000000 0.662266 -0.749269
vn 0.749269 0.662266 -0.000000
vn 0.749269 0.662266 -0.000000
vn 0.749269 0.662266 -0.000000
vn -0.000000 0.662266 0.749269
vn -0.000000 0.662266 0.749269
vn -0.000000 0.662266 0.749269
vn -0.000000 0.000000 1.000000
vn -0.000000 0.000000 1.000000
vn -0.000000 0.000000 1.000000
vn -0.000000 0.000000 1.000000
vn 0.000000 -0.000000 -1.000000
vn 0.000000 -0.000000 -1.000000
vn 0.000000 -0.000000 -1.000000
vn 0.000000 -0.000000 -1.000000
vn -0.000000 -1.000000 0.000000
vn -0.000000 -1.000000 0.000000
vn -0.000000 -1.000000 0.000000
vn -0.000000 -1.000000 0.000000
vn -1.000000 0.000000 0.000000
vn -1.000000 0.000000 0.000000
vn -1.000000 0.000000 0.000000
vn -1.000000 0.000000 0.000000
vn -0.000000 1.000000 0.000000
vn -0.000000 1.000000 0.000000
vn -0.000000 1.000000 0.000000
vn -0.000000 1.000000 0.000000
vn 1.000000 0.000000 0.000000
vn 1.000000 0.000000 0.000000
vn 1.000000 0.000000 0.000000
vn 1.000000 0.000000 0.000000
vn -1.000000 0.000000 0.000000
vn -1.000000 0.000000 0.000000
vn -1.000000 0.000000 0.000000
vn -1.000000 0.000000 0.000000
vn 0.000000 -1.000000 -0.000000
vn 0.000000 -1.000000 -0.000000
vn 0.000000 -1.000000 -0.000000
vn 0.000000 -1.000000 -0.000000
vn -0.000000 0.000000 1.000000
vn -0.000000 0.000000 1.000000
vn -0.000000 0.000000 1.000000
vn -0.000000 0.000000 1.000000
vn -0.000000 1.000000 0.000000
vn -0.000000 1.000000 0.000000
vn -0.000000 1.000000 0.000000
vn -0.000000 1.000000 0.000000
vn -0.000000 0.000000 -1.000000
vn -0.000000 0.000000 -1.000000
vn -0.000000 0.000000 -1.000000
vn -0.000000 0.000000 -1.000000
vn 1.000000 0.000000 0.000000
vn 1.000000 0.000000 0.000000
vn 1.000000 0.000000 0.000000
vn 1.000000 0.000000 0.000000
vn -1.000000 0.000000 0.000000
vn -1.000000 0.000000 0.000000
vn -1.000000 0.000000 0.000000
vn -1.000000 0.000000 0.000000
vn 0.000000 -1.000000 -0.000000
vn 0.000000 -1.000000 -0.000000
vn 0.000000 -1.000000 -0.000000
vn 0.000000 -1.000000 -0.000000
vn -0.000000 0.000000 1.000000
vn -0.000000 0.000000 1.000000
vn -0.000000 0.000000 1.000000
vn -0.000000 0.000000 1.000000
vn -0.000000 1.000000 0.000000
vn -0.000000 1.000000 0.000000
vn -0.000000 1.000000 0.000000
vn -0.000000 1.000000 0.000000
vn -0.000000 0.000000 -1.000000
vn -0.000000 0.000000 -1.000000
vn -0.000000 0.000000 -1.000000
vn -0.000000 0.000000 -1.000000
vn -0.000000 0.000000 1.000000
vn -0.000000 0.000000 1.000000
vn -0.000000 0.000000 1.000000
vn -0.000000 0.000000 1.000000
vn -0.000000 -1.000000 0.000000
vn -0.000000 -1.000000 0.000000
vn -0.000000 -1.000000 0.000000
vn -0.000000 -1.000000 0.000000
vn 1.000000 -0.000000 -0.000000
vn 1.000000 -0.000000 -0.000000
vn 1.000000 -0.000000 -0.000000
vn 1.000000 -0.000000 -0.000000
vn -0.000000 1.000000 0.000000
vn -0.000000 1.000000 0.000000
vn -0.000000 1.000000 0.000000
vn -0.000000 1.000000 0.000000
vn -1.000000 0.000000 0.000000
vn -1.000000 0.000000 0.000000
vn -1.000000 0.000000 0.000000
vn -1.000000 0.000000 0.000000
vn 1.000000 0.000000 0.000000
vn 1.000000 0.000000 0.000000
vn 1.000000 0.000000 0.000000
vn 1.000000 0.000000 0.000000
vn -0.000000 1.000000 0.000000
vn -0.000000 1.000000 0.000000
vn -0.000000 1.000000 0.000000
vn -0.000000 1.000000 0.000000
vn -1.000000 0.000000 -0.000000
vn -1.000000 0.000000 -0.000000
vn -1.000000 0.000000 -0.000000
vn -1.000000 0.000000 -0.000000
vn -0.000000 -1.000000 0.000000
vn -0.000000 -1.000000 0.000000
vn -0.000000 -1.000000 0.000000
vn -0.000000 -1.000000 0.000000
vn 0.000000 -0.000000 -1.000000
vn 0.000000 -0.000000 -1.000000
vn 0.000000 -0.000000 -1.000000
vn 0.000000 -0.000000 -1.000000
vn -0.000000 0.000000 1.000000
vn -0.000000 0.000000 1.000000
vn -0.000000 0.000000 1.000000
vn -0.000000 0.000000 1.000000
vn -0.000000 0.000000 -1.000000
vn -0.000000 0.000000 -1.000000
vn -0.000000 0.000000 -1.000000
vn -0.000000 0.000000 -1.000000
vn -0.000000 1.000000 -0.000000
vn -0.000000 1.000000 -0.000000
vn -0.000000 1.000000 -0.000000
vn -0.000000 1.000000 -0.000000
vn -0.000000 0.000000 1.000000
vn -0.000000 0.000000 1.000000
vn -0.000000 0.000000 1.000000
vn -0.000000 0.000000 1.000000
vn 0.000000 -1.000000 -0.000000
vn 0.000000 -1.000000 -0.000000
vn 0.000000 -1.000000 -0.000000
vn 0.000000 -1.000000 -0.000000
vn -1.000000 -0.000000 -0.000000
vn -1.000000 -0.000000 -0.000000
vn -1.000000 -0.000000 -0.000000
vn -1.000000 -0.000000 -0.000000
vn -0.000000 0.000000 -1.000000
vn -0.000000 0.000000 -1.000000
vn -0.000000 0.000000 -1.000000
vn -0.000000 0.000000 -1.000000
vn -0.000000 1.000000 -0.000000
vn -0.000000 1.000000 -0.000000
vn -0.000000 1.000000 0.000000
vn -0.000000 1.000000 0.000000
vn -0.000000 0.000000 1.000000
vn -0.000000 0.000000 1.000000
vn -0.000000 0.000000 1.000000
vn -0.000000 0.000000 1.000000
vn 0.000000 -1.000000 -0.000000
vn 0.000000 -1.000000 -0.000000
vn 0.000000 -1.000000 -0.000000
vn 0.000000 -1.000000 -0.000000
vn -1.000000 -0.000000 -0.000000
vn -1.000000 -0.000000 -0.000000
vn -1.000000 -0.000000 -0.000000
vn -1.000000 -0.000000 -0.000000
vn 1.000000 0.000000 0.000000
vn 1.000000 0.000000 0.000000
vn 1.000000 0.000000 0.000000
vn 1.000000 0.000000 0.000000
vn -1.000000 -0.000000 0.000000
vn -1.000000 -0.000000 0.000000
vn -1.000000 -0.000000 0.000000
vn -1.000000 -0.000000 0.000000
vn -0.000000 1.000000 0.000000
vn -0.000000 1.000000 0.000000
vn -0.000000 1.000000 0.000000
vn -0.000000 1.000000 0.000000
vn 1.000000 -0.000000 -0.000000
vn 1.000000 -0.000000 -0.000000
vn 1.000000 -0.000000 -0.000000
vn 1.000000 -0.000000 -0.000000
vn -0.000000 -1.000000 0.000000
vn -0.000000 -1.000000 0.000000
vn -0.000000 -1.000000 0.000000
vn -0.000000 -1.000000 0.000000
vn 0.000000 -0.000000 1.000000
vn 0.000000 -0.000000 1.000000
vn 0.000000 -0.000000 1.000000
vn 0.000000 -0.000000 1.000000
vn 0.000000 1.000000 -0.000000
vn 0.000000 1.000000 -0.000000
vn 0.000000 1.000000 -0.000000
vn 0.000000 1.000000 -0.000000
vn 0.000000 1.000000 -0.000000
vn 0.000000 1.000000 -0.000000
vn 0.000000 1.000000 -0.000000
vn 0.000000 1.000000 -0.000000
vn 0.000000 1.000000 -0.000000
vn 0.000000 1.000000 -0.000000
vn 0.000000 1.000000 -0.000000
vn 0.000000 1.000000 -0.000000
vn 0.000000 1.000000 -0.000000
vn 0.000000 1.000000 -0.000000
vn 0.000000 1.000000 -0.000000
vn 0.000000 1.000000 -0.000000
vn 0.000000 1.000000 -0.000000
vn 0.000000 1.000000 -0.000000
vn 0.000000 1.000000 -0.000000
vn 0.000000 1.000000 -0.000000
vn 0.000000 1.000000 -0.000000
vn 0.000000 1.000000 -0.000000
vn 0.000000 1.000000 -0.000000
vn 0.000000 1.000000 -0.000000
vn 0.000000 1.000000 -0.000000
vn 0.000000 1.000000 -0.000000
vn 0.000000 1.000000 -0.000000
vn 0.000000 1.000000 -0.000000
vn 0.000000 1.000000 -0.000000
vn 0.000000 1.000000 -0.000000
vn 0.000000 1.000000 -0.000000
vn 0.000000 1.000000 -0.000000
vn 0.000000 1.000000 -0.000000
vn 0.000000 1.000000 -0.000000
vn 0.000000 1.000000 -0.000000
vn 0.000000 1.000000 -0.000000
vn 0.000000 1.000000 -0.000000
vn 0.000000 1.000000 -0.000000
vn 0.000000 1.000000 -0.000000
vn 0.000000 1.000000 -0.000000
vn 1.000000 -0.000000 -0.000000
vn 1.000000 -0.000000 -0.000000
vn 1.000000 -0.000000 -0.000000
vn 1.000000 -0.000000 -0.000000
vn -0.000000 0.000000 1.000000
vn -0.000000 0.000000 1.000000
vn -0.000000 0.000000 1.000000
vn -0.000000 0.000000 1.000000
vn 0.836794 -0.000000 0.547518
vn 0.836794 -0.000000 0.547518
vn 0.548839 -0.000000 0.835928
vn 0.548839 -0.000000 0.835928
vn 0.227754 -0.000000 0.973719
vn 0.227754 -0.000000 0.973719
vn -0.000000 0.000000 1.000000
vn -0.000000 0.000000 1.000000
vn 0.836794 -0.000000 0.547518
vn 1.000000 -0.000000 -0.000000
vn 1.000000 -0.000000 -0.000000
vn 0.995187 -0.000000 0.097991
vn 0.995187 -0.000000 0.097991
vn 0.830349 -0.000000 0.557244
vn 0.830349 -0.000000 0.557244
vn 0.830349 -0.000000 0.557244
vn 1.000000 -0.000000 -0.000000
vn 1.000000 -0.000000 -0.000000
vn 1.000000 -0.000000 -0.000000
vn 1.000000 -0.000000 -0.000000
vn 0.748164 -0.000000 -0.663514
vn 0.748164 -0.000000 -0.663514
vn 0.980108 -0.000000 -0.198465
vn 0.980108 -0.000000 -0.198465
vn 0.997857 -0.000000 -0.065435
vn 0.997857 -0.000000 -0.065435
vn 1.000000 -0.000000 -0.000000
vn 1.000000 -0.000000 -0.000000
vn 0.748164 -0.000000 -0.663514
vn -0.000000 -0.000000 -1.000000
vn -0.000000 -0.000000 -1.000000
vn 0.332787 -0.000000 -0.943002
vn 0.332787 -0.000000 -0.943002
vn 0.749008 -0.000000 -0.662561
vn 0.749008 -0.000000 -0.662561
vn 0.749008 -0.000000 -0.662561
vn -0.000000 -0.000000 -1.000000
vn -0.000000 -0.000000 -1.000000
vn -0.000000 -0.000000 -1.000000
vn -0.000000 -0.000000 -1.000000
vn 1.000000 -0.000000 -0.000000
vn 1.000000 -0.000000 -0.000000
vn 1.000000 -0.000000 -0.000000
vn 1.000000 -0.000000 -0.000000
vn -0.000000 0.000000 1.000000
vn -0.000000 0.000000 1.000000
vn -0.000000 0.000000 1.000000
vn -0.000000 0.000000 1.000000
vn -0.400301 0.000000 0.916384
vn -0.400301 0.000000 0.916384
vn -0.122920 0.000000 0.992417
vn -0.122920 0.000000 0.992417
vn -0.000000 0.000000 1.000000
vn -0.000000 0.000000 1.000000
vn -0.858684 0.000000 0.512506
vn -0.858684 0.000000 0.512506
vn -0.674597 0.000000 0.738186
vn -0.674597 0.000000 0.738186
vn -0.399301 0.000000 0.916820
vn -0.399301 0.000000 0.916820
vn -1.000000 -0.000000 -0.000000
vn -1.000000 -0.000000 -0.000000
vn -0.969539 0.000000 0.244935
vn -0.969539 0.000000 0.244935
vn -0.857493 0.000000 0.514496
vn -0.857493 0.000000 0.514496
vn -0.742035 -0.000000 -0.670362
vn -0.742035 -0.000000 -0.670362
vn -0.941347 -0.000000 -0.337441
vn -0.941347 -0.000000 -0.337441
vn -1.000000 -0.000000 -0.000000
vn -1.000000 -0.000000 -0.000000
vn -0.000000 -0.000000 -1.000000
vn -0.000000 -0.000000 -1.000000
vn -0.303875 -0.000000 -0.952712
vn -0.303875 -0.000000 -0.952712
vn -0.740169 -0.000000 -0.672421
vn -0.740169 -0.000000 -0.672421
vn -0.000000 -0.000000 -1.000000
vn -0.000000 -0.000000 -1.000000
vn -0.000000 -0.000000 -1.000000
vn -0.000000 -0.000000 -1.000000
vn -0.246501 -0.000000 -0.969142
vn -0.246501 -0.000000 -0.969142
vn -0.148469 -0.000000 -0.988917
vn -0.148469 -0.000000 -0.988917
vn -0.000000 -0.000000 -1.000000
vn -0.000000 -0.000000 -1.000000
vn -0.246501 -0.000000 -0.969142
vn -0.000000 -0.000000 -1.000000
vn -1.000000 -0.000000 -0.000000
vn -1.000000 -0.000000 -0.000000
vn -1.000000 -0.000000 -0.000000
vn -1.000000 -0.000000 -0.000000
vn -1.000000 -0.000000 -0.000000
vn -1.000000 -0.000000 -0.000000
vn -1.000000 -0.000000 -0.000000
vn -1.000000 -0.000000 -0.000000
vn -1.000000 0.000000 0.000000
vn -1.000000 -0.000000 -0.000000
vn -1.000000 -0.000000 -0.000000
vn -1.000000 -0.000000 -0.000000
vn -1.000000 -0.000000 -0.000000
vn -0.000000 -1.000000 0.000000
vn -0.000000 -1.000000 0.000000
vn -0.000000 -1.000000 0.000000
vn -0.000000 -1.000000 0.000000
vn -0.000000 -1.000000 0.000000
vn -0.000000 -1.000000 0.000000
vn -0.000000 -1.000000 0.000000
vn -0.000000 -1.000000 0.000000
vn -0.000000 -1.000000 0.000000
vn -0.000000 -1.000000 0.000000
vn -0.000000 -1.000000 0.000000
vn -0.000000 -1.000000 0.000000
vn -0.000000 -1.000000 0.000000
vn -0.000000 -1.000000 0.000000
vn -0.000000 -1.000000 0.000000
vn -0.000000 -1.000000 0.000000
vn -0.000000 -1.000000 0.000000
vn -0.000000 -1.000000 0.000000
vn -0.000000 -1.000000 0.000000
vn -0.000000 -1.000000 0.000000
vn -0.000000 -1.000000 0.000000
vn -0.000000 -1.000000 0.000000
vn -0.000000 -1.000000 0.000000
vn -0.000000 -1.000000 0.000000
vn -0.000000 -1.000000 0.000000
vn -0.000000 -1.000000 0.000000
vn -0.000000 -1.000000 0.000000
vn -0.000000 -1.000000 0.000000
vn -0.000000 -1.000000 0.000000
vn -0.000000 -1.000000 0.000000
vn -0.000000 -1.000000 0.000000
vn -0.000000 -1.000000 0.000000
vn -0.000000 -1.000000 0.000000
vn -0.000000 -1.000000 0.000000
vn -0.000000 -1.000000 0.000000
vn -0.000000 -1.000000 0.000000
vn -0.000000 -1.000000 0.000000
vn -0.000000 -1.000000 0.000000
vn -0.000000 -1.000000 0.000000
vn -0.000000 -1.000000 0.000000
vn -0.000000 -0.000000 -1.000000
vn -0.000000 -0.000000 -1.000000
vn 0.373921 -0.000000 -0.927460
vn 0.373921 -0.000000 -0.927460
vn 0.727459 -0.000000 -0.686151
vn 0.727459 -0.000000 -0.686151
vn -0.000000 -0.000000 -1.000000
vn 0.727524 -0.000000 -0.686082
vn 0.727524 -0.000000 -0.686082
vn 0.949398 -0.000000 -0.314075
vn 0.949398 -0.000000 -0.314075
vn 1.000000 -0.000000 -0.000000
vn 1.000000 -0.000000 -0.000000
vn 0.950947 -0.000000 0.309354
vn 0.950947 -0.000000 0.309354
vn 0.729740 -0.000000 0.683725
vn 0.729740 -0.000000 0.683725
vn 0.729593 -0.000000 0.683882
vn 0.729593 -0.000000 0.683882
vn 0.391194 -0.000000 0.920308
vn 0.391194 -0.000000 0.920308
vn -0.000000 0.000000 1.000000
vn -0.000000 0.000000 1.000000
vn -0.000000 0.000000 1.000000
vn -0.000000 0.000000 1.000000
vn -0.216458 0.000000 0.976292
vn -0.216458 0.000000 0.976292
vn 0.000000 1.000000 -0.000000
vn 0.000000 1.000000 -0.000000
vn 0.000000 1.000000 -0.000000
vn 0.000000 1.000000 -0.000000
vn 0.000000 1.000000 -0.000000
vn 0.000000 1.000000 -0.000000
vn 0.000000 1.000000 -0.000000
vn 0.000000 1.000000 -0.000000
vn 0.000000 1.000000 -0.000000
vn 0.000000 1.000000 -0.000000
vn 0.000000 1.000000 -0.000000
vn 0.000000 1.000000 -0.000000
vn 0.000000 1.000000 -0.000000
vn 0.000000 1.000000 -0.000000
vn 0.000000 1.000000 -0.000000
vn 0.000000 1.000000 -0.000000
vn 0.000000 1.000000 -0.000000
vn 0.000000 1.000000 -0.000000
vn 0.000000 1.000000 -0.000000
vn 0.000000 1.000000 -0.000000
vn 0.000000 1.000000 -0.000000
vn 0.000000 1.000000 -0.000000
vn 0.000000 1.000000 -0.000000
vn 0.000000 1.000000 -0.000000
vn 0.000000 1.000000 -0.000000
vn 0.000000 1.000000 -0.000000
vn 0.000000 1.000000 -0.000000
vn 0.000000 1.000000 -0.000000
vn 0.000000 1.000000 -0.000000
vn 0.000000 1.000000 -0.000000
vn 0.000000 1.000000 -0.000000
vn 0.000000 1.000000 -0.000000
vn 0.000000 1.000000 -0.000000
vn 0.000000 1.000000 -0.000000
vn 0.000000 1.000000 -0.000000
vn 0.000000 1.000000 -0.000000
vn 0.000000 1.000000 -0.000000
vn 0.000000 1.000000 -0.000000
vn 0.000000 1.000000 -0.000000
vn 0.000000 1.000000 -0.000000
vn 1.000000 -0.000000 -0.000000
vn 1.000000 -0.000000 -0.000000
vn 1.000000 -0.000000 -0.000000
vn 1.000000 -0.000000 -0.000000
vn -0.000000 0.000000 1.000000
vn -0.000000 0.000000 1.000000
vn -0.000000 0.000000 1.000000
vn -0.000000 0.000000 1.000000
vn 0.836794 -0.000000 0.547518
vn 0.836794 -0.000000 0.547518
vn 0.548839 -0.000000 0.835928
vn 0.548839 -0.000000 0.835928
vn 0.227754 -0.000000 0.973719
vn 0.227754 -0.000000 0.973719
vn -0.000000 0.000000 1.000000
vn -0.000000 0.000000 1.000000
vn 0.836794 -0.000000 0.547518
vn 1.000000 -0.000000 -0.000000
vn 1.000000 -0.000000 -0.000000
vn 0.995187 -0.000000 0.097991
vn 0.995187 -0.000000 0.097991
vn 0.830349 -0.000000 0.557244
vn 0.830349 -0.000000 0.557244
vn 0.830349 -0.000000 0.557244
vn 1.000000 -0.000000 -0.000000
vn 1.000000 -0.000000 -0.000000
vn 1.000000 -0.000000 -0.000000
vn 1.000000 -0.000000 -0.000000
vn 0.748164 -0.000000 -0.663514
vn 0.748164 -0.000000 -0.663514
vn 0.980108 -0.000000 -0.198465
vn 0.980108 -0.000000 -0.198465
vn 0.997857 -0.000000 -0.065435
vn 0.997857 -0.000000 -0.065435
vn 1.000000 -0.000000 -0.000000
vn 1.000000 -0.000000 -0.000000
vn 0.748164 -0.000000 -0.663514
vn -0.000000 -0.000000 -1.000000
vn -0.000000 -0.000000 -1.000000
vn 0.332787 -0.000000 -0.943002
vn 0.332787 -0.000000 -0.943002
vn 0.749008 -0.000000 -0.662561
vn 0.749008 -0.000000 -0.662561
vn 0.749008 -0.000000 -0.662561
vn -0.000000 -0.000000 -1.000000
vn -0.000000 -0.000000 -1.000000
vn -0.000000 -0.000000 -1.000000
vn -0.000000 -0.000000 -1.000000
vn 1.000000 -0.000000 -0.000000
vn 1.000000 -0.000000 -0.000000
vn 1.000000 -0.000000 -0.000000
vn 1.000000 -0.000000 -0.000000
vn -0.000000 0.000000 1.000000
vn -0.000000 0.000000 1.000000
vn -0.000000 0.000000 1.000000
vn -0.000000 0.000000 1.000000
vn -0.400301 0.000000 0.916384
vn -0.400301 0.000000 0.916384
vn -0.122920 0.000000 0.992417
vn -0.122920 0.000000 0.992417
vn -0.000000 0.000000 1.000000
vn -0.000000 0.000000 1.000000
vn -0.858684 0.000000 0.512506
vn -0.858684 0.000000 0.512506
vn -0.674597 0.000000 0.738186
vn -0.674597 0.000000 0.738186
vn -0.399301 0.000000 0.916820
vn -0.399301 0.000000 0.916820
vn -1.000000 -0.000000 -0.000000
vn -1.000000 -0.000000 -0.000000
vn -0.969539 0.000000 0.244935
vn -0.969539 0.000000 0.244935
vn -0.857493 0.000000 0.514496
vn -0.857493 0.000000 0.514496
vn -0.742035 -0.000000 -0.670362
vn -0.742035 -0.000000 -0.670362
vn -0.941347 -0.000000 -0.337441
vn -0.941347 -0.000000 -0.337441
vn -1.000000 -0.000000 -0.000000
vn -1.000000 -0.000000 -0.000000
vn -0.000000 -0.000000 -1.000000
vn -0.000000 -0.000000 -1.000000
vn -0.303875 -0.000000 -0.952712
vn -0.303875 -0.000000 -0.952712
vn -0.740169 -0.000000 -0.672421
vn -0.740169 -0.000000 -0.672421
vn -0.000000 -0.000000 -1.000000
vn -0.000000 -0.000000 -1.000000
vn -0.000000 -0.000000 -1.000000
vn -0.000000 -0.000000 -1.000000
vn -0.246501 -0.000000 -0.969142
vn -0.246501 -0.000000 -0.969142
vn -0.148469 -0.000000 -0.988917
vn -0.148469 -0.000000 -0.988917
vn -0.000000 -0.000000 -1.000000
vn -0.000000 -0.000000 -1.000000
vn -0.246501 -0.000000 -0.969142
vn -0.000000 -0.000000 -1.000000
vn -1.000000 -0.000000 -0.000000
vn -1.000000 -0.000000 -0.000000
vn -1.000000 -0.000000 -0.000000
vn -1.000000 -0.000000 -0.000000
vn -1.000000 -0.000000 -0.000000
vn -1.000000 -0.000000 -0.000000
vn -1.000000 -0.000000 -0.000000
vn -1.000000 -0.000000 -0.000000
vn -1.000000 0.000000 0.000000
vn -1.000000 -0.000000 -0.000000
vn -1.000000 -0.000000 -0.000000
vn -1.000000 -0.000000 -0.000000
vn -1.000000 -0.000000 -0.000000
vn -0.000000 -1.000000 0.000000
vn -0.000000 -1.000000 0.000000
vn -0.000000 -1.000000 0.000000
vn -0.000000 -1.000000 0.000000
vn -0.000000 -1.000000 0.000000
vn -0.000000 -1.000000 0.000000
vn -0.000000 -1.000000 0.000000
vn -0.000000 -1.000000 0.000000
vn -0.000000 -1.000000 0.000000
vn -0.000000 -1.000000 0.000000
vn -0.000000 -1.000000 0.000000
vn -0.000000 -1.000000 0.000000
vn -0.000000 -1.000000 0.000000
vn -0.000000 -1.000000 0.000000
vn -0.000000 -1.000000 0.000000
vn -0.000000 -1.000000 0.000000
vn -0.000000 -1.000000 0.000000
vn -0.000000 -1.000000 0.000000
vn -0.000000 -1.000000 0.000000
vn -0.000000 -1.000000 0.000000
vn -0.000000 -1.000000 0.000000
vn -0.000000 -1.000000 0.000000
vn -0.000000 -1.000000 0.000000
vn -0.000000 -1.000000 0.000000
vn -0.000000 -1.000000 0.000000
vn -0.000000 -1.000000 0.000000
vn -0.000000 -1.000000 0.000000
vn -0.000000 -1.000000 0.000000
vn -0.000000 -1.000000 0.000000
vn -0.000000 -1.000000 0.000000
vn -0.000000 -1.000000 0.000000
vn -0.000000 -1.000000 0.000000
vn -0.000000 -1.000000 0.000000
vn -0.000000 -1.000000 0.000000
vn -0.000000 -1.000000 0.000000
vn -0.000000 -1.000000 0.000000
vn -0.000000 -1.000000 0.000000
vn -0.000000 -1.000000 0.000000
vn -0.000000 -1.000000 0.000000
vn -0.000000 -1.000000 0.000000
vn -0.000000 -0.000000 -1.000000
vn -0.000000 -0.000000 -1.000000
vn 0.373921 -0.000000 -0.927460
vn 0.373921 -0.000000 -0.927460
vn 0.727459 -0.000000 -0.686151
vn 0.727459 -0.000000 -0.686151
vn -0.000000 -0.000000 -1.000000
vn 0.727524 -0.000000 -0.686082
vn 0.727524 -0.000000 -0.686082
vn 0.949398 -0.000000 -0.314075
vn 0.949398 -0.000000 -0.314075
vn 1.000000 -0.000000 -0.000000
vn 1.000000 -0.000000 -0.000000
vn 0.950947 -0.000000 0.309354
vn 0.950947 -0.000000 0.309354
vn 0.729740 -0.000000 0.683725
vn 0.729740 -0.000000 0.683725
vn 0.729593 -0.000000 0.683882
vn 0.729593 -0.000000 0.683882
vn 0.391194 -0.000000 0.920308
vn 0.391194 -0.000000 0.920308
vn -0.000000 0.000000 1.000000
vn -0.000000 0.000000 1.000000
vn -0.000000 0.000000 1.000000
vn -0.000000 0.000000 1.000000
vn -0.216458 0.000000 0.976292
vn -0.216458 0.000000 0.976292
f 2/2/2 1/1/1 3/3/3
f 6/6/6 5/5/5 7/7/7
f 10/10/10 9/9/9 11/11/11
f 14/14/14 13/13/13 15/15/15
f 18/18/18 17/17/17 19/19/19
f 22/22/22 24/24/24 23/23/23
f 26/26/26 25/25/25 27/27/27
f 27/27/27 28/28/28 26/26/26
f 31/31/31 29/29/29 30/30/30
f 34/34/34 32/32/32 33/33/33
f 37/37/37 35/35/35 36/36/36
f 40/40/40 38/38/38 39/39/39
f 42/42/42 41/41/41 43/43/43
f 43/43/43 44/44/44 42/42/42
f 47/47/47 45/45/45 46/46/46
f 50/50/50 48/48/48 49/49/49
f 53/53/53 51/51/51 52/52/52
f 56/56/56 54/54/54 55/55/55
f 58/58/58 57/57/57 59/59/59
f 59/59/59 60/60/60 58/58/58
f 63/63/63 61/61/61 62/62/62
f 66/66/66 64/64/64 65/65/65
f 69/69/69 67/67/67 68/68/68
f 72/72/72 70/70/70 71/71/71
f 73/73/73 74/74/74 75/75/75
f 74/74/74 73/73/73 76/76/76
f 77/77/77 78/78/78 79/79/79
f 79/79/79 80/80/80 77/77/77
f 81/81/81 82/82/82 83/83/83
f 85/85/85 86/86/86 87/87/87
f 89/89/89 90/90/90 91/91/91
f 93/93/93 94/94/94 95/95/95
f 97/97/97 98/98/98 99/99/99
f 101/101/101 102/102/102 103/103/103
f 105/105/105 106/106/106 107/107/107
f 109/109/109 110/110/110 111/111/111
f 113/113/113 114/114/114 115/115/115
f 117/117/117 118/118/118 119/119/119
f 118/118/118 117/117/117 120/120/120
f 121/121/121 122/122/122 123/123/123
f 123/123/123 124/124/124 121/121/121
f 125/125/125 126/126/126 127/127/127
f 129/129/129 130/130/130 131/131/131
f 133/133/133 134/134/134 135/135/135
f 137/137/137 138/138/138 139/139/139
f 141/141/141 142/142/142 143/143/143
f 145/145/145 146/146/146 147/147/147
f 149/149/149 150/150/150 151/151/151
f 153/153/153 154/154/154 155/155/155
f 157/157/157 158/158/158 159/159/159
f 161/161/161 163/163/163 164/164/164
f 165/165/165 167/167/167 168/168/168
f 169/169/169 171/171/171 172/172/172
f 173/173/173 175/175/175 176/176/176
f 177/177/177 180/180/180 179/179/179
f 179/179/179 178/178/178 177/177/177
f 181/181/181 183/183/183 184/184/184
f 183/183/183 181/181/181 182/182/182
f 186/186/186 185/185/185 187/187/187
f 190/190/190 189/189/189 191/191/191
f 194/194/194 193/193/193 195/195/195
f 198/198/198 197/197/197 199/199/199
f 202/202/202 204/204/204 203/203/203
f 205/205/205 207/207/207 208/208/208
f 209/209/209 211/211/211 212/212/212
f 213/213/213 215/215/215 216/216/216
f 217/217/217 219/219/219 220/220/220
f 221/221/221 224/224/224 223/223/223
f 223/223/223 222/222/222 221/221/221
f 225/225/225 227/227/227 228/228/228
f 227/227/227 225/225/225 226/226/226
f 230/230/230 229/229/229 231/231/231
f 234/234/234 233/233/233 235/235/235
f 238/238/238 237/237/237 239/239/239
f 242/242/242 241/241/241 243/243/243
f 246/246/246 248/248/248 247/247/247
f 262/262/262 264/264/264 263/263/263
f 264/264/264 262/262/262 261/261/261
f 278/278/278 261/261/261 260/260/260
f 265/265/265 261/261/261 278/278/278
f 279/279/279 278/278/278 257/257/257
f 260/260/260 259/259/259 278/278/278
f 278/278/278 259/259/259 258/258/258
f 278/278/278 258/258/258 257/257/257
f 265/265/265 278/278/278 281/281/281
f 265/265/265 264/264/264 261/261/261
f 252/252/252 249/249/249 275/275/275
f 249/249/249 251/251/251 250/250/250
f 252/252/252 251/251/251 249/249/249
f 253/253/253 252/252/252 275/275/275
f 276/276/276 279/279/279 256/256/256
f 276/276/276 255/255/255 254/254/254
f 256/256/256 255/255/255 276/276/276
f 253/253/253 276/276/276 254/254/254
f 256/256/256 279/279/279 257/257/257
f 253/253/253 275/275/275 276/276/276
f 280/280/280 266/266/266 265/265/265
f 266/266/266 280/280/280 283/283/283
f 283/283/283 282/282/282 267/267/267
f 267/267/267 266/266/266 283/283/283
f 282/282/282 287/287/287 268/268/268
f 270/270/270 269/269/269 287/287/287
f 268/268/268 287/287/287 269/269/269
f 286/286/286 270/270/270 287/287/287
f 267/267/267 282/282/282 268/268/268
f 274/274/274 284/284/284 288/288/288
f 277/277/277 275/275/275 288/288/288
f 274/274/274 288/288/288 275/275/275
f 276/276/276 275/275/275 277/277/277
f 274/274/274 273/273/273 284/284/284
f 272/272/272 271/271/271 286/286/286
f 270/270/270 286/286/286 271/271/271
f 273/273/273 272/272/272 285/285/285
f 286/286/286 285/285/285 272/272/272
f 284/284/284 273/273/273 285/285/285
f 265/265/265 281/281/281 280/280/280
f 290/290/290 292/292/292 291/291/291
f 294/294/294 296/296/296 295/295/295
f 305/305/305 299/299/299 297/297/297
f 305/305/305 298/298/298 300/300/300
f 300/300/300 299/299/299 305/305/305
f 303/303/303 301/301/301 302/302/302
f 301/301/301 299/299/299 300/300/300
f 307/307/307 309/309/309 308/308/308
f 308/308/308 309/309/309 312/312/312
f 312/312/312 309/309/309 311/311/311
f 310/310/310 308/308/308 312/312/312
f 314/314/314 316/316/316 315/315/315
f 325/325/325 319/319/319 317/317/317
f 325/325/325 318/318/318 320/320/320
f 320/320/320 319/319/319 325/325/325
f 323/323/323 321/321/321 322/322/322
f 321/321/321 319/319/319 320/320/320
f 327/327/327 329/329/329 328/328/328
f 329/329/329 331/331/331 332/332/332
f 330/330/330 328/328/328 332/332/332
f 334/334/334 336/336/336 335/335/335
f 338/338/338 340/340/340 339/339/339
f 342/342/342 344/344/344 343/343/343
f 346/346/346 348/348/348 347/347/347
f 349/349/349 347/347/347 348/348/348
f 352/352/352 354/354/354 353/353/353
f 355/355/355 353/353/353 354/354/354
f 358/358/358 360/360/360 359/359/359
f 361/361/361 359/359/359 360/360/360
f 364/364/364 366/366/366 365/365/365
f 367/367/367 365/365/365 366/366/366
f 370/370/370 372/372/372 371/371/371
f 373/373/373 371/371/371 372/372/372
f 376/376/376 378/378/378 377/377/377
f 385/385/385 381/381/381 379/379/379
f 385/385/385 380/380/380 382/382/382
f 382/382/382 381/381/381 385/385/385
f 381/381/381 382/382/382 386/386/386
f 386/386/386 382/382/382 384/384/384
f 383/383/383 381/381/381 386/386/386
f 399/399/399 395/395/395 394/394/394
f 395/395/395 397/397/397 396/396/396
f 389/389/389 387/387/387 388/388/388
f 391/391/391 389/389/389 396/396/396
f 396/396/396 389/389/389 394/394/394
f 394/394/394 389/389/389 390/390/390
f 398/398/398 394/394/394 390/390/390
f 393/393/393 391/391/391 397/397/397
f 396/396/396 397/397/397 391/391/391
f 395/395/395 393/393/393 397/397/397
f 398/398/398 392/392/392 399/399/399
f 393/393/393 395/395/395 399/399/399
f 399/399/399 392/392/392 393/393/393
f 390/390/390 392/392/392 398/398/398
f 413/413/413 414/414/414 415/415/415
f 415/415/415 412/412/412 413/413/413
f 429/429/429 411/411/411 412/412/412
f 416/416/416 429/429/429 412/412/412
f 430/430/430 408/408/408 429/429/429
f 411/411/411 429/429/429 410/410/410
f 429/429/429 409/409/409 410/410/410
f 429/429/429 408/408/408 409/409/409
f 416/416/416 432/432/432 429/429/429
f 416/416/416 412/412/412 415/415/415
f 403/403/403 426/426/426 400/400/400
f 400/400/400 401/401/401 402/402/402
f 403/403/403 400/400/400 402/402/402
f 404/404/404 426/426/426 403/403/403
f 427/427/427 407/407/407 430/430/430
f 427/427/427 405/405/405 406/406/406
f 407/407/407 427/427/427 406/406/406
f 404/404/404 405/405/405 427/427/427
f 407/407/407 408/408/408 430/430/430
f 404/404/404 427/427/427 426/426/426
f 431/431/431 416/416/416 417/417/417
f 417/417/417 434/434/434 431/431/431
f 434/434/434 418/418/418 433/433/433
f 418/418/418 434/434/434 417/417/417
f 433/433/433 419/419/419 438/438/438
f 421/421/421 438/438/438 420/420/420
f 419/419/419 420/420/420 438/438/438
f 437/437/437 438/438/438 421/421/421
f 418/418/418 419/419/419 433/433/433
f 425/425/425 439/439/439 435/435/435
f 428/428/428 439/439/439 426/426/426
f 425/425/425 426/426/426 439/439/439
f 427/427/427 428/428/428 426/426/426
f 425/425/425 435/435/435 424/424/424
f 423/423/423 437/437/437 422/422/422
f 421/421/421 422/422/422 437/437/437
f 424/424/424 436/436/436 423/423/423
f 437/437/437 423/423/423 436/436/436
f 435/435/435 436/436/436 424/424/424
f 416/416/416 431/431/431 432/432/432
f 442/442/442 440/440/440 446/446/446
f 443/443/443 446/446/446 441/441/441
f 444/444/444 442/442/442 443/443/443
f 446/446/446 443/443/443 442/442/442
f 449/449/449 447/447/447 448/448/448
f 450/450/450 452/452/452 451/451/451
f 455/455/455 453/453/453 454/454/454
f 453/453/453 451/451/451 452/452/452
f 458/458/458 460/460/460 459/459/459
f 461/461/461 459/459/459 460/460/460
f 464/464/464 466/466/466 465/465/465
f 480/480/480 482/482/482 481/481/481
f 482/482/482 480/480/480 479/479/479
f 496/496/496 479/479/479 478/478/478
f 483/483/483 479/479/479 496/496/496
f 497/497/497 496/496/496 475/475/475
f 478/478/478 477/477/477 496/496/496
f 496/496/496 477/477/477 476/476/476
f 496/496/496 476/476/476 475/475/475
f 483/483/483 496/496/496 499/499/499
f 483/483/483 482/482/482 479/479/479
f 470/470/470 467/467/467 493/493/493
f 467/467/467 469/469/469 468/468/468
f 470/470/470 469/469/469 467/467/467
f 471/471/471 470/470/470 493/493/493
f 494/494/494 497/497/497 474/474/474
f 494/494/494 473/473/473 472/472/472
f 474/474/474 473/473/473 494/494/494
f 471/471/471 494/494/494 472/472/472
f 474/474/474 497/497/497 475/475/475
f 471/471/471 493/493/493 494/494/494
f 498/498/498 484/484/484 483/483/483
f 484/484/484 498/498/498 501/501/501
f 501/501/501 500/500/500 485/485/485
f 485/485/485 484/484/484 501/501/501
f 500/500/500 505/505/505 486/486/486
f 488/488/488 487/487/487 505/505/505
f 486/486/486 505/505/505 487/487/487
f 504/504/504 488/488/488 505/505/505
f 485/485/485 500/500/500 486/486/486
f 492/492/492 502/502/502 506/506/506
f 495/495/495 493/493/493 506/506/506
f 492/492/492 506/506/506 493/493/493
f 494/494/494 493/493/493 495/495/495
f 492/492/492 491/491/491 502/502/502
f 490/490/490 489/489/489 504/504/504
f 488/488/488 504/504/504 489/489/489
f 491/491/491 490/490/490 503/503/503
f 504/504/504 503/503/503 490/490/490
f 502/502/502 491/491/491 503/503/503
f 483/483/483 499/499/499 498/498/498
f 508/508/508 510/510/510 509/509/509
f 512/512/512 514/514/514 513/513/513
f 523/523/523 517/517/517 515/515/515
f 523/523/523 516/516/516 518/518/518
f 518/518/518 517/517/517 523/523/523
f 521/521/521 519/519/519 520/520/520
f 519/519/519 517/517/517 518/518/518
f 525/525/525 527/527/527 526/526/526
f 527/527/527 529/529/529 530/530/530
f 528/528/528 526/526/526 530/530/530
f 532/532/532 534/534/534 533/533/533
f 543/543/543 537/537/537 535/535/535
f 543/543/543 536/536/536 538/538/538
f 538/538/538 537/537/537 543/543/543
f 541/541/541 539/539/539 540/540/540
f 539/539/539 537/537/537 538/538/538
f 545/545/545 547/547/547 546/546/546
f 546/546/546 547/547/547 550/550/550
f 550/550/550 547/547/547 549/549/549
f 548/548/548 546/546/546 550/550/550
f 552/552/552 554/554/554 553/553/553
f 556/556/556 558/558/558 557/557/557
f 560/560/560 562/562/562 561/561/561
f 564/564/564 566/566/566 565/565/565
f 567/567/567 565/565/565 566/566/566
f 570/570/570 572/572/572 571/571/571
f 573/573/573 571/571/571 572/572/572
f 576/576/576 578/578/578 577/577/577
f 579/579/579 577/577/577 578/578/578
f 582/582/582 584/584/584 583/583/583
f 585/585/585 583/583/583 584/584/584
f 588/588/588 590/590/590 589/589/589
f 591/591/591 589/589/589 590/590/590
f 594/594/594 596/596/596 595/595/595
f 603/603/603 599/599/599 597/597/597
f 603/603/603 598/598/598 600/600/600
f 600/600/600 599/599/599 603/603/603
f 599/599/599 600/600/600 604/604/604
f 604/604/604 600/600/600 602/602/602
f 601/601/601 599/599/599 604/604/604
f 617/617/617 613/613/613 612/612/612
f 613/613/613 615/615/615 614/614/614
f 607/607/607 605/605/605 606/606/606
f 609/609/609 607/607/607 614/614/614
f 614/614/614 607/607/607 612/612/612
f 612/612/612 607/607/607 608/608/608
f 616/616/616 612/612/612 608/608/608
f 611/611/611 615/615/615 613/613/613
f 614/614/614 615/615/615 609/609/609
f 609/609/609 615/615/615 611/611/611
f 610/610/610 617/617/617 616/616/616
f 617/617/617 610/610/610 611/611/611
f 617/617/617 611/611/611 613/613/613
f 608/608/608 610/610/610 616/616/616
f 631/631/631 632/632/632 633/633/633
f 633/633/633 630/630/630 631/631/631
f 647/647/647 629/629/629 630/630/630
f 634/634/634 647/647/647 630/630/630
f 648/648/648 626/626/626 647/647/647
f 629/629/629 647/647/647 628/628/628
f 647/647/647 627/627/627 628/628/628
f 647/647/647 626/626/626 627/627/627
f 634/634/634 650/650/650 647/647/647
f 634/634/634 630/630/630 633/633/633
f 621/621/621 644/644/644 618/618/618
f 618/618/618 619/619/619 620/620/620
f 621/621/621 618/618/618 620/620/620
f 622/622/622 644/644/644 621/621/621
f 645/645/645 625/625/625 648/648/648
f 645/645/645 623/623/623 624/624/624
f 625/625/625 645/645/645 624/624/624
f 622/622/622 623/623/623 645/645/645
f 625/625/625 626/626/626 648/648/648
f 622/622/622 645/645/645 644/644/644
f 649/649/649 634/634/634 635/635/635
f 635/635/635 652/652/652 649/649/649
f 652/652/652 636/636/636 651/651/651
f 636/636/636 652/652/652 635/635/635
f 651/651/651 637/637/637 656/656/656
f 639/639/639 656/656/656 638/638/638
f 637/637/637 638/638/638 656/656/656
f 655/655/655 656/656/656 639/639/639
f 636/636/636 637/637/637 651/651/651
f 643/643/643 657/657/657 653/653/653
f 646/646/646 657/657/657 644/644/644
f 643/643/643 644/644/644 657/657/657
f 645/645/645 646/646/646 644/644/644
f 643/643/643 653/653/653 642/642/642
f 641/641/641 655/655/655 640/640/640
f 639/639/639 640/640/640 655/655/655
f 642/642/642 654/654/654 641/641/641
f 655/655/655 641/641/641 654/654/654
f 653/653/653 654/654/654 642/642/642
f 634/634/634 649/649/649 650/650/650
f 660/660/660 658/658/658 664/664/664
f 661/661/661 664/664/664 659/659/659
f 662/662/662 660/660/660 661/661/661
f 664/664/664 661/661/661 660/660/660
f 667/667/667 665/665/665 666/666/666
f 668/668/668 670/670/670 669/669/669
f 673/673/673 671/671/671 672/672/672
f 671/671/671 669/669/669 670/670/670
f 676/676/676 678/678/678 677/677/677
f 679/679/679 677/677/677 678/678/678
f 682/682/682 684/684/684 683/683/683
f 2/2/2 3/3/3 4/4/4
f 6/6/6 7/7/7 8/8/8
f 10/10/10 11/11/11 12/12/12
f 14/14/14 15/15/15 16/16/16
f 18/18/18 19/19/19 20/20/20
f 22/22/22 23/23/23 21/21/21
f 81/81/81 83/83/83 84/84/84
f 85/85/85 87/87/87 88/88/88
f 89/89/89 91/91/91 92/92/92
f 93/93/93 95/95/95 96/96/96
f 97/97/97 99/99/99 100/100/100
f 101/101/101 103/103/103 104/104/104
f 105/105/105 107/107/107 108/108/108
f 109/109/109 111/111/111 112/112/112
f 113/113/113 115/115/115 116/116/116
f 125/125/125 127/127/127 128/128/128
f 129/129/129 131/131/131 132/132/132
f 133/133/133 135/135/135 136/136/136
f 137/137/137 139/139/139 140/140/140
f 141/141/141 143/143/143 144/144/144
f 145/145/145 147/147/147 148/148/148
f 149/149/149 151/151/151 152/152/152
f 153/153/153 155/155/155 156/156/156
f 157/157/157 159/159/159 160/160/160
f 161/161/161 164/164/164 162/162/162
f 165/165/165 168/168/168 166/166/166
f 169/169/169 172/172/172 170/170/170
f 173/173/173 176/176/176 174/174/174
f 186/186/186 187/187/187 188/188/188
f 190/190/190 191/191/191 192/192/192
f 194/194/194 195/195/195 196/196/196
f 198/198/198 199/199/199 200/200/200
f 202/202/202 203/203/203 201/201/201
f 205/205/205 208/208/208 206/206/206
f 209/209/209 212/212/212 210/210/210
f 213/213/213 216/216/216 214/214/214
f 217/217/217 220/220/220 218/218/218
f 230/230/230 231/231/231 232/232/232
f 234/234/234 235/235/235 236/236/236
f 238/238/238 239/239/239 240/240/240
f 242/242/242 243/243/243 244/244/244
f 246/246/246 247/247/247 245/245/245
f 290/290/290 291/291/291 289/289/289
f 294/294/294 295/295/295 293/293/293
f 303/303/303 302/302/302 304/304/304
f 301/301/301 300/300/300 302/302/302
f 307/307/307 308/308/308 306/306/306
f 314/314/314 315/315/315 313/313/313
f 323/323/323 322/322/322 324/324/324
f 321/321/321 320/320/320 322/322/322
f 327/327/327 328/328/328 326/326/326
f 329/329/329 332/332/332 328/328/328
f 334/334/334 335/335/335 333/333/333
f 338/338/338 339/339/339 337/337/337
f 342/342/342 343/343/343 341/341/341
f 346/346/346 347/347/347 345/345/345
f 349/349/349 348/348/348 350/350/350
f 352/352/352 353/353/353 351/351/351
f 355/355/355 354/354/354 356/356/356
f 358/358/358 359/359/359 357/357/357
f 361/361/361 360/360/360 362/362/362
f 364/364/364 365/365/365 363/363/363
f 367/367/367 366/366/366 368/368/368
f 370/370/370 371/371/371 369/369/369
f 373/373/373 372/372/372 374/374/374
f 376/376/376 377/377/377 375/375/375
f 399/399/399 394/394/394 398/398/398
f 395/395/395 396/396/396 394/394/394
f 389/389/389 388/388/388 390/390/390
f 444/444/444 443/443/443 445/445/445
f 449/449/449 448/448/448 450/450/450
f 450/450/450 451/451/451 449/449/449
f 455/455/455 454/454/454 456/456/456
f 453/453/453 452/452/452 454/454/454
f 458/458/458 459/459/459 457/457/457
f 461/461/461 460/460/460 462/462/462
f 464/464/464 465/465/465 463/463/463
f 508/508/508 509/509/509 507/507/507
f 512/512/512 513/513/513 511/511/511
f 521/521/521 520/520/520 522/522/522
f 519/519/519 518/518/518 520/520/520
f 525/525/525 526/526/526 524/524/524
f 527/527/527 530/530/530 526/526/526
f 532/532/532 533/533/533 531/531/531
f 541/541/541 540/540/540 542/542/542
f 539/539/539 538/538/538 540/540/540
f 545/545/545 546/546/546 544/544/544
f 552/552/552 553/553/553 551/551/551
f 556/556/556 557/557/557 555/555/555
f 560/560/560 561/561/561 559/559/559
f 564/564/564 565/565/565 563/563/563
f 567/567/567 566/566/566 568/568/568
f 570/570/570 571/571/571 569/569/569
f 573/573/573 572/572/572 574/574/574
f 576/576/576 577/577/577 575/575/575
f 579/579/579 578/578/578 580/580/580
f 582/582/582 583/583/583 581/581/581
f 585/585/585 584/584/584 586/586/586
f 588/588/588 589/589/589 587/587/587
f 591/591/591 590/590/590 592/592/592
f 594/594/594 595/595/595 593/593/593
f 617/617/617 612/612/612 616/616/616
f 613/613/613 614/614/614 612/612/612
f 607/607/607 606/606/606 608/608/608
f 662/662/662 661/661/661 663/663/663
f 667/667/667 666/666/666 668/668/668
f 668/668/668 669/669/669 667/667/667
f 673/673/673 672/672/672 674/674/674
f 671/671/671 670/670/670 672/672/672
f 676/676/676 677/677/677 675/675/675
f 679/679/679 678/678/678 680/680/680
f 682/682/682 683/683/683 681/681/681

