g mesh_AA_point_sup0
v -4.500000 4.010000 4.000000
v -0.000000 4.010000 4.000000
v -0.000000 4.010000 3.000000
v -4.500000 4.010000 3.000000
v -4.500000 4.000000 4.000000
v -0.000000 4.000000 4.000000
v -0.000000 4.000000 3.000000
v -4.500000 4.000000 3.000000
v -9.000000 4.010000 4.000000
v -9.000000 4.010000 3.000000
v -9.000000 4.000000 4.000000
v -9.000000 4.000000 3.000000
v -0.000000 4.000000 4.000000
v -0.000000 4.000000 3.000000
v -0.000000 4.010000 3.000000
v -0.000000 4.010000 4.000000
v -0.000000 4.000000 3.000000
v -4.500000 4.000000 3.000000
v -4.500000 4.010000 3.000000
v -0.000000 4.010000 3.000000
v -4.500000 4.000000 4.000000
v -0.000000 4.000000 4.000000
v -0.000000 4.010000 4.000000
v -4.500000 4.010000 4.000000
v -4.500000 4.000000 3.000000
v -9.000000 4.000000 3.000000
v -9.000000 4.010000 3.000000
v -4.500000 4.010000 3.000000
v -9.000000 4.000000 4.000000
v -4.500000 4.000000 4.000000
v -4.500000 4.010000 4.000000
v -9.000000 4.010000 4.000000
v -9.000000 4.000000 3.000000
v -9.000000 4.000000 4.000000
v -9.000000 4.010000 4.000000
v -9.000000 4.010000 3.000000
v -0.676777 2.800000 3.676777
v -0.323223 2.800000 3.676777
v -0.500000 3.000000 3.500000
v -0.323223 2.800000 3.676777
v -0.323223 2.800000 3.323223
v -0.500000 3.000000 3.500000
v -0.323223 2.800000 3.323223
v -0.676777 2.800000 3.323223
v -0.500000 3.000000 3.500000
v -0.676777 2.800000 3.323223
v -0.676777 2.800000 3.676777
v -0.500000 3.000000 3.500000
v -0.676777 2.800000 3.676777
v -0.323223 2.800000 3.676777
v -0.323223 2.800000 3.323223
v -0.676777 2.800000 3.323223
v -0.676777 2.800000 3.176777
v -0.323223 2.800000 3.176777
v -0.500000 3.000000 3.000000
v -0.323223 2.800000 3.176777
v -0.323223 2.800000 2.823223
v -0.500000 3.000000 3.000000
v -0.323223 2.800000 2.823223
v -0.676777 2.800000 2.823223
v -0.500000 3.000000 3.000000
v -0.676777 2.800000 2.823223
v -0.676777 2.800000 3.176777
v -0.500000 3.000000 3.000000
v -0.676777 2.800000 3.176777
v -0.323223 2.800000 3.176777
v -0.323223 2.800000 2.823223
v -0.676777 2.800000 2.823223
v -0.676777 2.800000 4.176777
v -0.323223 2.800000 4.176777
v -0.500000 3.000000 4.000000
v -0.323223 2.800000 4.176777
v -0.323223 2.800000 3.823223
v -0.500000 3.000000 4.000000
v -0.323223 2.800000 3.823223
v -0.676777 2.800000 3.823223
v -0.500000 3.000000 4.000000
v -0.676777 2.800000 3.823223
v -0.676777 2.800000 4.176777
v -0.500000 3.000000 4.000000
v -0.676777 2.800000 4.176777
v -0.323223 2.800000 4.176777
v -0.323223 2.800000 3.823223
v -0.676777 2.800000 3.823223
v -4.676777 2.800000 4.176777
v -4.323223 2.800000 4.176777
v -4.500000 3.000000 4.000000
v -4.323223 2.800000 4.176777
v -4.323223 2.800000 3.823223
v -4.500000 3.000000 4.000000
v -4.323223 2.800000 3.823223
v -4.676777 2.800000 3.823223
v -4.500000 3.000000 4.000000
v -4.676777 2.800000 3.823223
v -4.676777 2.800000 4.176777
v -4.500000 3.000000 4.000000
v -4.676777 2.800000 4.176777
v -4.323223 2.800000 4.176777
v -4.323223 2.800000 3.823223
v -4.676777 2.800000 3.823223
v -4.676777 2.800000 3.676777
v -4.323223 2.800000 3.676777
v -4.500000 3.000000 3.500000
v -4.323223 2.800000 3.676777
v -4.323223 2.800000 3.323223
v -4.500000 3.000000 3.500000
v -4.323223 2.800000 3.323223
v -4.676777 2.800000 3.323223
v -4.500000 3.000000 3.500000
v -4.676777 2.800000 3.323223
v -4.676777 2.800000 3.676777
v -4.500000 3.000000 3.500000
v -4.676777 2.800000 3.676777
v -4.323223 2.800000 3.676777
v -4.323223 2.800000 3.323223
v -4.676777 2.800000 3.323223
v -4.676777 2.800000 3.176777
v -4.323223 2.800000 3.176777
v -4.500000 3.000000 3.000000
v -4.323223 2.800000 3.176777
v -4.323223 2.800000 2.823223
v -4.500000 3.000000 3.000000
v -4.323223 2.800000 2.823223
v -4.676777 2.800000 2.823223
v -4.500000 3.000000 3.000000
v -4.676777 2.800000 2.823223
v -4.676777 2.800000 3.176777
v -4.500000 3.000000 3.000000
v -4.676777 2.800000 3.176777
v -4.323223 2.800000 3.176777
v -4.323223 2.800000 2.823223
v -4.676777 2.800000 2.823223
v -8.676777 2.800000 4.176777
v -8.323223 2.800000 4.176777
v -8.500000 3.000000 4.000000
v -8.323223 2.800000 4.176777
v -8.323223 2.800000 3.823223
v -8.500000 3.000000 4.000000
v -8.323223 2.800000 3.823223
v -8.676777 2.800000 3.823223
v -8.500000 3.000000 4.000000
v -8.676777 2.800000 3.823223
v -8.676777 2.800000 4.176777
v -8.500000 3.000000 4.000000
v -8.676777 2.800000 4.176777
v -8.323223 2.800000 4.176777
v -8.323223 2.800000 3.823223
v -8.676777 2.800000 3.823223
v -8.676777 2.800000 3.676777
v -8.323223 2.800000 3.676777
v -8.500000 3.000000 3.500000
v -8.323223 2.800000 3.676777
v -8.323223 2.800000 3.323223
v -8.500000 3.000000 3.500000
v -8.323223 2.800000 3.323223
v -8.676777 2.800000 3.323223
v -8.500000 3.000000 3.500000
v -8.676777 2.800000 3.323223
v -8.676777 2.800000 3.676777
v -8.500000 3.000000 3.500000
v -8.676777 2.800000 3.676777
v -8.323223 2.800000 3.676777
v -8.323223 2.800000 3.323223
v -8.676777 2.800000 3.323223
v -8.676777 2.800000 3.176777
v -8.323223 2.800000 3.176777
v -8.500000 3.000000 3.000000
v -8.323223 2.800000 3.176777
v -8.323223 2.800000 2.823223
v -8.500000 3.000000 3.000000
v -8.323223 2.800000 2.823223
v -8.676777 2.800000 2.823223
v -8.500000 3.000000 3.000000
v -8.676777 2.800000 2.823223
v -8.676777 2.800000 3.176777
v -8.500000 3.000000 3.000000
v -8.676777 2.800000 3.176777
v -8.323223 2.800000 3.176777
v -8.323223 2.800000 2.823223
v -8.676777 2.800000 2.823223
vt 0.375000 0.750000
vt 0.125000 0.750000
vt 0.125000 0.250000
vt 0.375000 0.250000
vt 0.500000 1.000000
vt 0.000000 1.000000
vt 0.000000 0.000000
vt 0.500000 0.000000
vt 0.875000 0.750000
vt 0.875000 0.250000
vt 1.000000 1.000000
vt 1.000000 0.000000
vt 0.000000 1.000000
vt 0.000000 0.000000
vt 0.125000 0.250000
vt 0.125000 0.750000
vt 0.000000 0.000000
vt 0.500000 0.000000
vt 0.375000 0.250000
vt 0.125000 0.250000
vt 0.500000 1.000000
vt 0.000000 1.000000
vt 0.125000 0.750000
vt 0.375000 0.750000
vt 0.500000 0.000000
vt 1.000000 0.000000
vt 0.875000 0.250000
vt 0.375000 0.250000
vt 1.000000 1.000000
vt 0.500000 1.000000
vt 0.375000 0.750000
vt 0.875000 0.750000
vt 1.000000 0.000000
vt 1.000000 1.000000
vt 0.875000 0.750000
vt 0.875000 0.250000
vt 0.740349 0.000000
vt 0.740349 0.340511
vt 0.483627 0.170256
vt 0.998535 0.341976
vt 0.998535 0.682487
vt 0.741814 0.512232
vt 0.740349 0.341976
vt 0.740349 0.682487
vt 0.483627 0.512232
vt 0.998535 0.000000
vt 0.998535 0.340511
vt 0.741814 0.170256
vt 0.241081 0.483627
vt 0.000000 0.241814
vt 0.241081 0.000000
vt 0.482162 0.241814
vt 0.740349 0.000000
vt 0.740349 0.340511
vt 0.483627 0.170256
vt 0.998535 0.341976
vt 0.998535 0.682487
vt 0.741814 0.512232
vt 0.740349 0.341976
vt 0.740349 0.682487
vt 0.483627 0.512232
vt 0.998535 0.000000
vt 0.998535 0.340511
vt 0.741814 0.170256
vt 0.241081 0.483627
vt 0.000000 0.241814
vt 0.241081 0.000000
vt 0.482162 0.241814
vt 0.740349 0.000000
vt 0.740349 0.340511
vt 0.483627 0.170256
vt 0.998535 0.341976
vt 0.998535 0.682487
vt 0.741814 0.512232
vt 0.740349 0.341976
vt 0.740349 0.682487
vt 0.483627 0.512232
vt 0.998535 0.000000
vt 0.998535 0.340511
vt 0.741814 0.170256
vt 0.241081 0.483627
vt 0.000000 0.241814
vt 0.241081 0.000000
vt 0.482162 0.241814
vt 0.740349 0.000000
vt 0.740349 0.340511
vt 0.483627 0.170256
vt 0.998535 0.341976
vt 0.998535 0.682487
vt 0.741814 0.512232
vt 0.740349 0.341976
vt 0.740349 0.682487
vt 0.483627 0.512232
vt 0.998535 0.000000
vt 0.998535 0.340511
vt 0.741814 0.170256
vt 0.241081 0.483627
vt 0.000000 0.241814
vt 0.241081 0.000000
vt 0.482162 0.241814
vt 0.740349 0.000000
vt 0.740349 0.340511
vt 0.483627 0.170256
vt 0.998535 0.341976
vt 0.998535 0.682487
vt 0.741814 0.512232
vt 0.740349 0.341976
vt 0.740349 0.682487
vt 0.483627 0.512232
vt 0.998535 0.000000
vt 0.998535 0.340511
vt 0.741814 0.170256
vt 0.241081 0.483627
vt 0.000000 0.241814
vt 0.241081 0.000000
vt 0.482162 0.241814
vt 0.740349 0.000000
vt 0.740349 0.340511
vt 0.483627 0.170256
vt 0.998535 0.341976
vt 0.998535 0.682487
vt 0.741814 0.512232
vt 0.740349 0.341976
vt 0.740349 0.682487
vt 0.483627 0.512232
vt 0.998535 0.000000
vt 0.998535 0.340511
vt 0.741814 0.170256
vt 0.241081 0.483627
vt 0.000000 0.241814
vt 0.241081 0.000000
vt 0.482162 0.241814
vt 0.998535 0.000000
vt 0.998535 0.340511
vt 0.741814 0.170256
vt 0.740349 0.000000
vt 0.740349 0.340511
vt 0.483627 0.170256
vt 0.998535 0.341976
vt 0.998535 0.682487
vt 0.741814 0.512232
vt 0.740349 0.341976
vt 0.740349 0.682487
vt 0.483627 0.512232
vt 0.241081 0.483627
vt 0.000000 0.241814
vt 0.241081 0.000000
vt 0.482162 0.241814
vt 0.998535 0.000000
vt 0.998535 0.340511
vt 0.741814 0.170256
vt 0.740349 0.000000
vt 0.740349 0.340511
vt 0.483627 0.170256
vt 0.998535 0.341976
vt 0.998535 0.682487
vt 0.741814 0.512232
vt 0.740349 0.341976
vt 0.740349 0.682487
vt 0.483627 0.512232
vt 0.241081 0.483627
vt 0.000000 0.241814
vt 0.241081 0.000000
vt 0.482162 0.241814
vt 0.998535 0.000000
vt 0.998535 0.340511
vt 0.741814 0.170256
vt 0.740349 0.000000
vt 0.740349 0.340511
vt 0.483627 0.170256
vt 0.998535 0.341976
vt 0.998535 0.682487
vt 0.741814 0.512232
vt 0.740349 0.341976
vt 0.740349 0.682487
vt 0.483627 0.512232
vt 0.241081 0.483627
vt 0.000000 0.241814
vt 0.241081 0.000000
vt 0.482162 0.241814
vn -0.000000 1.000000 0.000000
vn -0.000000 1.000000 0.000000
vn -0.000000 1.000000 0.000000
vn -0.000000 1.000000 0.000000
vn -0.000000 -1.000000 0.000000
vn -0.000000 -1.000000 0.000000
vn -0.000000 -1.000000 0.000000
vn -0.000000 -1.000000 0.000000
vn -0.000000 1.000000 0.000000
vn -0.000000 1.000000 0.000000
vn -0.000000 -1.000000 0.000000
vn -0.000000 -1.000000 0.000000
vn 1.000000 0.000000 -0.000000
vn 1.000000 0.000000 0.000000
vn 1.000000 0.000000 0.000000
vn 1.000000 -0.000000 -0.000000
vn -0.000000 0.000000 -1.000000
vn -0.000000 0.000000 -1.000000
vn 0.000000 -0.000000 -1.000000
vn -0.000000 -0.000000 -1.000000
vn -0.000000 -0.000000 1.000000
vn -0.000000 -0.000000 1.000000
vn 0.000000 0.000000 1.000000
vn -0.000000 0.000000 1.000000
vn -0.000000 0.000000 -1.000000
vn -0.000000 0.000000 -1.000000
vn 0.000000 -0.000000 -1.000000
vn -0.000000 -0.000000 -1.000000
vn -0.000000 -0.000000 1.000000
vn -0.000000 -0.000000 1.000000
vn 0.000000 0.000000 1.000000
vn -0.000000 0.000000 1.000000
vn -1.000000 0.000000 -0.000000
vn -1.000000 -0.000000 0.000000
vn -1.000000 0.000000 0.000000
vn -1.000000 0.000000 -0.000000
vn -0.000000 0.662266 0.749269
vn -0.000000 0.662266 0.749269
vn -0.000000 0.662266 0.749269
vn 0.749269 0.662266 -0.000000
vn 0.749269 0.662266 -0.000000
vn 0.749269 0.662266 -0.000000
vn -0.000000 0.662266 -0.749269
vn -0.000000 0.662266 -0.749269
vn 0.000000 0.662266 -0.749269
vn -0.749269 0.662266 -0.000000
vn -0.749269 0.662266 -0.000000
vn -0.749269 0.662266 0.000000
vn 0.000000 -1.000000 0.000000
vn 0.000000 -1.000000 0.000000
vn 0.000000 -1.000000 0.000000
vn 0.000000 -1.000000 0.000000
vn -0.000000 0.662266 0.749269
vn -0.000000 0.662266 0.749269
vn -0.000000 0.662266 0.749269
vn 0.749269 0.662266 -0.000000
vn 0.749269 0.662266 -0.000000
vn 0.749269 0.662266 -0.000000
vn -0.000000 0.662266 -0.749269
vn -0.000000 0.662266 -0.749269
vn 0.000000 0.662266 -0.749269
vn -0.749269 0.662266 -0.000000
vn -0.749269 0.662266 -0.000000
vn -0.749269 0.662266 0.000000
vn 0.000000 -1.000000 0.000000
vn 0.000000 -1.000000 0.000000
vn 0.000000 -1.000000 0.000000
vn 0.000000 -1.000000 0.000000
vn -0.000000 0.662266 0.749269
vn -0.000000 0.662266 0.749269
vn -0.000000 0.662266 0.749269
vn 0.749269 0.662266 -0.000000
vn 0.749269 0.662266 -0.000000
vn 0.749269 0.662266 -0.000000
vn -0.000000 0.662266 -0.749269
vn -0.000000 0.662266 -0.749269
vn 0.000000 0.662266 -0.749269
vn -0.749269 0.662266 -0.000000
vn -0.749269 0.662266 -0.000000
vn -0.749269 0.662266 0.000000
vn 0.000000 -1.000000 0.000000
vn 0.000000 -1.000000 0.000000
vn 0.000000 -1.000000 0.000000
vn 0.000000 -1.000000 0.000000
vn -0.000000 0.662266 0.749269
vn -0.000000 0.662266 0.749269
vn -0.000000 0.662266 0.749269
vn 0.749269 0.662266 0.000000
vn 0.749269 0.662266 0.000000
vn 0.749269 0.662266 -0.000000
vn -0.000000 0.662266 -0.749269
vn -0.000000 0.662266 -0.749269
vn 0.000000 0.662266 -0.749269
vn -0.749269 0.662266 -0.000000
vn -0.749269 0.662266 -0.000000
vn -0.749269 0.662266 -0.000000
vn 0.000000 -1.000000 0.000000
vn 0.000000 -1.000000 0.000000
vn 0.000000 -1.000000 0.000000
vn 0.000000 -1.000000 0.000000
vn -0.000000 0.662266 0.749269
vn -0.000000 0.662266 0.749269
vn -0.000000 0.662266 0.749269
vn 0.749269 0.662266 0.000000
vn 0.749269 0.662266 0.000000
vn 0.749269 0.662266 -0.000000
vn -0.000000 0.662266 -0.749269
vn -0.000000 0.662266 -0.749269
vn 0.000000 0.662266 -0.749269
vn -0.749269 0.662266 -0.000000
vn -0.749269 0.662266 -0.000000
vn -0.749269 0.662266 -0.000000
vn 0.000000 -1.000000 0.000000
vn 0.000000 -1.000000 0.000000
vn 0.000000 -1.000000 0.000000
vn 0.000000 -1.000000 0.000000
vn -0.000000 0.662266 0.749269
vn -0.000000 0.662266 0.749269
vn -0.000000 0.662266 0.749269
vn 0.749269 0.662266 0.000000
vn 0.749269 0.662266 0.000000
vn 0.749269 0.662266 -0.000000
vn -0.000000 0.662266 -0.749269
vn -0.000000 0.662266 -0.749269
vn 0.000000 0.662266 -0.749269
vn -0.749269 0.662266 -0.000000
vn -0.749269 0.662266 -0.000000
vn -0.749269 0.662266 -0.000000
vn 0.000000 -1.000000 0.000000
vn 0.000000 -1.000000 0.000000
vn 0.000000 -1.000000 0.000000
vn 0.000000 -1.000000 0.000000
vn -0.000000 0.662266 0.749269
vn -0.000000 0.662266 0.749269
vn -0.000000 0.662266 0.749269
vn 0.749269 0.662266 0.000000
vn 0.749269 0.662266 0.000000
vn 0.749269 0.662266 0.000000
vn -0.000000 0.662266 -0.749269
vn -0.000000 0.662266 -0.749269
vn 0.000000 0.662266 -0.749269
vn -0.749269 0.662266 -0.000000
vn -0.749269 0.662266 -0.000000
vn -0.749269 0.662266 -0.000000
vn 0.000000 -1.000000 0.000000
vn 0.000000 -1.000000 0.000000
vn 0.000000 -1.000000 0.000000
vn 0.000000 -1.000000 0.000000
vn -0.000000 0.662266 0.749269
vn -0.000000 0.662266 0.749269
vn -0.000000 0.662266 0.749269
vn 0.749269 0.662266 0.000000
vn 0.749269 0.662266 0.000000
vn 0.749269 0.662266 0.000000
vn -0.000000 0.662266 -0.749269
vn -0.000000 0.662266 -0.749269
vn 0.000000 0.662266 -0.749269
vn -0.749269 0.662266 -0.000000
vn -0.749269 0.662266 -0.000000
vn -0.749269 0.662266 -0.000000
vn 0.000000 -1.000000 0.000000
vn 0.000000 -1.000000 0.000000
vn 0.000000 -1.000000 0.000000
vn 0.000000 -1.000000 0.000000
vn -0.000000 0.662266 0.749269
vn -0.000000 0.662266 0.749269
vn -0.000000 0.662266 0.749269
vn 0.749269 0.662266 0.000000
vn 0.749269 0.662266 0.000000
vn 0.749269 0.662266 0.000000
vn -0.000000 0.662266 -0.749269
vn -0.000000 0.662266 -0.749269
vn 0.000000 0.662266 -0.749269
vn -0.749269 0.662266 -0.000000
vn -0.749269 0.662266 -0.000000
vn -0.749269 0.662266 -0.000000
vn 0.000000 -1.000000 0.000000
vn 0.000000 -1.000000 0.000000
vn 0.000000 -1.000000 0.000000
vn 0.000000 -1.000000 0.000000
f 1/1/1 2/2/2 3/3/3
f 5/5/5 8/8/8 7/7/7
f 9/9/9 1/1/1 4/4/4
f 11/11/11 12/12/12 8/8/8
f 13/13/13 14/14/14 15/15/15
f 17/17/17 18/18/18 19/19/19
f 21/21/21 22/22/22 23/23/23
f 25/25/25 26/26/26 27/27/27
f 29/29/29 30/30/30 31/31/31
f 33/33/33 34/34/34 35/35/35
f 39/39/39 37/37/37 38/38/38
f 42/42/42 40/40/40 41/41/41
f 45/45/45 43/43/43 44/44/44
f 48/48/48 46/46/46 47/47/47
f 49/49/49 52/52/52 51/51/51
f 51/51/51 50/50/50 49/49/49
f 55/55/55 53/53/53 54/54/54
f 58/58/58 56/56/56 57/57/57
f 61/61/61 59/59/59 60/60/60
f 64/64/64 62/62/62 63/63/63
f 65/65/65 68/68/68 67/67/67
f 67/67/67 66/66/66 65/65/65
f 71/71/71 69/69/69 70/70/70
f 74/74/74 72/72/72 73/73/73
f 77/77/77 75/75/75 76/76/76
f 80/80/80 78/78/78 79/79/79
f 81/81/81 84/84/84 83/83/83
f 83/83/83 82/82/82 81/81/81
f 87/87/87 85/85/85 86/86/86
f 90/90/90 88/88/88 89/89/89
f 93/93/93 91/91/91 92/92/92
f 96/96/96 94/94/94 95/95/95
f 97/97/97 100/100/100 99/99/99
f 99/99/99 98/98/98 97/97/97
f 103/103/103 101/101/101 102/102/102
f 106/106/106 104/104/104 105/105/105
f 109/109/109 107/107/107 108/108/108
f 112/112/112 110/110/110 111/111/111
f 113/113/113 116/116/116 115/115/115
f 115/115/115 114/114/114 113/113/113
f 119/119/119 117/117/117 118/118/118
f 122/122/122 120/120/120 121/121/121
f 125/125/125 123/123/123 124/124/124
f 128/128/128 126/126/126 127/127/127
f 129/129/129 132/132/132 131/131/131
f 131/131/131 130/130/130 129/129/129
f 135/135/135 133/133/133 134/134/134
f 138/138/138 136/136/136 137/137/137
f 141/141/141 139/139/139 140/140/140
f 144/144/144 142/142/142 143/143/143
f 145/145/145 148/148/148 147/147/147
f 147/147/147 146/146/146 145/145/145
f 151/151/151 149/149/149 150/150/150
f 154/154/154 152/152/152 153/153/153
f 157/157/157 155/155/155 156/156/156
f 160/160/160 158/158/158 159/159/159
f 161/161/161 164/164/164 163/163/163
f 163/163/163 162/162/162 161/161/161
f 167/167/167 165/165/165 166/166/166
f 170/170/170 168/168/168 169/169/169
f 173/173/173 171/171/171 172/172/172
f 176/176/176 174/174/174 175/175/175
f 177/177/177 180/180/180 179/179/179
f 179/179/179 178/178/178 177/177/177
f 1/1/1 3/3/3 4/4/4
f 5/5/5 7/7/7 6/6/6
f 9/9/9 4/4/4 10/10/10
f 11/11/11 8/8/8 5/5/5
f 13/13/13 15/15/15 16/16/16
f 17/17/17 19/19/19 20/20/20
f 21/21/21 23/23/23 24/24/24
f 25/25/25 27/27/27 28/28/28
f 29/29/29 31/31/31 32/32/32
f 33/33/33 35/35/35 36/36/36

