g mesh_slab_section_EE0
v -3.990000 3.250000 5.510000
v -5.010000 3.250000 5.510000
v -3.990000 3.250000 -0.010000
v -5.010000 3.250000 -0.010000
v -3.990000 3.250000 -0.010000
v -3.990000 2.990000 -0.010000
v -3.990000 3.250000 5.510000
v -3.990000 2.990000 5.510000
v -5.010000 3.250000 -0.010000
v -5.010000 2.990000 -0.010000
v -3.990000 3.250000 -0.010000
v -3.990000 2.990000 -0.010000
v -5.010000 3.250000 5.510000
v -5.010000 2.990000 5.510000
v -5.010000 3.250000 -0.010000
v -5.010000 2.990000 -0.010000
v -3.990000 3.250000 5.510000
v -3.990000 2.990000 5.510000
v -5.010000 3.250000 5.510000
v -5.010000 2.990000 5.510000
v -3.990000 2.990000 5.510000
v -5.010000 2.990000 5.510000
v -3.990000 2.990000 -0.010000
v -5.010000 2.990000 -0.010000
v -4.676777 2.800000 5.323223
v -4.676777 2.800000 5.676777
v -4.323223 2.800000 5.323223
v -4.323223 2.800000 5.676777
v -4.676777 2.800000 5.323223
v -4.676777 2.800000 5.676777
v -4.500000 3.000000 5.500000
v -4.323223 2.800000 5.323223
v -4.676777 2.800000 5.323223
v -4.500000 3.000000 5.500000
v -4.323223 2.800000 5.676777
v -4.323223 2.800000 5.323223
v -4.500000 3.000000 5.500000
v -4.676777 2.800000 5.676777
v -4.323223 2.800000 5.676777
v -4.500000 3.000000 5.500000
v -4.176777 2.800000 5.323223
v -4.176777 2.800000 5.676777
v -3.823223 2.800000 5.323223
v -3.823223 2.800000 5.676777
v -4.176777 2.800000 5.323223
v -4.176777 2.800000 5.676777
v -4.000000 3.000000 5.500000
v -3.823223 2.800000 5.323223
v -4.176777 2.800000 5.323223
v -4.000000 3.000000 5.500000
v -3.823223 2.800000 5.676777
v -3.823223 2.800000 5.323223
v -4.000000 3.000000 5.500000
v -4.176777 2.800000 5.676777
v -3.823223 2.800000 5.676777
v -4.000000 3.000000 5.500000
v -5.176777 2.800000 5.323223
v -5.176777 2.800000 5.676777
v -4.823223 2.800000 5.323223
v -4.823223 2.800000 5.676777
v -5.176777 2.800000 5.323223
v -5.176777 2.800000 5.676777
v -5.000000 3.000000 5.500000
v -4.823223 2.800000 5.323223
v -5.176777 2.800000 5.323223
v -5.000000 3.000000 5.500000
v -4.823223 2.800000 5.676777
v -4.823223 2.800000 5.323223
v -5.000000 3.000000 5.500000
v -5.176777 2.800000 5.676777
v -4.823223 2.800000 5.676777
v -5.000000 3.000000 5.500000
v -4.990000 3.230000 -0.760000
v -4.490000 3.230000 -0.760000
v -4.990000 3.250000 -0.760000
v -4.490000 3.250000 -0.760000
v -4.990000 3.250000 -0.760000
v -4.490000 3.250000 -0.760000
v -4.990000 3.250000 -0.740000
v -4.490000 3.250000 -0.740000
v -4.990000 3.250000 -0.740000
v -4.490000 3.250000 -0.740000
v -4.990000 3.230000 -0.740000
v -4.490000 3.230000 -0.740000
v -4.990000 3.230000 -0.740000
v -4.490000 3.230000 -0.740000
v -4.990000 3.230000 -0.760000
v -4.490000 3.230000 -0.760000
v -4.990000 3.230000 -0.760000
v -4.990000 3.250000 -0.760000
v -4.990000 3.250000 -0.740000
v -4.990000 3.230000 -0.740000
v -4.490000 3.230000 -0.760000
v -4.490000 3.250000 -0.760000
v -4.490000 3.250000 -0.740000
v -4.490000 3.230000 -0.740000
v -4.510000 3.230000 -0.260000
v -4.510000 3.230000 -0.740000
v -4.510000 3.250000 -0.260000
v -4.510000 3.250000 -0.740000
v -4.510000 3.250000 -0.260000
v -4.510000 3.250000 -0.740000
v -4.490000 3.250000 -0.260000
v -4.490000 3.250000 -0.740000
v -4.490000 3.250000 -0.260000
v -4.490000 3.250000 -0.740000
v -4.490000 3.230000 -0.260000
v -4.490000 3.230000 -0.740000
v -4.490000 3.230000 -0.260000
v -4.490000 3.230000 -0.740000
v -4.510000 3.230000 -0.260000
v -4.510000 3.230000 -0.740000
v -4.490000 3.230000 -0.260000
v -4.490000 3.250000 -0.260000
v -4.510000 3.230000 -0.260000
v -4.510000 3.250000 -0.260000
v -4.490000 3.230000 5.760000
v -4.490000 3.230000 6.260000
v -4.490000 3.250000 5.760000
v -4.490000 3.250000 6.260000
v -4.490000 3.250000 5.760000
v -4.490000 3.250000 6.260000
v -4.510000 3.250000 5.760000
v -4.510000 3.250000 6.260000
v -4.510000 3.250000 5.760000
v -4.510000 3.250000 6.260000
v -4.510000 3.230000 5.760000
v -4.510000 3.230000 6.260000
v -4.510000 3.230000 5.760000
v -4.510000 3.230000 6.260000
v -4.490000 3.230000 5.760000
v -4.490000 3.230000 6.260000
v -4.490000 3.230000 5.760000
v -4.490000 3.250000 5.760000
v -4.510000 3.250000 5.760000
v -4.510000 3.230000 5.760000
v -4.490000 3.230000 6.260000
v -4.490000 3.250000 6.260000
v -4.510000 3.250000 6.260000
v -4.510000 3.230000 6.260000
v -4.990000 3.230000 6.240000
v -4.510000 3.230000 6.240000
v -4.990000 3.250000 6.240000
v -4.510000 3.250000 6.240000
v -4.990000 3.250000 6.240000
v -4.510000 3.250000 6.240000
v -4.990000 3.250000 6.260000
v -4.510000 3.250000 6.260000
v -4.990000 3.250000 6.260000
v -4.510000 3.250000 6.260000
v -4.990000 3.230000 6.260000
v -4.510000 3.230000 6.260000
v -4.990000 3.230000 6.260000
v -4.510000 3.230000 6.260000
v -4.990000 3.230000 6.240000
v -4.510000 3.230000 6.240000
v -4.990000 3.230000 6.260000
v -4.990000 3.250000 6.260000
v -4.990000 3.230000 6.240000
v -4.990000 3.250000 6.240000
v -4.651408 3.316103 6.136811
v -4.651408 3.316103 5.856141
v -4.731419 3.316103 6.121571
v -4.731419 3.316103 6.010655
v -4.793228 3.316103 6.010655
v -4.810129 3.316103 6.011849
v -4.825258 3.316103 6.017856
v -4.834410 3.316103 6.033322
v -4.837254 3.316103 6.051296
v -4.844873 3.316103 6.051296
v -4.844873 3.316103 5.953506
v -4.837254 3.316103 5.953506
v -4.831469 3.316103 5.979896
v -4.826376 3.316103 5.986510
v -4.819263 3.316103 5.991256
v -4.806495 3.316103 5.994660
v -4.793228 3.316103 5.995416
v -4.731419 3.316103 5.995416
v -4.731419 3.316103 5.902851
v -4.733043 3.316103 5.880200
v -4.735378 3.316103 5.876512
v -4.738828 3.316103 5.873781
v -4.746535 3.316103 5.871753
v -4.754563 3.316103 5.871381
v -4.802048 3.316103 5.871381
v -4.836548 3.316103 5.874696
v -4.857153 3.316103 5.887751
v -4.883399 3.316103 5.926415
v -4.891863 3.316103 5.926415
v -4.867663 3.316103 5.856141
v -4.651408 3.316103 5.863760
v -4.661358 3.316103 5.863760
v -4.680198 3.316103 5.868561
v -4.685786 3.316103 5.872673
v -4.689229 3.316103 5.878506
v -4.691628 3.316103 5.905671
v -4.691628 3.316103 6.088130
v -4.691333 3.316103 6.099572
v -4.690135 3.316103 6.110608
v -4.686264 3.316103 6.120935
v -4.674739 3.316103 6.127602
v -4.661358 3.316103 6.129190
v -4.651408 3.316103 6.129190
v -4.867733 3.316103 6.136811
v -4.870698 3.316103 6.075006
v -4.862653 3.316103 6.075006
v -4.853058 3.316103 6.105696
v -4.846315 3.316103 6.113214
v -4.837463 3.316103 6.118465
v -4.808328 3.316103 6.121571
v -4.731419 3.316103 6.010655
v -4.731419 3.296103 6.010655
v -4.731419 3.316103 6.121571
v -4.731419 3.296103 6.121571
v -4.793228 3.316103 6.010655
v -4.793228 3.296103 6.010655
v -4.731419 3.316103 6.010655
v -4.731419 3.296103 6.010655
v -4.825258 3.316103 6.017856
v -4.825258 3.296103 6.017856
v -4.810129 3.316103 6.011849
v -4.810129 3.296103 6.011849
v -4.793228 3.316103 6.010655
v -4.793228 3.296103 6.010655
v -4.825258 3.306103 6.017856
v -4.837254 3.316103 6.051296
v -4.837254 3.296103 6.051296
v -4.834410 3.316103 6.033322
v -4.834410 3.296103 6.033322
v -4.825258 3.316103 6.017856
v -4.825258 3.296103 6.017856
v -4.825258 3.306103 6.017856
v -4.844873 3.316103 6.051296
v -4.844873 3.296103 6.051296
v -4.837254 3.316103 6.051296
v -4.837254 3.296103 6.051296
v -4.844873 3.316103 5.953506
v -4.844873 3.296103 5.953506
v -4.844873 3.316103 6.051296
v -4.844873 3.296103 6.051296
v -4.837254 3.316103 5.953506
v -4.837254 3.296103 5.953506
v -4.844873 3.316103 5.953506
v -4.844873 3.296103 5.953506
v -4.831469 3.316103 5.979896
v -4.831469 3.296103 5.979896
v -4.837254 3.316103 5.953506
v -4.837254 3.296103 5.953506
v -4.831469 3.306103 5.979896
v -4.819263 3.316103 5.991256
v -4.819263 3.296103 5.991256
v -4.826376 3.316103 5.986510
v -4.826376 3.296103 5.986510
v -4.831469 3.316103 5.979896
v -4.831469 3.296103 5.979896
v -4.831469 3.306103 5.979896
v -4.819263 3.306103 5.991256
v -4.793228 3.316103 5.995416
v -4.793228 3.296103 5.995416
v -4.806495 3.316103 5.994660
v -4.806495 3.296103 5.994660
v -4.819263 3.316103 5.991256
v -4.819263 3.296103 5.991256
v -4.819263 3.306103 5.991256
v -4.731419 3.316103 5.995416
v -4.731419 3.296103 5.995416
v -4.793228 3.316103 5.995416
v -4.793228 3.296103 5.995416
v -4.731419 3.316103 5.902851
v -4.731419 3.296103 5.902851
v -4.731419 3.316103 5.995416
v -4.731419 3.296103 5.995416
v -4.733043 3.316103 5.880200
v -4.733043 3.296103 5.880200
v -4.731419 3.316103 5.902851
v -4.731419 3.296103 5.902851
v -4.733043 3.306103 5.880200
v -4.738828 3.316103 5.873781
v -4.738828 3.296103 5.873781
v -4.735378 3.316103 5.876512
v -4.735378 3.296103 5.876512
v -4.733043 3.316103 5.880200
v -4.733043 3.296103 5.880200
v -4.733043 3.306103 5.880200
v -4.738828 3.306103 5.873781
v -4.754563 3.316103 5.871381
v -4.754563 3.296103 5.871381
v -4.746535 3.316103 5.871753
v -4.746535 3.296103 5.871753
v -4.738828 3.316103 5.873781
v -4.738828 3.296103 5.873781
v -4.738828 3.306103 5.873781
v -4.802048 3.316103 5.871381
v -4.802048 3.296103 5.871381
v -4.754563 3.316103 5.871381
v -4.754563 3.296103 5.871381
v -4.836548 3.316103 5.874696
v -4.836548 3.296103 5.874696
v -4.802048 3.316103 5.871381
v -4.802048 3.296103 5.871381
v -4.836548 3.306103 5.874696
v -4.857153 3.316103 5.887751
v -4.857153 3.296103 5.887751
v -4.836548 3.316103 5.874696
v -4.836548 3.296103 5.874696
v -4.836548 3.306103 5.874696
v -4.857153 3.306103 5.887751
v -4.883399 3.316103 5.926415
v -4.883399 3.296103 5.926415
v -4.857153 3.316103 5.887751
v -4.857153 3.296103 5.887751
v -4.857153 3.306103 5.887751
v -4.891863 3.316103 5.926415
v -4.891863 3.296103 5.926415
v -4.883399 3.316103 5.926415
v -4.883399 3.296103 5.926415
v -4.867663 3.316103 5.856141
v -4.867663 3.296103 5.856141
v -4.891863 3.316103 5.926415
v -4.891863 3.296103 5.926415
v -4.651408 3.316103 5.856141
v -4.651408 3.296103 5.856141
v -4.867663 3.316103 5.856141
v -4.867663 3.296103 5.856141
v -4.651408 3.316103 5.863760
v -4.651408 3.296103 5.863760
v -4.651408 3.316103 5.856141
v -4.651408 3.296103 5.856141
v -4.661358 3.316103 5.863760
v -4.661358 3.296103 5.863760
v -4.651408 3.316103 5.863760
v -4.651408 3.296103 5.863760
v -4.680198 3.316103 5.868561
v -4.680198 3.296103 5.868561
v -4.661358 3.316103 5.863760
v -4.661358 3.296103 5.863760
v -4.680198 3.306103 5.868561
v -4.689229 3.316103 5.878506
v -4.689229 3.296103 5.878506
v -4.685786 3.316103 5.872673
v -4.685786 3.296103 5.872673
v -4.680198 3.316103 5.868561
v -4.680198 3.296103 5.868561
v -4.680198 3.306103 5.868561
v -4.689229 3.306103 5.878506
v -4.691628 3.316103 5.905671
v -4.691628 3.296103 5.905671
v -4.689229 3.316103 5.878506
v -4.689229 3.296103 5.878506
v -4.689229 3.306103 5.878506
v -4.691628 3.316103 6.088130
v -4.691628 3.296103 6.088130
v -4.691628 3.316103 5.905671
v -4.691628 3.296103 5.905671
v -4.686264 3.316103 6.120935
v -4.686264 3.296103 6.120935
v -4.690135 3.316103 6.110608
v -4.690135 3.296103 6.110608
v -4.691333 3.316103 6.099572
v -4.691333 3.296103 6.099572
v -4.691628 3.316103 6.088130
v -4.691628 3.296103 6.088130
v -4.686264 3.306103 6.120935
v -4.661358 3.316103 6.129190
v -4.661358 3.296103 6.129190
v -4.674739 3.316103 6.127602
v -4.674739 3.296103 6.127602
v -4.686264 3.316103 6.120935
v -4.686264 3.296103 6.120935
v -4.686264 3.306103 6.120935
v -4.651408 3.316103 6.129190
v -4.651408 3.296103 6.129190
v -4.661358 3.316103 6.129190
v -4.661358 3.296103 6.129190
v -4.651408 3.316103 6.136811
v -4.651408 3.296103 6.136811
v -4.651408 3.316103 6.129190
v -4.651408 3.296103 6.129190
v -4.867733 3.316103 6.136811
v -4.867733 3.296103 6.136811
v -4.651408 3.316103 6.136811
v -4.651408 3.296103 6.136811
v -4.870698 3.316103 6.075006
v -4.870698 3.296103 6.075006
v -4.867733 3.316103 6.136811
v -4.867733 3.296103 6.136811
v -4.862653 3.316103 6.075006
v -4.862653 3.296103 6.075006
v -4.870698 3.316103 6.075006
v -4.870698 3.296103 6.075006
v -4.853058 3.316103 6.105696
v -4.853058 3.296103 6.105696
v -4.862653 3.316103 6.075006
v -4.862653 3.296103 6.075006
v -4.853058 3.306103 6.105696
v -4.837463 3.316103 6.118465
v -4.837463 3.296103 6.118465
v -4.846315 3.316103 6.113214
v -4.846315 3.296103 6.113214
v -4.853058 3.316103 6.105696
v -4.853058 3.296103 6.105696
v -4.853058 3.306103 6.105696
v -4.837463 3.306103 6.118465
v -4.808328 3.316103 6.121571
v -4.808328 3.296103 6.121571
v -4.837463 3.316103 6.118465
v -4.837463 3.296103 6.118465
v -4.837463 3.306103 6.118465
v -4.731419 3.316103 6.121571
v -4.731419 3.296103 6.121571
v -4.808328 3.316103 6.121571
v -4.808328 3.296103 6.121571
v -4.651408 3.296103 6.136811
v -4.651408 3.296103 5.856141
v -4.731419 3.296103 6.121571
v -4.731419 3.296103 6.010655
v -4.793228 3.296103 6.010655
v -4.810129 3.296103 6.011849
v -4.825258 3.296103 6.017856
v -4.834410 3.296103 6.033322
v -4.837254 3.296103 6.051296
v -4.844873 3.296103 6.051296
v -4.844873 3.296103 5.953506
v -4.837254 3.296103 5.953506
v -4.831469 3.296103 5.979896
v -4.826376 3.296103 5.986510
v -4.819263 3.296103 5.991256
v -4.806495 3.296103 5.994660
v -4.793228 3.296103 5.995416
v -4.731419 3.296103 5.995416
v -4.731419 3.296103 5.902851
v -4.733043 3.296103 5.880200
v -4.735378 3.296103 5.876512
v -4.738828 3.296103 5.873781
v -4.746535 3.296103 5.871753
v -4.754563 3.296103 5.871381
v -4.802048 3.296103 5.871381
v -4.836548 3.296103 5.874696
v -4.857153 3.296103 5.887751
v -4.883399 3.296103 5.926415
v -4.891863 3.296103 5.926415
v -4.867663 3.296103 5.856141
v -4.651408 3.296103 5.863760
v -4.661358 3.296103 5.863760
v -4.680198 3.296103 5.868561
v -4.685786 3.296103 5.872673
v -4.689229 3.296103 5.878506
v -4.691628 3.296103 5.905671
v -4.691628 3.296103 6.088130
v -4.691333 3.296103 6.099572
v -4.690135 3.296103 6.110608
v -4.686264 3.296103 6.120935
v -4.674739 3.296103 6.127602
v -4.661358 3.296103 6.129190
v -4.651408 3.296103 6.129190
v -4.867733 3.296103 6.136811
v -4.870698 3.296103 6.075006
v -4.862653 3.296103 6.075006
v -4.853058 3.296103 6.105696
v -4.846315 3.296103 6.113214
v -4.837463 3.296103 6.118465
v -4.808328 3.296103 6.121571
v -4.651408 3.316103 -0.324770
v -4.651408 3.316103 -0.605440
v -4.731419 3.316103 -0.340010
v -4.731419 3.316103 -0.450925
v -4.793228 3.316103 -0.450925
v -4.810129 3.316103 -0.449732
v -4.825258 3.316103 -0.443725
v -4.834410 3.316103 -0.428258
v -4.837254 3.316103 -0.410285
v -4.844873 3.316103 -0.410285
v -4.844873 3.316103 -0.508075
v -4.837254 3.316103 -0.508075
v -4.831469 3.316103 -0.481685
v -4.826376 3.316103 -0.475070
v -4.819263 3.316103 -0.470325
v -4.806495 3.316103 -0.466921
v -4.793228 3.316103 -0.466165
v -4.731419 3.316103 -0.466165
v -4.731419 3.316103 -0.558730
v -4.733043 3.316103 -0.581380
v -4.735378 3.316103 -0.585069
v -4.738828 3.316103 -0.587800
v -4.746535 3.316103 -0.589828
v -4.754563 3.316103 -0.590200
v -4.802048 3.316103 -0.590200
v -4.836548 3.316103 -0.586885
v -4.857153 3.316103 -0.573830
v -4.883399 3.316103 -0.535165
v -4.891863 3.316103 -0.535165
v -4.867663 3.316103 -0.605440
v -4.651408 3.316103 -0.597820
v -4.661358 3.316103 -0.597820
v -4.680198 3.316103 -0.593020
v -4.685786 3.316103 -0.588908
v -4.689229 3.316103 -0.583075
v -4.691628 3.316103 -0.555910
v -4.691628 3.316103 -0.373450
v -4.691333 3.316103 -0.362008
v -4.690135 3.316103 -0.350973
v -4.686264 3.316103 -0.340645
v -4.674739 3.316103 -0.333979
v -4.661358 3.316103 -0.332390
v -4.651408 3.316103 -0.332390
v -4.867733 3.316103 -0.324770
v -4.870698 3.316103 -0.386575
v -4.862653 3.316103 -0.386575
v -4.853058 3.316103 -0.355885
v -4.846315 3.316103 -0.348366
v -4.837463 3.316103 -0.343115
v -4.808328 3.316103 -0.340010
v -4.731419 3.316103 -0.450925
v -4.731419 3.296103 -0.450925
v -4.731419 3.316103 -0.340010
v -4.731419 3.296103 -0.340010
v -4.793228 3.316103 -0.450925
v -4.793228 3.296103 -0.450925
v -4.731419 3.316103 -0.450925
v -4.731419 3.296103 -0.450925
v -4.825258 3.316103 -0.443725
v -4.825258 3.296103 -0.443725
v -4.810129 3.316103 -0.449732
v -4.810129 3.296103 -0.449732
v -4.793228 3.316103 -0.450925
v -4.793228 3.296103 -0.450925
v -4.825258 3.306103 -0.443725
v -4.837254 3.316103 -0.410285
v -4.837254 3.296103 -0.410285
v -4.834410 3.316103 -0.428258
v -4.834410 3.296103 -0.428258
v -4.825258 3.316103 -0.443725
v -4.825258 3.296103 -0.443725
v -4.825258 3.306103 -0.443725
v -4.844873 3.316103 -0.410285
v -4.844873 3.296103 -0.410285
v -4.837254 3.316103 -0.410285
v -4.837254 3.296103 -0.410285
v -4.844873 3.316103 -0.508075
v -4.844873 3.296103 -0.508075
v -4.844873 3.316103 -0.410285
v -4.844873 3.296103 -0.410285
v -4.837254 3.316103 -0.508075
v -4.837254 3.296103 -0.508075
v -4.844873 3.316103 -0.508075
v -4.844873 3.296103 -0.508075
v -4.831469 3.316103 -0.481685
v -4.831469 3.296103 -0.481685
v -4.837254 3.316103 -0.508075
v -4.837254 3.296103 -0.508075
v -4.831469 3.306103 -0.481685
v -4.819263 3.316103 -0.470325
v -4.819263 3.296103 -0.470325
v -4.826376 3.316103 -0.475070
v -4.826376 3.296103 -0.475070
v -4.831469 3.316103 -0.481685
v -4.831469 3.296103 -0.481685
v -4.831469 3.306103 -0.481685
v -4.819263 3.306103 -0.470325
v -4.793228 3.316103 -0.466165
v -4.793228 3.296103 -0.466165
v -4.806495 3.316103 -0.466921
v -4.806495 3.296103 -0.466921
v -4.819263 3.316103 -0.470325
v -4.819263 3.296103 -0.470325
v -4.819263 3.306103 -0.470325
v -4.731419 3.316103 -0.466165
v -4.731419 3.296103 -0.466165
v -4.793228 3.316103 -0.466165
v -4.793228 3.296103 -0.466165
v -4.731419 3.316103 -0.558730
v -4.731419 3.296103 -0.558730
v -4.731419 3.316103 -0.466165
v -4.731419 3.296103 -0.466165
v -4.733043 3.316103 -0.581380
v -4.733043 3.296103 -0.581380
v -4.731419 3.316103 -0.558730
v -4.731419 3.296103 -0.558730
v -4.733043 3.306103 -0.581380
v -4.738828 3.316103 -0.587800
v -4.738828 3.296103 -0.587800
v -4.735378 3.316103 -0.585069
v -4.735378 3.296103 -0.585069
v -4.733043 3.316103 -0.581380
v -4.733043 3.296103 -0.581380
v -4.738828 3.306103 -0.587800
v -4.733043 3.306103 -0.581380
v -4.754563 3.316103 -0.590200
v -4.754563 3.296103 -0.590200
v -4.746535 3.316103 -0.589828
v -4.746535 3.296103 -0.589828
v -4.738828 3.316103 -0.587800
v -4.738828 3.296103 -0.587800
v -4.738828 3.306103 -0.587800
v -4.802048 3.316103 -0.590200
v -4.802048 3.296103 -0.590200
v -4.754563 3.316103 -0.590200
v -4.754563 3.296103 -0.590200
v -4.836548 3.316103 -0.586885
v -4.836548 3.296103 -0.586885
v -4.802048 3.316103 -0.590200
v -4.802048 3.296103 -0.590200
v -4.836548 3.306103 -0.586885
v -4.857153 3.316103 -0.573830
v -4.857153 3.296103 -0.573830
v -4.836548 3.316103 -0.586885
v -4.836548 3.296103 -0.586885
v -4.836548 3.306103 -0.586885
v -4.857153 3.306103 -0.573830
v -4.883399 3.316103 -0.535165
v -4.883399 3.296103 -0.535165
v -4.857153 3.316103 -0.573830
v -4.857153 3.296103 -0.573830
v -4.857153 3.306103 -0.573830
v -4.891863 3.316103 -0.535165
v -4.891863 3.296103 -0.535165
v -4.883399 3.316103 -0.535165
v -4.883399 3.296103 -0.535165
v -4.867663 3.316103 -0.605440
v -4.867663 3.296103 -0.605440
v -4.891863 3.316103 -0.535165
v -4.891863 3.296103 -0.535165
v -4.651408 3.316103 -0.605440
v -4.651408 3.296103 -0.605440
v -4.867663 3.316103 -0.605440
v -4.867663 3.296103 -0.605440
v -4.651408 3.316103 -0.597820
v -4.651408 3.296103 -0.597820
v -4.651408 3.316103 -0.605440
v -4.651408 3.296103 -0.605440
v -4.661358 3.316103 -0.597820
v -4.661358 3.296103 -0.597820
v -4.651408 3.316103 -0.597820
v -4.651408 3.296103 -0.597820
v -4.680198 3.316103 -0.593020
v -4.680198 3.296103 -0.593020
v -4.661358 3.316103 -0.597820
v -4.661358 3.296103 -0.597820
v -4.680198 3.306103 -0.593020
v -4.689229 3.316103 -0.583075
v -4.689229 3.296103 -0.583075
v -4.685786 3.316103 -0.588908
v -4.685786 3.296103 -0.588908
v -4.680198 3.316103 -0.593020
v -4.680198 3.296103 -0.593020
v -4.680198 3.306103 -0.593020
v -4.689229 3.306103 -0.583075
v -4.691628 3.316103 -0.555910
v -4.691628 3.296103 -0.555910
v -4.689229 3.316103 -0.583075
v -4.689229 3.296103 -0.583075
v -4.689229 3.306103 -0.583075
v -4.691628 3.316103 -0.373450
v -4.691628 3.296103 -0.373450
v -4.691628 3.316103 -0.555910
v -4.691628 3.296103 -0.555910
v -4.686264 3.316103 -0.340645
v -4.686264 3.296103 -0.340645
v -4.690135 3.316103 -0.350973
v -4.690135 3.296103 -0.350973
v -4.691333 3.316103 -0.362008
v -4.691333 3.296103 -0.362008
v -4.691628 3.316103 -0.373450
v -4.691628 3.296103 -0.373450
v -4.686264 3.306103 -0.340645
v -4.661358 3.316103 -0.332390
v -4.661358 3.296103 -0.332390
v -4.674739 3.316103 -0.333979
v -4.674739 3.296103 -0.333979
v -4.686264 3.316103 -0.340645
v -4.686264 3.296103 -0.340645
v -4.686264 3.306103 -0.340645
v -4.651408 3.316103 -0.332390
v -4.651408 3.296103 -0.332390
v -4.661358 3.316103 -0.332390
v -4.661358 3.296103 -0.332390
v -4.651408 3.316103 -0.324770
v -4.651408 3.296103 -0.324770
v -4.651408 3.316103 -0.332390
v -4.651408 3.296103 -0.332390
v -4.867733 3.316103 -0.324770
v -4.867733 3.296103 -0.324770
v -4.651408 3.316103 -0.324770
v -4.651408 3.296103 -0.324770
v -4.870698 3.316103 -0.386575
v -4.870698 3.296103 -0.386575
v -4.867733 3.316103 -0.324770
v -4.867733 3.296103 -0.324770
v -4.862653 3.316103 -0.386575
v -4.862653 3.296103 -0.386575
v -4.870698 3.316103 -0.386575
v -4.870698 3.296103 -0.386575
v -4.853058 3.316103 -0.355885
v -4.853058 3.296103 -0.355885
v -4.862653 3.316103 -0.386575
v -4.862653 3.296103 -0.386575
v -4.853058 3.306103 -0.355885
v -4.837463 3.316103 -0.343115
v -4.837463 3.296103 -0.343115
v -4.846315 3.316103 -0.348366
v -4.846315 3.296103 -0.348366
v -4.853058 3.316103 -0.355885
v -4.853058 3.296103 -0.355885
v -4.853058 3.306103 -0.355885
v -4.837463 3.306103 -0.343115
v -4.808328 3.316103 -0.340010
v -4.808328 3.296103 -0.340010
v -4.837463 3.316103 -0.343115
v -4.837463 3.296103 -0.343115
v -4.837463 3.306103 -0.343115
v -4.731419 3.316103 -0.340010
v -4.731419 3.296103 -0.340010
v -4.808328 3.316103 -0.340010
v -4.808328 3.296103 -0.340010
v -4.651408 3.296103 -0.324770
v -4.651408 3.296103 -0.605440
v -4.731419 3.296103 -0.340010
v -4.731419 3.296103 -0.450925
v -4.793228 3.296103 -0.450925
v -4.810129 3.296103 -0.449732
v -4.825258 3.296103 -0.443725
v -4.834410 3.296103 -0.428258
v -4.837254 3.296103 -0.410285
v -4.844873 3.296103 -0.410285
v -4.844873 3.296103 -0.508075
v -4.837254 3.296103 -0.508075
v -4.831469 3.296103 -0.481685
v -4.826376 3.296103 -0.475070
v -4.819263 3.296103 -0.470325
v -4.806495 3.296103 -0.466921
v -4.793228 3.296103 -0.466165
v -4.731419 3.296103 -0.466165
v -4.731419 3.296103 -0.558730
v -4.733043 3.296103 -0.581380
v -4.735378 3.296103 -0.585069
v -4.738828 3.296103 -0.587800
v -4.746535 3.296103 -0.589828
v -4.754563 3.296103 -0.590200
v -4.802048 3.296103 -0.590200
v -4.836548 3.296103 -0.586885
v -4.857153 3.296103 -0.573830
v -4.883399 3.296103 -0.535165
v -4.891863 3.296103 -0.535165
v -4.867663 3.296103 -0.605440
v -4.651408 3.296103 -0.597820
v -4.661358 3.296103 -0.597820
v -4.680198 3.296103 -0.593020
v -4.685786 3.296103 -0.588908
v -4.689229 3.296103 -0.583075
v -4.691628 3.296103 -0.555910
v -4.691628 3.296103 -0.373450
v -4.691333 3.296103 -0.362008
v -4.690135 3.296103 -0.350973
v -4.686264 3.296103 -0.340645
v -4.674739 3.296103 -0.333979
v -4.661358 3.296103 -0.332390
v -4.651408 3.296103 -0.332390
v -4.867733 3.296103 -0.324770
v -4.870698 3.296103 -0.386575
v -4.862653 3.296103 -0.386575
v -4.853058 3.296103 -0.355885
v -4.846315 3.296103 -0.348366
v -4.837463 3.296103 -0.343115
v -4.808328 3.296103 -0.340010
vt 0.086093 0.549772
vt 0.086093 0.718647
vt 0.998535 0.549772
vt 0.998535 0.718647
vt 0.084628 0.000000
vt 0.043046 0.000000
vt 0.084628 0.912442
vt 0.043046 0.912442
vt 0.086093 0.092819
vt 0.086093 0.135865
vt 0.254967 0.092819
vt 0.254967 0.135865
vt 0.041582 0.000000
vt 0.000000 0.000000
vt 0.041582 0.912442
vt 0.000000 0.912442
vt 0.086093 0.000000
vt 0.086093 0.043046
vt 0.254967 0.000000
vt 0.254967 0.043046
vt 0.086093 0.185637
vt 0.086093 0.354512
vt 0.998535 0.185637
vt 0.998535 0.354512
vt 0.482162 0.241814
vt 0.241081 0.483627
vt 0.241081 0.000000
vt 0.000000 0.241814
vt 0.740349 0.341976
vt 0.740349 0.682487
vt 0.483627 0.512232
vt 0.998535 0.000000
vt 0.998535 0.340511
vt 0.741814 0.170256
vt 0.998535 0.341976
vt 0.998535 0.682487
vt 0.741814 0.512232
vt 0.740349 0.000000
vt 0.740349 0.340511
vt 0.483627 0.170256
vt 0.482162 0.241814
vt 0.241081 0.483627
vt 0.241081 0.000000
vt 0.000000 0.241814
vt 0.740349 0.341976
vt 0.740349 0.682487
vt 0.483627 0.512232
vt 0.998535 0.000000
vt 0.998535 0.340511
vt 0.741814 0.170256
vt 0.998535 0.341976
vt 0.998535 0.682487
vt 0.741814 0.512232
vt 0.740349 0.000000
vt 0.740349 0.340511
vt 0.483627 0.170256
vt 0.482162 0.241814
vt 0.241081 0.483627
vt 0.241081 0.000000
vt 0.000000 0.241814
vt 0.740349 0.341976
vt 0.740349 0.682487
vt 0.483627 0.512232
vt 0.998535 0.000000
vt 0.998535 0.340511
vt 0.741814 0.170256
vt 0.998535 0.341976
vt 0.998535 0.682487
vt 0.741814 0.512232
vt 0.740349 0.000000
vt 0.740349 0.340511
vt 0.483627 0.170256
vt 0.000000 0.000000
vt 0.000000 1.000000
vt 0.208333 0.000000
vt 0.208333 1.000000
vt 0.208333 0.000000
vt 0.208333 1.000000
vt 0.416666 0.000000
vt 0.416666 1.000000
vt 0.416666 0.000000
vt 0.416666 1.000000
vt 0.624999 0.000000
vt 0.624999 1.000000
vt 0.624999 0.000000
vt 0.624999 1.000000
vt 0.833333 0.000000
vt 0.833333 1.000000
vt 1.000000 0.040000
vt 1.000000 0.000000
vt 0.833333 0.000000
vt 0.833333 0.040000
vt 1.000000 0.960000
vt 1.000000 1.000000
vt 0.833333 1.000000
vt 0.833333 0.960000
vt 0.998535 0.720000
vt 0.040000 0.720000
vt 0.998535 0.760000
vt 0.040000 0.760000
vt 0.000000 0.000000
vt 0.000000 0.958535
vt 0.038535 0.000000
vt 0.038535 0.958535
vt 0.998535 0.480000
vt 0.040000 0.480000
vt 0.998535 0.520000
vt 0.040000 0.520000
vt 0.998535 0.240000
vt 0.040000 0.240000
vt 0.998535 0.280000
vt 0.040000 0.280000
vt 0.080000 0.000000
vt 0.040000 0.000000
vt 0.080000 0.040000
vt 0.040000 0.040000
vt 0.000000 0.000000
vt 0.000000 1.000000
vt 0.208333 0.000000
vt 0.208333 1.000000
vt 0.208333 0.000000
vt 0.208333 1.000000
vt 0.416666 0.000000
vt 0.416666 1.000000
vt 0.416666 0.000000
vt 0.416666 1.000000
vt 0.624999 0.000000
vt 0.624999 1.000000
vt 0.624999 0.000000
vt 0.624999 1.000000
vt 0.833333 0.000000
vt 0.833333 1.000000
vt 1.000000 0.040000
vt 1.000000 0.000000
vt 0.833333 0.000000
vt 0.833333 0.040000
vt 1.000000 0.960000
vt 1.000000 1.000000
vt 0.833333 1.000000
vt 0.833333 0.960000
vt 0.998535 0.720000
vt 0.040000 0.720000
vt 0.998535 0.760000
vt 0.040000 0.760000
vt 0.000000 0.000000
vt 0.000000 0.958535
vt 0.038535 0.000000
vt 0.038535 0.958535
vt 0.998535 0.480000
vt 0.040000 0.480000
vt 0.998535 0.520000
vt 0.040000 0.520000
vt 0.998535 0.240000
vt 0.040000 0.240000
vt 0.998535 0.280000
vt 0.040000 0.280000
vt 0.080000 0.000000
vt 0.040000 0.000000
vt 0.080000 0.040000
vt 0.040000 0.040000
vt 0.998535 0.469133
vt 0.452406 0.469133
vt 0.968881 0.624747
vt 0.753062 0.624747
vt 0.753062 0.744963
vt 0.755385 0.777833
vt 0.767072 0.807259
vt 0.797168 0.825058
vt 0.832140 0.830589
vt 0.832140 0.845409
vt 0.641860 0.845409
vt 0.641860 0.830589
vt 0.693209 0.819337
vt 0.706080 0.809434
vt 0.715314 0.795600
vt 0.721937 0.770765
vt 0.723408 0.744963
vt 0.723408 0.624747
vt 0.543295 0.624747
vt 0.499223 0.627908
vt 0.492045 0.632448
vt 0.486730 0.639159
vt 0.482785 0.654148
vt 0.482061 0.669762
vt 0.482061 0.762118
vt 0.488511 0.829218
vt 0.513913 0.869293
vt 0.589148 0.920338
vt 0.589148 0.936801
vt 0.452406 0.889734
vt 0.467233 0.469133
vt 0.467233 0.488485
vt 0.476573 0.525128
vt 0.484575 0.535994
vt 0.495924 0.542690
vt 0.548782 0.547358
vt 0.903813 0.547358
vt 0.926077 0.546783
vt 0.947549 0.544454
vt 0.967646 0.536924
vt 0.980616 0.514509
vt 0.983708 0.488485
vt 0.983708 0.469133
vt 0.998535 0.889870
vt 0.878275 0.895637
vt 0.878275 0.879990
vt 0.937991 0.861328
vt 0.952622 0.848212
vt 0.962839 0.830997
vt 0.968881 0.774332
vt 0.204719 0.000000
vt 0.165698 0.000000
vt 0.204719 0.216398
vt 0.165698 0.216398
vt 0.259523 0.211593
vt 0.220502 0.211593
vt 0.259523 0.332186
vt 0.220502 0.332186
vt 0.375475 0.340147
vt 0.336454 0.340147
vt 0.375475 0.378832
vt 0.336454 0.378832
vt 0.375475 0.405400
vt 0.336454 0.405400
vt 0.355965 0.340147
vt 0.096423 0.549129
vt 0.096423 0.588149
vt 0.127132 0.549129
vt 0.127132 0.588149
vt 0.167531 0.549129
vt 0.167531 0.588149
vt 0.167531 0.568639
vt 0.039020 0.151713
vt 0.000000 0.151713
vt 0.039020 0.166580
vt 0.000000 0.166580
vt 0.149915 0.000000
vt 0.110894 0.000000
vt 0.149915 0.190791
vt 0.110894 0.190791
vt 0.039020 0.101142
vt 0.000000 0.101142
vt 0.039020 0.116009
vt 0.000000 0.116009
vt 0.381819 0.105102
vt 0.342798 0.105102
vt 0.381819 0.157956
vt 0.342798 0.157956
vt 0.362309 0.105102
vt 0.433451 0.274102
vt 0.394430 0.274102
vt 0.433451 0.290173
vt 0.394430 0.290173
vt 0.433451 0.307215
vt 0.394430 0.307215
vt 0.413941 0.307215
vt 0.413941 0.274102
vt 0.381819 0.000000
vt 0.342798 0.000000
vt 0.381819 0.021988
vt 0.342798 0.021988
vt 0.381819 0.051833
vt 0.342798 0.051833
vt 0.362309 0.051833
vt 0.094958 0.471301
vt 0.057402 0.471301
vt 0.094958 0.591894
vt 0.057402 0.591894
vt 0.096423 0.626956
vt 0.096423 0.665977
vt 0.277019 0.626956
vt 0.277019 0.665977
vt 0.275306 0.000000
vt 0.275306 0.039020
vt 0.319742 0.000000
vt 0.319742 0.039020
vt 0.275306 0.019510
vt 0.094467 0.094700
vt 0.055447 0.094700
vt 0.094467 0.103144
vt 0.055447 0.103144
vt 0.094467 0.111881
vt 0.055447 0.111881
vt 0.074957 0.111881
vt 0.074957 0.094700
vt 0.433451 0.211593
vt 0.394430 0.211593
vt 0.433451 0.224056
vt 0.394430 0.224056
vt 0.433451 0.242933
vt 0.394430 0.242933
vt 0.413941 0.242933
vt 0.259523 0.000000
vt 0.220502 0.000000
vt 0.259523 0.092644
vt 0.220502 0.092644
vt 0.096423 0.471301
vt 0.096423 0.510322
vt 0.164248 0.471301
vt 0.164248 0.510322
vt 0.096423 0.490811
vt 0.275306 0.105797
vt 0.275306 0.144817
vt 0.323361 0.105797
vt 0.323361 0.144817
vt 0.323361 0.125307
vt 0.275306 0.125307
vt 0.095110 0.202284
vt 0.056090 0.202284
vt 0.095110 0.293788
vt 0.056090 0.293788
vt 0.075600 0.293788
vt 0.094467 0.046146
vt 0.055447 0.046146
vt 0.094467 0.062661
vt 0.055447 0.062661
vt 0.210879 0.471301
vt 0.210879 0.510322
vt 0.355889 0.471301
vt 0.355889 0.510322
vt 0.000000 0.782611
vt 0.000000 0.821632
vt 0.421918 0.782611
vt 0.421918 0.821632
vt 0.039020 0.050571
vt 0.000000 0.050571
vt 0.039020 0.065438
vt 0.000000 0.065438
vt 0.000000 0.471301
vt 0.000000 0.510322
vt 0.019413 0.471301
vt 0.019413 0.510322
vt 0.039020 0.202284
vt 0.000000 0.202284
vt 0.039020 0.240609
vt 0.000000 0.240609
vt 0.019510 0.202284
vt 0.024050 0.471301
vt 0.024050 0.510322
vt 0.037545 0.471301
vt 0.037545 0.510322
vt 0.050971 0.471301
vt 0.050971 0.510322
vt 0.050971 0.490811
vt 0.024050 0.490811
vt 0.436623 0.105102
vt 0.397602 0.105102
vt 0.436623 0.158494
vt 0.397602 0.158494
vt 0.417113 0.158494
vt 0.096423 0.704784
vt 0.096423 0.743804
vt 0.450942 0.704784
vt 0.450942 0.743804
vt 0.433451 0.340147
vt 0.394430 0.340147
vt 0.433451 0.371105
vt 0.394430 0.371105
vt 0.433451 0.390390
vt 0.394430 0.390390
vt 0.433451 0.405904
vt 0.394430 0.405904
vt 0.413941 0.340147
vt 0.436623 0.000000
vt 0.397602 0.000000
vt 0.436623 0.023124
vt 0.397602 0.023124
vt 0.436623 0.052695
vt 0.397602 0.052695
vt 0.417113 0.052695
vt 0.094467 0.145211
vt 0.055447 0.145211
vt 0.094467 0.164624
vt 0.055447 0.164624
vt 0.039020 0.000000
vt 0.000000 0.000000
vt 0.039020 0.014867
vt 0.000000 0.014867
vt 0.000000 0.860439
vt 0.000000 0.899459
vt 0.422055 0.860439
vt 0.422055 0.899459
vt 0.317499 0.211593
vt 0.278478 0.211593
vt 0.317499 0.332315
vt 0.278478 0.332315
vt 0.094467 0.000000
vt 0.055447 0.000000
vt 0.094467 0.015696
vt 0.055447 0.015696
vt 0.375475 0.211593
vt 0.336454 0.211593
vt 0.375475 0.274617
vt 0.336454 0.274617
vt 0.355965 0.211593
vt 0.000000 0.335584
vt 0.000000 0.374604
vt 0.019486 0.335584
vt 0.019486 0.374604
vt 0.039936 0.335584
vt 0.039936 0.374604
vt 0.039936 0.355094
vt 0.000000 0.355094
vt 0.000000 0.626956
vt 0.000000 0.665977
vt 0.055938 0.626956
vt 0.055938 0.665977
vt 0.055938 0.646466
vt 0.210879 0.549129
vt 0.210879 0.588149
vt 0.360932 0.549129
vt 0.360932 0.588149
vt 0.998535 0.000000
vt 0.452406 0.000000
vt 0.968881 0.155614
vt 0.753062 0.155614
vt 0.753062 0.275830
vt 0.755385 0.308700
vt 0.767072 0.338126
vt 0.797168 0.355925
vt 0.832140 0.361456
vt 0.832140 0.376276
vt 0.641860 0.376276
vt 0.641860 0.361456
vt 0.693209 0.350204
vt 0.706080 0.340301
vt 0.715314 0.326466
vt 0.721937 0.301632
vt 0.723408 0.275830
vt 0.723408 0.155614
vt 0.543295 0.155614
vt 0.499223 0.158774
vt 0.492045 0.163315
vt 0.486730 0.170026
vt 0.482785 0.185014
vt 0.482061 0.200629
vt 0.482061 0.292984
vt 0.488511 0.360084
vt 0.513913 0.400160
vt 0.589148 0.451204
vt 0.589148 0.467668
vt 0.452406 0.420601
vt 0.467233 0.000000
vt 0.467233 0.019352
vt 0.476573 0.055995
vt 0.484575 0.066861
vt 0.495924 0.073557
vt 0.548782 0.078225
vt 0.903813 0.078225
vt 0.926077 0.077650
vt 0.947549 0.075321
vt 0.967646 0.067791
vt 0.980616 0.045376
vt 0.983708 0.019352
vt 0.983708 0.000000
vt 0.998535 0.420737
vt 0.878275 0.426504
vt 0.878275 0.410857
vt 0.937991 0.392195
vt 0.952622 0.379079
vt 0.962839 0.361864
vt 0.968881 0.305199
vt 0.998535 0.469133
vt 0.452406 0.469133
vt 0.968881 0.624747
vt 0.753062 0.624747
vt 0.753062 0.744963
vt 0.755385 0.777833
vt 0.767072 0.807259
vt 0.797168 0.825058
vt 0.832140 0.830589
vt 0.832140 0.845409
vt 0.641860 0.845409
vt 0.641860 0.830589
vt 0.693209 0.819337
vt 0.706080 0.809434
vt 0.715314 0.795600
vt 0.721937 0.770765
vt 0.723408 0.744963
vt 0.723408 0.624747
vt 0.543295 0.624747
vt 0.499223 0.627908
vt 0.492045 0.632448
vt 0.486730 0.639159
vt 0.482785 0.654148
vt 0.482061 0.669762
vt 0.482061 0.762118
vt 0.488511 0.829218
vt 0.513913 0.869293
vt 0.589148 0.920338
vt 0.589148 0.936801
vt 0.452406 0.889734
vt 0.467233 0.469133
vt 0.467233 0.488485
vt 0.476573 0.525128
vt 0.484575 0.535994
vt 0.495924 0.542690
vt 0.548782 0.547358
vt 0.903813 0.547358
vt 0.926077 0.546783
vt 0.947549 0.544454
vt 0.967646 0.536924
vt 0.980616 0.514509
vt 0.983708 0.488485
vt 0.983708 0.469133
vt 0.998535 0.889870
vt 0.878275 0.895637
vt 0.878275 0.879990
vt 0.937991 0.861328
vt 0.952622 0.848212
vt 0.962839 0.830997
vt 0.968881 0.774332
vt 0.204719 0.000000
vt 0.165698 0.000000
vt 0.204719 0.216398
vt 0.165698 0.216398
vt 0.259523 0.211593
vt 0.220502 0.211593
vt 0.259523 0.332186
vt 0.220502 0.332186
vt 0.375475 0.340147
vt 0.336454 0.340147
vt 0.375475 0.378832
vt 0.336454 0.378832
vt 0.375475 0.405400
vt 0.336454 0.405400
vt 0.355965 0.340147
vt 0.096423 0.549129
vt 0.096423 0.588149
vt 0.127132 0.549129
vt 0.127132 0.588149
vt 0.167531 0.549129
vt 0.167531 0.588149
vt 0.167531 0.568639
vt 0.039020 0.151713
vt 0.000000 0.151713
vt 0.039020 0.166580
vt 0.000000 0.166580
vt 0.149915 0.000000
vt 0.110894 0.000000
vt 0.149915 0.190791
vt 0.110894 0.190791
vt 0.039020 0.101142
vt 0.000000 0.101142
vt 0.039020 0.116009
vt 0.000000 0.116009
vt 0.381819 0.105102
vt 0.342798 0.105102
vt 0.381819 0.157956
vt 0.342798 0.157956
vt 0.362309 0.105102
vt 0.433451 0.274102
vt 0.394430 0.274102
vt 0.433451 0.290173
vt 0.394430 0.290173
vt 0.433451 0.307215
vt 0.394430 0.307215
vt 0.413941 0.307215
vt 0.413941 0.274102
vt 0.381819 0.000000
vt 0.342798 0.000000
vt 0.381819 0.021988
vt 0.342798 0.021988
vt 0.381819 0.051833
vt 0.342798 0.051833
vt 0.362309 0.051833
vt 0.094958 0.471301
vt 0.057402 0.471301
vt 0.094958 0.591894
vt 0.057402 0.591894
vt 0.096423 0.626956
vt 0.096423 0.665977
vt 0.277019 0.626956
vt 0.277019 0.665977
vt 0.275306 0.000000
vt 0.275306 0.039020
vt 0.319742 0.000000
vt 0.319742 0.039020
vt 0.275306 0.019510
vt 0.094467 0.094700
vt 0.055447 0.094700
vt 0.094467 0.103144
vt 0.055447 0.103144
vt 0.094467 0.111881
vt 0.055447 0.111881
vt 0.074957 0.094700
vt 0.074957 0.111881
vt 0.433451 0.211593
vt 0.394430 0.211593
vt 0.433451 0.224056
vt 0.394430 0.224056
vt 0.433451 0.242933
vt 0.394430 0.242933
vt 0.413941 0.242933
vt 0.259523 0.000000
vt 0.220502 0.000000
vt 0.259523 0.092644
vt 0.220502 0.092644
vt 0.096423 0.471301
vt 0.096423 0.510322
vt 0.164248 0.471301
vt 0.164248 0.510322
vt 0.096423 0.490811
vt 0.275306 0.105797
vt 0.275306 0.144817
vt 0.323361 0.105797
vt 0.323361 0.144817
vt 0.323361 0.125307
vt 0.275306 0.125307
vt 0.095110 0.202284
vt 0.056090 0.202284
vt 0.095110 0.293788
vt 0.056090 0.293788
vt 0.075600 0.293788
vt 0.094467 0.046146
vt 0.055447 0.046146
vt 0.094467 0.062661
vt 0.055447 0.062661
vt 0.210879 0.471301
vt 0.210879 0.510322
vt 0.355889 0.471301
vt 0.355889 0.510322
vt 0.000000 0.782611
vt 0.000000 0.821632
vt 0.421918 0.782611
vt 0.421918 0.821632
vt 0.039020 0.050571
vt 0.000000 0.050571
vt 0.039020 0.065438
vt 0.000000 0.065438
vt 0.000000 0.471301
vt 0.000000 0.510322
vt 0.019413 0.471301
vt 0.019413 0.510322
vt 0.039020 0.202284
vt 0.000000 0.202284
vt 0.039020 0.240609
vt 0.000000 0.240609
vt 0.019510 0.202284
vt 0.024050 0.471301
vt 0.024050 0.510322
vt 0.037545 0.471301
vt 0.037545 0.510322
vt 0.050971 0.471301
vt 0.050971 0.510322
vt 0.050971 0.490811
vt 0.024050 0.490811
vt 0.436623 0.105102
vt 0.397602 0.105102
vt 0.436623 0.158494
vt 0.397602 0.158494
vt 0.417113 0.158494
vt 0.096423 0.704784
vt 0.096423 0.743804
vt 0.450942 0.704784
vt 0.450942 0.743804
vt 0.433451 0.340147
vt 0.394430 0.340147
vt 0.433451 0.371105
vt 0.394430 0.371105
vt 0.433451 0.390390
vt 0.394430 0.390390
vt 0.433451 0.405904
vt 0.394430 0.405904
vt 0.413941 0.340147
vt 0.436623 0.000000
vt 0.397602 0.000000
vt 0.436623 0.023124
vt 0.397602 0.023124
vt 0.436623 0.052695
vt 0.397602 0.052695
vt 0.417113 0.052695
vt 0.094467 0.145211
vt 0.055447 0.145211
vt 0.094467 0.164624
vt 0.055447 0.164624
vt 0.039020 0.000000
vt 0.000000 0.000000
vt 0.039020 0.014867
vt 0.000000 0.014867
vt 0.000000 0.860439
vt 0.000000 0.899459
vt 0.422055 0.860439
vt 0.422055 0.899459
vt 0.317499 0.211593
vt 0.278478 0.211593
vt 0.317499 0.332315
vt 0.278478 0.332315
vt 0.094467 0.000000
vt 0.055447 0.000000
vt 0.094467 0.015696
vt 0.055447 0.015696
vt 0.375475 0.211593
vt 0.336454 0.211593
vt 0.375475 0.274617
vt 0.336454 0.274617
vt 0.355965 0.211593
vt 0.000000 0.335584
vt 0.000000 0.374604
vt 0.019486 0.335584
vt 0.019486 0.374604
vt 0.039936 0.335584
vt 0.039936 0.374604
vt 0.039936 0.355094
vt 0.000000 0.355094
vt 0.000000 0.626956
vt 0.000000 0.665977
vt 0.055938 0.626956
vt 0.055938 0.665977
vt 0.055938 0.646466
vt 0.210879 0.549129
vt 0.210879 0.588149
vt 0.360932 0.549129
vt 0.360932 0.588149
vt 0.998535 0.000000
vt 0.452406 0.000000
vt 0.968881 0.155614
vt 0.753062 0.155614
vt 0.753062 0.275830
vt 0.755385 0.308700
vt 0.767072 0.338126
vt 0.797168 0.355925
vt 0.832140 0.361456
vt 0.832140 0.376276
vt 0.641860 0.376276
vt 0.641860 0.361456
vt 0.693209 0.350204
vt 0.706080 0.340301
vt 0.715314 0.326466
vt 0.721937 0.301632
vt 0.723408 0.275830
vt 0.723408 0.155614
vt 0.543295 0.155614
vt 0.499223 0.158774
vt 0.492045 0.163315
vt 0.486730 0.170026
vt 0.482785 0.185014
vt 0.482061 0.200629
vt 0.482061 0.292984
vt 0.488511 0.360084
vt 0.513913 0.400160
vt 0.589148 0.451204
vt 0.589148 0.467668
vt 0.452406 0.420601
vt 0.467233 0.000000
vt 0.467233 0.019352
vt 0.476573 0.055995
vt 0.484575 0.066861
vt 0.495924 0.073557
vt 0.548782 0.078225
vt 0.903813 0.078225
vt 0.926077 0.077650
vt 0.947549 0.075321
vt 0.967646 0.067791
vt 0.980616 0.045376
vt 0.983708 0.019352
vt 0.983708 0.000000
vt 0.998535 0.420737
vt 0.878275 0.426504
vt 0.878275 0.410857
vt 0.937991 0.392195
vt 0.952622 0.379079
vt 0.962839 0.361864
vt 0.968881 0.305199
vn -0.000000 1.000000 0.000000
vn -0.000000 1.000000 0.000000
vn -0.000000 1.000000 0.000000
vn -0.000000 1.000000 0.000000
vn 1.000000 0.000000 0.000000
vn 1.000000 0.000000 0.000000
vn 1.000000 0.000000 0.000000
vn 1.000000 0.000000 0.000000
vn 0.000000 -0.000000 -1.000000
vn 0.000000 -0.000000 -1.000000
vn 0.000000 -0.000000 -1.000000
vn 0.000000 -0.000000 -1.000000
vn -1.000000 0.000000 0.000000
vn -1.000000 0.000000 0.000000
vn -1.000000 0.000000 0.000000
vn -1.000000 0.000000 0.000000
vn -0.000000 0.000000 1.000000
vn -0.000000 0.000000 1.000000
vn -0.000000 0.000000 1.000000
vn -0.000000 0.000000 1.000000
vn -0.000000 -1.000000 0.000000
vn -0.000000 -1.000000 0.000000
vn -0.000000 -1.000000 0.000000
vn -0.000000 -1.000000 0.000000
vn -0.000000 -1.000000 0.000000
vn -0.000000 -1.000000 0.000000
vn -0.000000 -1.000000 0.000000
vn -0.000000 -1.000000 0.000000
vn -0.749269 0.662266 0.000000
vn -0.749269 0.662266 0.000000
vn -0.749269 0.662266 0.000000
vn -0.000000 0.662266 -0.749269
vn -0.000000 0.662266 -0.749269
vn 0.000000 0.662266 -0.749269
vn 0.749269 0.662266 -0.000000
vn 0.749269 0.662266 -0.000000
vn 0.749269 0.662266 -0.000000
vn -0.000000 0.662266 0.749269
vn -0.000000 0.662266 0.749269
vn -0.000000 0.662266 0.749269
vn -0.000000 -1.000000 0.000000
vn -0.000000 -1.000000 0.000000
vn -0.000000 -1.000000 0.000000
vn -0.000000 -1.000000 0.000000
vn -0.749269 0.662266 0.000000
vn -0.749269 0.662266 0.000000
vn -0.749269 0.662266 0.000000
vn -0.000000 0.662266 -0.749269
vn -0.000000 0.662266 -0.749269
vn 0.000000 0.662266 -0.749269
vn 0.749269 0.662266 -0.000000
vn 0.749269 0.662266 -0.000000
vn 0.749269 0.662266 -0.000000
vn -0.000000 0.662266 0.749269
vn -0.000000 0.662266 0.749269
vn -0.000000 0.662266 0.749269
vn -0.000000 -1.000000 0.000000
vn -0.000000 -1.000000 0.000000
vn -0.000000 -1.000000 0.000000
vn -0.000000 -1.000000 0.000000
vn -0.749269 0.662266 0.000000
vn -0.749269 0.662266 0.000000
vn -0.749269 0.662266 0.000000
vn -0.000000 0.662266 -0.749269
vn -0.000000 0.662266 -0.749269
vn 0.000000 0.662266 -0.749269
vn 0.749269 0.662266 -0.000000
vn 0.749269 0.662266 -0.000000
vn 0.749269 0.662266 -0.000000
vn -0.000000 0.662266 0.749269
vn -0.000000 0.662266 0.749269
vn -0.000000 0.662266 0.749269
vn -0.000000 0.000000 -1.000000
vn -0.000000 0.000000 -1.000000
vn -0.000000 0.000000 -1.000000
vn -0.000000 0.000000 -1.000000
vn -0.000000 1.000000 -0.000000
vn -0.000000 1.000000 -0.000000
vn -0.000000 1.000000 0.000000
vn -0.000000 1.000000 0.000000
vn -0.000000 0.000000 1.000000
vn -0.000000 0.000000 1.000000
vn -0.000000 0.000000 1.000000
vn -0.000000 0.000000 1.000000
vn 0.000000 -1.000000 -0.000000
vn 0.000000 -1.000000 -0.000000
vn 0.000000 -1.000000 -0.000000
vn 0.000000 -1.000000 -0.000000
vn -1.000000 -0.000000 -0.000000
vn -1.000000 -0.000000 -0.000000
vn -1.000000 -0.000000 -0.000000
vn -1.000000 -0.000000 -0.000000
vn 1.000000 0.000000 0.000000
vn 1.000000 0.000000 0.000000
vn 1.000000 0.000000 0.000000
vn 1.000000 0.000000 0.000000
vn -1.000000 -0.000000 0.000000
vn -1.000000 -0.000000 0.000000
vn -1.000000 -0.000000 0.000000
vn -1.000000 -0.000000 0.000000
vn -0.000000 1.000000 0.000000
vn -0.000000 1.000000 0.000000
vn -0.000000 1.000000 0.000000
vn -0.000000 1.000000 0.000000
vn 1.000000 -0.000000 -0.000000
vn 1.000000 -0.000000 -0.000000
vn 1.000000 -0.000000 -0.000000
vn 1.000000 -0.000000 -0.000000
vn -0.000000 -1.000000 0.000000
vn -0.000000 -1.000000 0.000000
vn -0.000000 -1.000000 0.000000
vn -0.000000 -1.000000 0.000000
vn 0.000000 -0.000000 1.000000
vn 0.000000 -0.000000 1.000000
vn 0.000000 -0.000000 1.000000
vn 0.000000 -0.000000 1.000000
vn 1.000000 0.000000 0.000000
vn 1.000000 0.000000 0.000000
vn 1.000000 0.000000 0.000000
vn 1.000000 0.000000 0.000000
vn -0.000000 1.000000 0.000000
vn -0.000000 1.000000 0.000000
vn -0.000000 1.000000 0.000000
vn -0.000000 1.000000 0.000000
vn -1.000000 0.000000 -0.000000
vn -1.000000 0.000000 -0.000000
vn -1.000000 0.000000 -0.000000
vn -1.000000 0.000000 -0.000000
vn -0.000000 -1.000000 0.000000
vn -0.000000 -1.000000 0.000000
vn -0.000000 -1.000000 0.000000
vn -0.000000 -1.000000 0.000000
vn 0.000000 -0.000000 -1.000000
vn 0.000000 -0.000000 -1.000000
vn 0.000000 -0.000000 -1.000000
vn 0.000000 -0.000000 -1.000000
vn -0.000000 0.000000 1.000000
vn -0.000000 0.000000 1.000000
vn -0.000000 0.000000 1.000000
vn -0.000000 0.000000 1.000000
vn -0.000000 0.000000 -1.000000
vn -0.000000 0.000000 -1.000000
vn -0.000000 0.000000 -1.000000
vn -0.000000 0.000000 -1.000000
vn -0.000000 1.000000 -0.000000
vn -0.000000 1.000000 -0.000000
vn -0.000000 1.000000 -0.000000
vn -0.000000 1.000000 -0.000000
vn -0.000000 0.000000 1.000000
vn -0.000000 0.000000 1.000000
vn -0.000000 0.000000 1.000000
vn -0.000000 0.000000 1.000000
vn 0.000000 -1.000000 -0.000000
vn 0.000000 -1.000000 -0.000000
vn 0.000000 -1.000000 -0.000000
vn 0.000000 -1.000000 -0.000000
vn -1.000000 -0.000000 -0.000000
vn -1.000000 -0.000000 -0.000000
vn -1.000000 -0.000000 -0.000000
vn -1.000000 -0.000000 -0.000000
vn 0.000000 1.000000 -0.000000
vn 0.000000 1.000000 -0.000000
vn 0.000000 1.000000 -0.000000
vn 0.000000 1.000000 -0.000000
vn 0.000000 1.000000 -0.000000
vn 0.000000 1.000000 -0.000000
vn 0.000000 1.000000 -0.000000
vn 0.000000 1.000000 -0.000000
vn 0.000000 1.000000 -0.000000
vn 0.000000 1.000000 -0.000000
vn 0.000000 1.000000 -0.000000
vn 0.000000 1.000000 -0.000000
vn 0.000000 1.000000 -0.000000
vn 0.000000 1.000000 -0.000000
vn 0.000000 1.000000 -0.000000
vn 0.000000 1.000000 -0.000000
vn 0.000000 1.000000 -0.000000
vn 0.000000 1.000000 -0.000000
vn 0.000000 1.000000 -0.000000
vn 0.000000 1.000000 -0.000000
vn 0.000000 1.000000 -0.000000
vn 0.000000 1.000000 -0.000000
vn 0.000000 1.000000 -0.000000
vn 0.000000 1.000000 -0.000000
vn 0.000000 1.000000 -0.000000
vn 0.000000 1.000000 -0.000000
vn 0.000000 1.000000 -0.000000
vn 0.000000 1.000000 -0.000000
vn 0.000000 1.000000 -0.000000
vn 0.000000 1.000000 -0.000000
vn 0.000000 1.000000 -0.000000
vn 0.000000 1.000000 -0.000000
vn 0.000000 1.000000 -0.000000
vn 0.000000 1.000000 -0.000000
vn 0.000000 1.000000 -0.000000
vn 0.000000 1.000000 -0.000000
vn 0.000000 1.000000 -0.000000
vn 0.000000 1.000000 -0.000000
vn 0.000000 1.000000 -0.000000
vn 0.000000 1.000000 -0.000000
vn 0.000000 1.000000 -0.000000
vn 0.000000 1.000000 -0.000000
vn 0.000000 1.000000 -0.000000
vn 0.000000 1.000000 -0.000000
vn 0.000000 1.000000 -0.000000
vn 0.000000 1.000000 -0.000000
vn 0.000000 1.000000 -0.000000
vn 0.000000 1.000000 -0.000000
vn 0.000000 1.000000 -0.000000
vn 0.000000 1.000000 -0.000000
vn -1.000000 -0.000000 -0.000000
vn -1.000000 -0.000000 -0.000000
vn -1.000000 -0.000000 -0.000000
vn -1.000000 -0.000000 -0.000000
vn -0.000000 0.000000 1.000000
vn -0.000000 0.000000 1.000000
vn -0.000000 0.000000 1.000000
vn -0.000000 0.000000 1.000000
vn 0.667120 -0.000000 0.744950
vn 0.667120 -0.000000 0.744950
vn 0.165290 -0.000000 0.986245
vn 0.165290 -0.000000 0.986245
vn -0.000000 0.000000 1.000000
vn -0.000000 0.000000 1.000000
vn 0.667120 -0.000000 0.744950
vn 0.998599 -0.000000 0.052920
vn 0.998599 -0.000000 0.052920
vn 0.957514 -0.000000 0.288387
vn 0.957514 -0.000000 0.288387
vn 0.661449 -0.000000 0.749990
vn 0.661449 -0.000000 0.749990
vn 0.661449 -0.000000 0.749990
vn -0.000000 0.000000 1.000000
vn -0.000000 0.000000 1.000000
vn -0.000000 0.000000 1.000000
vn -0.000000 0.000000 1.000000
vn -1.000000 -0.000000 -0.000000
vn -1.000000 -0.000000 -0.000000
vn -1.000000 -0.000000 -0.000000
vn -1.000000 -0.000000 -0.000000
vn -0.000000 -0.000000 -1.000000
vn -0.000000 -0.000000 -1.000000
vn -0.000000 -0.000000 -1.000000
vn -0.000000 -0.000000 -1.000000
vn 0.897643 -0.000000 -0.440724
vn 0.897643 -0.000000 -0.440724
vn 0.990457 -0.000000 -0.137825
vn 0.990457 -0.000000 -0.137825
vn 0.897643 -0.000000 -0.440724
vn 0.437953 -0.000000 -0.898998
vn 0.437953 -0.000000 -0.898998
vn 0.674316 -0.000000 -0.738443
vn 0.674316 -0.000000 -0.738443
vn 0.889180 -0.000000 -0.457557
vn 0.889180 -0.000000 -0.457557
vn 0.889180 -0.000000 -0.457557
vn 0.437953 -0.000000 -0.898998
vn -0.000000 -0.000000 -1.000000
vn -0.000000 -0.000000 -1.000000
vn 0.128455 -0.000000 -0.991715
vn 0.128455 -0.000000 -0.991715
vn 0.437953 -0.000000 -0.898998
vn 0.437953 -0.000000 -0.898998
vn 0.437953 -0.000000 -0.898998
vn -0.000000 -0.000000 -1.000000
vn -0.000000 -0.000000 -1.000000
vn -0.000000 -0.000000 -1.000000
vn -0.000000 -0.000000 -1.000000
vn -1.000000 -0.000000 -0.000000
vn -1.000000 -0.000000 -0.000000
vn -1.000000 -0.000000 -0.000000
vn -1.000000 -0.000000 -0.000000
vn -0.929906 0.000000 0.367798
vn -0.929906 0.000000 0.367798
vn -1.000000 -0.000000 -0.000000
vn -1.000000 -0.000000 -0.000000
vn -0.929906 0.000000 0.367798
vn -0.491013 0.000000 0.871152
vn -0.491013 0.000000 0.871152
vn -0.741952 0.000000 0.670453
vn -0.741952 0.000000 0.670453
vn -0.921441 0.000000 0.388518
vn -0.921441 0.000000 0.388518
vn -0.921441 0.000000 0.388518
vn -0.491013 0.000000 0.871152
vn -0.000000 0.000000 1.000000
vn -0.000000 0.000000 1.000000
vn -0.108401 0.000000 0.994107
vn -0.108401 0.000000 0.994107
vn -0.508729 0.000000 0.860927
vn -0.508729 0.000000 0.860927
vn -0.508729 0.000000 0.860927
vn -0.000000 0.000000 1.000000
vn -0.000000 0.000000 1.000000
vn -0.000000 0.000000 1.000000
vn -0.000000 0.000000 1.000000
vn 0.290579 -0.000000 0.956851
vn 0.290579 -0.000000 0.956851
vn -0.000000 0.000000 1.000000
vn -0.000000 0.000000 1.000000
vn 0.290579 -0.000000 0.956851
vn 0.703033 -0.000000 0.711157
vn 0.703033 -0.000000 0.711157
vn 0.293803 -0.000000 0.955866
vn 0.293803 -0.000000 0.955866
vn 0.293803 -0.000000 0.955866
vn 0.703033 -0.000000 0.711157
vn 0.887044 -0.000000 0.461685
vn 0.887044 -0.000000 0.461685
vn 0.707107 -0.000000 0.707107
vn 0.707107 -0.000000 0.707107
vn 0.707107 -0.000000 0.707107
vn -0.000000 0.000000 1.000000
vn -0.000000 0.000000 1.000000
vn -0.000000 0.000000 1.000000
vn -0.000000 0.000000 1.000000
vn -0.945509 -0.000000 -0.325597
vn -0.945509 -0.000000 -0.325597
vn -0.945509 -0.000000 -0.325597
vn -0.945509 -0.000000 -0.325597
vn -0.000000 -0.000000 -1.000000
vn -0.000000 -0.000000 -1.000000
vn -0.000000 -0.000000 -1.000000
vn -0.000000 -0.000000 -1.000000
vn 1.000000 -0.000000 -0.000000
vn 1.000000 -0.000000 -0.000000
vn 1.000000 -0.000000 -0.000000
vn 1.000000 -0.000000 -0.000000
vn -0.000000 0.000000 1.000000
vn -0.000000 0.000000 1.000000
vn -0.000000 0.000000 1.000000
vn -0.000000 0.000000 1.000000
vn 0.472015 -0.000000 0.881590
vn 0.472015 -0.000000 0.881590
vn -0.000000 0.000000 1.000000
vn -0.000000 0.000000 1.000000
vn 0.472015 -0.000000 0.881590
vn 0.943908 -0.000000 0.330209
vn 0.943908 -0.000000 0.330209
vn 0.739085 -0.000000 0.673613
vn 0.739085 -0.000000 0.673613
vn 0.441146 -0.000000 0.897435
vn 0.441146 -0.000000 0.897435
vn 0.441146 -0.000000 0.897435
vn 0.943908 -0.000000 0.330209
vn 1.000000 -0.000000 -0.000000
vn 1.000000 -0.000000 -0.000000
vn 0.939546 -0.000000 0.342422
vn 0.939546 -0.000000 0.342422
vn 0.939546 -0.000000 0.342422
vn 1.000000 -0.000000 -0.000000
vn 1.000000 -0.000000 -0.000000
vn 1.000000 -0.000000 -0.000000
vn 1.000000 -0.000000 -0.000000
vn 0.750641 -0.000000 -0.660711
vn 0.750641 -0.000000 -0.660711
vn 0.984324 -0.000000 -0.176372
vn 0.984324 -0.000000 -0.176372
vn 0.998351 -0.000000 -0.057414
vn 0.998351 -0.000000 -0.057414
vn 1.000000 -0.000000 -0.000000
vn 1.000000 -0.000000 -0.000000
vn 0.750641 -0.000000 -0.660711
vn -0.000000 -0.000000 -1.000000
vn -0.000000 -0.000000 -1.000000
vn 0.267540 -0.000000 -0.963547
vn 0.267540 -0.000000 -0.963547
vn 0.739575 -0.000000 -0.673074
vn 0.739575 -0.000000 -0.673074
vn 0.739575 -0.000000 -0.673074
vn -0.000000 -0.000000 -1.000000
vn -0.000000 -0.000000 -1.000000
vn -0.000000 -0.000000 -1.000000
vn -0.000000 -0.000000 -1.000000
vn 1.000000 -0.000000 -0.000000
vn 1.000000 -0.000000 -0.000000
vn 1.000000 -0.000000 -0.000000
vn 1.000000 -0.000000 -0.000000
vn -0.000000 0.000000 1.000000
vn -0.000000 0.000000 1.000000
vn -0.000000 0.000000 1.000000
vn -0.000000 0.000000 1.000000
vn -0.998851 0.000000 0.047918
vn -0.998851 0.000000 0.047918
vn -0.998851 0.000000 0.047918
vn -0.998851 0.000000 0.047918
vn -0.000000 -0.000000 -1.000000
vn -0.000000 -0.000000 -1.000000
vn -0.000000 -0.000000 -1.000000
vn -0.000000 -0.000000 -1.000000
vn 0.844876 -0.000000 -0.534962
vn 0.844876 -0.000000 -0.534962
vn 0.981669 -0.000000 -0.190596
vn 0.981669 -0.000000 -0.190596
vn 0.844876 -0.000000 -0.534962
vn 0.396911 -0.000000 -0.917857
vn 0.396911 -0.000000 -0.917857
vn 0.626924 -0.000000 -0.779080
vn 0.626924 -0.000000 -0.779080
vn 0.844876 -0.000000 -0.534962
vn 0.844876 -0.000000 -0.534962
vn 0.844876 -0.000000 -0.534962
vn 0.396911 -0.000000 -0.917857
vn -0.000000 -0.000000 -1.000000
vn -0.000000 -0.000000 -1.000000
vn 0.349256 -0.000000 -0.937027
vn 0.349256 -0.000000 -0.937027
vn 0.349256 -0.000000 -0.937027
vn 0.000000 -0.000000 -1.000000
vn 0.000000 -0.000000 -1.000000
vn 0.000000 -0.000000 -1.000000
vn 0.000000 -0.000000 -1.000000
vn 0.000000 -1.000000 -0.000000
vn -0.000000 -1.000000 0.000000
vn -0.000000 -1.000000 0.000000
vn -0.000000 -1.000000 0.000000
vn -0.000000 -1.000000 0.000000
vn -0.000000 -1.000000 0.000000
vn -0.000000 -1.000000 0.000000
vn -0.000000 -1.000000 0.000000
vn -0.000000 -1.000000 0.000000
vn -0.000000 -1.000000 0.000000
vn -0.000000 -1.000000 0.000000
vn -0.000000 -1.000000 0.000000
vn -0.000000 -1.000000 0.000000
vn -0.000000 -1.000000 0.000000
vn -0.000000 -1.000000 0.000000
vn -0.000000 -1.000000 0.000000
vn -0.000000 -1.000000 0.000000
vn -0.000000 -1.000000 0.000000
vn -0.000000 -1.000000 0.000000
vn -0.000000 -1.000000 0.000000
vn -0.000000 -1.000000 0.000000
vn -0.000000 -1.000000 0.000000
vn -0.000000 -1.000000 0.000000
vn -0.000000 -1.000000 0.000000
vn -0.000000 -1.000000 0.000000
vn -0.000000 -1.000000 0.000000
vn -0.000000 -1.000000 0.000000
vn -0.000000 -1.000000 0.000000
vn -0.000000 -1.000000 0.000000
vn -0.000000 -1.000000 0.000000
vn -0.000000 -1.000000 0.000000
vn -0.000000 -1.000000 0.000000
vn -0.000000 -1.000000 0.000000
vn -0.000000 -1.000000 0.000000
vn -0.000000 -1.000000 0.000000
vn -0.000000 -1.000000 0.000000
vn -0.000000 -1.000000 0.000000
vn -0.000000 -1.000000 0.000000
vn -0.000000 -1.000000 0.000000
vn -0.000000 -1.000000 0.000000
vn -0.000000 -1.000000 0.000000
vn -0.000000 -1.000000 0.000000
vn -0.000000 -1.000000 0.000000
vn -0.000000 -1.000000 0.000000
vn -0.000000 -1.000000 0.000000
vn -0.000000 -1.000000 0.000000
vn -0.000000 -1.000000 0.000000
vn -0.000000 -1.000000 0.000000
vn -0.000000 -1.000000 0.000000
vn -0.000000 -1.000000 0.000000
vn 0.000000 1.000000 -0.000000
vn 0.000000 1.000000 -0.000000
vn 0.000000 1.000000 -0.000000
vn 0.000000 1.000000 -0.000000
vn 0.000000 1.000000 -0.000000
vn 0.000000 1.000000 -0.000000
vn 0.000000 1.000000 -0.000000
vn 0.000000 1.000000 -0.000000
vn 0.000000 1.000000 -0.000000
vn 0.000000 1.000000 -0.000000
vn 0.000000 1.000000 -0.000000
vn 0.000000 1.000000 -0.000000
vn 0.000000 1.000000 -0.000000
vn 0.000000 1.000000 -0.000000
vn 0.000000 1.000000 -0.000000
vn 0.000000 1.000000 -0.000000
vn 0.000000 1.000000 -0.000000
vn 0.000000 1.000000 -0.000000
vn 0.000000 1.000000 -0.000000
vn 0.000000 1.000000 -0.000000
vn 0.000000 1.000000 -0.000000
vn 0.000000 1.000000 -0.000000
vn 0.000000 1.000000 -0.000000
vn 0.000000 1.000000 -0.000000
vn 0.000000 1.000000 -0.000000
vn 0.000000 1.000000 -0.000000
vn 0.000000 1.000000 -0.000000
vn 0.000000 1.000000 -0.000000
vn 0.000000 1.000000 -0.000000
vn 0.000000 1.000000 -0.000000
vn 0.000000 1.000000 -0.000000
vn 0.000000 1.000000 -0.000000
vn 0.000000 1.000000 -0.000000
vn 0.000000 1.000000 -0.000000
vn 0.000000 1.000000 -0.000000
vn 0.000000 1.000000 -0.000000
vn 0.000000 1.000000 -0.000000
vn 0.000000 1.000000 -0.000000
vn 0.000000 1.000000 -0.000000
vn 0.000000 1.000000 -0.000000
vn 0.000000 1.000000 -0.000000
vn 0.000000 1.000000 -0.000000
vn 0.000000 1.000000 -0.000000
vn 0.000000 1.000000 -0.000000
vn 0.000000 1.000000 -0.000000
vn 0.000000 1.000000 -0.000000
vn 0.000000 1.000000 -0.000000
vn 0.000000 1.000000 -0.000000
vn 0.000000 1.000000 -0.000000
vn 0.000000 1.000000 -0.000000
vn -1.000000 -0.000000 -0.000000
vn -1.000000 -0.000000 -0.000000
vn -1.000000 -0.000000 -0.000000
vn -1.000000 -0.000000 -0.000000
vn -0.000000 0.000000 1.000000
vn -0.000000 0.000000 1.000000
vn -0.000000 0.000000 1.000000
vn -0.000000 0.000000 1.000000
vn 0.667120 -0.000000 0.744950
vn 0.667120 -0.000000 0.744950
vn 0.165290 -0.000000 0.986245
vn 0.165290 -0.000000 0.986245
vn -0.000000 0.000000 1.000000
vn -0.000000 0.000000 1.000000
vn 0.667120 -0.000000 0.744950
vn 0.998599 -0.000000 0.052920
vn 0.998599 -0.000000 0.052920
vn 0.957514 -0.000000 0.288387
vn 0.957514 -0.000000 0.288387
vn 0.661449 -0.000000 0.749990
vn 0.661449 -0.000000 0.749990
vn 0.661449 -0.000000 0.749990
vn -0.000000 0.000000 1.000000
vn -0.000000 0.000000 1.000000
vn -0.000000 0.000000 1.000000
vn -0.000000 0.000000 1.000000
vn -1.000000 -0.000000 -0.000000
vn -1.000000 -0.000000 -0.000000
vn -1.000000 -0.000000 -0.000000
vn -1.000000 -0.000000 -0.000000
vn -0.000000 -0.000000 -1.000000
vn -0.000000 -0.000000 -1.000000
vn -0.000000 -0.000000 -1.000000
vn -0.000000 -0.000000 -1.000000
vn 0.897643 -0.000000 -0.440724
vn 0.897643 -0.000000 -0.440724
vn 0.990457 -0.000000 -0.137825
vn 0.990457 -0.000000 -0.137825
vn 0.897643 -0.000000 -0.440724
vn 0.437953 -0.000000 -0.898998
vn 0.437953 -0.000000 -0.898998
vn 0.674316 -0.000000 -0.738443
vn 0.674316 -0.000000 -0.738443
vn 0.889180 -0.000000 -0.457557
vn 0.889180 -0.000000 -0.457557
vn 0.889180 -0.000000 -0.457557
vn 0.437953 -0.000000 -0.898998
vn -0.000000 -0.000000 -1.000000
vn -0.000000 -0.000000 -1.000000
vn 0.128455 -0.000000 -0.991715
vn 0.128455 -0.000000 -0.991715
vn 0.437953 -0.000000 -0.898998
vn 0.437953 -0.000000 -0.898998
vn 0.437953 -0.000000 -0.898998
vn -0.000000 -0.000000 -1.000000
vn -0.000000 -0.000000 -1.000000
vn -0.000000 -0.000000 -1.000000
vn -0.000000 -0.000000 -1.000000
vn -1.000000 -0.000000 -0.000000
vn -1.000000 -0.000000 -0.000000
vn -1.000000 -0.000000 -0.000000
vn -1.000000 -0.000000 -0.000000
vn -0.929906 0.000000 0.367798
vn -0.929906 0.000000 0.367798
vn -1.000000 -0.000000 -0.000000
vn -1.000000 -0.000000 -0.000000
vn -0.929906 0.000000 0.367798
vn -0.491013 0.000000 0.871152
vn -0.491013 0.000000 0.871152
vn -0.741952 0.000000 0.670453
vn -0.741952 0.000000 0.670453
vn -0.921441 0.000000 0.388518
vn -0.921441 0.000000 0.388518
vn -0.491013 0.000000 0.871152
vn -0.921441 0.000000 0.388518
vn -0.000000 0.000000 1.000000
vn -0.000000 0.000000 1.000000
vn -0.108401 0.000000 0.994107
vn -0.108401 0.000000 0.994107
vn -0.508729 0.000000 0.860927
vn -0.508729 0.000000 0.860927
vn -0.508729 0.000000 0.860927
vn -0.000000 0.000000 1.000000
vn -0.000000 0.000000 1.000000
vn -0.000000 0.000000 1.000000
vn -0.000000 0.000000 1.000000
vn 0.290579 -0.000000 0.956851
vn 0.290579 -0.000000 0.956851
vn -0.000000 0.000000 1.000000
vn -0.000000 0.000000 1.000000
vn 0.290579 -0.000000 0.956851
vn 0.703033 -0.000000 0.711157
vn 0.703033 -0.000000 0.711157
vn 0.293803 -0.000000 0.955866
vn 0.293803 -0.000000 0.955866
vn 0.293803 -0.000000 0.955866
vn 0.703033 -0.000000 0.711157
vn 0.887044 -0.000000 0.461685
vn 0.887044 -0.000000 0.461685
vn 0.707107 -0.000000 0.707107
vn 0.707107 -0.000000 0.707107
vn 0.707107 -0.000000 0.707107
vn -0.000000 0.000000 1.000000
vn -0.000000 0.000000 1.000000
vn -0.000000 0.000000 1.000000
vn -0.000000 0.000000 1.000000
vn -0.945509 -0.000000 -0.325597
vn -0.945509 -0.000000 -0.325597
vn -0.945509 -0.000000 -0.325597
vn -0.945509 -0.000000 -0.325597
vn -0.000000 -0.000000 -1.000000
vn -0.000000 -0.000000 -1.000000
vn -0.000000 -0.000000 -1.000000
vn -0.000000 -0.000000 -1.000000
vn 1.000000 -0.000000 -0.000000
vn 1.000000 -0.000000 -0.000000
vn 1.000000 -0.000000 -0.000000
vn 1.000000 -0.000000 -0.000000
vn -0.000000 0.000000 1.000000
vn -0.000000 0.000000 1.000000
vn -0.000000 0.000000 1.000000
vn -0.000000 0.000000 1.000000
vn 0.472015 -0.000000 0.881590
vn 0.472015 -0.000000 0.881590
vn -0.000000 0.000000 1.000000
vn -0.000000 0.000000 1.000000
vn 0.472015 -0.000000 0.881590
vn 0.943908 -0.000000 0.330209
vn 0.943908 -0.000000 0.330209
vn 0.739085 -0.000000 0.673613
vn 0.739085 -0.000000 0.673613
vn 0.441146 -0.000000 0.897435
vn 0.441146 -0.000000 0.897435
vn 0.441146 -0.000000 0.897435
vn 0.943908 -0.000000 0.330209
vn 1.000000 -0.000000 -0.000000
vn 1.000000 -0.000000 -0.000000
vn 0.939546 -0.000000 0.342422
vn 0.939546 -0.000000 0.342422
vn 0.939546 -0.000000 0.342422
vn 1.000000 -0.000000 -0.000000
vn 1.000000 -0.000000 -0.000000
vn 1.000000 -0.000000 -0.000000
vn 1.000000 -0.000000 -0.000000
vn 0.750641 -0.000000 -0.660711
vn 0.750641 -0.000000 -0.660711
vn 0.984324 -0.000000 -0.176372
vn 0.984324 -0.000000 -0.176372
vn 0.998351 -0.000000 -0.057414
vn 0.998351 -0.000000 -0.057414
vn 1.000000 -0.000000 -0.000000
vn 1.000000 -0.000000 -0.000000
vn 0.750641 -0.000000 -0.660711
vn -0.000000 -0.000000 -1.000000
vn -0.000000 -0.000000 -1.000000
vn 0.267540 -0.000000 -0.963547
vn 0.267540 -0.000000 -0.963547
vn 0.739575 -0.000000 -0.673074
vn 0.739575 -0.000000 -0.673074
vn 0.739575 -0.000000 -0.673074
vn -0.000000 -0.000000 -1.000000
vn -0.000000 -0.000000 -1.000000
vn -0.000000 -0.000000 -1.000000
vn -0.000000 -0.000000 -1.000000
vn 1.000000 -0.000000 -0.000000
vn 1.000000 -0.000000 -0.000000
vn 1.000000 -0.000000 -0.000000
vn 1.000000 -0.000000 -0.000000
vn -0.000000 0.000000 1.000000
vn -0.000000 0.000000 1.000000
vn -0.000000 0.000000 1.000000
vn -0.000000 0.000000 1.000000
vn -0.998851 0.000000 0.047918
vn -0.998851 0.000000 0.047918
vn -0.998851 0.000000 0.047918
vn -0.998851 0.000000 0.047918
vn -0.000000 -0.000000 -1.000000
vn -0.000000 -0.000000 -1.000000
vn -0.000000 -0.000000 -1.000000
vn -0.000000 -0.000000 -1.000000
vn 0.844876 -0.000000 -0.534962
vn 0.844876 -0.000000 -0.534962
vn 0.981669 -0.000000 -0.190596
vn 0.981669 -0.000000 -0.190596
vn 0.844876 -0.000000 -0.534962
vn 0.396911 -0.000000 -0.917857
vn 0.396911 -0.000000 -0.917857
vn 0.626924 -0.000000 -0.779080
vn 0.626924 -0.000000 -0.779080
vn 0.844876 -0.000000 -0.534962
vn 0.844876 -0.000000 -0.534962
vn 0.844876 -0.000000 -0.534962
vn 0.396911 -0.000000 -0.917857
vn -0.000000 -0.000000 -1.000000
vn -0.000000 -0.000000 -1.000000
vn 0.349256 -0.000000 -0.937027
vn 0.349256 -0.000000 -0.937027
vn 0.349256 -0.000000 -0.937027
vn 0.000000 -0.000000 -1.000000
vn 0.000000 -0.000000 -1.000000
vn 0.000000 -0.000000 -1.000000
vn 0.000000 -0.000000 -1.000000
vn 0.000000 -1.000000 -0.000000
vn -0.000000 -1.000000 0.000000
vn -0.000000 -1.000000 0.000000
vn -0.000000 -1.000000 0.000000
vn -0.000000 -1.000000 0.000000
vn -0.000000 -1.000000 0.000000
vn -0.000000 -1.000000 0.000000
vn -0.000000 -1.000000 0.000000
vn -0.000000 -1.000000 0.000000
vn -0.000000 -1.000000 0.000000
vn -0.000000 -1.000000 0.000000
vn -0.000000 -1.000000 0.000000
vn -0.000000 -1.000000 0.000000
vn -0.000000 -1.000000 0.000000
vn -0.000000 -1.000000 0.000000
vn -0.000000 -1.000000 0.000000
vn -0.000000 -1.000000 0.000000
vn -0.000000 -1.000000 0.000000
vn -0.000000 -1.000000 0.000000
vn -0.000000 -1.000000 0.000000
vn -0.000000 -1.000000 0.000000
vn -0.000000 -1.000000 0.000000
vn -0.000000 -1.000000 0.000000
vn -0.000000 -1.000000 0.000000
vn -0.000000 -1.000000 0.000000
vn -0.000000 -1.000000 0.000000
vn -0.000000 -1.000000 0.000000
vn -0.000000 -1.000000 0.000000
vn -0.000000 -1.000000 0.000000
vn -0.000000 -1.000000 0.000000
vn -0.000000 -1.000000 0.000000
vn -0.000000 -1.000000 0.000000
vn -0.000000 -1.000000 0.000000
vn -0.000000 -1.000000 0.000000
vn -0.000000 -1.000000 0.000000
vn -0.000000 -1.000000 0.000000
vn -0.000000 -1.000000 0.000000
vn -0.000000 -1.000000 0.000000
vn -0.000000 -1.000000 0.000000
vn -0.000000 -1.000000 0.000000
vn -0.000000 -1.000000 0.000000
vn -0.000000 -1.000000 0.000000
vn -0.000000 -1.000000 0.000000
vn -0.000000 -1.000000 0.000000
vn -0.000000 -1.000000 0.000000
vn -0.000000 -1.000000 0.000000
vn -0.000000 -1.000000 0.000000
vn -0.000000 -1.000000 0.000000
vn -0.000000 -1.000000 0.000000
vn -0.000000 -1.000000 0.000000
f 2/2/2 1/1/1 3/3/3
f 6/6/6 5/5/5 7/7/7
f 10/10/10 9/9/9 11/11/11
f 14/14/14 13/13/13 15/15/15
f 18/18/18 17/17/17 19/19/19
f 22/22/22 24/24/24 23/23/23
f 26/26/26 25/25/25 27/27/27
f 27/27/27 28/28/28 26/26/26
f 31/31/31 29/29/29 30/30/30
f 34/34/34 32/32/32 33/33/33
f 37/37/37 35/35/35 36/36/36
f 40/40/40 38/38/38 39/39/39
f 42/42/42 41/41/41 43/43/43
f 43/43/43 44/44/44 42/42/42
f 47/47/47 45/45/45 46/46/46
f 50/50/50 48/48/48 49/49/49
f 53/53/53 51/51/51 52/52/52
f 56/56/56 54/54/54 55/55/55
f 58/58/58 57/57/57 59/59/59
f 59/59/59 60/60/60 58/58/58
f 63/63/63 61/61/61 62/62/62
f 66/66/66 64/64/64 65/65/65
f 69/69/69 67/67/67 68/68/68
f 72/72/72 70/70/70 71/71/71
f 73/73/73 75/75/75 76/76/76
f 77/77/77 79/79/79 80/80/80
f 81/81/81 83/83/83 84/84/84
f 85/85/85 87/87/87 88/88/88
f 89/89/89 92/92/92 91/91/91
f 91/91/91 90/90/90 89/89/89
f 93/93/93 95/95/95 96/96/96
f 95/95/95 93/93/93 94/94/94
f 98/98/98 97/97/97 99/99/99
f 102/102/102 101/101/101 103/103/103
f 106/106/106 105/105/105 107/107/107
f 110/110/110 109/109/109 111/111/111
f 114/114/114 116/116/116 115/115/115
f 117/117/117 119/119/119 120/120/120
f 121/121/121 123/123/123 124/124/124
f 125/125/125 127/127/127 128/128/128
f 129/129/129 131/131/131 132/132/132
f 133/133/133 136/136/136 135/135/135
f 135/135/135 134/134/134 133/133/133
f 137/137/137 139/139/139 140/140/140
f 139/139/139 137/137/137 138/138/138
f 142/142/142 141/141/141 143/143/143
f 146/146/146 145/145/145 147/147/147
f 150/150/150 149/149/149 151/151/151
f 154/154/154 153/153/153 155/155/155
f 158/158/158 160/160/160 159/159/159
f 203/203/203 202/202/202 161/161/161
f 201/201/201 161/161/161 202/202/202
f 163/163/163 201/201/201 200/200/200
f 163/163/163 200/200/200 199/199/199
f 201/201/201 163/163/163 161/161/161
f 197/197/197 163/163/163 198/198/198
f 199/199/199 198/198/198 163/163/163
f 164/164/164 163/163/163 197/197/197
f 177/177/177 165/165/165 164/164/164
f 197/197/197 178/178/178 164/164/164
f 163/163/163 204/204/204 161/161/161
f 178/178/178 197/197/197 196/196/196
f 181/181/181 195/195/195 194/194/194
f 182/182/182 194/194/194 193/193/193
f 162/162/162 192/192/192 191/191/191
f 193/193/193 192/192/192 162/162/162
f 162/162/162 183/183/183 193/193/193
f 195/195/195 180/180/180 179/179/179
f 178/178/178 196/196/196 179/179/179
f 195/195/195 181/181/181 180/180/180
f 181/181/181 194/194/194 182/182/182
f 162/162/162 184/184/184 183/183/183
f 193/193/193 183/183/183 182/182/182
f 195/195/195 179/179/179 196/196/196
f 190/190/190 185/185/185 184/184/184
f 204/204/204 210/210/210 209/209/209
f 168/168/168 167/167/167 173/173/173
f 175/175/175 167/167/167 166/166/166
f 168/168/168 170/170/170 169/169/169
f 207/207/207 204/204/204 208/208/208
f 209/209/209 208/208/208 204/204/204
f 205/205/205 204/204/204 207/207/207
f 207/207/207 206/206/206 205/205/205
f 171/171/171 170/170/170 168/168/168
f 204/204/204 163/163/163 210/210/210
f 165/165/165 176/176/176 166/166/166
f 176/176/176 175/175/175 166/166/166
f 173/173/173 167/167/167 174/174/174
f 175/175/175 174/174/174 167/167/167
f 165/165/165 177/177/177 176/176/176
f 173/173/173 172/172/172 171/171/171
f 190/190/190 187/187/187 186/186/186
f 187/187/187 190/190/190 189/189/189
f 187/187/187 189/189/189 188/188/188
f 185/185/185 190/190/190 186/186/186
f 171/171/171 168/168/168 173/173/173
f 212/212/212 214/214/214 213/213/213
f 216/216/216 218/218/218 217/217/217
f 221/221/221 219/219/219 225/225/225
f 222/222/222 225/225/225 220/220/220
f 223/223/223 221/221/221 222/222/222
f 225/225/225 222/222/222 221/221/221
f 227/227/227 229/229/229 228/228/228
f 229/229/229 231/231/231 232/232/232
f 230/230/230 228/228/228 232/232/232
f 234/234/234 236/236/236 235/235/235
f 238/238/238 240/240/240 239/239/239
f 242/242/242 244/244/244 243/243/243
f 247/247/247 245/245/245 249/249/249
f 246/246/246 248/248/248 249/249/249
f 247/247/247 249/249/249 248/248/248
f 257/257/257 252/252/252 250/250/250
f 257/257/257 251/251/251 253/253/253
f 253/253/253 252/252/252 257/257/257
f 252/252/252 253/253/253 256/256/256
f 256/256/256 253/253/253 255/255/255
f 254/254/254 252/252/252 256/256/256
f 259/259/259 261/261/261 260/260/260
f 261/261/261 263/263/263 264/264/264
f 262/262/262 260/260/260 264/264/264
f 266/266/266 268/268/268 267/267/267
f 270/270/270 272/272/272 271/271/271
f 275/275/275 273/273/273 277/277/277
f 274/274/274 276/276/276 277/277/277
f 275/275/275 277/277/277 276/276/276
f 285/285/285 280/280/280 278/278/278
f 285/285/285 279/279/279 281/281/281
f 281/281/281 280/280/280 285/285/285
f 280/280/280 281/281/281 284/284/284
f 284/284/284 281/281/281 283/283/283
f 282/282/282 280/280/280 284/284/284
f 287/287/287 289/289/289 288/288/288
f 289/289/289 291/291/291 292/292/292
f 290/290/290 288/288/288 292/292/292
f 294/294/294 296/296/296 295/295/295
f 299/299/299 297/297/297 301/301/301
f 298/298/298 300/300/300 301/301/301
f 299/299/299 301/301/301 300/300/300
f 307/307/307 306/306/306 304/304/304
f 303/303/303 305/305/305 306/306/306
f 312/312/312 308/308/308 309/309/309
f 308/308/308 312/312/312 310/310/310
f 309/309/309 311/311/311 312/312/312
f 314/314/314 316/316/316 315/315/315
f 318/318/318 320/320/320 319/319/319
f 322/322/322 324/324/324 323/323/323
f 326/326/326 328/328/328 327/327/327
f 330/330/330 332/332/332 331/331/331
f 335/335/335 333/333/333 337/337/337
f 334/334/334 336/336/336 337/337/337
f 335/335/335 337/337/337 336/336/336
f 345/345/345 340/340/340 338/338/338
f 345/345/345 339/339/339 341/341/341
f 341/341/341 340/340/340 345/345/345
f 341/341/341 343/343/343 344/344/344
f 342/342/342 340/340/340 344/344/344
f 350/350/350 346/346/346 347/347/347
f 346/346/346 350/350/350 348/348/348
f 347/347/347 349/349/349 350/350/350
f 352/352/352 354/354/354 353/353/353
f 363/363/363 357/357/357 355/355/355
f 363/363/363 356/356/356 358/358/358
f 358/358/358 357/357/357 363/363/363
f 361/361/361 359/359/359 360/360/360
f 359/359/359 357/357/357 358/358/358
f 365/365/365 367/367/367 366/366/366
f 366/366/366 367/367/367 370/370/370
f 370/370/370 367/367/367 369/369/369
f 368/368/368 366/366/366 370/370/370
f 372/372/372 374/374/374 373/373/373
f 376/376/376 378/378/378 377/377/377
f 380/380/380 382/382/382 381/381/381
f 384/384/384 386/386/386 385/385/385
f 388/388/388 390/390/390 389/389/389
f 393/393/393 391/391/391 395/395/395
f 392/392/392 394/394/394 395/395/395
f 393/393/393 395/395/395 394/394/394
f 403/403/403 398/398/398 396/396/396
f 403/403/403 397/397/397 399/399/399
f 399/399/399 398/398/398 403/403/403
f 398/398/398 399/399/399 402/402/402
f 402/402/402 399/399/399 401/401/401
f 400/400/400 398/398/398 402/402/402
f 408/408/408 404/404/404 405/405/405
f 404/404/404 408/408/408 406/406/406
f 405/405/405 407/407/407 408/408/408
f 410/410/410 412/412/412 411/411/411
f 455/455/455 413/413/413 454/454/454
f 453/453/453 454/454/454 413/413/413
f 415/415/415 452/452/452 453/453/453
f 415/415/415 451/451/451 452/452/452
f 453/453/453 413/413/413 415/415/415
f 449/449/449 450/450/450 415/415/415
f 451/451/451 415/415/415 450/450/450
f 416/416/416 449/449/449 415/415/415
f 429/429/429 430/430/430 416/416/416
f 449/449/449 416/416/416 430/430/430
f 415/415/415 413/413/413 456/456/456
f 430/430/430 448/448/448 449/449/449
f 433/433/433 446/446/446 447/447/447
f 434/434/434 445/445/445 446/446/446
f 414/414/414 443/443/443 444/444/444
f 445/445/445 414/414/414 444/444/444
f 414/414/414 445/445/445 435/435/435
f 447/447/447 431/431/431 432/432/432
f 430/430/430 431/431/431 448/448/448
f 447/447/447 432/432/432 433/433/433
f 433/433/433 434/434/434 446/446/446
f 414/414/414 435/435/435 436/436/436
f 445/445/445 434/434/434 435/435/435
f 447/447/447 448/448/448 431/431/431
f 442/442/442 414/414/414 436/436/436
f 456/456/456 461/461/461 462/462/462
f 420/420/420 425/425/425 419/419/419
f 427/427/427 418/418/418 419/419/419
f 420/420/420 421/421/421 422/422/422
f 459/459/459 460/460/460 456/456/456
f 461/461/461 456/456/456 460/460/460
f 457/457/457 459/459/459 456/456/456
f 459/459/459 457/457/457 458/458/458
f 423/423/423 420/420/420 422/422/422
f 456/456/456 462/462/462 415/415/415
f 417/417/417 418/418/418 428/428/428
f 428/428/428 418/418/418 427/427/427
f 425/425/425 426/426/426 419/419/419
f 427/427/427 419/419/419 426/426/426
f 417/417/417 428/428/428 429/429/429
f 425/425/425 423/423/423 424/424/424
f 442/442/442 438/438/438 439/439/439
f 439/439/439 441/441/441 442/442/442
f 439/439/439 440/440/440 441/441/441
f 437/437/437 438/438/438 442/442/442
f 423/423/423 425/425/425 420/420/420
f 505/505/505 504/504/504 463/463/463
f 503/503/503 463/463/463 504/504/504
f 465/465/465 503/503/503 502/502/502
f 465/465/465 502/502/502 501/501/501
f 503/503/503 465/465/465 463/463/463
f 499/499/499 465/465/465 500/500/500
f 501/501/501 500/500/500 465/465/465
f 466/466/466 465/465/465 499/499/499
f 479/479/479 467/467/467 466/466/466
f 499/499/499 480/480/480 466/466/466
f 465/465/465 506/506/506 463/463/463
f 480/480/480 499/499/499 498/498/498
f 483/483/483 497/497/497 496/496/496
f 484/484/484 496/496/496 495/495/495
f 464/464/464 494/494/494 493/493/493
f 495/495/495 494/494/494 464/464/464
f 464/464/464 485/485/485 495/495/495
f 497/497/497 482/482/482 481/481/481
f 480/480/480 498/498/498 481/481/481
f 497/497/497 483/483/483 482/482/482
f 483/483/483 496/496/496 484/484/484
f 464/464/464 486/486/486 485/485/485
f 495/495/495 485/485/485 484/484/484
f 497/497/497 481/481/481 498/498/498
f 492/492/492 487/487/487 486/486/486
f 506/506/506 512/512/512 511/511/511
f 470/470/470 469/469/469 475/475/475
f 477/477/477 469/469/469 468/468/468
f 470/470/470 472/472/472 471/471/471
f 509/509/509 506/506/506 510/510/510
f 511/511/511 510/510/510 506/506/506
f 507/507/507 506/506/506 509/509/509
f 509/509/509 508/508/508 507/507/507
f 473/473/473 472/472/472 470/470/470
f 506/506/506 465/465/465 512/512/512
f 467/467/467 478/478/478 468/468/468
f 478/478/478 477/477/477 468/468/468
f 475/475/475 469/469/469 476/476/476
f 477/477/477 476/476/476 469/469/469
f 467/467/467 479/479/479 478/478/478
f 475/475/475 474/474/474 473/473/473
f 492/492/492 489/489/489 488/488/488
f 489/489/489 492/492/492 491/491/491
f 489/489/489 491/491/491 490/490/490
f 487/487/487 492/492/492 488/488/488
f 473/473/473 470/470/470 475/475/475
f 514/514/514 516/516/516 515/515/515
f 518/518/518 520/520/520 519/519/519
f 523/523/523 521/521/521 527/527/527
f 524/524/524 527/527/527 522/522/522
f 525/525/525 523/523/523 524/524/524
f 527/527/527 524/524/524 523/523/523
f 529/529/529 531/531/531 530/530/530
f 530/530/530 531/531/531 534/534/534
f 534/534/534 531/531/531 533/533/533
f 532/532/532 530/530/530 534/534/534
f 536/536/536 538/538/538 537/537/537
f 540/540/540 542/542/542 541/541/541
f 544/544/544 546/546/546 545/545/545
f 549/549/549 547/547/547 551/551/551
f 548/548/548 550/550/550 551/551/551
f 549/549/549 551/551/551 550/550/550
f 559/559/559 554/554/554 552/552/552
f 559/559/559 553/553/553 555/555/555
f 555/555/555 554/554/554 559/559/559
f 554/554/554 555/555/555 558/558/558
f 558/558/558 555/555/555 557/557/557
f 556/556/556 554/554/554 558/558/558
f 561/561/561 563/563/563 562/562/562
f 562/562/562 563/563/563 566/566/566
f 566/566/566 563/563/563 565/565/565
f 564/564/564 562/562/562 566/566/566
f 568/568/568 570/570/570 569/569/569
f 572/572/572 574/574/574 573/573/573
f 577/577/577 575/575/575 579/579/579
f 576/576/576 578/578/578 579/579/579
f 577/577/577 579/579/579 578/578/578
f 586/586/586 582/582/582 580/580/580
f 586/586/586 581/581/581 583/583/583
f 583/583/583 582/582/582 586/586/586
f 582/582/582 583/583/583 587/587/587
f 587/587/587 583/583/583 585/585/585
f 584/584/584 582/582/582 587/587/587
f 589/589/589 591/591/591 590/590/590
f 590/590/590 591/591/591 594/594/594
f 594/594/594 591/591/591 593/593/593
f 592/592/592 590/590/590 594/594/594
f 596/596/596 598/598/598 597/597/597
f 601/601/601 599/599/599 603/603/603
f 600/600/600 602/602/602 603/603/603
f 601/601/601 603/603/603 602/602/602
f 609/609/609 608/608/608 606/606/606
f 605/605/605 607/607/607 608/608/608
f 614/614/614 610/610/610 611/611/611
f 610/610/610 614/614/614 612/612/612
f 611/611/611 613/613/613 614/614/614
f 616/616/616 618/618/618 617/617/617
f 620/620/620 622/622/622 621/621/621
f 624/624/624 626/626/626 625/625/625
f 628/628/628 630/630/630 629/629/629
f 632/632/632 634/634/634 633/633/633
f 637/637/637 635/635/635 639/639/639
f 636/636/636 638/638/638 639/639/639
f 637/637/637 639/639/639 638/638/638
f 647/647/647 642/642/642 640/640/640
f 647/647/647 641/641/641 643/643/643
f 643/643/643 642/642/642 647/647/647
f 642/642/642 643/643/643 646/646/646
f 646/646/646 643/643/643 645/645/645
f 644/644/644 642/642/642 646/646/646
f 652/652/652 648/648/648 649/649/649
f 648/648/648 652/652/652 650/650/650
f 649/649/649 651/651/651 652/652/652
f 654/654/654 656/656/656 655/655/655
f 665/665/665 659/659/659 657/657/657
f 665/665/665 658/658/658 660/660/660
f 660/660/660 659/659/659 665/665/665
f 663/663/663 661/661/661 662/662/662
f 661/661/661 659/659/659 660/660/660
f 667/667/667 669/669/669 668/668/668
f 668/668/668 669/669/669 672/672/672
f 672/672/672 669/669/669 671/671/671
f 670/670/670 668/668/668 672/672/672
f 674/674/674 676/676/676 675/675/675
f 678/678/678 680/680/680 679/679/679
f 682/682/682 684/684/684 683/683/683
f 686/686/686 688/688/688 687/687/687
f 690/690/690 692/692/692 691/691/691
f 695/695/695 693/693/693 697/697/697
f 694/694/694 696/696/696 697/697/697
f 695/695/695 697/697/697 696/696/696
f 705/705/705 700/700/700 698/698/698
f 705/705/705 699/699/699 701/701/701
f 701/701/701 700/700/700 705/705/705
f 700/700/700 701/701/701 704/704/704
f 704/704/704 701/701/701 703/703/703
f 702/702/702 700/700/700 704/704/704
f 710/710/710 706/706/706 707/707/707
f 706/706/706 710/710/710 708/708/708
f 707/707/707 709/709/709 710/710/710
f 712/712/712 714/714/714 713/713/713
f 757/757/757 715/715/715 756/756/756
f 755/755/755 756/756/756 715/715/715
f 717/717/717 754/754/754 755/755/755
f 717/717/717 753/753/753 754/754/754
f 755/755/755 715/715/715 717/717/717
f 751/751/751 752/752/752 717/717/717
f 753/753/753 717/717/717 752/752/752
f 718/718/718 751/751/751 717/717/717
f 731/731/731 732/732/732 718/718/718
f 751/751/751 718/718/718 732/732/732
f 717/717/717 715/715/715 758/758/758
f 732/732/732 750/750/750 751/751/751
f 735/735/735 748/748/748 749/749/749
f 736/736/736 747/747/747 748/748/748
f 716/716/716 745/745/745 746/746/746
f 747/747/747 716/716/716 746/746/746
f 716/716/716 747/747/747 737/737/737
f 749/749/749 733/733/733 734/734/734
f 732/732/732 733/733/733 750/750/750
f 749/749/749 734/734/734 735/735/735
f 735/735/735 736/736/736 748/748/748
f 716/716/716 737/737/737 738/738/738
f 747/747/747 736/736/736 737/737/737
f 749/749/749 750/750/750 733/733/733
f 744/744/744 716/716/716 738/738/738
f 758/758/758 763/763/763 764/764/764
f 722/722/722 727/727/727 721/721/721
f 729/729/729 720/720/720 721/721/721
f 722/722/722 723/723/723 724/724/724
f 761/761/761 762/762/762 758/758/758
f 763/763/763 758/758/758 762/762/762
f 759/759/759 761/761/761 758/758/758
f 761/761/761 759/759/759 760/760/760
f 725/725/725 722/722/722 724/724/724
f 758/758/758 764/764/764 717/717/717
f 719/719/719 720/720/720 730/730/730
f 730/730/730 720/720/720 729/729/729
f 727/727/727 728/728/728 721/721/721
f 729/729/729 721/721/721 728/728/728
f 719/719/719 730/730/730 731/731/731
f 727/727/727 725/725/725 726/726/726
f 744/744/744 740/740/740 741/741/741
f 741/741/741 743/743/743 744/744/744
f 741/741/741 742/742/742 743/743/743
f 739/739/739 740/740/740 744/744/744
f 725/725/725 727/727/727 722/722/722
f 2/2/2 3/3/3 4/4/4
f 6/6/6 7/7/7 8/8/8
f 10/10/10 11/11/11 12/12/12
f 14/14/14 15/15/15 16/16/16
f 18/18/18 19/19/19 20/20/20
f 22/22/22 23/23/23 21/21/21
f 73/73/73 76/76/76 74/74/74
f 77/77/77 80/80/80 78/78/78
f 81/81/81 84/84/84 82/82/82
f 85/85/85 88/88/88 86/86/86
f 98/98/98 99/99/99 100/100/100
f 102/102/102 103/103/103 104/104/104
f 106/106/106 107/107/107 108/108/108
f 110/110/110 111/111/111 112/112/112
f 114/114/114 115/115/115 113/113/113
f 117/117/117 120/120/120 118/118/118
f 121/121/121 124/124/124 122/122/122
f 125/125/125 128/128/128 126/126/126
f 129/129/129 132/132/132 130/130/130
f 142/142/142 143/143/143 144/144/144
f 146/146/146 147/147/147 148/148/148
f 150/150/150 151/151/151 152/152/152
f 154/154/154 155/155/155 156/156/156
f 158/158/158 159/159/159 157/157/157
f 177/177/177 164/164/164 178/178/178
f 190/190/190 184/184/184 162/162/162
f 212/212/212 213/213/213 211/211/211
f 216/216/216 217/217/217 215/215/215
f 223/223/223 222/222/222 224/224/224
f 227/227/227 228/228/228 226/226/226
f 229/229/229 232/232/232 228/228/228
f 234/234/234 235/235/235 233/233/233
f 238/238/238 239/239/239 237/237/237
f 242/242/242 243/243/243 241/241/241
f 259/259/259 260/260/260 258/258/258
f 261/261/261 264/264/264 260/260/260
f 266/266/266 267/267/267 265/265/265
f 270/270/270 271/271/271 269/269/269
f 287/287/287 288/288/288 286/286/286
f 289/289/289 292/292/292 288/288/288
f 294/294/294 295/295/295 293/293/293
f 307/307/307 304/304/304 302/302/302
f 303/303/303 306/306/306 307/307/307
f 314/314/314 315/315/315 313/313/313
f 318/318/318 319/319/319 317/317/317
f 322/322/322 323/323/323 321/321/321
f 326/326/326 327/327/327 325/325/325
f 330/330/330 331/331/331 329/329/329
f 341/341/341 344/344/344 340/340/340
f 352/352/352 353/353/353 351/351/351
f 361/361/361 360/360/360 362/362/362
f 359/359/359 358/358/358 360/360/360
f 365/365/365 366/366/366 364/364/364
f 372/372/372 373/373/373 371/371/371
f 376/376/376 377/377/377 375/375/375
f 380/380/380 381/381/381 379/379/379
f 384/384/384 385/385/385 383/383/383
f 388/388/388 389/389/389 387/387/387
f 410/410/410 411/411/411 409/409/409
f 429/429/429 416/416/416 417/417/417
f 442/442/442 436/436/436 437/437/437
f 479/479/479 466/466/466 480/480/480
f 492/492/492 486/486/486 464/464/464
f 514/514/514 515/515/515 513/513/513
f 518/518/518 519/519/519 517/517/517
f 525/525/525 524/524/524 526/526/526
f 529/529/529 530/530/530 528/528/528
f 536/536/536 537/537/537 535/535/535
f 540/540/540 541/541/541 539/539/539
f 544/544/544 545/545/545 543/543/543
f 561/561/561 562/562/562 560/560/560
f 568/568/568 569/569/569 567/567/567
f 572/572/572 573/573/573 571/571/571
f 589/589/589 590/590/590 588/588/588
f 596/596/596 597/597/597 595/595/595
f 609/609/609 606/606/606 604/604/604
f 605/605/605 608/608/608 609/609/609
f 616/616/616 617/617/617 615/615/615
f 620/620/620 621/621/621 619/619/619
f 624/624/624 625/625/625 623/623/623
f 628/628/628 629/629/629 627/627/627
f 632/632/632 633/633/633 631/631/631
f 654/654/654 655/655/655 653/653/653
f 663/663/663 662/662/662 664/664/664
f 661/661/661 660/660/660 662/662/662
f 667/667/667 668/668/668 666/666/666
f 674/674/674 675/675/675 673/673/673
f 678/678/678 679/679/679 677/677/677
f 682/682/682 683/683/683 681/681/681
f 686/686/686 687/687/687 685/685/685
f 690/690/690 691/691/691 689/689/689
f 712/712/712 713/713/713 711/711/711
f 731/731/731 718/718/718 719/719/719
f 744/744/744 738/738/738 739/739/739

