g mesh_structure_trans0
v -0.000000 3.000000 5.500000
v -0.000000 3.000000 0.000000
v -0.000000 3.240000 0.000000
v -0.000000 3.240000 5.500000
v -0.000000 3.000000 0.000000
v -9.000000 3.000000 0.000000
v -9.000000 3.240000 0.000000
v -0.000000 3.240000 0.000000
v -9.000000 3.000000 0.000000
v -9.000000 3.000000 5.500000
v -9.000000 3.240000 5.500000
v -9.000000 3.240000 0.000000
v -9.000000 3.000000 5.500000
v -0.000000 3.000000 5.500000
v -0.000000 3.240000 5.500000
v -9.000000 3.240000 5.500000
v -0.000000 3.000000 5.500000
v -9.000000 3.000000 5.500000
v -9.000000 3.000000 0.000000
v -0.000000 3.000000 0.000000
v -0.000000 3.240000 5.500000
v -9.000000 3.240000 0.000000
v -9.000000 3.240000 5.500000
v -0.000000 3.240000 0.000000
v -0.698268 0.000000 0.502563
v -0.684226 0.000000 0.576182
v -0.684226 3.000000 0.576182
v -0.698268 3.000000 0.502563
v -0.639689 0.000000 0.643985
v -0.639689 3.000000 0.643985
v -0.571887 0.000000 0.688521
v -0.571887 3.000000 0.688521
v -0.498268 0.000000 0.702563
v -0.498268 3.000000 0.702563
v -0.424649 0.000000 0.688521
v -0.424649 3.000000 0.688521
v -0.356847 0.000000 0.643985
v -0.356847 3.000000 0.643985
v -0.312310 0.000000 0.576182
v -0.312310 3.000000 0.576182
v -0.298268 0.000000 0.502563
v -0.298268 3.000000 0.502563
v -0.312310 0.000000 0.428944
v -0.312310 3.000000 0.428944
v -0.356847 0.000000 0.361142
v -0.356847 3.000000 0.361142
v -0.424649 0.000000 0.316606
v -0.424649 3.000000 0.316606
v -0.498268 0.000000 0.302563
v -0.498268 3.000000 0.302563
v -0.571887 0.000000 0.316606
v -0.571887 3.000000 0.316606
v -0.639689 0.000000 0.361142
v -0.639689 3.000000 0.361142
v -0.684226 0.000000 0.428944
v -0.684226 3.000000 0.428944
v -0.698268 0.000000 0.502563
v -0.698268 3.000000 0.502563
v -4.698268 0.000000 0.502563
v -4.684226 0.000000 0.576182
v -4.684226 3.000000 0.576182
v -4.698268 3.000000 0.502563
v -4.639689 0.000000 0.643985
v -4.639689 3.000000 0.643985
v -4.571887 0.000000 0.688521
v -4.571887 3.000000 0.688521
v -4.498268 0.000000 0.702563
v -4.498268 3.000000 0.702563
v -4.424649 0.000000 0.688521
v -4.424649 3.000000 0.688521
v -4.356846 0.000000 0.643985
v -4.356846 3.000000 0.643985
v -4.312310 0.000000 0.576182
v -4.312310 3.000000 0.576182
v -4.298268 0.000000 0.502563
v -4.298268 3.000000 0.502563
v -4.312310 0.000000 0.428944
v -4.312310 3.000000 0.428944
v -4.356846 0.000000 0.361142
v -4.356846 3.000000 0.361142
v -4.424649 0.000000 0.316606
v -4.424649 3.000000 0.316606
v -4.498268 0.000000 0.302563
v -4.498268 3.000000 0.302563
v -4.571887 0.000000 0.316606
v -4.571887 3.000000 0.316606
v -4.639689 0.000000 0.361142
v -4.639689 3.000000 0.361142
v -4.684226 0.000000 0.428944
v -4.684226 3.000000 0.428944
v -4.698268 0.000000 0.502563
v -4.698268 3.000000 0.502563
v -8.698268 0.000000 0.502563
v -8.684226 0.000000 0.576182
v -8.684226 3.000000 0.576182
v -8.698268 3.000000 0.502563
v -8.639689 0.000000 0.643985
v -8.639689 3.000000 0.643985
v -8.571887 0.000000 0.688521
v -8.571887 3.000000 0.688521
v -8.498268 0.000000 0.702563
v -8.498268 3.000000 0.702563
v -8.424649 0.000000 0.688521
v -8.424649 3.000000 0.688521
v -8.356847 0.000000 0.643985
v -8.356847 3.000000 0.643985
v -8.312310 0.000000 0.576182
v -8.312310 3.000000 0.576182
v -8.298268 0.000000 0.502563
v -8.298268 3.000000 0.502563
v -8.312310 0.000000 0.428944
v -8.312310 3.000000 0.428944
v -8.356847 0.000000 0.361142
v -8.356847 3.000000 0.361142
v -8.424649 0.000000 0.316606
v -8.424649 3.000000 0.316606
v -8.498268 0.000000 0.302563
v -8.498268 3.000000 0.302563
v -8.571887 0.000000 0.316606
v -8.571887 3.000000 0.316606
v -8.639689 0.000000 0.361142
v -8.639689 3.000000 0.361142
v -8.684226 0.000000 0.428944
v -8.684226 3.000000 0.428944
v -8.698268 0.000000 0.502563
v -8.698268 3.000000 0.502563
v -0.356847 3.000000 0.361142
v -0.298268 3.000000 0.502563
v -0.312310 3.000000 0.428944
v -0.424649 3.000000 0.316606
v -0.498268 3.000000 0.302563
v -0.498268 3.000000 0.702563
v -0.356847 3.000000 0.643985
v -0.312310 3.000000 0.576182
v -0.424649 3.000000 0.688521
v -0.639689 3.000000 0.361142
v -0.684226 3.000000 0.428944
v -0.698268 3.000000 0.502563
v -0.639689 3.000000 0.643985
v -0.571887 3.000000 0.688521
v -0.684226 3.000000 0.576182
v -0.571887 3.000000 0.316606
v -0.356847 0.000000 0.361142
v -0.312310 0.000000 0.428944
v -0.298268 0.000000 0.502563
v -0.498268 0.000000 0.302563
v -0.424649 0.000000 0.316606
v -0.498268 0.000000 0.702563
v -0.356847 0.000000 0.643985
v -0.312310 0.000000 0.576182
v -0.424649 0.000000 0.688521
v -0.684226 0.000000 0.428944
v -0.639689 0.000000 0.361142
v -0.698268 0.000000 0.502563
v -0.639689 0.000000 0.643985
v -0.571887 0.000000 0.688521
v -0.684226 0.000000 0.576182
v -0.571887 0.000000 0.316606
v -4.424649 3.000000 0.316606
v -4.312310 3.000000 0.428944
v -4.356846 3.000000 0.361142
v -4.498268 3.000000 0.302563
v -4.684226 3.000000 0.576182
v -4.312310 3.000000 0.576182
v -4.298268 3.000000 0.502563
v -4.424649 3.000000 0.688521
v -4.356846 3.000000 0.643985
v -4.498268 3.000000 0.702563
v -4.639689 3.000000 0.361142
v -4.684226 3.000000 0.428944
v -4.698268 3.000000 0.502563
v -4.639689 3.000000 0.643985
v -4.571887 3.000000 0.688521
v -4.571887 3.000000 0.316606
v -4.424649 0.000000 0.316606
v -4.356846 0.000000 0.361142
v -4.312310 0.000000 0.428944
v -4.498268 0.000000 0.302563
v -4.684226 0.000000 0.576182
v -4.312310 0.000000 0.576182
v -4.298268 0.000000 0.502563
v -4.356846 0.000000 0.643985
v -4.424649 0.000000 0.688521
v -4.498268 0.000000 0.702563
v -4.639689 0.000000 0.361142
v -4.684226 0.000000 0.428944
v -4.698268 0.000000 0.502563
v -4.639689 0.000000 0.643985
v -4.571887 0.000000 0.688521
v -4.571887 0.000000 0.316606
v -8.424649 3.000000 0.316606
v -8.312310 3.000000 0.428944
v -8.356847 3.000000 0.361142
v -8.498268 3.000000 0.302563
v -8.698268 3.000000 0.502563
v -8.312310 3.000000 0.576182
v -8.298268 3.000000 0.502563
v -8.424649 3.000000 0.688521
v -8.356847 3.000000 0.643985
v -8.498268 3.000000 0.702563
v -8.571887 3.000000 0.316606
v -8.639689 3.000000 0.361142
v -8.684226 3.000000 0.428944
v -8.571887 3.000000 0.688521
v -8.639689 3.000000 0.643985
v -8.684226 3.000000 0.576182
v -8.424649 0.000000 0.316606
v -8.356847 0.000000 0.361142
v -8.312310 0.000000 0.428944
v -8.498268 0.000000 0.302563
v -8.698268 0.000000 0.502563
v -8.312310 0.000000 0.576182
v -8.298268 0.000000 0.502563
v -8.356847 0.000000 0.643985
v -8.424649 0.000000 0.688521
v -8.498268 0.000000 0.702563
v -8.639689 0.000000 0.361142
v -8.571887 0.000000 0.316606
v -8.684226 0.000000 0.428944
v -8.571887 0.000000 0.688521
v -8.639689 0.000000 0.643985
v -8.684226 0.000000 0.576182
vt 0.000000 0.000000
vt 0.189655 0.000000
vt 0.189655 0.510676
vt 0.000000 0.510676
vt 0.189655 0.000000
vt 0.500000 0.000000
vt 0.500000 0.510676
vt 0.189655 0.510676
vt 0.500000 0.000000
vt 0.689655 0.000000
vt 0.689655 0.510676
vt 0.500000 0.510676
vt 0.689655 0.000000
vt 1.000000 0.000000
vt 1.000000 0.510676
vt 0.689655 0.510676
vt 0.310345 1.000000
vt 0.000000 1.000000
vt 0.000000 0.510676
vt 0.310345 0.510676
vt 1.000000 0.510676
vt 0.689655 1.000000
vt 0.689655 0.510676
vt 1.000000 1.000000
vt 0.000000 0.000000
vt 0.050296 0.000000
vt 0.050296 1.000000
vt 0.000000 1.000000
vt 0.100592 0.000000
vt 0.100592 1.000000
vt 0.150888 0.000000
vt 0.150888 1.000000
vt 0.201185 0.000000
vt 0.201185 1.000000
vt 0.251481 0.000000
vt 0.251481 1.000000
vt 0.301777 0.000000
vt 0.301777 1.000000
vt 0.352073 0.000000
vt 0.352073 1.000000
vt 0.402369 0.000000
vt 0.402369 1.000000
vt 0.452665 0.000000
vt 0.452665 1.000000
vt 0.502961 0.000000
vt 0.502961 1.000000
vt 0.553258 0.000000
vt 0.553258 1.000000
vt 0.603554 0.000000
vt 0.603554 1.000000
vt 0.653850 0.000000
vt 0.653850 1.000000
vt 0.704146 0.000000
vt 0.704146 1.000000
vt 0.754442 0.000000
vt 0.754442 1.000000
vt 0.804738 0.000000
vt 0.804738 1.000000
vt 0.000000 0.000000
vt 0.050296 0.000000
vt 0.050296 1.000000
vt 0.000000 1.000000
vt 0.100592 0.000000
vt 0.100592 1.000000
vt 0.150888 0.000000
vt 0.150888 1.000000
vt 0.201185 0.000000
vt 0.201185 1.000000
vt 0.251481 0.000000
vt 0.251481 1.000000
vt 0.301777 0.000000
vt 0.301777 1.000000
vt 0.352073 0.000000
vt 0.352073 1.000000
vt 0.402369 0.000000
vt 0.402369 1.000000
vt 0.452665 0.000000
vt 0.452665 1.000000
vt 0.502961 0.000000
vt 0.502961 1.000000
vt 0.553258 0.000000
vt 0.553258 1.000000
vt 0.603554 0.000000
vt 0.603554 1.000000
vt 0.653850 0.000000
vt 0.653850 1.000000
vt 0.704146 0.000000
vt 0.704146 1.000000
vt 0.754442 0.000000
vt 0.754442 1.000000
vt 0.804738 0.000000
vt 0.804738 1.000000
vt 0.000000 0.000000
vt 0.050296 0.000000
vt 0.050296 1.000000
vt 0.000000 1.000000
vt 0.100592 0.000000
vt 0.100592 1.000000
vt 0.150888 0.000000
vt 0.150888 1.000000
vt 0.201185 0.000000
vt 0.201185 1.000000
vt 0.251481 0.000000
vt 0.251481 1.000000
vt 0.301777 0.000000
vt 0.301777 1.000000
vt 0.352073 0.000000
vt 0.352073 1.000000
vt 0.402369 0.000000
vt 0.402369 1.000000
vt 0.452665 0.000000
vt 0.452665 1.000000
vt 0.502961 0.000000
vt 0.502961 1.000000
vt 0.553258 0.000000
vt 0.553258 1.000000
vt 0.603554 0.000000
vt 0.603554 1.000000
vt 0.653850 0.000000
vt 0.653850 1.000000
vt 0.704146 0.000000
vt 0.704146 1.000000
vt 0.754442 0.000000
vt 0.754442 1.000000
vt 0.804738 0.000000
vt 0.804738 1.000000
vt 0.971405 0.019526
vt 0.902370 0.000000
vt 0.938307 0.004681
vt 0.993145 0.042127
vt 1.000000 0.066667
vt 0.804739 0.066667
vt 0.833334 0.019526
vt 0.866432 0.004681
vt 0.811594 0.042127
vt 0.971405 0.113807
vt 0.938307 0.128653
vt 0.902370 0.133333
vt 0.833334 0.113807
vt 0.811594 0.091206
vt 0.866432 0.128653
vt 0.993145 0.091206
vt 0.971405 0.113807
vt 0.938307 0.128653
vt 0.902370 0.133333
vt 1.000000 0.066667
vt 0.993145 0.091206
vt 0.804739 0.066667
vt 0.833334 0.113807
vt 0.866432 0.128653
vt 0.811594 0.091206
vt 0.938307 0.004681
vt 0.971405 0.019526
vt 0.902370 0.000000
vt 0.833334 0.019526
vt 0.811594 0.042127
vt 0.866432 0.004681
vt 0.993145 0.042127
vt 0.993145 0.042127
vt 0.938307 0.004681
vt 0.971405 0.019526
vt 1.000000 0.066667
vt 0.866432 0.128653
vt 0.866432 0.004681
vt 0.902370 0.000000
vt 0.811594 0.042127
vt 0.833334 0.019526
vt 0.804739 0.066667
vt 0.971405 0.113807
vt 0.938307 0.128653
vt 0.902370 0.133333
vt 0.833334 0.113807
vt 0.811594 0.091206
vt 0.993145 0.091206
vt 0.993145 0.091206
vt 0.971405 0.113807
vt 0.938307 0.128653
vt 1.000000 0.066667
vt 0.866432 0.004681
vt 0.866432 0.128653
vt 0.902370 0.133333
vt 0.833334 0.113807
vt 0.811594 0.091206
vt 0.804739 0.066667
vt 0.971405 0.019526
vt 0.938307 0.004681
vt 0.902370 0.000000
vt 0.833334 0.019526
vt 0.811594 0.042127
vt 0.993145 0.042127
vt 0.866432 0.004681
vt 0.811594 0.042127
vt 0.833334 0.019526
vt 0.902370 0.000000
vt 1.000000 0.066667
vt 0.811594 0.091206
vt 0.804739 0.066667
vt 0.866432 0.128653
vt 0.833334 0.113807
vt 0.902370 0.133333
vt 0.938307 0.004681
vt 0.971405 0.019526
vt 0.993145 0.042127
vt 0.938307 0.128653
vt 0.971405 0.113807
vt 0.993145 0.091206
vt 0.866432 0.128653
vt 0.833334 0.113807
vt 0.811594 0.091206
vt 0.902370 0.133333
vt 1.000000 0.066667
vt 0.811594 0.042127
vt 0.804739 0.066667
vt 0.833334 0.019526
vt 0.866432 0.004681
vt 0.902370 0.000000
vt 0.971405 0.113807
vt 0.938307 0.128653
vt 0.993145 0.091206
vt 0.938307 0.004681
vt 0.971405 0.019526
vt 0.993145 0.042127
vn 1.000000 0.000000 0.000000
vn 1.000000 0.000000 0.000000
vn 1.000000 0.000000 0.000000
vn 1.000000 0.000000 0.000000
vn -0.000000 0.000000 -1.000000
vn -0.000000 0.000000 -1.000000
vn -0.000000 0.000000 -1.000000
vn -0.000000 0.000000 -1.000000
vn -1.000000 0.000000 0.000000
vn -1.000000 0.000000 0.000000
vn -1.000000 0.000000 0.000000
vn -1.000000 0.000000 0.000000
vn -0.000000 -0.000000 1.000000
vn -0.000000 -0.000000 1.000000
vn -0.000000 -0.000000 1.000000
vn -0.000000 -0.000000 1.000000
vn 0.000000 -1.000000 -0.000000
vn 0.000000 -1.000000 -0.000000
vn 0.000000 -1.000000 -0.000000
vn 0.000000 -1.000000 -0.000000
vn -0.000000 1.000000 0.000000
vn -0.000000 1.000000 0.000000
vn -0.000000 1.000000 0.000000
vn -0.000000 1.000000 0.000000
vn -1.000000 0.000000 0.000000
vn -0.929788 0.000000 0.368095
vn -0.929788 0.000000 0.368095
vn -1.000000 0.000000 0.000000
vn -0.707107 0.000000 0.707107
vn -0.707107 0.000000 0.707107
vn -0.368095 0.000000 0.929788
vn -0.368095 0.000000 0.929788
vn -0.000000 0.000000 1.000000
vn -0.000000 0.000000 1.000000
vn 0.368095 0.000000 0.929788
vn 0.368095 0.000000 0.929788
vn 0.707107 0.000000 0.707107
vn 0.707107 0.000000 0.707107
vn 0.929788 0.000000 0.368095
vn 0.929788 0.000000 0.368095
vn 1.000000 0.000000 -0.000000
vn 1.000000 0.000000 -0.000000
vn 0.929788 0.000000 -0.368095
vn 0.929788 0.000000 -0.368095
vn 0.707107 0.000000 -0.707107
vn 0.707107 0.000000 -0.707107
vn 0.368095 0.000000 -0.929788
vn 0.368095 0.000000 -0.929788
vn 0.000000 0.000000 -1.000000
vn 0.000000 0.000000 -1.000000
vn -0.368095 0.000000 -0.929788
vn -0.368095 0.000000 -0.929788
vn -0.707107 0.000000 -0.707107
vn -0.707107 0.000000 -0.707107
vn -0.929788 0.000000 -0.368095
vn -0.929788 0.000000 -0.368095
vn -1.000000 0.000000 0.000000
vn -1.000000 0.000000 0.000000
vn -1.000000 0.000000 0.000000
vn -0.929788 0.000000 0.368095
vn -0.929788 0.000000 0.368095
vn -1.000000 0.000000 0.000000
vn -0.707107 0.000000 0.707107
vn -0.707107 0.000000 0.707107
vn -0.368095 0.000000 0.929788
vn -0.368095 0.000000 0.929788
vn -0.000000 0.000000 1.000000
vn -0.000000 0.000000 1.000000
vn 0.368095 0.000000 0.929788
vn 0.368095 0.000000 0.929788
vn 0.707107 0.000000 0.707107
vn 0.707107 0.000000 0.707107
vn 0.929788 0.000000 0.368095
vn 0.929788 0.000000 0.368095
vn 1.000000 0.000000 -0.000000
vn 1.000000 0.000000 -0.000000
vn 0.929788 0.000000 -0.368095
vn 0.929788 0.000000 -0.368095
vn 0.707107 0.000000 -0.707107
vn 0.707107 0.000000 -0.707107
vn 0.368095 0.000000 -0.929788
vn 0.368095 0.000000 -0.929788
vn 0.000000 0.000000 -1.000000
vn 0.000000 0.000000 -1.000000
vn -0.368095 0.000000 -0.929788
vn -0.368095 0.000000 -0.929788
vn -0.707107 0.000000 -0.707107
vn -0.707107 0.000000 -0.707107
vn -0.929788 0.000000 -0.368095
vn -0.929788 0.000000 -0.368095
vn -1.000000 0.000000 -0.000000
vn -1.000000 0.000000 -0.000000
vn -1.000000 0.000000 -0.000000
vn -0.929788 0.000000 0.368095
vn -0.929788 0.000000 0.368095
vn -1.000000 0.000000 -0.000000
vn -0.707107 0.000000 0.707107
vn -0.707107 0.000000 0.707107
vn -0.368095 0.000000 0.929788
vn -0.368095 0.000000 0.929788
vn -0.000000 0.000000 1.000000
vn -0.000000 0.000000 1.000000
vn 0.368095 0.000000 0.929788
vn 0.368095 0.000000 0.929788
vn 0.707107 0.000000 0.707107
vn 0.707107 0.000000 0.707107
vn 0.929788 0.000000 0.368095
vn 0.929788 0.000000 0.368095
vn 1.000000 0.000000 -0.000000
vn 1.000000 0.000000 -0.000000
vn 0.929788 0.000000 -0.368095
vn 0.929788 0.000000 -0.368095
vn 0.707107 0.000000 -0.707107
vn 0.707107 0.000000 -0.707107
vn 0.368095 0.000000 -0.929788
vn 0.368095 0.000000 -0.929788
vn 0.000000 0.000000 -1.000000
vn 0.000000 0.000000 -1.000000
vn -0.368095 0.000000 -0.929788
vn -0.368095 0.000000 -0.929788
vn -0.707107 0.000000 -0.707107
vn -0.707107 0.000000 -0.707107
vn -0.929788 0.000000 -0.368095
vn -0.929788 0.000000 -0.368095
vn -1.000000 0.000000 0.000000
vn -1.000000 0.000000 0.000000
vn -0.000000 1.000000 0.000000
vn -0.000000 1.000000 0.000000
vn -0.000000 1.000000 0.000000
vn -0.000000 1.000000 0.000000
vn -0.000000 1.000000 0.000000
vn -0.000000 1.000000 0.000000
vn -0.000000 1.000000 0.000000
vn -0.000000 1.000000 0.000000
vn -0.000000 1.000000 0.000000
vn -0.000000 1.000000 0.000000
vn -0.000000 1.000000 0.000000
vn -0.000000 1.000000 0.000000
vn -0.000000 1.000000 0.000000
vn -0.000000 1.000000 0.000000
vn -0.000000 1.000000 0.000000
vn -0.000000 1.000000 0.000000
vn 0.000000 -1.000000 -0.000000
vn 0.000000 -1.000000 -0.000000
vn 0.000000 -1.000000 -0.000000
vn 0.000000 -1.000000 -0.000000
vn 0.000000 -1.000000 -0.000000
vn 0.000000 -1.000000 -0.000000
vn 0.000000 -1.000000 -0.000000
vn 0.000000 -1.000000 -0.000000
vn 0.000000 -1.000000 -0.000000
vn 0.000000 -1.000000 -0.000000
vn 0.000000 -1.000000 -0.000000
vn 0.000000 -1.000000 -0.000000
vn 0.000000 -1.000000 -0.000000
vn 0.000000 -1.000000 -0.000000
vn 0.000000 -1.000000 -0.000000
vn 0.000000 -1.000000 -0.000000
vn -0.000000 1.000000 0.000000
vn -0.000000 1.000000 0.000000
vn -0.000000 1.000000 0.000000
vn -0.000000 1.000000 0.000000
vn -0.000000 1.000000 0.000000
vn -0.000000 1.000000 0.000000
vn -0.000000 1.000000 0.000000
vn -0.000000 1.000000 0.000000
vn -0.000000 1.000000 0.000000
vn -0.000000 1.000000 0.000000
vn -0.000000 1.000000 0.000000
vn -0.000000 1.000000 0.000000
vn -0.000000 1.000000 0.000000
vn -0.000000 1.000000 0.000000
vn -0.000000 1.000000 0.000000
vn -0.000000 1.000000 0.000000
vn 0.000000 -1.000000 -0.000000
vn 0.000000 -1.000000 -0.000000
vn 0.000000 -1.000000 -0.000000
vn 0.000000 -1.000000 -0.000000
vn 0.000000 -1.000000 -0.000000
vn 0.000000 -1.000000 -0.000000
vn 0.000000 -1.000000 -0.000000
vn 0.000000 -1.000000 -0.000000
vn 0.000000 -1.000000 -0.000000
vn 0.000000 -1.000000 -0.000000
vn 0.000000 -1.000000 -0.000000
vn 0.000000 -1.000000 -0.000000
vn 0.000000 -1.000000 -0.000000
vn 0.000000 -1.000000 -0.000000
vn 0.000000 -1.000000 -0.000000
vn 0.000000 -1.000000 -0.000000
vn -0.000000 1.000000 0.000000
vn -0.000000 1.000000 0.000000
vn -0.000000 1.000000 0.000000
vn -0.000000 1.000000 0.000000
vn -0.000000 1.000000 0.000000
vn -0.000000 1.000000 0.000000
vn -0.000000 1.000000 0.000000
vn -0.000000 1.000000 0.000000
vn -0.000000 1.000000 0.000000
vn -0.000000 1.000000 0.000000
vn -0.000000 1.000000 0.000000
vn -0.000000 1.000000 0.000000
vn -0.000000 1.000000 0.000000
vn -0.000000 1.000000 0.000000
vn -0.000000 1.000000 0.000000
vn -0.000000 1.000000 0.000000
vn 0.000000 -1.000000 -0.000000
vn 0.000000 -1.000000 -0.000000
vn 0.000000 -1.000000 -0.000000
vn 0.000000 -1.000000 -0.000000
vn 0.000000 -1.000000 -0.000000
vn 0.000000 -1.000000 -0.000000
vn 0.000000 -1.000000 -0.000000
vn 0.000000 -1.000000 -0.000000
vn 0.000000 -1.000000 -0.000000
vn 0.000000 -1.000000 -0.000000
vn 0.000000 -1.000000 -0.000000
vn 0.000000 -1.000000 -0.000000
vn 0.000000 -1.000000 -0.000000
vn 0.000000 -1.000000 -0.000000
vn 0.000000 -1.000000 -0.000000
vn 0.000000 -1.000000 -0.000000
f 1/1/1 2/2/2 3/3/3
f 5/5/5 6/6/6 7/7/7
f 9/9/9 10/10/10 11/11/11
f 13/13/13 14/14/14 15/15/15
f 17/17/17 18/18/18 19/19/19
f 19/19/19 20/20/20 17/17/17
f 21/21/21 22/22/22 23/23/23
f 22/22/22 21/21/21 24/24/24
f 25/25/25 26/26/26 27/27/27
f 26/26/26 29/29/29 30/30/30
f 29/29/29 31/31/31 32/32/32
f 31/31/31 33/33/33 34/34/34
f 33/33/33 35/35/35 36/36/36
f 35/35/35 37/37/37 38/38/38
f 37/37/37 39/39/39 40/40/40
f 39/39/39 41/41/41 42/42/42
f 41/41/41 43/43/43 44/44/44
f 43/43/43 45/45/45 46/46/46
f 45/45/45 47/47/47 48/48/48
f 47/47/47 49/49/49 50/50/50
f 49/49/49 51/51/51 52/52/52
f 51/51/51 53/53/53 54/54/54
f 53/53/53 55/55/55 56/56/56
f 55/55/55 57/57/57 58/58/58
f 59/59/59 60/60/60 61/61/61
f 60/60/60 63/63/63 64/64/64
f 63/63/63 65/65/65 66/66/66
f 65/65/65 67/67/67 68/68/68
f 67/67/67 69/69/69 70/70/70
f 69/69/69 71/71/71 72/72/72
f 71/71/71 73/73/73 74/74/74
f 73/73/73 75/75/75 76/76/76
f 75/75/75 77/77/77 78/78/78
f 77/77/77 79/79/79 80/80/80
f 79/79/79 81/81/81 82/82/82
f 81/81/81 83/83/83 84/84/84
f 83/83/83 85/85/85 86/86/86
f 85/85/85 87/87/87 88/88/88
f 87/87/87 89/89/89 90/90/90
f 89/89/89 91/91/91 92/92/92
f 93/93/93 94/94/94 95/95/95
f 94/94/94 97/97/97 98/98/98
f 97/97/97 99/99/99 100/100/100
f 99/99/99 101/101/101 102/102/102
f 101/101/101 103/103/103 104/104/104
f 103/103/103 105/105/105 106/106/106
f 105/105/105 107/107/107 108/108/108
f 107/107/107 109/109/109 110/110/110
f 109/109/109 111/111/111 112/112/112
f 111/111/111 113/113/113 114/114/114
f 113/113/113 115/115/115 116/116/116
f 115/115/115 117/117/117 118/118/118
f 117/117/117 119/119/119 120/120/120
f 119/119/119 121/121/121 122/122/122
f 121/121/121 123/123/123 124/124/124
f 123/123/123 125/125/125 126/126/126
f 127/127/127 128/128/128 129/129/129
f 127/127/127 130/130/130 131/131/131
f 127/127/127 132/132/132 128/128/128
f 133/133/133 134/134/134 128/128/128
f 128/128/128 132/132/132 133/133/133
f 135/135/135 133/133/133 132/132/132
f 127/127/127 131/131/131 132/132/132
f 131/131/131 136/136/136 137/137/137
f 137/137/137 138/138/138 131/131/131
f 138/138/138 132/132/132 131/131/131
f 139/139/139 140/140/140 132/132/132
f 132/132/132 141/141/141 139/139/139
f 141/141/141 132/132/132 138/138/138
f 142/142/142 136/136/136 131/131/131
f 143/143/143 144/144/144 145/145/145
f 143/143/143 146/146/146 147/147/147
f 143/143/143 145/145/145 148/148/148
f 149/149/149 145/145/145 150/150/150
f 145/145/145 149/149/149 148/148/148
f 151/151/151 148/148/148 149/149/149
f 143/143/143 148/148/148 146/146/146
f 146/146/146 152/152/152 153/153/153
f 152/152/152 146/146/146 154/154/154
f 154/154/154 146/146/146 148/148/148
f 155/155/155 148/148/148 156/156/156
f 148/148/148 155/155/155 157/157/157
f 157/157/157 154/154/154 148/148/148
f 158/158/158 146/146/146 153/153/153
f 159/159/159 160/160/160 161/161/161
f 160/160/160 159/159/159 162/162/162
f 163/163/163 164/164/164 160/160/160
f 164/164/164 165/165/165 160/160/160
f 164/164/164 166/166/166 167/167/167
f 166/166/166 164/164/164 168/168/168
f 162/162/162 169/169/169 160/160/160
f 160/160/160 169/169/169 170/170/170
f 160/160/160 170/170/170 163/163/163
f 171/171/171 163/163/163 170/170/170
f 172/172/172 173/173/173 168/168/168
f 164/164/164 172/172/172 168/168/168
f 164/164/164 163/163/163 172/172/172
f 174/174/174 169/169/169 162/162/162
f 175/175/175 176/176/176 177/177/177
f 177/177/177 178/178/178 175/175/175
f 179/179/179 177/177/177 180/180/180
f 180/180/180 177/177/177 181/181/181
f 180/180/180 182/182/182 183/183/183
f 183/183/183 184/184/184 180/180/180
f 178/178/178 177/177/177 185/185/185
f 177/177/177 186/186/186 185/185/185
f 177/177/177 179/179/179 186/186/186
f 187/187/187 186/186/186 179/179/179
f 188/188/188 184/184/184 189/189/189
f 180/180/180 184/184/184 188/188/188
f 180/180/180 188/188/188 179/179/179
f 190/190/190 178/178/178 185/185/185
f 191/191/191 192/192/192 193/193/193
f 192/192/192 191/191/191 194/194/194
f 195/195/195 196/196/196 192/192/192
f 196/196/196 197/197/197 192/192/192
f 196/196/196 198/198/198 199/199/199
f 198/198/198 196/196/196 200/200/200
f 194/194/194 195/195/195 192/192/192
f 195/195/195 201/201/201 202/202/202
f 202/202/202 203/203/203 195/195/195
f 196/196/196 195/195/195 200/200/200
f 204/204/204 200/200/200 195/195/195
f 205/205/205 204/204/204 195/195/195
f 205/205/205 195/195/195 206/206/206
f 201/201/201 195/195/195 194/194/194
f 207/207/207 208/208/208 209/209/209
f 209/209/209 210/210/210 207/207/207
f 211/211/211 209/209/209 212/212/212
f 212/212/212 209/209/209 213/213/213
f 212/212/212 214/214/214 215/215/215
f 215/215/215 216/216/216 212/212/212
f 210/210/210 209/209/209 211/211/211
f 211/211/211 217/217/217 218/218/218
f 217/217/217 211/211/211 219/219/219
f 212/212/212 216/216/216 211/211/211
f 220/220/220 211/211/211 216/216/216
f 221/221/221 211/211/211 220/220/220
f 221/221/221 222/222/222 211/211/211
f 218/218/218 210/210/210 211/211/211
f 1/1/1 3/3/3 4/4/4
f 5/5/5 7/7/7 8/8/8
f 9/9/9 11/11/11 12/12/12
f 13/13/13 15/15/15 16/16/16
f 25/25/25 27/27/27 28/28/28
f 26/26/26 30/30/30 27/27/27
f 29/29/29 32/32/32 30/30/30
f 31/31/31 34/34/34 32/32/32
f 33/33/33 36/36/36 34/34/34
f 35/35/35 38/38/38 36/36/36
f 37/37/37 40/40/40 38/38/38
f 39/39/39 42/42/42 40/40/40
f 41/41/41 44/44/44 42/42/42
f 43/43/43 46/46/46 44/44/44
f 45/45/45 48/48/48 46/46/46
f 47/47/47 50/50/50 48/48/48
f 49/49/49 52/52/52 50/50/50
f 51/51/51 54/54/54 52/52/52
f 53/53/53 56/56/56 54/54/54
f 55/55/55 58/58/58 56/56/56
f 59/59/59 61/61/61 62/62/62
f 60/60/60 64/64/64 61/61/61
f 63/63/63 66/66/66 64/64/64
f 65/65/65 68/68/68 66/66/66
f 67/67/67 70/70/70 68/68/68
f 69/69/69 72/72/72 70/70/70
f 71/71/71 74/74/74 72/72/72
f 73/73/73 76/76/76 74/74/74
f 75/75/75 78/78/78 76/76/76
f 77/77/77 80/80/80 78/78/78
f 79/79/79 82/82/82 80/80/80
f 81/81/81 84/84/84 82/82/82
f 83/83/83 86/86/86 84/84/84
f 85/85/85 88/88/88 86/86/86
f 87/87/87 90/90/90 88/88/88
f 89/89/89 92/92/92 90/90/90
f 93/93/93 95/95/95 96/96/96
f 94/94/94 98/98/98 95/95/95
f 97/97/97 100/100/100 98/98/98
f 99/99/99 102/102/102 100/100/100
f 101/101/101 104/104/104 102/102/102
f 103/103/103 106/106/106 104/104/104
f 105/105/105 108/108/108 106/106/106
f 107/107/107 110/110/110 108/108/108
f 109/109/109 112/112/112 110/110/110
f 111/111/111 114/114/114 112/112/112
f 113/113/113 116/116/116 114/114/114
f 115/115/115 118/118/118 116/116/116
f 117/117/117 120/120/120 118/118/118
f 119/119/119 122/122/122 120/120/120
f 121/121/121 124/124/124 122/122/122
f 123/123/123 126/126/126 124/124/124

