g mesh_AA0
v -4.500000 4.010000 4.000000
v -0.000000 4.010000 4.000000
v -0.000000 4.010000 3.000000
v -4.500000 4.010000 3.000000
v -4.500000 4.000000 4.000000
v -0.000000 4.000000 4.000000
v -0.000000 4.000000 3.000000
v -4.500000 4.000000 3.000000
v -9.000000 4.010000 4.000000
v -9.000000 4.010000 3.000000
v -9.000000 4.000000 4.000000
v -9.000000 4.000000 3.000000
v -0.000000 4.000000 4.000000
v -0.000000 4.000000 3.000000
v -0.000000 4.010000 3.000000
v -0.000000 4.010000 4.000000
v -0.000000 4.000000 3.000000
v -4.500000 4.000000 3.000000
v -4.500000 4.010000 3.000000
v -0.000000 4.010000 3.000000
v -4.500000 4.000000 4.000000
v -0.000000 4.000000 4.000000
v -0.000000 4.010000 4.000000
v -4.500000 4.010000 4.000000
v -4.500000 4.000000 3.000000
v -9.000000 4.000000 3.000000
v -9.000000 4.010000 3.000000
v -4.500000 4.010000 3.000000
v -9.000000 4.000000 4.000000
v -4.500000 4.000000 4.000000
v -4.500000 4.010000 4.000000
v -9.000000 4.010000 4.000000
v -9.000000 4.000000 3.000000
v -9.000000 4.000000 4.000000
v -9.000000 4.010000 4.000000
v -9.000000 4.010000 3.000000
v -5.000000 2.010000 4.000000
v -5.000000 2.010000 3.000000
v -4.000000 2.010000 3.000000
v -4.000000 2.010000 4.000000
v -5.000000 2.000000 4.000000
v -5.000000 2.000000 3.000000
v -4.000000 2.000000 3.000000
v -4.000000 2.000000 4.000000
v -5.000000 2.000000 3.000000
v -4.000000 2.000000 3.000000
v -4.000000 2.010000 3.000000
v -5.000000 2.010000 3.000000
v -4.000000 2.000000 3.000000
v -4.000000 2.000000 4.000000
v -4.000000 2.010000 4.000000
v -4.000000 2.010000 3.000000
v -5.000000 2.000000 4.000000
v -5.000000 2.000000 3.000000
v -5.000000 2.010000 3.000000
v -5.000000 2.010000 4.000000
v -4.000000 2.000000 4.000000
v -5.000000 2.000000 4.000000
v -5.000000 2.010000 4.000000
v -4.000000 2.010000 4.000000
v -9.000000 2.010000 3.000000
v -8.000000 2.010000 3.000000
v -8.000000 2.010000 4.000000
v -9.000000 2.010000 4.000000
v -9.000000 2.000000 3.000000
v -8.000000 2.000000 3.000000
v -8.000000 2.000000 4.000000
v -9.000000 2.000000 4.000000
v -8.000000 2.000000 3.000000
v -8.000000 2.000000 4.000000
v -8.000000 2.010000 4.000000
v -8.000000 2.010000 3.000000
v -8.000000 2.000000 4.000000
v -9.000000 2.000000 4.000000
v -9.000000 2.010000 4.000000
v -8.000000 2.010000 4.000000
v -9.000000 2.000000 3.000000
v -8.000000 2.000000 3.000000
v -8.000000 2.010000 3.000000
v -9.000000 2.010000 3.000000
v -9.000000 2.000000 4.000000
v -9.000000 2.000000 3.000000
v -9.000000 2.010000 3.000000
v -9.000000 2.010000 4.000000
v -1.000000 2.010000 4.000000
v -1.000000 2.010000 3.000000
v -0.000000 2.010000 3.000000
v -0.000000 2.010000 4.000000
v -1.000000 2.000000 4.000000
v -1.000000 2.000000 3.000000
v -0.000000 2.000000 3.000000
v -0.000000 2.000000 4.000000
v -1.000000 2.000000 3.000000
v -0.000000 2.000000 3.000000
v -0.000000 2.010000 3.000000
v -1.000000 2.010000 3.000000
v -0.000000 2.000000 3.000000
v -0.000000 2.000000 4.000000
v -0.000000 2.010000 4.000000
v -0.000000 2.010000 3.000000
v -1.000000 2.000000 4.000000
v -1.000000 2.000000 3.000000
v -1.000000 2.010000 3.000000
v -1.000000 2.010000 4.000000
v -0.000000 2.000000 4.000000
v -1.000000 2.000000 4.000000
v -1.000000 2.010000 4.000000
v -0.000000 2.010000 4.000000
vt 0.375000 0.750000
vt 0.125000 0.750000
vt 0.125000 0.250000
vt 0.375000 0.250000
vt 0.500000 1.000000
vt 0.000000 1.000000
vt 0.000000 0.000000
vt 0.500000 0.000000
vt 0.875000 0.750000
vt 0.875000 0.250000
vt 1.000000 1.000000
vt 1.000000 0.000000
vt 0.000000 1.000000
vt 0.000000 0.000000
vt 0.125000 0.250000
vt 0.125000 0.750000
vt 0.000000 0.000000
vt 0.500000 0.000000
vt 0.375000 0.250000
vt 0.125000 0.250000
vt 0.500000 1.000000
vt 0.000000 1.000000
vt 0.125000 0.750000
vt 0.375000 0.750000
vt 0.500000 0.000000
vt 1.000000 0.000000
vt 0.875000 0.250000
vt 0.375000 0.250000
vt 1.000000 1.000000
vt 0.500000 1.000000
vt 0.375000 0.750000
vt 0.875000 0.750000
vt 1.000000 0.000000
vt 1.000000 1.000000
vt 0.875000 0.750000
vt 0.875000 0.250000
vt 0.750000 0.750000
vt 0.250000 0.750000
vt 0.250000 0.250000
vt 0.750000 0.250000
vt 1.000000 1.000000
vt 0.000000 1.000000
vt 0.000000 0.000000
vt 1.000000 0.000000
vt 0.000000 1.000000
vt 0.000000 0.000000
vt 0.250000 0.250000
vt 0.250000 0.750000
vt 0.000000 0.000000
vt 1.000000 0.000000
vt 0.750000 0.250000
vt 0.250000 0.250000
vt 1.000000 1.000000
vt 0.000000 1.000000
vt 0.250000 0.750000
vt 0.750000 0.750000
vt 1.000000 0.000000
vt 1.000000 1.000000
vt 0.750000 0.750000
vt 0.750000 0.250000
vt 0.750000 0.750000
vt 0.250000 0.750000
vt 0.250000 0.250000
vt 0.750000 0.250000
vt 1.000000 1.000000
vt 0.000000 1.000000
vt 0.000000 0.000000
vt 1.000000 0.000000
vt 0.000000 1.000000
vt 0.000000 0.000000
vt 0.250000 0.250000
vt 0.250000 0.750000
vt 0.000000 0.000000
vt 1.000000 0.000000
vt 0.750000 0.250000
vt 0.250000 0.250000
vt 1.000000 1.000000
vt 0.000000 1.000000
vt 0.250000 0.750000
vt 0.750000 0.750000
vt 1.000000 0.000000
vt 1.000000 1.000000
vt 0.750000 0.750000
vt 0.750000 0.250000
vt 0.750000 0.750000
vt 0.250000 0.750000
vt 0.250000 0.250000
vt 0.750000 0.250000
vt 1.000000 1.000000
vt 0.000000 1.000000
vt 0.000000 0.000000
vt 1.000000 0.000000
vt 0.000000 1.000000
vt 0.000000 0.000000
vt 0.250000 0.250000
vt 0.250000 0.750000
vt 0.000000 0.000000
vt 1.000000 0.000000
vt 0.750000 0.250000
vt 0.250000 0.250000
vt 1.000000 1.000000
vt 0.000000 1.000000
vt 0.250000 0.750000
vt 0.750000 0.750000
vt 1.000000 0.000000
vt 1.000000 1.000000
vt 0.750000 0.750000
vt 0.750000 0.250000
vn -0.000000 1.000000 0.000000
vn -0.000000 1.000000 0.000000
vn -0.000000 1.000000 0.000000
vn -0.000000 1.000000 0.000000
vn -0.000000 -1.000000 0.000000
vn -0.000000 -1.000000 0.000000
vn -0.000000 -1.000000 0.000000
vn -0.000000 -1.000000 0.000000
vn -0.000000 1.000000 0.000000
vn -0.000000 1.000000 0.000000
vn -0.000000 -1.000000 0.000000
vn -0.000000 -1.000000 0.000000
vn 1.000000 0.000000 -0.000000
vn 1.000000 0.000000 0.000000
vn 1.000000 0.000000 0.000000
vn 1.000000 -0.000000 -0.000000
vn -0.000000 0.000000 -1.000000
vn -0.000000 0.000000 -1.000000
vn 0.000000 -0.000000 -1.000000
vn -0.000000 -0.000000 -1.000000
vn -0.000000 -0.000000 1.000000
vn -0.000000 -0.000000 1.000000
vn 0.000000 0.000000 1.000000
vn -0.000000 0.000000 1.000000
vn -0.000000 0.000000 -1.000000
vn -0.000000 0.000000 -1.000000
vn 0.000000 -0.000000 -1.000000
vn -0.000000 -0.000000 -1.000000
vn -0.000000 -0.000000 1.000000
vn -0.000000 -0.000000 1.000000
vn 0.000000 0.000000 1.000000
vn -0.000000 0.000000 1.000000
vn -1.000000 0.000000 -0.000000
vn -1.000000 -0.000000 0.000000
vn -1.000000 0.000000 0.000000
vn -1.000000 0.000000 -0.000000
vn 0.000000 1.000000 -0.000000
vn 0.000000 1.000000 -0.000000
vn 0.000000 1.000000 -0.000000
vn 0.000000 1.000000 -0.000000
vn -0.000000 -1.000000 0.000000
vn -0.000000 -1.000000 0.000000
vn -0.000000 -1.000000 0.000000
vn -0.000000 -1.000000 0.000000
vn 0.000000 0.000000 -1.000000
vn 0.000000 0.000000 -1.000000
vn -0.000000 -0.000000 -1.000000
vn 0.000000 -0.000000 -1.000000
vn 1.000000 -0.000000 0.000000
vn 1.000000 0.000000 -0.000000
vn 1.000000 -0.000000 -0.000000
vn 1.000000 -0.000000 0.000000
vn -1.000000 -0.000000 0.000000
vn -1.000000 -0.000000 -0.000000
vn -1.000000 -0.000000 -0.000000
vn -1.000000 0.000000 0.000000
vn 0.000000 -0.000000 1.000000
vn 0.000000 -0.000000 1.000000
vn -0.000000 0.000000 1.000000
vn 0.000000 0.000000 1.000000
vn 0.000000 1.000000 -0.000000
vn 0.000000 1.000000 -0.000000
vn 0.000000 1.000000 -0.000000
vn 0.000000 1.000000 -0.000000
vn -0.000000 -1.000000 0.000000
vn -0.000000 -1.000000 0.000000
vn -0.000000 -1.000000 0.000000
vn -0.000000 -1.000000 0.000000
vn 1.000000 -0.000000 0.000000
vn 1.000000 0.000000 -0.000000
vn 1.000000 -0.000000 -0.000000
vn 1.000000 -0.000000 0.000000
vn 0.000000 -0.000000 1.000000
vn 0.000000 -0.000000 1.000000
vn -0.000000 0.000000 1.000000
vn 0.000000 0.000000 1.000000
vn 0.000000 0.000000 -1.000000
vn 0.000000 0.000000 -1.000000
vn -0.000000 -0.000000 -1.000000
vn 0.000000 -0.000000 -1.000000
vn -1.000000 -0.000000 0.000000
vn -1.000000 -0.000000 -0.000000
vn -1.000000 -0.000000 -0.000000
vn -1.000000 0.000000 0.000000
vn 0.000000 1.000000 -0.000000
vn 0.000000 1.000000 -0.000000
vn 0.000000 1.000000 -0.000000
vn 0.000000 1.000000 -0.000000
vn -0.000000 -1.000000 0.000000
vn -0.000000 -1.000000 0.000000
vn -0.000000 -1.000000 0.000000
vn -0.000000 -1.000000 0.000000
vn 0.000000 0.000000 -1.000000
vn 0.000000 0.000000 -1.000000
vn -0.000000 -0.000000 -1.000000
vn 0.000000 -0.000000 -1.000000
vn 1.000000 -0.000000 0.000000
vn 1.000000 0.000000 -0.000000
vn 1.000000 -0.000000 -0.000000
vn 1.000000 -0.000000 0.000000
vn -1.000000 -0.000000 0.000000
vn -1.000000 -0.000000 -0.000000
vn -1.000000 -0.000000 -0.000000
vn -1.000000 0.000000 0.000000
vn 0.000000 -0.000000 1.000000
vn 0.000000 -0.000000 1.000000
vn -0.000000 0.000000 1.000000
vn 0.000000 0.000000 1.000000
f 1/1/1 2/2/2 3/3/3
f 5/5/5 8/8/8 7/7/7
f 9/9/9 1/1/1 4/4/4
f 11/11/11 12/12/12 8/8/8
f 13/13/13 14/14/14 15/15/15
f 17/17/17 18/18/18 19/19/19
f 21/21/21 22/22/22 23/23/23
f 25/25/25 26/26/26 27/27/27
f 29/29/29 30/30/30 31/31/31
f 33/33/33 34/34/34 35/35/35
f 37/37/37 40/40/40 39/39/39
f 41/41/41 42/42/42 43/43/43
f 45/45/45 48/48/48 47/47/47
f 49/49/49 52/52/52 51/51/51
f 53/53/53 56/56/56 55/55/55
f 57/57/57 60/60/60 59/59/59
f 61/61/61 64/64/64 63/63/63
f 65/65/65 66/66/66 67/67/67
f 69/69/69 72/72/72 71/71/71
f 73/73/73 76/76/76 75/75/75
f 77/77/77 80/80/80 79/79/79
f 81/81/81 84/84/84 83/83/83
f 85/85/85 88/88/88 87/87/87
f 89/89/89 90/90/90 91/91/91
f 93/93/93 96/96/96 95/95/95
f 97/97/97 100/100/100 99/99/99
f 101/101/101 104/104/104 103/103/103
f 105/105/105 108/108/108 107/107/107
f 1/1/1 3/3/3 4/4/4
f 5/5/5 7/7/7 6/6/6
f 9/9/9 4/4/4 10/10/10
f 11/11/11 8/8/8 5/5/5
f 13/13/13 15/15/15 16/16/16
f 17/17/17 19/19/19 20/20/20
f 21/21/21 23/23/23 24/24/24
f 25/25/25 27/27/27 28/28/28
f 29/29/29 31/31/31 32/32/32
f 33/33/33 35/35/35 36/36/36
f 37/37/37 39/39/39 38/38/38
f 41/41/41 43/43/43 44/44/44
f 45/45/45 47/47/47 46/46/46
f 49/49/49 51/51/51 50/50/50
f 53/53/53 55/55/55 54/54/54
f 57/57/57 59/59/59 58/58/58
f 61/61/61 63/63/63 62/62/62
f 65/65/65 67/67/67 68/68/68
f 69/69/69 71/71/71 70/70/70
f 73/73/73 75/75/75 74/74/74
f 77/77/77 79/79/79 78/78/78
f 81/81/81 83/83/83 82/82/82
f 85/85/85 87/87/87 86/86/86
f 89/89/89 91/91/91 92/92/92
f 93/93/93 95/95/95 94/94/94
f 97/97/97 99/99/99 98/98/98
f 101/101/101 103/103/103 102/102/102
f 105/105/105 107/107/107 106/106/106

