g mesh_slab_section_CC0
v -1.990000 3.250000 5.510000
v -3.010000 3.250000 5.510000
v -1.990000 3.250000 -0.010000
v -3.010000 3.250000 -0.010000
v -1.990000 3.250000 -0.010000
v -1.990000 2.990000 -0.010000
v -1.990000 3.250000 5.510000
v -1.990000 2.990000 5.510000
v -3.010000 3.250000 -0.010000
v -3.010000 2.990000 -0.010000
v -1.990000 3.250000 -0.010000
v -1.990000 2.990000 -0.010000
v -3.010000 3.250000 5.510000
v -3.010000 2.990000 5.510000
v -3.010000 3.250000 -0.010000
v -3.010000 2.990000 -0.010000
v -1.990000 3.250000 5.510000
v -1.990000 2.990000 5.510000
v -3.010000 3.250000 5.510000
v -3.010000 2.990000 5.510000
v -1.990000 2.990000 5.510000
v -3.010000 2.990000 5.510000
v -1.990000 2.990000 -0.010000
v -3.010000 2.990000 -0.010000
v -2.676777 2.800000 5.323223
v -2.676777 2.800000 5.676777
v -2.323223 2.800000 5.323223
v -2.323223 2.800000 5.676777
v -2.676777 2.800000 5.323223
v -2.676777 2.800000 5.676777
v -2.500000 3.000000 5.500000
v -2.323223 2.800000 5.323223
v -2.676777 2.800000 5.323223
v -2.500000 3.000000 5.500000
v -2.323223 2.800000 5.676777
v -2.323223 2.800000 5.323223
v -2.500000 3.000000 5.500000
v -2.676777 2.800000 5.676777
v -2.323223 2.800000 5.676777
v -2.500000 3.000000 5.500000
v -2.176777 2.800000 5.323223
v -2.176777 2.800000 5.676777
v -1.823223 2.800000 5.323223
v -1.823223 2.800000 5.676777
v -2.176777 2.800000 5.323223
v -2.176777 2.800000 5.676777
v -2.000000 3.000000 5.500000
v -1.823223 2.800000 5.323223
v -2.176777 2.800000 5.323223
v -2.000000 3.000000 5.500000
v -1.823223 2.800000 5.676777
v -1.823223 2.800000 5.323223
v -2.000000 3.000000 5.500000
v -2.176777 2.800000 5.676777
v -1.823223 2.800000 5.676777
v -2.000000 3.000000 5.500000
v -3.176777 2.800000 5.323223
v -3.176777 2.800000 5.676777
v -2.823223 2.800000 5.323223
v -2.823223 2.800000 5.676777
v -3.176777 2.800000 5.323223
v -3.176777 2.800000 5.676777
v -3.000000 3.000000 5.500000
v -2.823223 2.800000 5.323223
v -3.176777 2.800000 5.323223
v -3.000000 3.000000 5.500000
v -2.823223 2.800000 5.676777
v -2.823223 2.800000 5.323223
v -3.000000 3.000000 5.500000
v -3.176777 2.800000 5.676777
v -2.823223 2.800000 5.676777
v -3.000000 3.000000 5.500000
v -2.510000 3.230000 -0.260000
v -2.510000 3.230000 -0.740000
v -2.510000 3.250000 -0.260000
v -2.510000 3.250000 -0.740000
v -2.510000 3.250000 -0.260000
v -2.510000 3.250000 -0.740000
v -2.490000 3.250000 -0.260000
v -2.490000 3.250000 -0.740000
v -2.490000 3.250000 -0.260000
v -2.490000 3.250000 -0.740000
v -2.490000 3.230000 -0.260000
v -2.490000 3.230000 -0.740000
v -2.490000 3.230000 -0.260000
v -2.490000 3.230000 -0.740000
v -2.510000 3.230000 -0.260000
v -2.510000 3.230000 -0.740000
v -2.490000 3.230000 -0.260000
v -2.490000 3.250000 -0.260000
v -2.510000 3.230000 -0.260000
v -2.510000 3.250000 -0.260000
v -2.990000 3.230000 -0.760000
v -2.490000 3.230000 -0.760000
v -2.990000 3.250000 -0.760000
v -2.490000 3.250000 -0.760000
v -2.990000 3.250000 -0.760000
v -2.490000 3.250000 -0.760000
v -2.990000 3.250000 -0.740000
v -2.490000 3.250000 -0.740000
v -2.990000 3.250000 -0.740000
v -2.490000 3.250000 -0.740000
v -2.990000 3.230000 -0.740000
v -2.490000 3.230000 -0.740000
v -2.990000 3.230000 -0.740000
v -2.490000 3.230000 -0.740000
v -2.990000 3.230000 -0.760000
v -2.490000 3.230000 -0.760000
v -2.990000 3.230000 -0.760000
v -2.990000 3.250000 -0.760000
v -2.990000 3.250000 -0.740000
v -2.990000 3.230000 -0.740000
v -2.490000 3.230000 -0.760000
v -2.490000 3.250000 -0.760000
v -2.490000 3.250000 -0.740000
v -2.490000 3.230000 -0.740000
v -2.990000 3.230000 6.240000
v -2.510000 3.230000 6.240000
v -2.990000 3.250000 6.240000
v -2.510000 3.250000 6.240000
v -2.990000 3.250000 6.240000
v -2.510000 3.250000 6.240000
v -2.990000 3.250000 6.260000
v -2.510000 3.250000 6.260000
v -2.990000 3.250000 6.260000
v -2.510000 3.250000 6.260000
v -2.990000 3.230000 6.260000
v -2.510000 3.230000 6.260000
v -2.990000 3.230000 6.260000
v -2.510000 3.230000 6.260000
v -2.990000 3.230000 6.240000
v -2.510000 3.230000 6.240000
v -2.990000 3.230000 6.260000
v -2.990000 3.250000 6.260000
v -2.990000 3.230000 6.240000
v -2.990000 3.250000 6.240000
v -2.490000 3.230000 5.760000
v -2.490000 3.230000 6.260000
v -2.490000 3.250000 5.760000
v -2.490000 3.250000 6.260000
v -2.490000 3.250000 5.760000
v -2.490000 3.250000 6.260000
v -2.510000 3.250000 5.760000
v -2.510000 3.250000 6.260000
v -2.510000 3.250000 5.760000
v -2.510000 3.250000 6.260000
v -2.510000 3.230000 5.760000
v -2.510000 3.230000 6.260000
v -2.510000 3.230000 5.760000
v -2.510000 3.230000 6.260000
v -2.490000 3.230000 5.760000
v -2.490000 3.230000 6.260000
v -2.490000 3.230000 5.760000
v -2.490000 3.250000 5.760000
v -2.510000 3.250000 5.760000
v -2.510000 3.230000 5.760000
v -2.490000 3.230000 6.260000
v -2.490000 3.250000 6.260000
v -2.510000 3.250000 6.260000
v -2.510000 3.230000 6.260000
v -2.873538 3.251045 -0.288025
v -2.879888 3.251045 -0.383275
v -2.873538 3.251045 -0.383275
v -2.859776 3.251045 -0.349536
v -2.837058 3.251045 -0.321680
v -2.810423 3.251045 -0.307359
v -2.780188 3.251045 -0.302840
v -2.753850 3.251045 -0.306357
v -2.729953 3.251045 -0.317020
v -2.709118 3.251045 -0.336414
v -2.694608 3.251045 -0.362250
v -2.681763 3.251045 -0.439434
v -2.693903 3.251045 -0.505475
v -2.709008 3.251045 -0.529999
v -2.730448 3.251045 -0.548304
v -2.757071 3.251045 -0.559606
v -2.786118 3.251045 -0.563190
v -2.811272 3.251045 -0.560387
v -2.834093 3.251045 -0.551549
v -2.879813 3.251045 -0.505194
v -2.886238 3.251045 -0.509430
v -2.837128 3.251045 -0.564110
v -2.805475 3.251045 -0.577313
v -2.770523 3.251045 -0.581394
v -2.709078 3.251045 -0.568592
v -2.662858 3.251045 -0.529680
v -2.641233 3.251045 -0.486949
v -2.634353 3.251045 -0.439085
v -2.638995 3.251045 -0.399010
v -2.653118 3.251045 -0.361895
v -2.675277 3.251045 -0.330775
v -2.704698 3.251045 -0.307355
v -2.739322 3.251045 -0.292789
v -2.776523 3.251045 -0.288025
v -2.836283 3.251045 -0.302910
v -2.848628 3.251045 -0.307495
v -2.853861 3.251045 -0.306476
v -2.858298 3.251045 -0.303545
v -2.863163 3.251045 -0.296318
v -2.865918 3.251045 -0.288025
v -2.879888 3.251045 -0.383275
v -2.879888 3.231045 -0.383275
v -2.873538 3.251045 -0.288025
v -2.873538 3.231045 -0.288025
v -2.873538 3.251045 -0.383275
v -2.873538 3.231045 -0.383275
v -2.879888 3.251045 -0.383275
v -2.879888 3.231045 -0.383275
v -2.837058 3.251045 -0.321680
v -2.837058 3.231045 -0.321680
v -2.859776 3.251045 -0.349536
v -2.859776 3.231045 -0.349536
v -2.873538 3.251045 -0.383275
v -2.873538 3.231045 -0.383275
v -2.780188 3.251045 -0.302840
v -2.780188 3.231045 -0.302840
v -2.810423 3.251045 -0.307359
v -2.810423 3.231045 -0.307359
v -2.837058 3.251045 -0.321680
v -2.837058 3.231045 -0.321680
v -2.780188 3.241045 -0.302840
v -2.729953 3.251045 -0.317020
v -2.729953 3.231045 -0.317020
v -2.753850 3.251045 -0.306357
v -2.753850 3.231045 -0.306357
v -2.780188 3.251045 -0.302840
v -2.780188 3.231045 -0.302840
v -2.780188 3.241045 -0.302840
v -2.729953 3.241045 -0.317020
v -2.694608 3.251045 -0.362250
v -2.694608 3.231045 -0.362250
v -2.709118 3.251045 -0.336414
v -2.709118 3.231045 -0.336414
v -2.729953 3.251045 -0.317020
v -2.729953 3.231045 -0.317020
v -2.729953 3.241045 -0.317020
v -2.681763 3.251045 -0.439434
v -2.681763 3.231045 -0.439434
v -2.694608 3.251045 -0.362250
v -2.694608 3.231045 -0.362250
v -2.693903 3.251045 -0.505475
v -2.693903 3.231045 -0.505475
v -2.681763 3.251045 -0.439434
v -2.681763 3.231045 -0.439434
v -2.730448 3.251045 -0.548304
v -2.730448 3.231045 -0.548304
v -2.709008 3.251045 -0.529999
v -2.709008 3.231045 -0.529999
v -2.693903 3.251045 -0.505475
v -2.693903 3.231045 -0.505475
v -2.786118 3.251045 -0.563190
v -2.786118 3.231045 -0.563190
v -2.757071 3.251045 -0.559606
v -2.757071 3.231045 -0.559606
v -2.730448 3.251045 -0.548304
v -2.730448 3.231045 -0.548304
v -2.786118 3.241045 -0.563190
v -2.834093 3.251045 -0.551549
v -2.834093 3.231045 -0.551549
v -2.811272 3.251045 -0.560387
v -2.811272 3.231045 -0.560387
v -2.786118 3.251045 -0.563190
v -2.786118 3.231045 -0.563190
v -2.786118 3.241045 -0.563190
v -2.834093 3.241045 -0.551549
v -2.879813 3.251045 -0.505194
v -2.879813 3.231045 -0.505194
v -2.834093 3.251045 -0.551549
v -2.834093 3.231045 -0.551549
v -2.834093 3.241045 -0.551549
v -2.886238 3.251045 -0.509430
v -2.886238 3.231045 -0.509430
v -2.879813 3.251045 -0.505194
v -2.879813 3.231045 -0.505194
v -2.837128 3.251045 -0.564110
v -2.837128 3.231045 -0.564110
v -2.886238 3.251045 -0.509430
v -2.886238 3.231045 -0.509430
v -2.770523 3.251045 -0.581394
v -2.770523 3.231045 -0.581394
v -2.805475 3.251045 -0.577313
v -2.805475 3.231045 -0.577313
v -2.837128 3.251045 -0.564110
v -2.837128 3.231045 -0.564110
v -2.662858 3.251045 -0.529680
v -2.662858 3.231045 -0.529680
v -2.709078 3.251045 -0.568592
v -2.709078 3.231045 -0.568592
v -2.770523 3.251045 -0.581394
v -2.770523 3.231045 -0.581394
v -2.634353 3.251045 -0.439085
v -2.634353 3.231045 -0.439085
v -2.641233 3.251045 -0.486949
v -2.641233 3.231045 -0.486949
v -2.662858 3.251045 -0.529680
v -2.662858 3.231045 -0.529680
v -2.653118 3.251045 -0.361895
v -2.653118 3.231045 -0.361895
v -2.638995 3.251045 -0.399010
v -2.638995 3.231045 -0.399010
v -2.634353 3.251045 -0.439085
v -2.634353 3.231045 -0.439085
v -2.704698 3.251045 -0.307355
v -2.704698 3.231045 -0.307355
v -2.675277 3.251045 -0.330775
v -2.675277 3.231045 -0.330775
v -2.653118 3.251045 -0.361895
v -2.653118 3.231045 -0.361895
v -2.776523 3.251045 -0.288025
v -2.776523 3.231045 -0.288025
v -2.739322 3.251045 -0.292789
v -2.739322 3.231045 -0.292789
v -2.704698 3.251045 -0.307355
v -2.704698 3.231045 -0.307355
v -2.836283 3.251045 -0.302910
v -2.836283 3.231045 -0.302910
v -2.776523 3.251045 -0.288025
v -2.776523 3.231045 -0.288025
v -2.836283 3.241045 -0.302910
v -2.848628 3.251045 -0.307495
v -2.848628 3.231045 -0.307495
v -2.836283 3.251045 -0.302910
v -2.836283 3.231045 -0.302910
v -2.836283 3.241045 -0.302910
v -2.848628 3.241045 -0.307495
v -2.858298 3.251045 -0.303545
v -2.858298 3.231045 -0.303545
v -2.853861 3.251045 -0.306476
v -2.853861 3.231045 -0.306476
v -2.848628 3.251045 -0.307495
v -2.848628 3.231045 -0.307495
v -2.848628 3.241045 -0.307495
v -2.858298 3.241045 -0.303545
v -2.865918 3.251045 -0.288025
v -2.865918 3.231045 -0.288025
v -2.863163 3.251045 -0.296318
v -2.863163 3.231045 -0.296318
v -2.858298 3.251045 -0.303545
v -2.858298 3.231045 -0.303545
v -2.858298 3.241045 -0.303545
v -2.873538 3.251045 -0.288025
v -2.873538 3.231045 -0.288025
v -2.865918 3.251045 -0.288025
v -2.865918 3.231045 -0.288025
v -2.873538 3.231045 -0.288025
v -2.879888 3.231045 -0.383275
v -2.873538 3.231045 -0.383275
v -2.859776 3.231045 -0.349536
v -2.837058 3.231045 -0.321680
v -2.810423 3.231045 -0.307359
v -2.780188 3.231045 -0.302840
v -2.753850 3.231045 -0.306357
v -2.729953 3.231045 -0.317020
v -2.709118 3.231045 -0.336414
v -2.694608 3.231045 -0.362250
v -2.681763 3.231045 -0.439434
v -2.693903 3.231045 -0.505475
v -2.709008 3.231045 -0.529999
v -2.730448 3.231045 -0.548304
v -2.757071 3.231045 -0.559606
v -2.786118 3.231045 -0.563190
v -2.811272 3.231045 -0.560387
v -2.834093 3.231045 -0.551549
v -2.879813 3.231045 -0.505194
v -2.886238 3.231045 -0.509430
v -2.837128 3.231045 -0.564110
v -2.805475 3.231045 -0.577313
v -2.770523 3.231045 -0.581394
v -2.709078 3.231045 -0.568592
v -2.662858 3.231045 -0.529680
v -2.641233 3.231045 -0.486949
v -2.634353 3.231045 -0.439085
v -2.638995 3.231045 -0.399010
v -2.653118 3.231045 -0.361895
v -2.675277 3.231045 -0.330775
v -2.704698 3.231045 -0.307355
v -2.739322 3.231045 -0.292789
v -2.776523 3.231045 -0.288025
v -2.836283 3.231045 -0.302910
v -2.848628 3.231045 -0.307495
v -2.853861 3.231045 -0.306476
v -2.858298 3.231045 -0.303545
v -2.863163 3.231045 -0.296318
v -2.865918 3.231045 -0.288025
v -2.873538 3.251045 6.116664
v -2.879888 3.251045 6.021414
v -2.873538 3.251045 6.021414
v -2.859776 3.251045 6.055152
v -2.837058 3.251045 6.083009
v -2.810423 3.251045 6.097330
v -2.780188 3.251045 6.101849
v -2.753850 3.251045 6.098331
v -2.729953 3.251045 6.087669
v -2.709118 3.251045 6.068275
v -2.694608 3.251045 6.042439
v -2.681763 3.251045 5.965254
v -2.693903 3.251045 5.899214
v -2.709008 3.251045 5.874690
v -2.730448 3.251045 5.856384
v -2.757071 3.251045 5.845083
v -2.786118 3.251045 5.841499
v -2.811272 3.251045 5.844302
v -2.834093 3.251045 5.853139
v -2.879813 3.251045 5.899494
v -2.886238 3.251045 5.895259
v -2.837128 3.251045 5.840579
v -2.805475 3.251045 5.827376
v -2.770523 3.251045 5.823294
v -2.709078 3.251045 5.836096
v -2.662858 3.251045 5.875009
v -2.641233 3.251045 5.917739
v -2.634353 3.251045 5.965604
v -2.638995 3.251045 6.005679
v -2.653118 3.251045 6.042794
v -2.675277 3.251045 6.073914
v -2.704698 3.251045 6.097334
v -2.739322 3.251045 6.111899
v -2.776523 3.251045 6.116664
v -2.836283 3.251045 6.101779
v -2.848628 3.251045 6.097194
v -2.853861 3.251045 6.098213
v -2.858298 3.251045 6.101144
v -2.863163 3.251045 6.108370
v -2.865918 3.251045 6.116664
v -2.879888 3.251045 6.021414
v -2.879888 3.231045 6.021414
v -2.873538 3.251045 6.116664
v -2.873538 3.231045 6.116664
v -2.873538 3.251045 6.021414
v -2.873538 3.231045 6.021414
v -2.879888 3.251045 6.021414
v -2.879888 3.231045 6.021414
v -2.837058 3.251045 6.083009
v -2.837058 3.231045 6.083009
v -2.859776 3.251045 6.055152
v -2.859776 3.231045 6.055152
v -2.873538 3.251045 6.021414
v -2.873538 3.231045 6.021414
v -2.780188 3.251045 6.101849
v -2.780188 3.231045 6.101849
v -2.810423 3.251045 6.097330
v -2.810423 3.231045 6.097330
v -2.837058 3.251045 6.083009
v -2.837058 3.231045 6.083009
v -2.780188 3.241045 6.101849
v -2.729953 3.251045 6.087669
v -2.729953 3.231045 6.087669
v -2.753850 3.251045 6.098331
v -2.753850 3.231045 6.098331
v -2.780188 3.251045 6.101849
v -2.780188 3.231045 6.101849
v -2.780188 3.241045 6.101849
v -2.729953 3.241045 6.087669
v -2.694608 3.251045 6.042439
v -2.694608 3.231045 6.042439
v -2.709118 3.251045 6.068275
v -2.709118 3.231045 6.068275
v -2.729953 3.251045 6.087669
v -2.729953 3.231045 6.087669
v -2.729953 3.241045 6.087669
v -2.681763 3.251045 5.965254
v -2.681763 3.231045 5.965254
v -2.694608 3.251045 6.042439
v -2.694608 3.231045 6.042439
v -2.693903 3.251045 5.899214
v -2.693903 3.231045 5.899214
v -2.681763 3.251045 5.965254
v -2.681763 3.231045 5.965254
v -2.730448 3.251045 5.856384
v -2.730448 3.231045 5.856384
v -2.709008 3.251045 5.874690
v -2.709008 3.231045 5.874690
v -2.693903 3.251045 5.899214
v -2.693903 3.231045 5.899214
v -2.786118 3.251045 5.841499
v -2.786118 3.231045 5.841499
v -2.757071 3.251045 5.845083
v -2.757071 3.231045 5.845083
v -2.730448 3.251045 5.856384
v -2.730448 3.231045 5.856384
v -2.786118 3.241045 5.841499
v -2.834093 3.251045 5.853139
v -2.834093 3.231045 5.853139
v -2.811272 3.251045 5.844302
v -2.811272 3.231045 5.844302
v -2.786118 3.251045 5.841499
v -2.786118 3.231045 5.841499
v -2.786118 3.241045 5.841499
v -2.834093 3.241045 5.853139
v -2.879813 3.251045 5.899494
v -2.879813 3.231045 5.899494
v -2.834093 3.251045 5.853139
v -2.834093 3.231045 5.853139
v -2.834093 3.241045 5.853139
v -2.886238 3.251045 5.895259
v -2.886238 3.231045 5.895259
v -2.879813 3.251045 5.899494
v -2.879813 3.231045 5.899494
v -2.837128 3.251045 5.840579
v -2.837128 3.231045 5.840579
v -2.886238 3.251045 5.895259
v -2.886238 3.231045 5.895259
v -2.770523 3.251045 5.823294
v -2.770523 3.231045 5.823294
v -2.805475 3.251045 5.827376
v -2.805475 3.231045 5.827376
v -2.837128 3.251045 5.840579
v -2.837128 3.231045 5.840579
v -2.662858 3.251045 5.875009
v -2.662858 3.231045 5.875009
v -2.709078 3.251045 5.836096
v -2.709078 3.231045 5.836096
v -2.770523 3.251045 5.823294
v -2.770523 3.231045 5.823294
v -2.634353 3.251045 5.965604
v -2.634353 3.231045 5.965604
v -2.641233 3.251045 5.917739
v -2.641233 3.231045 5.917739
v -2.662858 3.251045 5.875009
v -2.662858 3.231045 5.875009
v -2.653118 3.251045 6.042794
v -2.653118 3.231045 6.042794
v -2.638995 3.251045 6.005679
v -2.638995 3.231045 6.005679
v -2.634353 3.251045 5.965604
v -2.634353 3.231045 5.965604
v -2.704698 3.251045 6.097334
v -2.704698 3.231045 6.097334
v -2.675277 3.251045 6.073914
v -2.675277 3.231045 6.073914
v -2.653118 3.251045 6.042794
v -2.653118 3.231045 6.042794
v -2.776523 3.251045 6.116664
v -2.776523 3.231045 6.116664
v -2.739322 3.251045 6.111899
v -2.739322 3.231045 6.111899
v -2.704698 3.251045 6.097334
v -2.704698 3.231045 6.097334
v -2.836283 3.251045 6.101779
v -2.836283 3.231045 6.101779
v -2.776523 3.251045 6.116664
v -2.776523 3.231045 6.116664
v -2.836283 3.241045 6.101779
v -2.848628 3.251045 6.097194
v -2.848628 3.231045 6.097194
v -2.836283 3.251045 6.101779
v -2.836283 3.231045 6.101779
v -2.836283 3.241045 6.101779
v -2.848628 3.241045 6.097194
v -2.858298 3.251045 6.101144
v -2.858298 3.231045 6.101144
v -2.853861 3.251045 6.098213
v -2.853861 3.231045 6.098213
v -2.848628 3.251045 6.097194
v -2.848628 3.231045 6.097194
v -2.848628 3.241045 6.097194
v -2.858298 3.241045 6.101144
v -2.865918 3.251045 6.116664
v -2.865918 3.231045 6.116664
v -2.863163 3.251045 6.108370
v -2.863163 3.231045 6.108370
v -2.858298 3.251045 6.101144
v -2.858298 3.231045 6.101144
v -2.858298 3.241045 6.101144
v -2.873538 3.251045 6.116664
v -2.873538 3.231045 6.116664
v -2.865918 3.251045 6.116664
v -2.865918 3.231045 6.116664
v -2.873538 3.231045 6.116664
v -2.879888 3.231045 6.021414
v -2.873538 3.231045 6.021414
v -2.859776 3.231045 6.055152
v -2.837058 3.231045 6.083009
v -2.810423 3.231045 6.097330
v -2.780188 3.231045 6.101849
v -2.753850 3.231045 6.098331
v -2.729953 3.231045 6.087669
v -2.709118 3.231045 6.068275
v -2.694608 3.231045 6.042439
v -2.681763 3.231045 5.965254
v -2.693903 3.231045 5.899214
v -2.709008 3.231045 5.874690
v -2.730448 3.231045 5.856384
v -2.757071 3.231045 5.845083
v -2.786118 3.231045 5.841499
v -2.811272 3.231045 5.844302
v -2.834093 3.231045 5.853139
v -2.879813 3.231045 5.899494
v -2.886238 3.231045 5.895259
v -2.837128 3.231045 5.840579
v -2.805475 3.231045 5.827376
v -2.770523 3.231045 5.823294
v -2.709078 3.231045 5.836096
v -2.662858 3.231045 5.875009
v -2.641233 3.231045 5.917739
v -2.634353 3.231045 5.965604
v -2.638995 3.231045 6.005679
v -2.653118 3.231045 6.042794
v -2.675277 3.231045 6.073914
v -2.704698 3.231045 6.097334
v -2.739322 3.231045 6.111899
v -2.776523 3.231045 6.116664
v -2.836283 3.231045 6.101779
v -2.848628 3.231045 6.097194
v -2.853861 3.231045 6.098213
v -2.858298 3.231045 6.101144
v -2.863163 3.231045 6.108370
v -2.865918 3.231045 6.116664
vt 0.086093 0.549772
vt 0.086093 0.718647
vt 0.998535 0.549772
vt 0.998535 0.718647
vt 0.084628 0.000000
vt 0.043046 0.000000
vt 0.084628 0.912442
vt 0.043046 0.912442
vt 0.086093 0.092819
vt 0.086093 0.135865
vt 0.254967 0.092819
vt 0.254967 0.135865
vt 0.041582 0.000000
vt 0.000000 0.000000
vt 0.041582 0.912442
vt 0.000000 0.912442
vt 0.086093 0.000000
vt 0.086093 0.043046
vt 0.254967 0.000000
vt 0.254967 0.043046
vt 0.086093 0.185637
vt 0.086093 0.354512
vt 0.998535 0.185637
vt 0.998535 0.354512
vt 0.482162 0.241814
vt 0.241081 0.483627
vt 0.241081 0.000000
vt 0.000000 0.241814
vt 0.740349 0.341976
vt 0.740349 0.682487
vt 0.483627 0.512232
vt 0.998535 0.000000
vt 0.998535 0.340511
vt 0.741814 0.170256
vt 0.998535 0.341976
vt 0.998535 0.682487
vt 0.741814 0.512232
vt 0.740349 0.000000
vt 0.740349 0.340511
vt 0.483627 0.170256
vt 0.482162 0.241814
vt 0.241081 0.483627
vt 0.241081 0.000000
vt 0.000000 0.241814
vt 0.740349 0.341976
vt 0.740349 0.682487
vt 0.483627 0.512232
vt 0.998535 0.000000
vt 0.998535 0.340511
vt 0.741814 0.170256
vt 0.998535 0.341976
vt 0.998535 0.682487
vt 0.741814 0.512232
vt 0.740349 0.000000
vt 0.740349 0.340511
vt 0.483627 0.170256
vt 0.482162 0.241814
vt 0.241081 0.483627
vt 0.241081 0.000000
vt 0.000000 0.241814
vt 0.740349 0.341976
vt 0.740349 0.682487
vt 0.483627 0.512232
vt 0.998535 0.000000
vt 0.998535 0.340511
vt 0.741814 0.170256
vt 0.998535 0.341976
vt 0.998535 0.682487
vt 0.741814 0.512232
vt 0.740349 0.000000
vt 0.740349 0.340511
vt 0.483627 0.170256
vt 0.998535 0.720000
vt 0.040000 0.720000
vt 0.998535 0.760000
vt 0.040000 0.760000
vt 0.998535 0.240000
vt 0.040000 0.240000
vt 0.998535 0.280000
vt 0.040000 0.280000
vt 0.998535 0.480000
vt 0.040000 0.480000
vt 0.998535 0.520000
vt 0.040000 0.520000
vt 0.000000 0.000000
vt 0.000000 0.958535
vt 0.038535 0.000000
vt 0.038535 0.958535
vt 0.080000 0.000000
vt 0.040000 0.000000
vt 0.080000 0.040000
vt 0.040000 0.040000
vt 0.000000 0.000000
vt 0.000000 1.000000
vt 0.208333 0.000000
vt 0.208333 1.000000
vt 0.208333 0.000000
vt 0.208333 1.000000
vt 0.416666 0.000000
vt 0.416666 1.000000
vt 0.416666 0.000000
vt 0.416666 1.000000
vt 0.624999 0.000000
vt 0.624999 1.000000
vt 0.624999 0.000000
vt 0.624999 1.000000
vt 0.833333 0.000000
vt 0.833333 1.000000
vt 1.000000 0.040000
vt 1.000000 0.000000
vt 0.833333 0.000000
vt 0.833333 0.040000
vt 1.000000 0.960000
vt 1.000000 1.000000
vt 0.833333 1.000000
vt 0.833333 0.960000
vt 0.998535 0.720000
vt 0.040000 0.720000
vt 0.998535 0.760000
vt 0.040000 0.760000
vt 0.000000 0.000000
vt 0.000000 0.958535
vt 0.038535 0.000000
vt 0.038535 0.958535
vt 0.998535 0.480000
vt 0.040000 0.480000
vt 0.998535 0.520000
vt 0.040000 0.520000
vt 0.998535 0.240000
vt 0.040000 0.240000
vt 0.998535 0.280000
vt 0.040000 0.280000
vt 0.080000 0.000000
vt 0.040000 0.000000
vt 0.080000 0.040000
vt 0.040000 0.040000
vt 0.000000 0.000000
vt 0.000000 1.000000
vt 0.208333 0.000000
vt 0.208333 1.000000
vt 0.208333 0.000000
vt 0.208333 1.000000
vt 0.416666 0.000000
vt 0.416666 1.000000
vt 0.416666 0.000000
vt 0.416666 1.000000
vt 0.624999 0.000000
vt 0.624999 1.000000
vt 0.624999 0.000000
vt 0.624999 1.000000
vt 0.833333 0.000000
vt 0.833333 1.000000
vt 1.000000 0.040000
vt 1.000000 0.000000
vt 0.833333 0.000000
vt 0.833333 0.040000
vt 1.000000 0.960000
vt 1.000000 1.000000
vt 0.833333 1.000000
vt 0.833333 0.960000
vt 0.998535 0.900574
vt 0.824322 0.912183
vt 0.824322 0.900574
vt 0.886030 0.875415
vt 0.936980 0.833882
vt 0.963172 0.785187
vt 0.971438 0.729913
vt 0.965004 0.681761
vt 0.945503 0.638074
vt 0.910031 0.599984
vt 0.862777 0.573456
vt 0.721605 0.549973
vt 0.600817 0.572167
vt 0.555961 0.599783
vt 0.522480 0.638979
vt 0.501810 0.687651
vt 0.495255 0.740754
vt 0.500381 0.786740
vt 0.516545 0.828461
vt 0.601329 0.912046
vt 0.593583 0.923792
vt 0.493573 0.834010
vt 0.469424 0.776143
vt 0.461958 0.712243
vt 0.485374 0.599910
vt 0.556545 0.515411
vt 0.634700 0.475877
vt 0.722245 0.463299
vt 0.795541 0.471786
vt 0.863426 0.497605
vt 0.920344 0.538115
vt 0.963180 0.591903
vt 0.989821 0.655202
vt 0.998535 0.723212
vt 0.971310 0.832465
vt 0.962924 0.855034
vt 0.964788 0.864600
vt 0.970149 0.872712
vt 0.983366 0.881607
vt 0.998535 0.886643
vt 0.567933 0.286025
vt 0.531253 0.286025
vt 0.567933 0.461102
vt 0.531253 0.461102
vt 0.730979 0.000000
vt 0.730979 0.035215
vt 0.742625 0.000000
vt 0.742625 0.035215
vt 0.739137 0.322193
vt 0.739137 0.358873
vt 0.812301 0.322193
vt 0.812301 0.358873
vt 0.872450 0.322193
vt 0.872450 0.358873
vt 0.588312 0.044656
vt 0.551632 0.044656
vt 0.588312 0.099542
vt 0.551632 0.099542
vt 0.588312 0.156718
vt 0.551632 0.156718
vt 0.569972 0.044656
vt 0.567933 0.181087
vt 0.531253 0.181087
vt 0.567933 0.229806
vt 0.531253 0.229806
vt 0.567933 0.278134
vt 0.531253 0.278134
vt 0.549593 0.278134
vt 0.549593 0.181087
vt 0.498638 0.286025
vt 0.461958 0.286025
vt 0.498638 0.337137
vt 0.461958 0.337137
vt 0.498638 0.393004
vt 0.461958 0.393004
vt 0.480298 0.393004
vt 0.857333 0.036680
vt 0.820653 0.036680
vt 0.857333 0.179622
vt 0.820653 0.179622
vt 0.739137 0.228122
vt 0.739137 0.264802
vt 0.863153 0.228122
vt 0.863153 0.264802
vt 0.637228 0.181087
vt 0.600547 0.181087
vt 0.637228 0.233174
vt 0.600547 0.233174
vt 0.637228 0.284560
vt 0.600547 0.284560
vt 0.498638 0.044656
vt 0.461958 0.044656
vt 0.498638 0.097261
vt 0.461958 0.097261
vt 0.498638 0.151714
vt 0.461958 0.151714
vt 0.480298 0.044656
vt 0.498638 0.181087
vt 0.461958 0.181087
vt 0.498638 0.227717
vt 0.461958 0.227717
vt 0.498638 0.272639
vt 0.461958 0.272639
vt 0.480298 0.272639
vt 0.480298 0.181087
vt 0.739137 0.181087
vt 0.739137 0.217767
vt 0.859420 0.181087
vt 0.859420 0.217767
vt 0.859420 0.199427
vt 0.808359 0.000000
vt 0.808359 0.035215
vt 0.822472 0.000000
vt 0.822472 0.035215
vt 0.739137 0.369228
vt 0.739137 0.405908
vt 0.875364 0.369228
vt 0.875364 0.405908
vt 0.739137 0.275158
vt 0.739137 0.311838
vt 0.801201 0.275158
vt 0.801201 0.311838
vt 0.866985 0.275158
vt 0.866985 0.311838
vt 0.706522 0.181087
vt 0.669842 0.181087
vt 0.706522 0.295623
vt 0.669842 0.295623
vt 0.706522 0.409118
vt 0.669842 0.409118
vt 0.637228 0.286025
vt 0.600547 0.286025
vt 0.637228 0.372346
vt 0.600547 0.372346
vt 0.637228 0.461834
vt 0.600547 0.461834
vt 0.947006 0.000000
vt 0.910326 0.000000
vt 0.947006 0.074052
vt 0.910326 0.074052
vt 0.947006 0.147189
vt 0.910326 0.147189
vt 0.767659 0.036680
vt 0.730979 0.036680
vt 0.767659 0.106718
vt 0.730979 0.106718
vt 0.767659 0.176152
vt 0.730979 0.176152
vt 0.739137 0.416263
vt 0.739137 0.452944
vt 0.807754 0.416263
vt 0.807754 0.452944
vt 0.877221 0.416263
vt 0.877221 0.452944
vt 0.677986 0.000000
vt 0.641305 0.000000
vt 0.677986 0.114007
vt 0.641305 0.114007
vt 0.659645 0.000000
vt 0.461958 0.000000
vt 0.461958 0.036680
vt 0.486286 0.000000
vt 0.486286 0.036680
vt 0.486286 0.018340
vt 0.461958 0.018340
vt 0.850982 0.000000
vt 0.850982 0.035215
vt 0.860696 0.000000
vt 0.860696 0.035215
vt 0.870632 0.000000
vt 0.870632 0.035215
vt 0.870632 0.017608
vt 0.850982 0.017608
vt 0.539270 0.000000
vt 0.539270 0.036680
vt 0.554196 0.000000
vt 0.554196 0.036680
vt 0.571378 0.000000
vt 0.571378 0.036680
vt 0.571378 0.018340
vt 0.766152 0.000000
vt 0.766152 0.035215
vt 0.780127 0.000000
vt 0.780127 0.035215
vt 0.437275 0.000000
vt 0.448884 0.174689
vt 0.437275 0.174689
vt 0.412116 0.112813
vt 0.370583 0.061723
vt 0.321888 0.035460
vt 0.266614 0.027171
vt 0.218462 0.033622
vt 0.174775 0.053177
vt 0.136685 0.088746
vt 0.110158 0.136129
vt 0.086674 0.277687
vt 0.108869 0.398804
vt 0.136484 0.443783
vt 0.175680 0.477355
vt 0.224352 0.498081
vt 0.277455 0.504654
vt 0.323441 0.499514
vt 0.365162 0.483306
vt 0.448747 0.398291
vt 0.460493 0.406058
vt 0.370711 0.506341
vt 0.312844 0.530555
vt 0.248944 0.538042
vt 0.136612 0.514562
vt 0.052113 0.443196
vt 0.012579 0.364829
vt 0.000000 0.277045
vt 0.008487 0.203548
vt 0.034306 0.135478
vt 0.074816 0.078405
vt 0.128604 0.035451
vt 0.191903 0.008738
vt 0.259914 0.000000
vt 0.369166 0.027299
vt 0.391735 0.035708
vt 0.401301 0.033840
vt 0.409414 0.028464
vt 0.418308 0.015211
vt 0.423345 0.000000
vt 0.998535 0.900574
vt 0.824322 0.912183
vt 0.824322 0.900574
vt 0.886030 0.875415
vt 0.936980 0.833882
vt 0.963172 0.785187
vt 0.971438 0.729913
vt 0.965004 0.681761
vt 0.945503 0.638074
vt 0.910031 0.599984
vt 0.862777 0.573456
vt 0.721605 0.549973
vt 0.600817 0.572167
vt 0.555961 0.599783
vt 0.522480 0.638979
vt 0.501810 0.687651
vt 0.495255 0.740754
vt 0.500381 0.786740
vt 0.516545 0.828461
vt 0.601329 0.912046
vt 0.593583 0.923792
vt 0.493573 0.834010
vt 0.469424 0.776143
vt 0.461958 0.712243
vt 0.485374 0.599910
vt 0.556545 0.515411
vt 0.634700 0.475877
vt 0.722245 0.463299
vt 0.795541 0.471786
vt 0.863426 0.497605
vt 0.920344 0.538115
vt 0.963180 0.591903
vt 0.989821 0.655202
vt 0.998535 0.723212
vt 0.971310 0.832465
vt 0.962924 0.855034
vt 0.964788 0.864600
vt 0.970149 0.872712
vt 0.983366 0.881607
vt 0.998535 0.886643
vt 0.567933 0.286025
vt 0.531253 0.286025
vt 0.567933 0.461102
vt 0.531253 0.461102
vt 0.730979 0.000000
vt 0.730979 0.035215
vt 0.742625 0.000000
vt 0.742625 0.035215
vt 0.739137 0.322193
vt 0.739137 0.358873
vt 0.812301 0.322193
vt 0.812301 0.358873
vt 0.872450 0.322193
vt 0.872450 0.358873
vt 0.588312 0.044656
vt 0.551632 0.044656
vt 0.588312 0.099542
vt 0.551632 0.099542
vt 0.588312 0.156718
vt 0.551632 0.156718
vt 0.569972 0.044656
vt 0.567933 0.181087
vt 0.531253 0.181087
vt 0.567933 0.229806
vt 0.531253 0.229806
vt 0.567933 0.278134
vt 0.531253 0.278134
vt 0.549593 0.278134
vt 0.549593 0.181087
vt 0.498638 0.286025
vt 0.461958 0.286025
vt 0.498638 0.337137
vt 0.461958 0.337137
vt 0.498638 0.393004
vt 0.461958 0.393004
vt 0.480298 0.393004
vt 0.857333 0.036680
vt 0.820653 0.036680
vt 0.857333 0.179622
vt 0.820653 0.179622
vt 0.739137 0.228122
vt 0.739137 0.264802
vt 0.863153 0.228122
vt 0.863153 0.264802
vt 0.637228 0.181087
vt 0.600547 0.181087
vt 0.637228 0.233174
vt 0.600547 0.233174
vt 0.637228 0.284560
vt 0.600547 0.284560
vt 0.498638 0.044656
vt 0.461958 0.044656
vt 0.498638 0.097261
vt 0.461958 0.097261
vt 0.498638 0.151714
vt 0.461958 0.151714
vt 0.480298 0.044656
vt 0.498638 0.181087
vt 0.461958 0.181087
vt 0.498638 0.227717
vt 0.461958 0.227717
vt 0.498638 0.272639
vt 0.461958 0.272639
vt 0.480298 0.272639
vt 0.480298 0.181087
vt 0.739137 0.181087
vt 0.739137 0.217767
vt 0.859420 0.181087
vt 0.859420 0.217767
vt 0.859420 0.199427
vt 0.808359 0.000000
vt 0.808359 0.035215
vt 0.822472 0.000000
vt 0.822472 0.035215
vt 0.739137 0.369228
vt 0.739137 0.405908
vt 0.875364 0.369228
vt 0.875364 0.405908
vt 0.739137 0.275158
vt 0.739137 0.311838
vt 0.801201 0.275158
vt 0.801201 0.311838
vt 0.866985 0.275158
vt 0.866985 0.311838
vt 0.706522 0.181087
vt 0.669842 0.181087
vt 0.706522 0.295623
vt 0.669842 0.295623
vt 0.706522 0.409118
vt 0.669842 0.409118
vt 0.637228 0.286025
vt 0.600547 0.286025
vt 0.637228 0.372346
vt 0.600547 0.372346
vt 0.637228 0.461834
vt 0.600547 0.461834
vt 0.947006 0.000000
vt 0.910326 0.000000
vt 0.947006 0.074052
vt 0.910326 0.074052
vt 0.947006 0.147189
vt 0.910326 0.147189
vt 0.767659 0.036680
vt 0.730979 0.036680
vt 0.767659 0.106718
vt 0.730979 0.106718
vt 0.767659 0.176152
vt 0.730979 0.176152
vt 0.739137 0.416263
vt 0.739137 0.452944
vt 0.807754 0.416263
vt 0.807754 0.452944
vt 0.877221 0.416263
vt 0.877221 0.452944
vt 0.677986 0.000000
vt 0.641305 0.000000
vt 0.677986 0.114007
vt 0.641305 0.114007
vt 0.659645 0.000000
vt 0.461958 0.000000
vt 0.461958 0.036680
vt 0.486286 0.000000
vt 0.486286 0.036680
vt 0.486286 0.018340
vt 0.461958 0.018340
vt 0.850982 0.000000
vt 0.850982 0.035215
vt 0.860696 0.000000
vt 0.860696 0.035215
vt 0.870632 0.000000
vt 0.870632 0.035215
vt 0.870632 0.017608
vt 0.850982 0.017608
vt 0.539270 0.000000
vt 0.539270 0.036680
vt 0.554196 0.000000
vt 0.554196 0.036680
vt 0.571378 0.000000
vt 0.571378 0.036680
vt 0.571378 0.018340
vt 0.766152 0.000000
vt 0.766152 0.035215
vt 0.780127 0.000000
vt 0.780127 0.035215
vt 0.437275 0.000000
vt 0.448884 0.174689
vt 0.437275 0.174689
vt 0.412116 0.112813
vt 0.370583 0.061723
vt 0.321888 0.035460
vt 0.266614 0.027171
vt 0.218462 0.033622
vt 0.174775 0.053177
vt 0.136685 0.088746
vt 0.110158 0.136129
vt 0.086674 0.277687
vt 0.108869 0.398804
vt 0.136484 0.443783
vt 0.175680 0.477355
vt 0.224352 0.498081
vt 0.277455 0.504654
vt 0.323441 0.499514
vt 0.365162 0.483306
vt 0.448747 0.398291
vt 0.460493 0.406058
vt 0.370711 0.506341
vt 0.312844 0.530555
vt 0.248944 0.538042
vt 0.136612 0.514562
vt 0.052113 0.443196
vt 0.012579 0.364829
vt 0.000000 0.277045
vt 0.008487 0.203548
vt 0.034306 0.135478
vt 0.074816 0.078405
vt 0.128604 0.035451
vt 0.191903 0.008738
vt 0.259914 0.000000
vt 0.369166 0.027299
vt 0.391735 0.035708
vt 0.401301 0.033840
vt 0.409414 0.028464
vt 0.418308 0.015211
vt 0.423345 0.000000
vn 0.000000 1.000000 0.000000
vn 0.000000 1.000000 0.000000
vn 0.000000 1.000000 0.000000
vn 0.000000 1.000000 0.000000
vn 1.000000 0.000000 0.000000
vn 1.000000 0.000000 0.000000
vn 1.000000 0.000000 0.000000
vn 1.000000 0.000000 0.000000
vn 0.000000 -0.000000 -1.000000
vn 0.000000 -0.000000 -1.000000
vn 0.000000 -0.000000 -1.000000
vn 0.000000 -0.000000 -1.000000
vn -1.000000 0.000000 0.000000
vn -1.000000 0.000000 0.000000
vn -1.000000 0.000000 0.000000
vn -1.000000 0.000000 0.000000
vn 0.000000 0.000000 1.000000
vn 0.000000 0.000000 1.000000
vn 0.000000 0.000000 1.000000
vn 0.000000 0.000000 1.000000
vn -0.000000 -1.000000 -0.000000
vn -0.000000 -1.000000 -0.000000
vn -0.000000 -1.000000 -0.000000
vn -0.000000 -1.000000 -0.000000
vn 0.000000 -1.000000 0.000000
vn 0.000000 -1.000000 0.000000
vn 0.000000 -1.000000 0.000000
vn 0.000000 -1.000000 0.000000
vn -0.749269 0.662266 -0.000000
vn -0.749269 0.662266 -0.000000
vn -0.749269 0.662266 0.000000
vn -0.000000 0.662266 -0.749269
vn -0.000000 0.662266 -0.749269
vn 0.000000 0.662266 -0.749269
vn 0.749269 0.662266 -0.000000
vn 0.749269 0.662266 -0.000000
vn 0.749269 0.662266 -0.000000
vn -0.000000 0.662266 0.749269
vn -0.000000 0.662266 0.749269
vn -0.000000 0.662266 0.749269
vn 0.000000 -1.000000 0.000000
vn 0.000000 -1.000000 0.000000
vn 0.000000 -1.000000 0.000000
vn 0.000000 -1.000000 0.000000
vn -0.749269 0.662266 -0.000000
vn -0.749269 0.662266 -0.000000
vn -0.749269 0.662266 0.000000
vn -0.000000 0.662266 -0.749269
vn -0.000000 0.662266 -0.749269
vn 0.000000 0.662266 -0.749269
vn 0.749269 0.662266 -0.000000
vn 0.749269 0.662266 -0.000000
vn 0.749269 0.662266 -0.000000
vn -0.000000 0.662266 0.749269
vn -0.000000 0.662266 0.749269
vn -0.000000 0.662266 0.749269
vn 0.000000 -1.000000 0.000000
vn 0.000000 -1.000000 0.000000
vn 0.000000 -1.000000 0.000000
vn 0.000000 -1.000000 0.000000
vn -0.749269 0.662266 -0.000000
vn -0.749269 0.662266 -0.000000
vn -0.749269 0.662266 -0.000000
vn -0.000000 0.662266 -0.749269
vn -0.000000 0.662266 -0.749269
vn 0.000000 0.662266 -0.749269
vn 0.749269 0.662266 -0.000000
vn 0.749269 0.662266 -0.000000
vn 0.749269 0.662266 -0.000000
vn -0.000000 0.662266 0.749269
vn -0.000000 0.662266 0.749269
vn -0.000000 0.662266 0.749269
vn -1.000000 -0.000000 0.000000
vn -1.000000 -0.000000 0.000000
vn -1.000000 -0.000000 0.000000
vn -1.000000 -0.000000 0.000000
vn -0.000000 1.000000 0.000000
vn -0.000000 1.000000 0.000000
vn -0.000000 1.000000 0.000000
vn -0.000000 1.000000 0.000000
vn 1.000000 -0.000000 -0.000000
vn 1.000000 -0.000000 -0.000000
vn 1.000000 -0.000000 -0.000000
vn 1.000000 -0.000000 -0.000000
vn -0.000000 -1.000000 0.000000
vn -0.000000 -1.000000 0.000000
vn -0.000000 -1.000000 0.000000
vn -0.000000 -1.000000 0.000000
vn 0.000000 -0.000000 1.000000
vn 0.000000 -0.000000 1.000000
vn 0.000000 -0.000000 1.000000
vn 0.000000 -0.000000 1.000000
vn -0.000000 0.000000 -1.000000
vn -0.000000 0.000000 -1.000000
vn -0.000000 0.000000 -1.000000
vn -0.000000 0.000000 -1.000000
vn -0.000000 1.000000 -0.000000
vn -0.000000 1.000000 -0.000000
vn -0.000000 1.000000 0.000000
vn -0.000000 1.000000 0.000000
vn -0.000000 0.000000 1.000000
vn -0.000000 0.000000 1.000000
vn -0.000000 0.000000 1.000000
vn -0.000000 0.000000 1.000000
vn 0.000000 -1.000000 -0.000000
vn 0.000000 -1.000000 -0.000000
vn 0.000000 -1.000000 -0.000000
vn 0.000000 -1.000000 -0.000000
vn -1.000000 -0.000000 -0.000000
vn -1.000000 -0.000000 -0.000000
vn -1.000000 -0.000000 -0.000000
vn -1.000000 -0.000000 -0.000000
vn 1.000000 0.000000 0.000000
vn 1.000000 0.000000 0.000000
vn 1.000000 0.000000 0.000000
vn 1.000000 0.000000 0.000000
vn -0.000000 0.000000 -1.000000
vn -0.000000 0.000000 -1.000000
vn -0.000000 0.000000 -1.000000
vn -0.000000 0.000000 -1.000000
vn -0.000000 1.000000 -0.000000
vn -0.000000 1.000000 -0.000000
vn -0.000000 1.000000 -0.000000
vn -0.000000 1.000000 -0.000000
vn -0.000000 0.000000 1.000000
vn -0.000000 0.000000 1.000000
vn -0.000000 0.000000 1.000000
vn -0.000000 0.000000 1.000000
vn 0.000000 -1.000000 -0.000000
vn 0.000000 -1.000000 -0.000000
vn 0.000000 -1.000000 -0.000000
vn 0.000000 -1.000000 -0.000000
vn -1.000000 -0.000000 -0.000000
vn -1.000000 -0.000000 -0.000000
vn -1.000000 -0.000000 -0.000000
vn -1.000000 -0.000000 -0.000000
vn 1.000000 0.000000 0.000000
vn 1.000000 0.000000 0.000000
vn 1.000000 0.000000 0.000000
vn 1.000000 0.000000 0.000000
vn -0.000000 1.000000 0.000000
vn -0.000000 1.000000 0.000000
vn -0.000000 1.000000 0.000000
vn -0.000000 1.000000 0.000000
vn -1.000000 0.000000 -0.000000
vn -1.000000 0.000000 -0.000000
vn -1.000000 0.000000 -0.000000
vn -1.000000 0.000000 -0.000000
vn -0.000000 -1.000000 0.000000
vn -0.000000 -1.000000 0.000000
vn -0.000000 -1.000000 0.000000
vn -0.000000 -1.000000 0.000000
vn 0.000000 -0.000000 -1.000000
vn 0.000000 -0.000000 -1.000000
vn 0.000000 -0.000000 -1.000000
vn 0.000000 -0.000000 -1.000000
vn -0.000000 0.000000 1.000000
vn -0.000000 0.000000 1.000000
vn -0.000000 0.000000 1.000000
vn -0.000000 0.000000 1.000000
vn 0.000000 1.000000 -0.000000
vn 0.000000 1.000000 -0.000000
vn 0.000000 1.000000 -0.000000
vn 0.000000 1.000000 -0.000000
vn 0.000000 1.000000 -0.000000
vn 0.000000 1.000000 -0.000000
vn 0.000000 1.000000 -0.000000
vn 0.000000 1.000000 -0.000000
vn 0.000000 1.000000 -0.000000
vn 0.000000 1.000000 -0.000000
vn 0.000000 1.000000 -0.000000
vn 0.000000 1.000000 -0.000000
vn 0.000000 1.000000 -0.000000
vn 0.000000 1.000000 -0.000000
vn 0.000000 1.000000 -0.000000
vn 0.000000 1.000000 -0.000000
vn 0.000000 1.000000 -0.000000
vn 0.000000 1.000000 -0.000000
vn 0.000000 1.000000 -0.000000
vn 0.000000 1.000000 -0.000000
vn 0.000000 1.000000 -0.000000
vn 0.000000 1.000000 -0.000000
vn 0.000000 1.000000 -0.000000
vn 0.000000 1.000000 -0.000000
vn 0.000000 1.000000 -0.000000
vn 0.000000 1.000000 -0.000000
vn 0.000000 1.000000 -0.000000
vn 0.000000 1.000000 -0.000000
vn 0.000000 1.000000 -0.000000
vn 0.000000 1.000000 -0.000000
vn 0.000000 1.000000 -0.000000
vn 0.000000 1.000000 -0.000000
vn 0.000000 1.000000 -0.000000
vn 0.000000 1.000000 -0.000000
vn 0.000000 1.000000 -0.000000
vn 0.000000 1.000000 -0.000000
vn 0.000000 1.000000 -0.000000
vn 0.000000 1.000000 -0.000000
vn 0.000000 1.000000 -0.000000
vn 0.000000 1.000000 -0.000000
vn -0.997785 0.000000 0.066519
vn -0.997785 0.000000 0.066519
vn -0.997785 0.000000 0.066519
vn -0.997785 0.000000 0.066519
vn -0.000000 -0.000000 -1.000000
vn -0.000000 -0.000000 -1.000000
vn -0.000000 -0.000000 -1.000000
vn -0.000000 -0.000000 -1.000000
vn 0.619870 -0.000000 -0.784705
vn 0.619870 -0.000000 -0.784705
vn 0.875053 -0.000000 -0.484026
vn 0.875053 -0.000000 -0.484026
vn 0.957933 -0.000000 -0.286993
vn 0.957933 -0.000000 -0.286993
vn -0.000000 -0.000000 -1.000000
vn -0.000000 -0.000000 -1.000000
vn 0.307884 -0.000000 -0.951424
vn 0.307884 -0.000000 -0.951424
vn 0.622155 -0.000000 -0.782894
vn 0.622155 -0.000000 -0.782894
vn -0.000000 -0.000000 -1.000000
vn -0.534057 -0.000000 -0.845449
vn -0.534057 -0.000000 -0.845449
vn -0.270417 -0.000000 -0.962743
vn -0.270417 -0.000000 -0.962743
vn -0.000000 -0.000000 -1.000000
vn -0.000000 -0.000000 -1.000000
vn -0.000000 -0.000000 -1.000000
vn -0.534057 -0.000000 -0.845449
vn -0.923688 -0.000000 -0.383145
vn -0.923688 -0.000000 -0.383145
vn -0.796132 -0.000000 -0.605123
vn -0.796132 -0.000000 -0.605123
vn -0.534386 -0.000000 -0.845240
vn -0.534386 -0.000000 -0.845240
vn -0.534386 -0.000000 -0.845240
vn -1.000000 -0.000000 -0.000000
vn -1.000000 -0.000000 -0.000000
vn -0.924224 -0.000000 -0.381851
vn -0.924224 -0.000000 -0.381851
vn -0.916761 0.000000 0.399437
vn -0.916761 0.000000 0.399437
vn -1.000000 -0.000000 -0.000000
vn -1.000000 -0.000000 -0.000000
vn -0.522778 0.000000 0.852469
vn -0.522778 0.000000 0.852469
vn -0.761763 0.000000 0.647856
vn -0.761763 0.000000 0.647856
vn -0.916890 0.000000 0.399140
vn -0.916890 0.000000 0.399140
vn -0.000000 0.000000 1.000000
vn -0.000000 0.000000 1.000000
vn -0.253304 0.000000 0.967387
vn -0.253304 0.000000 0.967387
vn -0.521026 0.000000 0.853541
vn -0.521026 0.000000 0.853541
vn -0.000000 0.000000 1.000000
vn 0.489467 -0.000000 0.872022
vn 0.489467 -0.000000 0.872022
vn 0.230981 -0.000000 0.972958
vn 0.230981 -0.000000 0.972958
vn -0.000000 0.000000 1.000000
vn -0.000000 0.000000 1.000000
vn -0.000000 0.000000 1.000000
vn 0.489467 -0.000000 0.872022
vn 0.812878 -0.000000 0.582434
vn 0.812878 -0.000000 0.582434
vn 0.487455 -0.000000 0.873148
vn 0.487455 -0.000000 0.873148
vn 0.487455 -0.000000 0.873148
vn -0.550344 0.000000 0.834938
vn -0.550344 0.000000 0.834938
vn -0.550344 0.000000 0.834938
vn -0.550344 0.000000 0.834938
vn -0.526151 -0.000000 -0.850391
vn -0.526151 -0.000000 -0.850391
vn -0.871038 -0.000000 -0.491216
vn -0.871038 -0.000000 -0.491216
vn -0.000000 -0.000000 -1.000000
vn -0.000000 -0.000000 -1.000000
vn -0.243473 -0.000000 -0.969908
vn -0.243473 -0.000000 -0.969908
vn -0.523945 -0.000000 -0.851752
vn -0.523945 -0.000000 -0.851752
vn 0.805290 -0.000000 -0.592880
vn 0.805290 -0.000000 -0.592880
vn 0.430727 -0.000000 -0.902482
vn 0.430727 -0.000000 -0.902482
vn -0.000000 -0.000000 -1.000000
vn -0.000000 -0.000000 -1.000000
vn 1.000000 -0.000000 -0.000000
vn 1.000000 -0.000000 -0.000000
vn 0.955605 -0.000000 -0.294651
vn 0.955605 -0.000000 -0.294651
vn 0.804244 -0.000000 -0.594299
vn 0.804244 -0.000000 -0.594299
vn 0.882483 -0.000000 0.470344
vn 0.882483 -0.000000 0.470344
vn 0.972023 -0.000000 0.234884
vn 0.972023 -0.000000 0.234884
vn 1.000000 -0.000000 -0.000000
vn 1.000000 -0.000000 -0.000000
vn 0.508404 -0.000000 0.861118
vn 0.508404 -0.000000 0.861118
vn 0.727042 -0.000000 0.686593
vn 0.727042 -0.000000 0.686593
vn 0.882987 -0.000000 0.469398
vn 0.882987 -0.000000 0.469398
vn -0.000000 0.000000 1.000000
vn -0.000000 0.000000 1.000000
vn 0.258095 -0.000000 0.966119
vn 0.258095 -0.000000 0.966119
vn 0.507140 -0.000000 0.861863
vn 0.507140 -0.000000 0.861863
vn -0.450928 0.000000 0.892560
vn -0.450928 0.000000 0.892560
vn -0.000000 0.000000 1.000000
vn -0.000000 0.000000 1.000000
vn -0.450928 0.000000 0.892560
vn -0.000000 0.000000 1.000000
vn -0.000000 0.000000 1.000000
vn -0.469023 0.000000 0.883186
vn -0.469023 0.000000 0.883186
vn -0.469023 0.000000 0.883186
vn -0.000000 0.000000 1.000000
vn 0.687745 -0.000000 0.725953
vn 0.687745 -0.000000 0.725953
vn 0.383161 -0.000000 0.923681
vn 0.383161 -0.000000 0.923681
vn -0.000000 0.000000 1.000000
vn -0.000000 0.000000 1.000000
vn -0.000000 0.000000 1.000000
vn 0.687745 -0.000000 0.725953
vn 0.975822 -0.000000 0.218566
vn 0.975822 -0.000000 0.218566
vn 0.905723 -0.000000 0.423869
vn 0.905723 -0.000000 0.423869
vn 0.720944 -0.000000 0.692993
vn 0.720944 -0.000000 0.692993
vn 0.720944 -0.000000 0.692993
vn -0.000000 0.000000 1.000000
vn -0.000000 0.000000 1.000000
vn -0.000000 0.000000 1.000000
vn -0.000000 0.000000 1.000000
vn -0.000000 -1.000000 0.000000
vn -0.000000 -1.000000 0.000000
vn -0.000000 -1.000000 0.000000
vn -0.000000 -1.000000 0.000000
vn -0.000000 -1.000000 0.000000
vn -0.000000 -1.000000 0.000000
vn -0.000000 -1.000000 0.000000
vn -0.000000 -1.000000 0.000000
vn -0.000000 -1.000000 0.000000
vn -0.000000 -1.000000 0.000000
vn -0.000000 -1.000000 0.000000
vn -0.000000 -1.000000 0.000000
vn -0.000000 -1.000000 0.000000
vn -0.000000 -1.000000 0.000000
vn -0.000000 -1.000000 0.000000
vn -0.000000 -1.000000 0.000000
vn -0.000000 -1.000000 0.000000
vn -0.000000 -1.000000 0.000000
vn -0.000000 -1.000000 0.000000
vn -0.000000 -1.000000 0.000000
vn -0.000000 -1.000000 0.000000
vn -0.000000 -1.000000 0.000000
vn -0.000000 -1.000000 0.000000
vn -0.000000 -1.000000 0.000000
vn -0.000000 -1.000000 0.000000
vn -0.000000 -1.000000 0.000000
vn -0.000000 -1.000000 0.000000
vn -0.000000 -1.000000 0.000000
vn -0.000000 -1.000000 0.000000
vn -0.000000 -1.000000 0.000000
vn -0.000000 -1.000000 0.000000
vn -0.000000 -1.000000 0.000000
vn -0.000000 -1.000000 0.000000
vn -0.000000 -1.000000 0.000000
vn -0.000000 -1.000000 0.000000
vn -0.000000 -1.000000 0.000000
vn -0.000000 -1.000000 0.000000
vn -0.000000 -1.000000 0.000000
vn -0.000000 -1.000000 0.000000
vn -0.000000 -1.000000 0.000000
vn 0.000000 1.000000 -0.000000
vn 0.000000 1.000000 -0.000000
vn 0.000000 1.000000 -0.000000
vn 0.000000 1.000000 -0.000000
vn 0.000000 1.000000 -0.000000
vn 0.000000 1.000000 -0.000000
vn 0.000000 1.000000 -0.000000
vn 0.000000 1.000000 -0.000000
vn 0.000000 1.000000 -0.000000
vn 0.000000 1.000000 -0.000000
vn 0.000000 1.000000 -0.000000
vn 0.000000 1.000000 -0.000000
vn 0.000000 1.000000 -0.000000
vn 0.000000 1.000000 -0.000000
vn 0.000000 1.000000 -0.000000
vn 0.000000 1.000000 -0.000000
vn 0.000000 1.000000 -0.000000
vn 0.000000 1.000000 -0.000000
vn 0.000000 1.000000 -0.000000
vn 0.000000 1.000000 -0.000000
vn 0.000000 1.000000 -0.000000
vn 0.000000 1.000000 -0.000000
vn 0.000000 1.000000 -0.000000
vn 0.000000 1.000000 -0.000000
vn 0.000000 1.000000 -0.000000
vn 0.000000 1.000000 -0.000000
vn 0.000000 1.000000 -0.000000
vn 0.000000 1.000000 -0.000000
vn 0.000000 1.000000 -0.000000
vn 0.000000 1.000000 -0.000000
vn 0.000000 1.000000 -0.000000
vn 0.000000 1.000000 -0.000000
vn 0.000000 1.000000 -0.000000
vn 0.000000 1.000000 -0.000000
vn 0.000000 1.000000 -0.000000
vn 0.000000 1.000000 -0.000000
vn 0.000000 1.000000 -0.000000
vn 0.000000 1.000000 -0.000000
vn 0.000000 1.000000 -0.000000
vn 0.000000 1.000000 -0.000000
vn -0.997785 0.000000 0.066519
vn -0.997785 0.000000 0.066519
vn -0.997785 0.000000 0.066519
vn -0.997785 0.000000 0.066519
vn -0.000000 -0.000000 -1.000000
vn -0.000000 -0.000000 -1.000000
vn -0.000000 -0.000000 -1.000000
vn -0.000000 -0.000000 -1.000000
vn 0.619870 -0.000000 -0.784705
vn 0.619870 -0.000000 -0.784705
vn 0.875053 -0.000000 -0.484026
vn 0.875053 -0.000000 -0.484026
vn 0.957933 -0.000000 -0.286993
vn 0.957933 -0.000000 -0.286993
vn -0.000000 -0.000000 -1.000000
vn -0.000000 -0.000000 -1.000000
vn 0.307884 -0.000000 -0.951424
vn 0.307884 -0.000000 -0.951424
vn 0.622155 -0.000000 -0.782894
vn 0.622155 -0.000000 -0.782894
vn -0.000000 -0.000000 -1.000000
vn -0.534057 -0.000000 -0.845449
vn -0.534057 -0.000000 -0.845449
vn -0.270417 -0.000000 -0.962743
vn -0.270417 -0.000000 -0.962743
vn -0.000000 -0.000000 -1.000000
vn -0.000000 -0.000000 -1.000000
vn -0.000000 -0.000000 -1.000000
vn -0.534057 -0.000000 -0.845449
vn -0.923688 -0.000000 -0.383145
vn -0.923688 -0.000000 -0.383145
vn -0.796132 -0.000000 -0.605123
vn -0.796132 -0.000000 -0.605123
vn -0.534386 -0.000000 -0.845240
vn -0.534386 -0.000000 -0.845240
vn -0.534386 -0.000000 -0.845240
vn -1.000000 -0.000000 -0.000000
vn -1.000000 -0.000000 -0.000000
vn -0.924224 -0.000000 -0.381851
vn -0.924224 -0.000000 -0.381851
vn -0.916761 0.000000 0.399437
vn -0.916761 0.000000 0.399437
vn -1.000000 -0.000000 -0.000000
vn -1.000000 -0.000000 -0.000000
vn -0.522778 0.000000 0.852469
vn -0.522778 0.000000 0.852469
vn -0.761763 0.000000 0.647856
vn -0.761763 0.000000 0.647856
vn -0.916890 0.000000 0.399140
vn -0.916890 0.000000 0.399140
vn -0.000000 0.000000 1.000000
vn -0.000000 0.000000 1.000000
vn -0.253304 0.000000 0.967387
vn -0.253304 0.000000 0.967387
vn -0.521026 0.000000 0.853541
vn -0.521026 0.000000 0.853541
vn -0.000000 0.000000 1.000000
vn 0.489467 -0.000000 0.872022
vn 0.489467 -0.000000 0.872022
vn 0.230981 -0.000000 0.972958
vn 0.230981 -0.000000 0.972958
vn -0.000000 0.000000 1.000000
vn -0.000000 0.000000 1.000000
vn -0.000000 0.000000 1.000000
vn 0.489467 -0.000000 0.872022
vn 0.812878 -0.000000 0.582434
vn 0.812878 -0.000000 0.582434
vn 0.487455 -0.000000 0.873148
vn 0.487455 -0.000000 0.873148
vn 0.487455 -0.000000 0.873148
vn -0.550344 0.000000 0.834938
vn -0.550344 0.000000 0.834938
vn -0.550344 0.000000 0.834938
vn -0.550344 0.000000 0.834938
vn -0.526151 -0.000000 -0.850391
vn -0.526151 -0.000000 -0.850391
vn -0.871038 -0.000000 -0.491216
vn -0.871038 -0.000000 -0.491216
vn -0.000000 -0.000000 -1.000000
vn -0.000000 -0.000000 -1.000000
vn -0.243473 -0.000000 -0.969908
vn -0.243473 -0.000000 -0.969908
vn -0.523945 -0.000000 -0.851752
vn -0.523945 -0.000000 -0.851752
vn 0.805290 -0.000000 -0.592880
vn 0.805290 -0.000000 -0.592880
vn 0.430727 -0.000000 -0.902482
vn 0.430727 -0.000000 -0.902482
vn -0.000000 -0.000000 -1.000000
vn -0.000000 -0.000000 -1.000000
vn 1.000000 -0.000000 -0.000000
vn 1.000000 -0.000000 -0.000000
vn 0.955605 -0.000000 -0.294651
vn 0.955605 -0.000000 -0.294651
vn 0.804244 -0.000000 -0.594299
vn 0.804244 -0.000000 -0.594299
vn 0.882483 -0.000000 0.470344
vn 0.882483 -0.000000 0.470344
vn 0.972023 -0.000000 0.234884
vn 0.972023 -0.000000 0.234884
vn 1.000000 -0.000000 -0.000000
vn 1.000000 -0.000000 -0.000000
vn 0.508404 -0.000000 0.861118
vn 0.508404 -0.000000 0.861118
vn 0.727042 -0.000000 0.686593
vn 0.727042 -0.000000 0.686593
vn 0.882987 -0.000000 0.469398
vn 0.882987 -0.000000 0.469398
vn -0.000000 0.000000 1.000000
vn -0.000000 0.000000 1.000000
vn 0.258095 -0.000000 0.966119
vn 0.258095 -0.000000 0.966119
vn 0.507140 -0.000000 0.861863
vn 0.507140 -0.000000 0.861863
vn -0.450928 0.000000 0.892560
vn -0.450928 0.000000 0.892560
vn -0.000000 0.000000 1.000000
vn -0.000000 0.000000 1.000000
vn -0.450928 0.000000 0.892560
vn -0.000000 0.000000 1.000000
vn -0.000000 0.000000 1.000000
vn -0.469023 0.000000 0.883186
vn -0.469023 0.000000 0.883186
vn -0.469023 0.000000 0.883186
vn -0.000000 0.000000 1.000000
vn 0.687745 -0.000000 0.725953
vn 0.687745 -0.000000 0.725953
vn 0.383161 -0.000000 0.923681
vn 0.383161 -0.000000 0.923681
vn -0.000000 0.000000 1.000000
vn -0.000000 0.000000 1.000000
vn -0.000000 0.000000 1.000000
vn 0.687745 -0.000000 0.725953
vn 0.975822 -0.000000 0.218566
vn 0.975822 -0.000000 0.218566
vn 0.905723 -0.000000 0.423869
vn 0.905723 -0.000000 0.423869
vn 0.720944 -0.000000 0.692993
vn 0.720944 -0.000000 0.692993
vn 0.720944 -0.000000 0.692993
vn -0.000000 0.000000 1.000000
vn -0.000000 0.000000 1.000000
vn -0.000000 0.000000 1.000000
vn -0.000000 0.000000 1.000000
vn -0.000000 -1.000000 0.000000
vn -0.000000 -1.000000 0.000000
vn -0.000000 -1.000000 0.000000
vn -0.000000 -1.000000 0.000000
vn -0.000000 -1.000000 0.000000
vn -0.000000 -1.000000 0.000000
vn -0.000000 -1.000000 0.000000
vn -0.000000 -1.000000 0.000000
vn -0.000000 -1.000000 0.000000
vn -0.000000 -1.000000 0.000000
vn -0.000000 -1.000000 0.000000
vn -0.000000 -1.000000 0.000000
vn -0.000000 -1.000000 0.000000
vn -0.000000 -1.000000 0.000000
vn -0.000000 -1.000000 0.000000
vn -0.000000 -1.000000 0.000000
vn -0.000000 -1.000000 0.000000
vn -0.000000 -1.000000 0.000000
vn -0.000000 -1.000000 0.000000
vn -0.000000 -1.000000 0.000000
vn -0.000000 -1.000000 0.000000
vn -0.000000 -1.000000 0.000000
vn -0.000000 -1.000000 0.000000
vn -0.000000 -1.000000 0.000000
vn -0.000000 -1.000000 0.000000
vn -0.000000 -1.000000 0.000000
vn -0.000000 -1.000000 0.000000
vn -0.000000 -1.000000 0.000000
vn -0.000000 -1.000000 0.000000
vn -0.000000 -1.000000 0.000000
vn -0.000000 -1.000000 0.000000
vn -0.000000 -1.000000 0.000000
vn -0.000000 -1.000000 0.000000
vn -0.000000 -1.000000 0.000000
vn -0.000000 -1.000000 0.000000
vn -0.000000 -1.000000 0.000000
vn -0.000000 -1.000000 0.000000
vn -0.000000 -1.000000 0.000000
vn -0.000000 -1.000000 0.000000
vn -0.000000 -1.000000 0.000000
f 2/2/2 1/1/1 3/3/3
f 6/6/6 5/5/5 7/7/7
f 10/10/10 9/9/9 11/11/11
f 14/14/14 13/13/13 15/15/15
f 18/18/18 17/17/17 19/19/19
f 22/22/22 24/24/24 23/23/23
f 26/26/26 25/25/25 27/27/27
f 27/27/27 28/28/28 26/26/26
f 31/31/31 29/29/29 30/30/30
f 34/34/34 32/32/32 33/33/33
f 37/37/37 35/35/35 36/36/36
f 40/40/40 38/38/38 39/39/39
f 42/42/42 41/41/41 43/43/43
f 43/43/43 44/44/44 42/42/42
f 47/47/47 45/45/45 46/46/46
f 50/50/50 48/48/48 49/49/49
f 53/53/53 51/51/51 52/52/52
f 56/56/56 54/54/54 55/55/55
f 58/58/58 57/57/57 59/59/59
f 59/59/59 60/60/60 58/58/58
f 63/63/63 61/61/61 62/62/62
f 66/66/66 64/64/64 65/65/65
f 69/69/69 67/67/67 68/68/68
f 72/72/72 70/70/70 71/71/71
f 74/74/74 73/73/73 75/75/75
f 78/78/78 77/77/77 79/79/79
f 82/82/82 81/81/81 83/83/83
f 86/86/86 85/85/85 87/87/87
f 90/90/90 92/92/92 91/91/91
f 93/93/93 95/95/95 96/96/96
f 97/97/97 99/99/99 100/100/100
f 101/101/101 103/103/103 104/104/104
f 105/105/105 107/107/107 108/108/108
f 109/109/109 112/112/112 111/111/111
f 111/111/111 110/110/110 109/109/109
f 113/113/113 115/115/115 116/116/116
f 115/115/115 113/113/113 114/114/114
f 118/118/118 117/117/117 119/119/119
f 122/122/122 121/121/121 123/123/123
f 126/126/126 125/125/125 127/127/127
f 130/130/130 129/129/129 131/131/131
f 134/134/134 136/136/136 135/135/135
f 137/137/137 139/139/139 140/140/140
f 141/141/141 143/143/143 144/144/144
f 145/145/145 147/147/147 148/148/148
f 149/149/149 151/151/151 152/152/152
f 153/153/153 156/156/156 155/155/155
f 155/155/155 154/154/154 153/153/153
f 157/157/157 159/159/159 160/160/160
f 159/159/159 157/157/157 158/158/158
f 170/170/170 191/191/191 171/171/171
f 171/171/171 190/190/190 189/189/189
f 191/191/191 190/190/190 171/171/171
f 172/172/172 171/171/171 189/189/189
f 170/170/170 192/192/192 191/191/191
f 168/168/168 194/194/194 193/193/193
f 169/169/169 192/192/192 170/170/170
f 193/193/193 169/169/169 168/168/168
f 193/193/193 192/192/192 169/169/169
f 187/187/187 172/172/172 188/188/188
f 189/189/189 188/188/188 172/172/172
f 186/186/186 173/173/173 187/187/187
f 172/172/172 187/187/187 173/173/173
f 174/174/174 173/173/173 186/186/186
f 185/185/185 175/175/175 174/174/174
f 184/184/184 176/176/176 185/185/185
f 175/175/175 185/185/185 176/176/176
f 176/176/176 184/184/184 177/177/177
f 186/186/186 185/185/185 174/174/174
f 194/194/194 168/168/168 167/167/167
f 167/167/167 166/166/166 194/194/194
f 166/166/166 195/195/195 194/194/194
f 166/166/166 165/165/165 195/195/195
f 196/196/196 195/195/195 165/165/165
f 197/197/197 196/196/196 165/165/165
f 199/199/199 161/161/161 200/200/200
f 161/161/161 199/199/199 198/198/198
f 164/164/164 197/197/197 165/165/165
f 198/198/198 164/164/164 161/161/161
f 198/198/198 197/197/197 164/164/164
f 182/182/182 179/179/179 178/178/178
f 177/177/177 183/183/183 178/178/178
f 182/182/182 178/178/178 183/183/183
f 184/184/184 183/183/183 177/177/177
f 182/182/182 181/181/181 179/179/179
f 162/162/162 164/164/164 163/163/163
f 179/179/179 181/181/181 180/180/180
f 162/162/162 161/161/161 164/164/164
f 202/202/202 204/204/204 203/203/203
f 206/206/206 208/208/208 207/207/207
f 210/210/210 212/212/212 211/211/211
f 213/213/213 211/211/211 212/212/212
f 217/217/217 215/215/215 221/221/221
f 218/218/218 221/221/221 216/216/216
f 219/219/219 217/217/217 218/218/218
f 221/221/221 218/218/218 217/217/217
f 229/229/229 224/224/224 222/222/222
f 229/229/229 223/223/223 225/225/225
f 225/225/225 224/224/224 229/229/229
f 224/224/224 225/225/225 228/228/228
f 228/228/228 225/225/225 227/227/227
f 226/226/226 224/224/224 228/228/228
f 231/231/231 233/233/233 232/232/232
f 233/233/233 236/236/236 232/232/232
f 236/236/236 233/233/233 235/235/235
f 238/238/238 240/240/240 239/239/239
f 242/242/242 244/244/244 243/243/243
f 246/246/246 248/248/248 247/247/247
f 249/249/249 247/247/247 248/248/248
f 253/253/253 251/251/251 257/257/257
f 254/254/254 257/257/257 252/252/252
f 255/255/255 253/253/253 254/254/254
f 257/257/257 254/254/254 253/253/253
f 265/265/265 260/260/260 258/258/258
f 265/265/265 259/259/259 261/261/261
f 261/261/261 260/260/260 265/265/265
f 261/261/261 264/264/264 260/260/260
f 264/264/264 261/261/261 263/263/263
f 267/267/267 270/270/270 266/266/266
f 267/267/267 269/269/269 270/270/270
f 272/272/272 274/274/274 273/273/273
f 276/276/276 278/278/278 277/277/277
f 280/280/280 282/282/282 281/281/281
f 283/283/283 281/281/281 282/282/282
f 286/286/286 288/288/288 287/287/287
f 289/289/289 287/287/287 288/288/288
f 292/292/292 294/294/294 293/293/293
f 295/295/295 293/293/293 294/294/294
f 298/298/298 300/300/300 299/299/299
f 301/301/301 299/299/299 300/300/300
f 304/304/304 306/306/306 305/305/305
f 307/307/307 305/305/305 306/306/306
f 310/310/310 312/312/312 311/311/311
f 313/313/313 311/311/311 312/312/312
f 317/317/317 315/315/315 319/319/319
f 316/316/316 318/318/318 319/319/319
f 317/317/317 319/319/319 318/318/318
f 325/325/325 324/324/324 322/322/322
f 321/321/321 323/323/323 324/324/324
f 333/333/333 328/328/328 326/326/326
f 333/333/333 327/327/327 329/329/329
f 329/329/329 328/328/328 333/333/333
f 328/328/328 329/329/329 332/332/332
f 332/332/332 329/329/329 331/331/331
f 330/330/330 328/328/328 332/332/332
f 335/335/335 337/337/337 336/336/336
f 337/337/337 340/340/340 336/336/336
f 340/340/340 337/337/337 339/339/339
f 342/342/342 344/344/344 343/343/343
f 354/354/354 355/355/355 375/375/375
f 355/355/355 373/373/373 374/374/374
f 375/375/375 355/355/355 374/374/374
f 356/356/356 373/373/373 355/355/355
f 354/354/354 375/375/375 376/376/376
f 352/352/352 377/377/377 378/378/378
f 353/353/353 354/354/354 376/376/376
f 377/377/377 352/352/352 353/353/353
f 377/377/377 353/353/353 376/376/376
f 371/371/371 372/372/372 356/356/356
f 373/373/373 356/356/356 372/372/372
f 370/370/370 371/371/371 357/357/357
f 356/356/356 357/357/357 371/371/371
f 358/358/358 370/370/370 357/357/357
f 369/369/369 358/358/358 359/359/359
f 368/368/368 369/369/369 360/360/360
f 359/359/359 360/360/360 369/369/369
f 360/360/360 361/361/361 368/368/368
f 370/370/370 358/358/358 369/369/369
f 378/378/378 351/351/351 352/352/352
f 351/351/351 378/378/378 350/350/350
f 350/350/350 378/378/378 379/379/379
f 350/350/350 379/379/379 349/349/349
f 380/380/380 349/349/349 379/379/379
f 381/381/381 349/349/349 380/380/380
f 383/383/383 384/384/384 345/345/345
f 345/345/345 382/382/382 383/383/383
f 348/348/348 349/349/349 381/381/381
f 382/382/382 345/345/345 348/348/348
f 382/382/382 348/348/348 381/381/381
f 366/366/366 362/362/362 363/363/363
f 361/361/361 362/362/362 367/367/367
f 366/366/366 367/367/367 362/362/362
f 368/368/368 361/361/361 367/367/367
f 366/366/366 363/363/363 365/365/365
f 346/346/346 347/347/347 348/348/348
f 363/363/363 364/364/364 365/365/365
f 346/346/346 348/348/348 345/345/345
f 394/394/394 415/415/415 395/395/395
f 395/395/395 414/414/414 413/413/413
f 415/415/415 414/414/414 395/395/395
f 396/396/396 395/395/395 413/413/413
f 394/394/394 416/416/416 415/415/415
f 392/392/392 418/418/418 417/417/417
f 393/393/393 416/416/416 394/394/394
f 417/417/417 393/393/393 392/392/392
f 417/417/417 416/416/416 393/393/393
f 411/411/411 396/396/396 412/412/412
f 413/413/413 412/412/412 396/396/396
f 410/410/410 397/397/397 411/411/411
f 396/396/396 411/411/411 397/397/397
f 398/398/398 397/397/397 410/410/410
f 409/409/409 399/399/399 398/398/398
f 408/408/408 400/400/400 409/409/409
f 399/399/399 409/409/409 400/400/400
f 400/400/400 408/408/408 401/401/401
f 410/410/410 409/409/409 398/398/398
f 418/418/418 392/392/392 391/391/391
f 391/391/391 390/390/390 418/418/418
f 390/390/390 419/419/419 418/418/418
f 390/390/390 389/389/389 419/419/419
f 420/420/420 419/419/419 389/389/389
f 421/421/421 420/420/420 389/389/389
f 423/423/423 385/385/385 424/424/424
f 385/385/385 423/423/423 422/422/422
f 388/388/388 421/421/421 389/389/389
f 422/422/422 388/388/388 385/385/385
f 422/422/422 421/421/421 388/388/388
f 406/406/406 403/403/403 402/402/402
f 401/401/401 407/407/407 402/402/402
f 406/406/406 402/402/402 407/407/407
f 408/408/408 407/407/407 401/401/401
f 406/406/406 405/405/405 403/403/403
f 386/386/386 388/388/388 387/387/387
f 403/403/403 405/405/405 404/404/404
f 386/386/386 385/385/385 388/388/388
f 426/426/426 428/428/428 427/427/427
f 430/430/430 432/432/432 431/431/431
f 434/434/434 436/436/436 435/435/435
f 437/437/437 435/435/435 436/436/436
f 441/441/441 439/439/439 445/445/445
f 442/442/442 445/445/445 440/440/440
f 443/443/443 441/441/441 442/442/442
f 445/445/445 442/442/442 441/441/441
f 453/453/453 448/448/448 446/446/446
f 453/453/453 447/447/447 449/449/449
f 449/449/449 448/448/448 453/453/453
f 449/449/449 452/452/452 448/448/448
f 452/452/452 449/449/449 451/451/451
f 455/455/455 457/457/457 456/456/456
f 457/457/457 460/460/460 456/456/456
f 460/460/460 457/457/457 459/459/459
f 462/462/462 464/464/464 463/463/463
f 466/466/466 468/468/468 467/467/467
f 470/470/470 472/472/472 471/471/471
f 473/473/473 471/471/471 472/472/472
f 477/477/477 475/475/475 481/481/481
f 478/478/478 481/481/481 476/476/476
f 479/479/479 477/477/477 478/478/478
f 481/481/481 478/478/478 477/477/477
f 489/489/489 484/484/484 482/482/482
f 489/489/489 483/483/483 485/485/485
f 485/485/485 484/484/484 489/489/489
f 485/485/485 488/488/488 484/484/484
f 488/488/488 485/485/485 487/487/487
f 491/491/491 494/494/494 490/490/490
f 491/491/491 493/493/493 494/494/494
f 496/496/496 498/498/498 497/497/497
f 500/500/500 502/502/502 501/501/501
f 504/504/504 506/506/506 505/505/505
f 507/507/507 505/505/505 506/506/506
f 510/510/510 512/512/512 511/511/511
f 513/513/513 511/511/511 512/512/512
f 516/516/516 518/518/518 517/517/517
f 519/519/519 517/517/517 518/518/518
f 522/522/522 524/524/524 523/523/523
f 525/525/525 523/523/523 524/524/524
f 528/528/528 530/530/530 529/529/529
f 531/531/531 529/529/529 530/530/530
f 534/534/534 536/536/536 535/535/535
f 537/537/537 535/535/535 536/536/536
f 541/541/541 539/539/539 543/543/543
f 540/540/540 542/542/542 543/543/543
f 541/541/541 543/543/543 542/542/542
f 549/549/549 548/548/548 546/546/546
f 545/545/545 547/547/547 548/548/548
f 557/557/557 552/552/552 550/550/550
f 557/557/557 551/551/551 553/553/553
f 553/553/553 552/552/552 557/557/557
f 552/552/552 553/553/553 556/556/556
f 556/556/556 553/553/553 555/555/555
f 554/554/554 552/552/552 556/556/556
f 559/559/559 561/561/561 560/560/560
f 560/560/560 561/561/561 564/564/564
f 564/564/564 561/561/561 563/563/563
f 562/562/562 560/560/560 564/564/564
f 566/566/566 568/568/568 567/567/567
f 578/578/578 579/579/579 599/599/599
f 579/579/579 597/597/597 598/598/598
f 599/599/599 579/579/579 598/598/598
f 580/580/580 597/597/597 579/579/579
f 578/578/578 599/599/599 600/600/600
f 576/576/576 601/601/601 602/602/602
f 577/577/577 578/578/578 600/600/600
f 601/601/601 576/576/576 577/577/577
f 601/601/601 577/577/577 600/600/600
f 595/595/595 596/596/596 580/580/580
f 597/597/597 580/580/580 596/596/596
f 594/594/594 595/595/595 581/581/581
f 580/580/580 581/581/581 595/595/595
f 582/582/582 594/594/594 581/581/581
f 593/593/593 582/582/582 583/583/583
f 592/592/592 593/593/593 584/584/584
f 583/583/583 584/584/584 593/593/593
f 584/584/584 585/585/585 592/592/592
f 594/594/594 582/582/582 593/593/593
f 602/602/602 575/575/575 576/576/576
f 575/575/575 602/602/602 574/574/574
f 574/574/574 602/602/602 603/603/603
f 574/574/574 603/603/603 573/573/573
f 604/604/604 573/573/573 603/603/603
f 605/605/605 573/573/573 604/604/604
f 607/607/607 608/608/608 569/569/569
f 569/569/569 606/606/606 607/607/607
f 572/572/572 573/573/573 605/605/605
f 606/606/606 569/569/569 572/572/572
f 606/606/606 572/572/572 605/605/605
f 590/590/590 586/586/586 587/587/587
f 585/585/585 586/586/586 591/591/591
f 590/590/590 591/591/591 586/586/586
f 592/592/592 585/585/585 591/591/591
f 590/590/590 587/587/587 589/589/589
f 570/570/570 571/571/571 572/572/572
f 587/587/587 588/588/588 589/589/589
f 570/570/570 572/572/572 569/569/569
f 2/2/2 3/3/3 4/4/4
f 6/6/6 7/7/7 8/8/8
f 10/10/10 11/11/11 12/12/12
f 14/14/14 15/15/15 16/16/16
f 18/18/18 19/19/19 20/20/20
f 22/22/22 23/23/23 21/21/21
f 74/74/74 75/75/75 76/76/76
f 78/78/78 79/79/79 80/80/80
f 82/82/82 83/83/83 84/84/84
f 86/86/86 87/87/87 88/88/88
f 90/90/90 91/91/91 89/89/89
f 93/93/93 96/96/96 94/94/94
f 97/97/97 100/100/100 98/98/98
f 101/101/101 104/104/104 102/102/102
f 105/105/105 108/108/108 106/106/106
f 118/118/118 119/119/119 120/120/120
f 122/122/122 123/123/123 124/124/124
f 126/126/126 127/127/127 128/128/128
f 130/130/130 131/131/131 132/132/132
f 134/134/134 135/135/135 133/133/133
f 137/137/137 140/140/140 138/138/138
f 141/141/141 144/144/144 142/142/142
f 145/145/145 148/148/148 146/146/146
f 149/149/149 152/152/152 150/150/150
f 202/202/202 203/203/203 201/201/201
f 206/206/206 207/207/207 205/205/205
f 210/210/210 211/211/211 209/209/209
f 213/213/213 212/212/212 214/214/214
f 219/219/219 218/218/218 220/220/220
f 231/231/231 232/232/232 230/230/230
f 236/236/236 234/234/234 232/232/232
f 238/238/238 239/239/239 237/237/237
f 242/242/242 243/243/243 241/241/241
f 246/246/246 247/247/247 245/245/245
f 249/249/249 248/248/248 250/250/250
f 255/255/255 254/254/254 256/256/256
f 264/264/264 262/262/262 260/260/260
f 270/270/270 268/268/268 266/266/266
f 272/272/272 273/273/273 271/271/271
f 276/276/276 277/277/277 275/275/275
f 280/280/280 281/281/281 279/279/279
f 283/283/283 282/282/282 284/284/284
f 286/286/286 287/287/287 285/285/285
f 289/289/289 288/288/288 290/290/290
f 292/292/292 293/293/293 291/291/291
f 295/295/295 294/294/294 296/296/296
f 298/298/298 299/299/299 297/297/297
f 301/301/301 300/300/300 302/302/302
f 304/304/304 305/305/305 303/303/303
f 307/307/307 306/306/306 308/308/308
f 310/310/310 311/311/311 309/309/309
f 313/313/313 312/312/312 314/314/314
f 325/325/325 322/322/322 320/320/320
f 321/321/321 324/324/324 325/325/325
f 335/335/335 336/336/336 334/334/334
f 340/340/340 338/338/338 336/336/336
f 342/342/342 343/343/343 341/341/341
f 426/426/426 427/427/427 425/425/425
f 430/430/430 431/431/431 429/429/429
f 434/434/434 435/435/435 433/433/433
f 437/437/437 436/436/436 438/438/438
f 443/443/443 442/442/442 444/444/444
f 452/452/452 450/450/450 448/448/448
f 455/455/455 456/456/456 454/454/454
f 460/460/460 458/458/458 456/456/456
f 462/462/462 463/463/463 461/461/461
f 466/466/466 467/467/467 465/465/465
f 470/470/470 471/471/471 469/469/469
f 473/473/473 472/472/472 474/474/474
f 479/479/479 478/478/478 480/480/480
f 488/488/488 486/486/486 484/484/484
f 494/494/494 492/492/492 490/490/490
f 496/496/496 497/497/497 495/495/495
f 500/500/500 501/501/501 499/499/499
f 504/504/504 505/505/505 503/503/503
f 507/507/507 506/506/506 508/508/508
f 510/510/510 511/511/511 509/509/509
f 513/513/513 512/512/512 514/514/514
f 516/516/516 517/517/517 515/515/515
f 519/519/519 518/518/518 520/520/520
f 522/522/522 523/523/523 521/521/521
f 525/525/525 524/524/524 526/526/526
f 528/528/528 529/529/529 527/527/527
f 531/531/531 530/530/530 532/532/532
f 534/534/534 535/535/535 533/533/533
f 537/537/537 536/536/536 538/538/538
f 549/549/549 546/546/546 544/544/544
f 545/545/545 548/548/548 549/549/549
f 559/559/559 560/560/560 558/558/558
f 566/566/566 567/567/567 565/565/565

