g mesh_slab_section_AA0
v 0.010000 3.250000 4.000000
v 0.010000 3.250000 2.990000
v -9.010000 3.250000 4.010000
v -9.010000 3.250000 3.000000
v -9.010000 3.250000 4.010000
v -9.010000 2.990000 4.010000
v 0.010000 3.250000 4.000000
v 0.010000 2.990000 4.000000
v -9.010000 3.250000 3.000000
v -9.010000 2.990000 3.000000
v -9.010000 3.250000 4.010000
v -9.010000 2.990000 4.010000
v 0.010000 3.250000 2.990000
v 0.010000 2.990000 2.990000
v -9.010000 3.250000 3.000000
v -9.010000 2.990000 3.000000
v 0.010000 3.250000 4.000000
v 0.010000 2.990000 4.000000
v 0.010000 3.250000 2.990000
v 0.010000 2.990000 2.990000
v 0.010000 2.990000 4.000000
v 0.010000 2.990000 2.990000
v -9.010000 2.990000 4.010000
v -9.010000 2.990000 3.000000
v 0.260000 3.230000 3.480000
v 0.740000 3.230000 3.480000
v 0.260000 3.250000 3.480000
v 0.740000 3.250000 3.480000
v 0.260000 3.250000 3.480000
v 0.740000 3.250000 3.480000
v 0.260000 3.250000 3.500000
v 0.740000 3.250000 3.500000
v 0.260000 3.250000 3.500000
v 0.740000 3.250000 3.500000
v 0.260000 3.230000 3.500000
v 0.740000 3.230000 3.500000
v 0.260000 3.230000 3.500000
v 0.740000 3.230000 3.500000
v 0.260000 3.230000 3.480000
v 0.740000 3.230000 3.480000
v 0.260000 3.230000 3.500000
v 0.260000 3.250000 3.500000
v 0.260000 3.230000 3.480000
v 0.260000 3.250000 3.480000
v 0.760000 3.230000 3.000000
v 0.760000 3.230000 3.500000
v 0.760000 3.250000 3.000000
v 0.760000 3.250000 3.500000
v 0.760000 3.250000 3.000000
v 0.760000 3.250000 3.500000
v 0.740000 3.250000 3.000000
v 0.740000 3.250000 3.500000
v 0.740000 3.250000 3.000000
v 0.740000 3.250000 3.500000
v 0.740000 3.230000 3.000000
v 0.740000 3.230000 3.500000
v 0.740000 3.230000 3.000000
v 0.740000 3.230000 3.500000
v 0.760000 3.230000 3.000000
v 0.760000 3.230000 3.500000
v 0.760000 3.230000 3.000000
v 0.760000 3.250000 3.000000
v 0.740000 3.250000 3.000000
v 0.740000 3.230000 3.000000
v 0.760000 3.230000 3.500000
v 0.760000 3.250000 3.500000
v 0.740000 3.250000 3.500000
v 0.740000 3.230000 3.500000
v -9.740000 3.230000 3.010000
v -9.740000 3.230000 3.490000
v -9.740000 3.250000 3.010000
v -9.740000 3.250000 3.490000
v -9.740000 3.250000 3.010000
v -9.740000 3.250000 3.490000
v -9.760000 3.250000 3.010000
v -9.760000 3.250000 3.490000
v -9.760000 3.250000 3.010000
v -9.760000 3.250000 3.490000
v -9.760000 3.230000 3.010000
v -9.760000 3.230000 3.490000
v -9.760000 3.230000 3.010000
v -9.760000 3.230000 3.490000
v -9.740000 3.230000 3.010000
v -9.740000 3.230000 3.490000
v -9.760000 3.230000 3.010000
v -9.760000 3.250000 3.010000
v -9.740000 3.230000 3.010000
v -9.740000 3.250000 3.010000
v -9.260000 3.230000 3.510000
v -9.760000 3.230000 3.510000
v -9.260000 3.250000 3.510000
v -9.760000 3.250000 3.510000
v -9.260000 3.250000 3.510000
v -9.760000 3.250000 3.510000
v -9.260000 3.250000 3.490000
v -9.760000 3.250000 3.490000
v -9.260000 3.250000 3.490000
v -9.760000 3.250000 3.490000
v -9.260000 3.230000 3.490000
v -9.760000 3.230000 3.490000
v -9.260000 3.230000 3.490000
v -9.760000 3.230000 3.490000
v -9.260000 3.230000 3.510000
v -9.760000 3.230000 3.510000
v -9.260000 3.230000 3.510000
v -9.260000 3.250000 3.510000
v -9.260000 3.250000 3.490000
v -9.260000 3.230000 3.490000
v -9.760000 3.230000 3.510000
v -9.760000 3.250000 3.510000
v -9.760000 3.250000 3.490000
v -9.760000 3.230000 3.490000
v -9.289270 3.256056 3.037107
v -9.586805 3.256056 3.037107
v -9.479770 3.256056 3.130662
v -9.371115 3.256056 3.130662
v -9.352350 3.256056 3.086707
v -9.347749 3.256056 3.074641
v -9.345295 3.256056 3.062297
v -9.346972 3.256056 3.056024
v -9.351430 3.256056 3.051007
v -9.364165 3.256056 3.046386
v -9.377750 3.256056 3.044727
v -9.377750 3.256056 3.037107
v -9.289270 3.256056 3.044727
v -9.301329 3.256056 3.047485
v -9.311990 3.256056 3.052772
v -9.335345 3.256056 3.093127
v -9.434051 3.256056 3.324127
v -9.441035 3.256056 3.324127
v -9.538615 3.256056 3.090657
v -9.559995 3.256056 3.054112
v -9.572592 3.256056 3.047226
v -9.586805 3.256056 3.044727
v -9.476175 3.256056 3.037107
v -9.476175 3.256056 3.044727
v -9.488066 3.256056 3.046067
v -9.498825 3.256056 3.050302
v -9.503210 3.256056 3.055546
v -9.504680 3.256056 3.061942
v -9.496425 3.256056 3.090727
v -9.473495 3.256056 3.145902
v -9.426220 3.256056 3.259147
v -9.377680 3.256056 3.145902
v -9.371115 3.256056 3.130662
v -9.371115 3.236056 3.130662
v -9.479770 3.256056 3.130662
v -9.479770 3.236056 3.130662
v -9.352350 3.256056 3.086707
v -9.352350 3.236056 3.086707
v -9.371115 3.256056 3.130662
v -9.371115 3.236056 3.130662
v -9.345295 3.256056 3.062297
v -9.345295 3.236056 3.062297
v -9.347749 3.256056 3.074641
v -9.347749 3.236056 3.074641
v -9.352350 3.256056 3.086707
v -9.352350 3.236056 3.086707
v -9.345295 3.246056 3.062297
v -9.351430 3.256056 3.051007
v -9.351430 3.236056 3.051007
v -9.346972 3.256056 3.056024
v -9.346972 3.236056 3.056024
v -9.345295 3.256056 3.062297
v -9.345295 3.236056 3.062297
v -9.345295 3.246056 3.062297
v -9.351430 3.246056 3.051007
v -9.377750 3.256056 3.044727
v -9.377750 3.236056 3.044727
v -9.364165 3.256056 3.046386
v -9.364165 3.236056 3.046386
v -9.351430 3.256056 3.051007
v -9.351430 3.236056 3.051007
v -9.351430 3.246056 3.051007
v -9.377750 3.256056 3.037107
v -9.377750 3.236056 3.037107
v -9.377750 3.256056 3.044727
v -9.377750 3.236056 3.044727
v -9.289270 3.256056 3.037107
v -9.289270 3.236056 3.037107
v -9.377750 3.256056 3.037107
v -9.377750 3.236056 3.037107
v -9.289270 3.256056 3.044727
v -9.289270 3.236056 3.044727
v -9.289270 3.256056 3.037107
v -9.289270 3.236056 3.037107
v -9.311990 3.256056 3.052772
v -9.311990 3.236056 3.052772
v -9.301329 3.256056 3.047485
v -9.301329 3.236056 3.047485
v -9.289270 3.256056 3.044727
v -9.289270 3.236056 3.044727
v -9.311990 3.246056 3.052772
v -9.335345 3.256056 3.093127
v -9.335345 3.236056 3.093127
v -9.311990 3.256056 3.052772
v -9.311990 3.236056 3.052772
v -9.311990 3.246056 3.052772
v -9.434051 3.256056 3.324127
v -9.434051 3.236056 3.324127
v -9.335345 3.256056 3.093127
v -9.335345 3.236056 3.093127
v -9.441035 3.256056 3.324127
v -9.441035 3.236056 3.324127
v -9.434051 3.256056 3.324127
v -9.434051 3.236056 3.324127
v -9.538615 3.256056 3.090657
v -9.538615 3.236056 3.090657
v -9.441035 3.256056 3.324127
v -9.441035 3.236056 3.324127
v -9.559995 3.256056 3.054112
v -9.559995 3.236056 3.054112
v -9.538615 3.256056 3.090657
v -9.538615 3.236056 3.090657
v -9.559995 3.246056 3.054112
v -9.586805 3.256056 3.044727
v -9.586805 3.236056 3.044727
v -9.572592 3.256056 3.047226
v -9.572592 3.236056 3.047226
v -9.559995 3.256056 3.054112
v -9.559995 3.236056 3.054112
v -9.559995 3.246056 3.054112
v -9.586805 3.256056 3.037107
v -9.586805 3.236056 3.037107
v -9.586805 3.256056 3.044727
v -9.586805 3.236056 3.044727
v -9.476175 3.256056 3.037107
v -9.476175 3.236056 3.037107
v -9.586805 3.256056 3.037107
v -9.586805 3.236056 3.037107
v -9.476175 3.256056 3.044727
v -9.476175 3.236056 3.044727
v -9.476175 3.256056 3.037107
v -9.476175 3.236056 3.037107
v -9.498825 3.256056 3.050302
v -9.498825 3.236056 3.050302
v -9.488066 3.256056 3.046067
v -9.488066 3.236056 3.046067
v -9.476175 3.256056 3.044727
v -9.476175 3.236056 3.044727
v -9.498825 3.246056 3.050302
v -9.504680 3.256056 3.061942
v -9.504680 3.236056 3.061942
v -9.503210 3.256056 3.055546
v -9.503210 3.236056 3.055546
v -9.498825 3.256056 3.050302
v -9.498825 3.236056 3.050302
v -9.498825 3.246056 3.050302
v -9.504680 3.246056 3.061942
v -9.496425 3.256056 3.090727
v -9.496425 3.236056 3.090727
v -9.504680 3.256056 3.061942
v -9.504680 3.236056 3.061942
v -9.504680 3.246056 3.061942
v -9.479770 3.256056 3.130662
v -9.479770 3.236056 3.130662
v -9.496425 3.256056 3.090727
v -9.496425 3.236056 3.090727
v -9.426220 3.256056 3.259147
v -9.426220 3.236056 3.259147
v -9.473495 3.256056 3.145902
v -9.473495 3.236056 3.145902
v -9.377680 3.256056 3.145902
v -9.377680 3.236056 3.145902
v -9.426220 3.256056 3.259147
v -9.426220 3.236056 3.259147
v -9.473495 3.256056 3.145902
v -9.473495 3.236056 3.145902
v -9.377680 3.256056 3.145902
v -9.377680 3.236056 3.145902
v -9.289270 3.236056 3.037107
v -9.586805 3.236056 3.037107
v -9.479770 3.236056 3.130662
v -9.371115 3.236056 3.130662
v -9.352350 3.236056 3.086707
v -9.347749 3.236056 3.074641
v -9.345295 3.236056 3.062297
v -9.346972 3.236056 3.056024
v -9.351430 3.236056 3.051007
v -9.364165 3.236056 3.046386
v -9.377750 3.236056 3.044727
v -9.377750 3.236056 3.037107
v -9.289270 3.236056 3.044727
v -9.301329 3.236056 3.047485
v -9.311990 3.236056 3.052772
v -9.335345 3.236056 3.093127
v -9.434051 3.236056 3.324127
v -9.441035 3.236056 3.324127
v -9.538615 3.236056 3.090657
v -9.559995 3.236056 3.054112
v -9.572592 3.236056 3.047226
v -9.586805 3.236056 3.044727
v -9.476175 3.236056 3.037107
v -9.476175 3.236056 3.044727
v -9.488066 3.236056 3.046067
v -9.498825 3.236056 3.050302
v -9.503210 3.236056 3.055546
v -9.504680 3.236056 3.061942
v -9.496425 3.236056 3.090727
v -9.473495 3.236056 3.145902
v -9.426220 3.236056 3.259147
v -9.377680 3.236056 3.145902
v 0.605296 3.256056 3.037107
v 0.307761 3.256056 3.037107
v 0.414796 3.256056 3.130662
v 0.523451 3.256056 3.130662
v 0.542216 3.256056 3.086707
v 0.546817 3.256056 3.074641
v 0.549271 3.256056 3.062297
v 0.547595 3.256056 3.056024
v 0.543136 3.256056 3.051007
v 0.530401 3.256056 3.046386
v 0.516816 3.256056 3.044727
v 0.516816 3.256056 3.037107
v 0.605296 3.256056 3.044727
v 0.593238 3.256056 3.047485
v 0.582576 3.256056 3.052772
v 0.559221 3.256056 3.093127
v 0.460516 3.256056 3.324127
v 0.453531 3.256056 3.324127
v 0.355951 3.256056 3.090657
v 0.334571 3.256056 3.054112
v 0.321974 3.256056 3.047226
v 0.307761 3.256056 3.044727
v 0.418391 3.256056 3.037107
v 0.418391 3.256056 3.044727
v 0.406501 3.256056 3.046067
v 0.395741 3.256056 3.050302
v 0.391356 3.256056 3.055546
v 0.389886 3.256056 3.061942
v 0.398141 3.256056 3.090727
v 0.421071 3.256056 3.145902
v 0.468346 3.256056 3.259147
v 0.516886 3.256056 3.145902
v 0.523451 3.256056 3.130662
v 0.523451 3.236056 3.130662
v 0.414796 3.256056 3.130662
v 0.414796 3.236056 3.130662
v 0.542216 3.256056 3.086707
v 0.542216 3.236056 3.086707
v 0.523451 3.256056 3.130662
v 0.523451 3.236056 3.130662
v 0.549271 3.256056 3.062297
v 0.549271 3.236056 3.062297
v 0.546817 3.256056 3.074641
v 0.546817 3.236056 3.074641
v 0.542216 3.256056 3.086707
v 0.542216 3.236056 3.086707
v 0.549271 3.246056 3.062297
v 0.543136 3.256056 3.051007
v 0.543136 3.236056 3.051007
v 0.547595 3.256056 3.056024
v 0.547595 3.236056 3.056024
v 0.549271 3.256056 3.062297
v 0.549271 3.236056 3.062297
v 0.549271 3.246056 3.062297
v 0.543136 3.246056 3.051007
v 0.516816 3.256056 3.044727
v 0.516816 3.236056 3.044727
v 0.530401 3.256056 3.046386
v 0.530401 3.236056 3.046386
v 0.543136 3.256056 3.051007
v 0.543136 3.236056 3.051007
v 0.543136 3.246056 3.051007
v 0.516816 3.256056 3.037107
v 0.516816 3.236056 3.037107
v 0.516816 3.256056 3.044727
v 0.516816 3.236056 3.044727
v 0.605296 3.256056 3.037107
v 0.605296 3.236056 3.037107
v 0.516816 3.256056 3.037107
v 0.516816 3.236056 3.037107
v 0.605296 3.256056 3.044727
v 0.605296 3.236056 3.044727
v 0.605296 3.256056 3.037107
v 0.605296 3.236056 3.037107
v 0.582576 3.256056 3.052772
v 0.582576 3.236056 3.052772
v 0.593238 3.256056 3.047485
v 0.593238 3.236056 3.047485
v 0.605296 3.256056 3.044727
v 0.605296 3.236056 3.044727
v 0.582576 3.246056 3.052772
v 0.559221 3.256056 3.093127
v 0.559221 3.236056 3.093127
v 0.582576 3.256056 3.052772
v 0.582576 3.236056 3.052772
v 0.582576 3.246056 3.052772
v 0.460516 3.256056 3.324127
v 0.460516 3.236056 3.324127
v 0.559221 3.256056 3.093127
v 0.559221 3.236056 3.093127
v 0.453531 3.256056 3.324127
v 0.453531 3.236056 3.324127
v 0.460516 3.256056 3.324127
v 0.460516 3.236056 3.324127
v 0.355951 3.256056 3.090657
v 0.355951 3.236056 3.090657
v 0.453531 3.256056 3.324127
v 0.453531 3.236056 3.324127
v 0.334571 3.256056 3.054112
v 0.334571 3.236056 3.054112
v 0.355951 3.256056 3.090657
v 0.355951 3.236056 3.090657
v 0.334571 3.246056 3.054112
v 0.307761 3.256056 3.044727
v 0.307761 3.236056 3.044727
v 0.321974 3.256056 3.047226
v 0.321974 3.236056 3.047226
v 0.334571 3.256056 3.054112
v 0.334571 3.236056 3.054112
v 0.334571 3.246056 3.054112
v 0.307761 3.256056 3.037107
v 0.307761 3.236056 3.037107
v 0.307761 3.256056 3.044727
v 0.307761 3.236056 3.044727
v 0.418391 3.256056 3.037107
v 0.418391 3.236056 3.037107
v 0.307761 3.256056 3.037107
v 0.307761 3.236056 3.037107
v 0.418391 3.256056 3.044727
v 0.418391 3.236056 3.044727
v 0.418391 3.256056 3.037107
v 0.418391 3.236056 3.037107
v 0.395741 3.256056 3.050302
v 0.395741 3.236056 3.050302
v 0.406501 3.256056 3.046067
v 0.406501 3.236056 3.046067
v 0.418391 3.256056 3.044727
v 0.418391 3.236056 3.044727
v 0.395741 3.246056 3.050302
v 0.389886 3.256056 3.061942
v 0.389886 3.236056 3.061942
v 0.391356 3.256056 3.055546
v 0.391356 3.236056 3.055546
v 0.395741 3.256056 3.050302
v 0.395741 3.236056 3.050302
v 0.395741 3.246056 3.050302
v 0.389886 3.246056 3.061942
v 0.398141 3.256056 3.090727
v 0.398141 3.236056 3.090727
v 0.389886 3.256056 3.061942
v 0.389886 3.236056 3.061942
v 0.389886 3.246056 3.061942
v 0.414796 3.256056 3.130662
v 0.414796 3.236056 3.130662
v 0.398141 3.256056 3.090727
v 0.398141 3.236056 3.090727
v 0.468346 3.256056 3.259147
v 0.468346 3.236056 3.259147
v 0.421071 3.256056 3.145902
v 0.421071 3.236056 3.145902
v 0.516886 3.256056 3.145902
v 0.516886 3.236056 3.145902
v 0.468346 3.256056 3.259147
v 0.468346 3.236056 3.259147
v 0.421071 3.256056 3.145902
v 0.421071 3.236056 3.145902
v 0.516886 3.256056 3.145902
v 0.516886 3.236056 3.145902
v 0.605296 3.236056 3.037107
v 0.307761 3.236056 3.037107
v 0.414796 3.236056 3.130662
v 0.523451 3.236056 3.130662
v 0.542216 3.236056 3.086707
v 0.546817 3.236056 3.074641
v 0.549271 3.236056 3.062297
v 0.547595 3.236056 3.056024
v 0.543136 3.236056 3.051007
v 0.530401 3.236056 3.046386
v 0.516816 3.236056 3.044727
v 0.516816 3.236056 3.037107
v 0.605296 3.236056 3.044727
v 0.593238 3.236056 3.047485
v 0.582576 3.236056 3.052772
v 0.559221 3.236056 3.093127
v 0.460516 3.236056 3.324127
v 0.453531 3.236056 3.324127
v 0.355951 3.236056 3.090657
v 0.334571 3.236056 3.054112
v 0.321974 3.236056 3.047226
v 0.307761 3.236056 3.044727
v 0.418391 3.236056 3.037107
v 0.418391 3.236056 3.044727
v 0.406501 3.236056 3.046067
v 0.395741 3.236056 3.050302
v 0.391356 3.236056 3.055546
v 0.389886 3.236056 3.061942
v 0.398141 3.236056 3.090727
v 0.421071 3.236056 3.145902
v 0.468346 3.236056 3.259147
v 0.516886 3.236056 3.145902
vt 0.054507 0.569529
vt 0.054507 0.675399
vt 0.998535 0.569529
vt 0.998535 0.675399
vt 0.053042 0.000000
vt 0.027254 0.000000
vt 0.053042 0.944028
vt 0.027254 0.944028
vt 0.054507 0.096783
vt 0.054507 0.124036
vt 0.160377 0.096783
vt 0.160377 0.124036
vt 0.025789 0.000000
vt 0.000000 0.000000
vt 0.025789 0.944028
vt 0.000000 0.944028
vt 0.054507 0.000000
vt 0.054507 0.027254
vt 0.160377 0.000000
vt 0.160377 0.027254
vt 0.054507 0.193565
vt 0.054507 0.299435
vt 0.998535 0.193565
vt 0.998535 0.299435
vt 0.998535 0.720000
vt 0.040000 0.720000
vt 0.998535 0.760000
vt 0.040000 0.760000
vt 0.998535 0.480000
vt 0.040000 0.480000
vt 0.998535 0.520000
vt 0.040000 0.520000
vt 0.998535 0.240000
vt 0.040000 0.240000
vt 0.998535 0.280000
vt 0.040000 0.280000
vt 0.000000 0.000000
vt 0.000000 0.958535
vt 0.038535 0.000000
vt 0.038535 0.958535
vt 0.080000 0.000000
vt 0.040000 0.000000
vt 0.080000 0.040000
vt 0.040000 0.040000
vt 0.000000 0.000000
vt 0.000000 1.000000
vt 0.208333 0.000000
vt 0.208333 1.000000
vt 0.208333 0.000000
vt 0.208333 1.000000
vt 0.416666 0.000000
vt 0.416666 1.000000
vt 0.416666 0.000000
vt 0.416666 1.000000
vt 0.624999 0.000000
vt 0.624999 1.000000
vt 0.624999 0.000000
vt 0.624999 1.000000
vt 0.833333 0.000000
vt 0.833333 1.000000
vt 1.000000 0.040000
vt 1.000000 0.000000
vt 0.833333 0.000000
vt 0.833333 0.040000
vt 1.000000 0.960000
vt 1.000000 1.000000
vt 0.833333 1.000000
vt 0.833333 0.960000
vt 0.998535 0.720000
vt 0.040000 0.720000
vt 0.998535 0.760000
vt 0.040000 0.760000
vt 0.000000 0.000000
vt 0.000000 0.958535
vt 0.038535 0.000000
vt 0.038535 0.958535
vt 0.998535 0.480000
vt 0.040000 0.480000
vt 0.998535 0.520000
vt 0.040000 0.520000
vt 0.998535 0.240000
vt 0.040000 0.240000
vt 0.998535 0.280000
vt 0.040000 0.280000
vt 0.080000 0.000000
vt 0.040000 0.000000
vt 0.080000 0.040000
vt 0.040000 0.040000
vt 0.000000 0.000000
vt 0.000000 1.000000
vt 0.208333 0.000000
vt 0.208333 1.000000
vt 0.208333 0.000000
vt 0.208333 1.000000
vt 0.416666 0.000000
vt 0.416666 1.000000
vt 0.416666 0.000000
vt 0.416666 1.000000
vt 0.624999 0.000000
vt 0.624999 1.000000
vt 0.624999 0.000000
vt 0.624999 1.000000
vt 0.833333 0.000000
vt 0.833333 1.000000
vt 1.000000 0.040000
vt 1.000000 0.000000
vt 0.833333 0.000000
vt 0.833333 0.040000
vt 1.000000 0.960000
vt 1.000000 1.000000
vt 0.833333 1.000000
vt 0.833333 0.960000
vt 0.000000 0.000000
vt 0.000000 0.508994
vt 0.159567 0.325889
vt 0.159567 0.140013
vt 0.084598 0.107911
vt 0.064017 0.100040
vt 0.042964 0.095842
vt 0.032265 0.098710
vt 0.023708 0.106337
vt 0.015826 0.128123
vt 0.012997 0.151363
vt 0.000000 0.151363
vt 0.012997 0.000000
vt 0.017700 0.020628
vt 0.026718 0.038867
vt 0.095548 0.078821
vt 0.489541 0.247676
vt 0.489541 0.259625
vt 0.091335 0.426555
vt 0.029004 0.463130
vt 0.017259 0.484679
vt 0.012997 0.508994
vt 0.000000 0.319739
vt 0.012997 0.319739
vt 0.015281 0.340080
vt 0.022505 0.358486
vt 0.031449 0.365987
vt 0.042359 0.368503
vt 0.091454 0.354381
vt 0.185561 0.315154
vt 0.378711 0.234281
vt 0.185561 0.151243
vt 0.630082 0.278360
vt 0.630082 0.312233
vt 0.815959 0.278360
vt 0.815959 0.312233
vt 0.525220 0.000000
vt 0.491006 0.000000
vt 0.525220 0.081760
vt 0.491006 0.081760
vt 0.572088 0.104966
vt 0.572088 0.139180
vt 0.597768 0.104966
vt 0.597768 0.139180
vt 0.615797 0.104966
vt 0.615797 0.139180
vt 0.572088 0.122073
vt 0.790967 0.129699
vt 0.756753 0.129699
vt 0.790967 0.140575
vt 0.756753 0.140575
vt 0.790967 0.152488
vt 0.756753 0.152488
vt 0.773860 0.152488
vt 0.773860 0.129699
vt 0.630082 0.349035
vt 0.630082 0.382908
vt 0.648256 0.349035
vt 0.648256 0.382908
vt 0.676878 0.349035
vt 0.676878 0.382908
vt 0.676878 0.365971
vt 0.790967 0.083804
vt 0.756753 0.083804
vt 0.790967 0.096840
vt 0.756753 0.096840
vt 0.715858 0.349035
vt 0.715858 0.382908
vt 0.867221 0.349035
vt 0.867221 0.382908
vt 0.877514 0.000000
vt 0.877514 0.034214
vt 0.890550 0.000000
vt 0.890550 0.034214
vt 0.572088 0.000000
vt 0.572088 0.034214
vt 0.597118 0.000000
vt 0.597118 0.034214
vt 0.613790 0.000000
vt 0.613790 0.034214
vt 0.572088 0.017107
vt 0.491006 0.385496
vt 0.491006 0.418246
vt 0.571234 0.385496
vt 0.571234 0.418246
vt 0.571234 0.401871
vt 0.491006 0.209932
vt 0.491006 0.242681
vt 0.920742 0.209932
vt 0.920742 0.242681
vt 0.756753 0.000000
vt 0.756753 0.034214
vt 0.768703 0.000000
vt 0.768703 0.034214
vt 0.491006 0.244146
vt 0.491006 0.276895
vt 0.923885 0.244146
vt 0.923885 0.276895
vt 0.600565 0.278360
vt 0.566351 0.278360
vt 0.600565 0.349817
vt 0.566351 0.349817
vt 0.583458 0.278360
vt 0.630082 0.384373
vt 0.630082 0.418246
vt 0.652819 0.384373
vt 0.652819 0.418246
vt 0.679564 0.384373
vt 0.679564 0.418246
vt 0.679564 0.401309
vt 0.836110 0.000000
vt 0.836110 0.034214
vt 0.849146 0.000000
vt 0.849146 0.034214
vt 0.709885 0.000000
vt 0.675671 0.000000
vt 0.709885 0.189255
vt 0.675671 0.189255
vt 0.794707 0.000000
vt 0.794707 0.034214
vt 0.807742 0.000000
vt 0.807742 0.034214
vt 0.491006 0.307763
vt 0.491006 0.341977
vt 0.514879 0.307763
vt 0.514879 0.341977
vt 0.531454 0.307763
vt 0.531454 0.341977
vt 0.491006 0.324870
vt 0.525220 0.278360
vt 0.491006 0.278360
vt 0.525220 0.290012
vt 0.491006 0.290012
vt 0.525220 0.301476
vt 0.491006 0.301476
vt 0.508113 0.301476
vt 0.508113 0.278360
vt 0.872050 0.083804
vt 0.837835 0.083804
vt 0.872050 0.135297
vt 0.837835 0.135297
vt 0.854943 0.135297
vt 0.491006 0.351282
vt 0.491006 0.384032
vt 0.565026 0.351282
vt 0.565026 0.384032
vt 0.953132 0.000000
vt 0.918918 0.000000
vt 0.953132 0.208467
vt 0.918918 0.208467
vt 0.630082 0.313697
vt 0.630082 0.347570
vt 0.840857 0.313697
vt 0.840857 0.347570
vt 0.715858 0.384373
vt 0.715858 0.418246
vt 0.879769 0.384373
vt 0.879769 0.418246
vt 0.491006 0.909252
vt 0.998535 0.909252
vt 0.815957 0.749684
vt 0.630616 0.749684
vt 0.598607 0.824654
vt 0.590758 0.845235
vt 0.586572 0.866287
vt 0.589432 0.876987
vt 0.597037 0.885544
vt 0.618760 0.893426
vt 0.641933 0.896255
vt 0.641933 0.909252
vt 0.491006 0.896255
vt 0.511574 0.891552
vt 0.529761 0.882533
vt 0.569600 0.813704
vt 0.737969 0.419710
vt 0.749884 0.419710
vt 0.916334 0.817917
vt 0.952803 0.880248
vt 0.974290 0.891993
vt 0.998535 0.896255
vt 0.809825 0.909252
vt 0.809825 0.896255
vt 0.830107 0.893971
vt 0.848461 0.886746
vt 0.855940 0.877803
vt 0.858448 0.866893
vt 0.844367 0.817797
vt 0.805253 0.723691
vt 0.724613 0.530540
vt 0.641814 0.723691
vt 0.000000 0.000000
vt 0.000000 0.508994
vt 0.159567 0.325889
vt 0.159567 0.140013
vt 0.084598 0.107911
vt 0.064017 0.100040
vt 0.042964 0.095842
vt 0.032265 0.098710
vt 0.023708 0.106337
vt 0.015826 0.128123
vt 0.012997 0.151363
vt 0.000000 0.151363
vt 0.012997 0.000000
vt 0.017700 0.020628
vt 0.026718 0.038867
vt 0.095548 0.078821
vt 0.489541 0.247676
vt 0.489541 0.259625
vt 0.091335 0.426555
vt 0.029004 0.463130
vt 0.017259 0.484679
vt 0.012997 0.508994
vt 0.000000 0.319739
vt 0.012997 0.319739
vt 0.015281 0.340080
vt 0.022505 0.358486
vt 0.031449 0.365987
vt 0.042359 0.368503
vt 0.091454 0.354381
vt 0.185561 0.315154
vt 0.378711 0.234281
vt 0.185561 0.151243
vt 0.630082 0.278360
vt 0.630082 0.312233
vt 0.815959 0.278360
vt 0.815959 0.312233
vt 0.525220 0.000000
vt 0.491006 0.000000
vt 0.525220 0.081760
vt 0.491006 0.081760
vt 0.572088 0.104966
vt 0.572088 0.139180
vt 0.597768 0.104966
vt 0.597768 0.139180
vt 0.615797 0.104966
vt 0.615797 0.139180
vt 0.572088 0.122073
vt 0.790967 0.129699
vt 0.756753 0.129699
vt 0.790967 0.140575
vt 0.756753 0.140575
vt 0.790967 0.152488
vt 0.756753 0.152488
vt 0.773860 0.152488
vt 0.773860 0.129699
vt 0.630082 0.349035
vt 0.630082 0.382908
vt 0.648256 0.349035
vt 0.648256 0.382908
vt 0.676878 0.349035
vt 0.676878 0.382908
vt 0.676878 0.365971
vt 0.790967 0.083804
vt 0.756753 0.083804
vt 0.790967 0.096840
vt 0.756753 0.096840
vt 0.715858 0.349035
vt 0.715858 0.382908
vt 0.867221 0.349035
vt 0.867221 0.382908
vt 0.877514 0.000000
vt 0.877514 0.034214
vt 0.890550 0.000000
vt 0.890550 0.034214
vt 0.572088 0.000000
vt 0.572088 0.034214
vt 0.597118 0.000000
vt 0.597118 0.034214
vt 0.613790 0.000000
vt 0.613790 0.034214
vt 0.572088 0.017107
vt 0.491006 0.385496
vt 0.491006 0.418246
vt 0.571234 0.385496
vt 0.571234 0.418246
vt 0.571234 0.401871
vt 0.491006 0.209932
vt 0.491006 0.242681
vt 0.920742 0.209932
vt 0.920742 0.242681
vt 0.756753 0.000000
vt 0.756753 0.034214
vt 0.768703 0.000000
vt 0.768703 0.034214
vt 0.491006 0.244146
vt 0.491006 0.276895
vt 0.923885 0.244146
vt 0.923885 0.276895
vt 0.600565 0.278360
vt 0.566351 0.278360
vt 0.600565 0.349817
vt 0.566351 0.349817
vt 0.583458 0.278360
vt 0.630082 0.384373
vt 0.630082 0.418246
vt 0.652819 0.384373
vt 0.652819 0.418246
vt 0.679564 0.384373
vt 0.679564 0.418246
vt 0.679564 0.401309
vt 0.836110 0.000000
vt 0.836110 0.034214
vt 0.849146 0.000000
vt 0.849146 0.034214
vt 0.709885 0.000000
vt 0.675671 0.000000
vt 0.709885 0.189255
vt 0.675671 0.189255
vt 0.794707 0.000000
vt 0.794707 0.034214
vt 0.807742 0.000000
vt 0.807742 0.034214
vt 0.491006 0.307763
vt 0.491006 0.341977
vt 0.514879 0.307763
vt 0.514879 0.341977
vt 0.531454 0.307763
vt 0.531454 0.341977
vt 0.491006 0.324870
vt 0.525220 0.278360
vt 0.491006 0.278360
vt 0.525220 0.290012
vt 0.491006 0.290012
vt 0.525220 0.301476
vt 0.491006 0.301476
vt 0.508113 0.301476
vt 0.508113 0.278360
vt 0.872050 0.083804
vt 0.837835 0.083804
vt 0.872050 0.135297
vt 0.837835 0.135297
vt 0.854943 0.135297
vt 0.491006 0.351282
vt 0.491006 0.384032
vt 0.565026 0.351282
vt 0.565026 0.384032
vt 0.953132 0.000000
vt 0.918918 0.000000
vt 0.953132 0.208467
vt 0.918918 0.208467
vt 0.630082 0.313697
vt 0.630082 0.347570
vt 0.840857 0.313697
vt 0.840857 0.347570
vt 0.715858 0.384373
vt 0.715858 0.418246
vt 0.879769 0.384373
vt 0.879769 0.418246
vt 0.491006 0.909252
vt 0.998535 0.909252
vt 0.815957 0.749684
vt 0.630616 0.749684
vt 0.598607 0.824654
vt 0.590758 0.845235
vt 0.586572 0.866287
vt 0.589432 0.876987
vt 0.597037 0.885544
vt 0.618760 0.893426
vt 0.641933 0.896255
vt 0.641933 0.909252
vt 0.491006 0.896255
vt 0.511574 0.891552
vt 0.529761 0.882533
vt 0.569600 0.813704
vt 0.737969 0.419710
vt 0.749884 0.419710
vt 0.916334 0.817917
vt 0.952803 0.880248
vt 0.974290 0.891993
vt 0.998535 0.896255
vt 0.809825 0.909252
vt 0.809825 0.896255
vt 0.830107 0.893971
vt 0.848461 0.886746
vt 0.855940 0.877803
vt 0.858448 0.866893
vt 0.844367 0.817797
vt 0.805253 0.723691
vt 0.724613 0.530540
vt 0.641814 0.723691
vn 0.000000 1.000000 -0.000000
vn 0.000000 1.000000 -0.000000
vn 0.000000 1.000000 -0.000000
vn 0.000000 1.000000 -0.000000
vn 0.001109 -0.000000 0.999999
vn 0.001109 -0.000000 0.999999
vn 0.001109 -0.000000 0.999999
vn 0.001109 -0.000000 0.999999
vn -1.000000 -0.000000 -0.000000
vn -1.000000 -0.000000 -0.000000
vn -1.000000 -0.000000 -0.000000
vn -1.000000 -0.000000 -0.000000
vn -0.001109 -0.000000 -0.999999
vn -0.001109 -0.000000 -0.999999
vn -0.001109 -0.000000 -0.999999
vn -0.001109 -0.000000 -0.999999
vn 1.000000 -0.000000 -0.000000
vn 1.000000 -0.000000 -0.000000
vn 1.000000 -0.000000 -0.000000
vn 1.000000 -0.000000 -0.000000
vn -0.000000 -1.000000 0.000000
vn -0.000000 -1.000000 0.000000
vn -0.000000 -1.000000 0.000000
vn -0.000000 -1.000000 0.000000
vn -0.000000 0.000000 -1.000000
vn -0.000000 0.000000 -1.000000
vn -0.000000 0.000000 -1.000000
vn -0.000000 0.000000 -1.000000
vn -0.000000 1.000000 -0.000000
vn -0.000000 1.000000 -0.000000
vn -0.000000 1.000000 -0.000000
vn -0.000000 1.000000 -0.000000
vn -0.000000 0.000000 1.000000
vn -0.000000 0.000000 1.000000
vn -0.000000 0.000000 1.000000
vn -0.000000 0.000000 1.000000
vn 0.000000 -1.000000 -0.000000
vn 0.000000 -1.000000 -0.000000
vn 0.000000 -1.000000 -0.000000
vn 0.000000 -1.000000 -0.000000
vn -1.000000 -0.000000 -0.000000
vn -1.000000 -0.000000 -0.000000
vn -1.000000 -0.000000 -0.000000
vn -1.000000 -0.000000 -0.000000
vn 1.000000 0.000000 0.000000
vn 1.000000 0.000000 0.000000
vn 1.000000 0.000000 0.000000
vn 1.000000 0.000000 0.000000
vn -0.000000 1.000000 0.000000
vn -0.000000 1.000000 0.000000
vn -0.000000 1.000000 0.000000
vn -0.000000 1.000000 0.000000
vn -1.000000 0.000000 -0.000000
vn -1.000000 0.000000 -0.000000
vn -1.000000 0.000000 -0.000000
vn -1.000000 0.000000 -0.000000
vn -0.000000 -1.000000 0.000000
vn -0.000000 -1.000000 0.000000
vn -0.000000 -1.000000 0.000000
vn -0.000000 -1.000000 0.000000
vn 0.000000 -0.000000 -1.000000
vn 0.000000 -0.000000 -1.000000
vn 0.000000 -0.000000 -1.000000
vn 0.000000 -0.000000 -1.000000
vn -0.000000 0.000000 1.000000
vn -0.000000 0.000000 1.000000
vn -0.000000 0.000000 1.000000
vn -0.000000 0.000000 1.000000
vn 1.000000 0.000000 0.000000
vn 1.000000 0.000000 0.000000
vn 1.000000 0.000000 0.000000
vn 1.000000 0.000000 0.000000
vn -0.000000 1.000000 0.000000
vn -0.000000 1.000000 0.000000
vn -0.000000 1.000000 0.000000
vn -0.000000 1.000000 0.000000
vn -1.000000 0.000000 -0.000000
vn -1.000000 0.000000 -0.000000
vn -1.000000 0.000000 -0.000000
vn -1.000000 0.000000 -0.000000
vn -0.000000 -1.000000 0.000000
vn -0.000000 -1.000000 0.000000
vn -0.000000 -1.000000 0.000000
vn -0.000000 -1.000000 0.000000
vn 0.000000 0.000000 -1.000000
vn 0.000000 0.000000 -1.000000
vn 0.000000 0.000000 -1.000000
vn 0.000000 0.000000 -1.000000
vn -0.000000 0.000000 1.000000
vn -0.000000 0.000000 1.000000
vn -0.000000 0.000000 1.000000
vn -0.000000 0.000000 1.000000
vn 0.000000 1.000000 0.000000
vn 0.000000 1.000000 0.000000
vn 0.000000 1.000000 0.000000
vn 0.000000 1.000000 0.000000
vn -0.000000 0.000000 -1.000000
vn -0.000000 0.000000 -1.000000
vn -0.000000 0.000000 -1.000000
vn -0.000000 0.000000 -1.000000
vn -0.000000 -1.000000 0.000000
vn -0.000000 -1.000000 0.000000
vn -0.000000 -1.000000 0.000000
vn -0.000000 -1.000000 0.000000
vn 1.000000 -0.000000 -0.000000
vn 1.000000 -0.000000 -0.000000
vn 1.000000 -0.000000 -0.000000
vn 1.000000 -0.000000 -0.000000
vn -1.000000 0.000000 0.000000
vn -1.000000 0.000000 0.000000
vn -1.000000 0.000000 0.000000
vn -1.000000 0.000000 0.000000
vn 0.000000 1.000000 -0.000000
vn 0.000000 1.000000 -0.000000
vn 0.000000 1.000000 -0.000000
vn 0.000000 1.000000 -0.000000
vn 0.000000 1.000000 -0.000000
vn 0.000000 1.000000 -0.000000
vn 0.000000 1.000000 -0.000000
vn 0.000000 1.000000 -0.000000
vn 0.000000 1.000000 -0.000000
vn 0.000000 1.000000 -0.000000
vn 0.000000 1.000000 -0.000000
vn 0.000000 1.000000 -0.000000
vn 0.000000 1.000000 -0.000000
vn 0.000000 1.000000 -0.000000
vn 0.000000 1.000000 -0.000000
vn 0.000000 1.000000 -0.000000
vn 0.000000 1.000000 -0.000000
vn 0.000000 1.000000 -0.000000
vn 0.000000 1.000000 -0.000000
vn 0.000000 1.000000 -0.000000
vn 0.000000 1.000000 -0.000000
vn 0.000000 1.000000 -0.000000
vn 0.000000 1.000000 -0.000000
vn 0.000000 1.000000 -0.000000
vn 0.000000 1.000000 -0.000000
vn 0.000000 1.000000 -0.000000
vn 0.000000 1.000000 -0.000000
vn 0.000000 1.000000 -0.000000
vn 0.000000 1.000000 -0.000000
vn 0.000000 1.000000 -0.000000
vn 0.000000 1.000000 -0.000000
vn 0.000000 1.000000 -0.000000
vn -0.000000 -0.000000 -1.000000
vn -0.000000 -0.000000 -1.000000
vn -0.000000 -0.000000 -1.000000
vn -0.000000 -0.000000 -1.000000
vn -0.919696 -0.000000 -0.392631
vn -0.919696 -0.000000 -0.392631
vn -0.919696 -0.000000 -0.392631
vn -0.919696 -0.000000 -0.392631
vn -1.000000 -0.000000 -0.000000
vn -1.000000 -0.000000 -0.000000
vn -0.952170 -0.000000 -0.305569
vn -0.952170 -0.000000 -0.305569
vn -0.919036 -0.000000 -0.394175
vn -0.919036 -0.000000 -0.394175
vn -1.000000 -0.000000 -0.000000
vn -0.621537 0.000000 0.783385
vn -0.621537 0.000000 0.783385
vn -0.868869 0.000000 0.495041
vn -0.868869 0.000000 0.495041
vn -1.000000 -0.000000 -0.000000
vn -1.000000 -0.000000 -0.000000
vn -1.000000 -0.000000 -0.000000
vn -0.621537 0.000000 0.783385
vn -0.073272 0.000000 0.997312
vn -0.073272 0.000000 0.997312
vn -0.185189 0.000000 0.982703
vn -0.185189 0.000000 0.982703
vn -0.619328 0.000000 0.785132
vn -0.619328 0.000000 0.785132
vn -0.619328 0.000000 0.785132
vn -1.000000 -0.000000 -0.000000
vn -1.000000 -0.000000 -0.000000
vn -1.000000 -0.000000 -0.000000
vn -1.000000 -0.000000 -0.000000
vn -0.000000 -0.000000 -1.000000
vn -0.000000 -0.000000 -1.000000
vn -0.000000 -0.000000 -1.000000
vn -0.000000 -0.000000 -1.000000
vn 1.000000 -0.000000 -0.000000
vn 1.000000 -0.000000 -0.000000
vn 1.000000 -0.000000 -0.000000
vn 1.000000 -0.000000 -0.000000
vn 0.692879 -0.000000 0.721054
vn 0.692879 -0.000000 0.721054
vn 0.290981 -0.000000 0.956729
vn 0.290981 -0.000000 0.956729
vn 0.171962 -0.000000 0.985104
vn 0.171962 -0.000000 0.985104
vn 0.692879 -0.000000 0.721054
vn 0.921413 -0.000000 0.388586
vn 0.921413 -0.000000 0.388586
vn 0.684817 -0.000000 0.728715
vn 0.684817 -0.000000 0.728715
vn 0.684817 -0.000000 0.728715
vn 0.919570 -0.000000 0.392927
vn 0.919570 -0.000000 0.392927
vn 0.919570 -0.000000 0.392927
vn 0.919570 -0.000000 0.392927
vn -0.000000 0.000000 1.000000
vn -0.000000 0.000000 1.000000
vn -0.000000 0.000000 1.000000
vn -0.000000 0.000000 1.000000
vn -0.922654 0.000000 0.385628
vn -0.922654 0.000000 0.385628
vn -0.922654 0.000000 0.385628
vn -0.922654 0.000000 0.385628
vn -0.660325 0.000000 0.750980
vn -0.660325 0.000000 0.750980
vn -0.922793 0.000000 0.385296
vn -0.922793 0.000000 0.385296
vn -0.660325 0.000000 0.750980
vn -0.061189 0.000000 0.998126
vn -0.061189 0.000000 0.998126
vn -0.305107 0.000000 0.952318
vn -0.305107 0.000000 0.952318
vn -0.655669 0.000000 0.755048
vn -0.655669 0.000000 0.755048
vn -0.655669 0.000000 0.755048
vn -1.000000 -0.000000 -0.000000
vn -1.000000 -0.000000 -0.000000
vn -1.000000 -0.000000 -0.000000
vn -1.000000 -0.000000 -0.000000
vn -0.000000 -0.000000 -1.000000
vn -0.000000 -0.000000 -1.000000
vn -0.000000 -0.000000 -1.000000
vn -0.000000 -0.000000 -1.000000
vn 1.000000 -0.000000 -0.000000
vn 1.000000 -0.000000 -0.000000
vn 1.000000 -0.000000 -0.000000
vn 1.000000 -0.000000 -0.000000
vn 0.626017 -0.000000 0.779810
vn 0.626017 -0.000000 0.779810
vn 0.193576 -0.000000 0.981085
vn 0.193576 -0.000000 0.981085
vn 0.050630 -0.000000 0.998717
vn 0.050630 -0.000000 0.998717
vn 0.626017 -0.000000 0.779810
vn 1.000000 -0.000000 -0.000000
vn 1.000000 -0.000000 -0.000000
vn 0.892663 -0.000000 0.450725
vn 0.892663 -0.000000 0.450725
vn 0.626498 -0.000000 0.779423
vn 0.626498 -0.000000 0.779423
vn 0.626498 -0.000000 0.779423
vn 1.000000 -0.000000 -0.000000
vn 0.922243 -0.000000 -0.386611
vn 0.922243 -0.000000 -0.386611
vn 1.000000 -0.000000 -0.000000
vn 1.000000 -0.000000 -0.000000
vn 1.000000 -0.000000 -0.000000
vn 0.922950 -0.000000 -0.384919
vn 0.922950 -0.000000 -0.384919
vn 0.922950 -0.000000 -0.384919
vn 0.922950 -0.000000 -0.384919
vn 0.922818 -0.000000 -0.385237
vn 0.922818 -0.000000 -0.385237
vn 0.922818 -0.000000 -0.385237
vn 0.922818 -0.000000 -0.385237
vn -0.919126 -0.000000 -0.393963
vn -0.919126 -0.000000 -0.393963
vn -0.919126 -0.000000 -0.393963
vn -0.919126 -0.000000 -0.393963
vn -0.000000 0.000000 1.000000
vn -0.000000 0.000000 1.000000
vn -0.000000 0.000000 1.000000
vn -0.000000 0.000000 1.000000
vn -0.000000 -1.000000 0.000000
vn -0.000000 -1.000000 0.000000
vn -0.000000 -1.000000 0.000000
vn -0.000000 -1.000000 0.000000
vn -0.000000 -1.000000 0.000000
vn -0.000000 -1.000000 0.000000
vn -0.000000 -1.000000 0.000000
vn -0.000000 -1.000000 0.000000
vn -0.000000 -1.000000 0.000000
vn -0.000000 -1.000000 0.000000
vn -0.000000 -1.000000 0.000000
vn -0.000000 -1.000000 0.000000
vn -0.000000 -1.000000 0.000000
vn -0.000000 -1.000000 0.000000
vn -0.000000 -1.000000 0.000000
vn -0.000000 -1.000000 0.000000
vn -0.000000 -1.000000 0.000000
vn -0.000000 -1.000000 0.000000
vn -0.000000 -1.000000 0.000000
vn -0.000000 -1.000000 0.000000
vn -0.000000 -1.000000 0.000000
vn -0.000000 -1.000000 0.000000
vn -0.000000 -1.000000 0.000000
vn -0.000000 -1.000000 0.000000
vn -0.000000 -1.000000 0.000000
vn -0.000000 -1.000000 0.000000
vn -0.000000 -1.000000 0.000000
vn -0.000000 -1.000000 0.000000
vn -0.000000 -1.000000 0.000000
vn -0.000000 -1.000000 0.000000
vn -0.000000 -1.000000 0.000000
vn -0.000000 -1.000000 0.000000
vn 0.000000 1.000000 -0.000000
vn 0.000000 1.000000 -0.000000
vn 0.000000 1.000000 -0.000000
vn 0.000000 1.000000 -0.000000
vn 0.000000 1.000000 -0.000000
vn 0.000000 1.000000 -0.000000
vn 0.000000 1.000000 -0.000000
vn 0.000000 1.000000 -0.000000
vn 0.000000 1.000000 -0.000000
vn 0.000000 1.000000 -0.000000
vn 0.000000 1.000000 -0.000000
vn 0.000000 1.000000 -0.000000
vn 0.000000 1.000000 -0.000000
vn 0.000000 1.000000 -0.000000
vn 0.000000 1.000000 -0.000000
vn 0.000000 1.000000 -0.000000
vn 0.000000 1.000000 -0.000000
vn 0.000000 1.000000 -0.000000
vn 0.000000 1.000000 -0.000000
vn 0.000000 1.000000 -0.000000
vn 0.000000 1.000000 -0.000000
vn 0.000000 1.000000 -0.000000
vn 0.000000 1.000000 -0.000000
vn 0.000000 1.000000 -0.000000
vn 0.000000 1.000000 -0.000000
vn 0.000000 1.000000 -0.000000
vn 0.000000 1.000000 -0.000000
vn 0.000000 1.000000 -0.000000
vn 0.000000 1.000000 -0.000000
vn 0.000000 1.000000 -0.000000
vn 0.000000 1.000000 -0.000000
vn 0.000000 1.000000 -0.000000
vn -0.000000 -0.000000 -1.000000
vn -0.000000 -0.000000 -1.000000
vn -0.000000 -0.000000 -1.000000
vn -0.000000 -0.000000 -1.000000
vn -0.919696 -0.000000 -0.392631
vn -0.919696 -0.000000 -0.392631
vn -0.919696 -0.000000 -0.392631
vn -0.919696 -0.000000 -0.392631
vn -1.000000 -0.000000 -0.000000
vn -1.000000 -0.000000 -0.000000
vn -0.952170 -0.000000 -0.305569
vn -0.952170 -0.000000 -0.305569
vn -0.919036 -0.000000 -0.394175
vn -0.919036 -0.000000 -0.394175
vn -1.000000 -0.000000 -0.000000
vn -0.621537 0.000000 0.783385
vn -0.621537 0.000000 0.783385
vn -0.868869 0.000000 0.495041
vn -0.868869 0.000000 0.495041
vn -1.000000 -0.000000 -0.000000
vn -1.000000 -0.000000 -0.000000
vn -1.000000 -0.000000 -0.000000
vn -0.621537 0.000000 0.783385
vn -0.073272 0.000000 0.997312
vn -0.073272 0.000000 0.997312
vn -0.185189 0.000000 0.982703
vn -0.185189 0.000000 0.982703
vn -0.619328 0.000000 0.785132
vn -0.619328 0.000000 0.785132
vn -0.619328 0.000000 0.785132
vn -1.000000 -0.000000 -0.000000
vn -1.000000 -0.000000 -0.000000
vn -1.000000 -0.000000 -0.000000
vn -1.000000 -0.000000 -0.000000
vn -0.000000 -0.000000 -1.000000
vn -0.000000 -0.000000 -1.000000
vn -0.000000 -0.000000 -1.000000
vn -0.000000 -0.000000 -1.000000
vn 1.000000 -0.000000 -0.000000
vn 1.000000 -0.000000 -0.000000
vn 1.000000 -0.000000 -0.000000
vn 1.000000 -0.000000 -0.000000
vn 0.692879 -0.000000 0.721054
vn 0.692879 -0.000000 0.721054
vn 0.290981 -0.000000 0.956729
vn 0.290981 -0.000000 0.956729
vn 0.171962 -0.000000 0.985104
vn 0.171962 -0.000000 0.985104
vn 0.692879 -0.000000 0.721054
vn 0.921413 -0.000000 0.388586
vn 0.921413 -0.000000 0.388586
vn 0.684817 -0.000000 0.728715
vn 0.684817 -0.000000 0.728715
vn 0.684817 -0.000000 0.728715
vn 0.919570 -0.000000 0.392927
vn 0.919570 -0.000000 0.392927
vn 0.919570 -0.000000 0.392927
vn 0.919570 -0.000000 0.392927
vn -0.000000 0.000000 1.000000
vn -0.000000 0.000000 1.000000
vn -0.000000 0.000000 1.000000
vn -0.000000 0.000000 1.000000
vn -0.922654 0.000000 0.385628
vn -0.922654 0.000000 0.385628
vn -0.922654 0.000000 0.385628
vn -0.922654 0.000000 0.385628
vn -0.660325 0.000000 0.750980
vn -0.660325 0.000000 0.750980
vn -0.922793 0.000000 0.385296
vn -0.922793 0.000000 0.385296
vn -0.660325 0.000000 0.750980
vn -0.061189 0.000000 0.998126
vn -0.061189 0.000000 0.998126
vn -0.305107 0.000000 0.952318
vn -0.305107 0.000000 0.952318
vn -0.655669 0.000000 0.755048
vn -0.655669 0.000000 0.755048
vn -0.655669 0.000000 0.755048
vn -1.000000 -0.000000 -0.000000
vn -1.000000 -0.000000 -0.000000
vn -1.000000 -0.000000 -0.000000
vn -1.000000 -0.000000 -0.000000
vn -0.000000 -0.000000 -1.000000
vn -0.000000 -0.000000 -1.000000
vn -0.000000 -0.000000 -1.000000
vn -0.000000 -0.000000 -1.000000
vn 1.000000 -0.000000 -0.000000
vn 1.000000 -0.000000 -0.000000
vn 1.000000 -0.000000 -0.000000
vn 1.000000 -0.000000 -0.000000
vn 0.626017 -0.000000 0.779810
vn 0.626017 -0.000000 0.779810
vn 0.193576 -0.000000 0.981085
vn 0.193576 -0.000000 0.981085
vn 0.050630 -0.000000 0.998717
vn 0.050630 -0.000000 0.998717
vn 0.626017 -0.000000 0.779810
vn 1.000000 -0.000000 -0.000000
vn 1.000000 -0.000000 -0.000000
vn 0.892663 -0.000000 0.450725
vn 0.892663 -0.000000 0.450725
vn 0.626498 -0.000000 0.779423
vn 0.626498 -0.000000 0.779423
vn 0.626498 -0.000000 0.779423
vn 1.000000 -0.000000 -0.000000
vn 0.922243 -0.000000 -0.386611
vn 0.922243 -0.000000 -0.386611
vn 1.000000 -0.000000 -0.000000
vn 1.000000 -0.000000 -0.000000
vn 1.000000 -0.000000 -0.000000
vn 0.922950 -0.000000 -0.384919
vn 0.922950 -0.000000 -0.384919
vn 0.922950 -0.000000 -0.384919
vn 0.922950 -0.000000 -0.384919
vn 0.922818 -0.000000 -0.385237
vn 0.922818 -0.000000 -0.385237
vn 0.922818 -0.000000 -0.385237
vn 0.922818 -0.000000 -0.385237
vn -0.919126 -0.000000 -0.393963
vn -0.919126 -0.000000 -0.393963
vn -0.919126 -0.000000 -0.393963
vn -0.919126 -0.000000 -0.393963
vn -0.000000 0.000000 1.000000
vn -0.000000 0.000000 1.000000
vn -0.000000 0.000000 1.000000
vn -0.000000 0.000000 1.000000
vn -0.000000 -1.000000 0.000000
vn -0.000000 -1.000000 0.000000
vn -0.000000 -1.000000 0.000000
vn -0.000000 -1.000000 0.000000
vn -0.000000 -1.000000 0.000000
vn -0.000000 -1.000000 0.000000
vn -0.000000 -1.000000 0.000000
vn -0.000000 -1.000000 0.000000
vn -0.000000 -1.000000 0.000000
vn -0.000000 -1.000000 0.000000
vn -0.000000 -1.000000 0.000000
vn -0.000000 -1.000000 0.000000
vn -0.000000 -1.000000 0.000000
vn -0.000000 -1.000000 0.000000
vn -0.000000 -1.000000 0.000000
vn -0.000000 -1.000000 0.000000
vn -0.000000 -1.000000 0.000000
vn -0.000000 -1.000000 0.000000
vn -0.000000 -1.000000 0.000000
vn -0.000000 -1.000000 0.000000
vn -0.000000 -1.000000 0.000000
vn -0.000000 -1.000000 0.000000
vn -0.000000 -1.000000 0.000000
vn -0.000000 -1.000000 0.000000
vn -0.000000 -1.000000 0.000000
vn -0.000000 -1.000000 0.000000
vn -0.000000 -1.000000 0.000000
vn -0.000000 -1.000000 0.000000
vn -0.000000 -1.000000 0.000000
vn -0.000000 -1.000000 0.000000
vn -0.000000 -1.000000 0.000000
vn -0.000000 -1.000000 0.000000
f 2/2/2 4/4/4 1/1/1
f 6/6/6 8/8/8 7/7/7
f 10/10/10 12/12/12 11/11/11
f 14/14/14 16/16/16 15/15/15
f 18/18/18 20/20/20 19/19/19
f 22/22/22 21/21/21 24/24/24
f 26/26/26 25/25/25 27/27/27
f 30/30/30 29/29/29 31/31/31
f 34/34/34 33/33/33 35/35/35
f 38/38/38 37/37/37 39/39/39
f 42/42/42 44/44/44 43/43/43
f 45/45/45 47/47/47 48/48/48
f 49/49/49 51/51/51 52/52/52
f 53/53/53 55/55/55 56/56/56
f 57/57/57 59/59/59 60/60/60
f 61/61/61 64/64/64 63/63/63
f 63/63/63 62/62/62 61/61/61
f 65/65/65 67/67/67 68/68/68
f 67/67/67 65/65/65 66/66/66
f 70/70/70 69/69/69 71/71/71
f 74/74/74 73/73/73 75/75/75
f 78/78/78 77/77/77 79/79/79
f 82/82/82 81/81/81 83/83/83
f 86/86/86 88/88/88 87/87/87
f 89/89/89 91/91/91 92/92/92
f 93/93/93 95/95/95 96/96/96
f 97/97/97 99/99/99 100/100/100
f 101/101/101 103/103/103 104/104/104
f 105/105/105 108/108/108 107/107/107
f 107/107/107 106/106/106 105/105/105
f 109/109/109 111/111/111 112/112/112
f 111/111/111 109/109/109 110/110/110
f 119/119/119 118/118/118 128/128/128
f 117/117/117 128/128/128 118/118/118
f 127/127/127 119/119/119 128/128/128
f 120/120/120 119/119/119 127/127/127
f 128/128/128 116/116/116 144/144/144
f 128/128/128 117/117/117 116/116/116
f 129/129/129 144/144/144 143/143/143
f 128/128/128 144/144/144 129/129/129
f 115/115/115 142/142/142 144/144/144
f 121/121/121 126/126/126 113/113/113
f 126/126/126 125/125/125 113/113/113
f 121/121/121 127/127/127 126/126/126
f 124/124/124 122/122/122 121/121/121
f 122/122/122 124/124/124 123/123/123
f 113/113/113 124/124/124 121/121/121
f 121/121/121 120/120/120 127/127/127
f 143/143/143 142/142/142 130/130/130
f 142/142/142 115/115/115 131/131/131
f 131/131/131 130/130/130 142/142/142
f 140/140/140 131/131/131 141/141/141
f 115/115/115 141/141/141 131/131/131
f 140/140/140 139/139/139 132/132/132
f 132/132/132 131/131/131 140/140/140
f 135/135/135 138/138/138 137/137/137
f 137/137/137 136/136/136 135/135/135
f 135/135/135 114/114/114 138/138/138
f 138/138/138 114/114/114 133/133/133
f 133/133/133 114/114/114 134/134/134
f 132/132/132 138/138/138 133/133/133
f 132/132/132 139/139/139 138/138/138
f 143/143/143 130/130/130 129/129/129
f 146/146/146 148/148/148 147/147/147
f 150/150/150 152/152/152 151/151/151
f 155/155/155 153/153/153 159/159/159
f 156/156/156 159/159/159 154/154/154
f 157/157/157 155/155/155 156/156/156
f 159/159/159 156/156/156 155/155/155
f 167/167/167 162/162/162 160/160/160
f 167/167/167 161/161/161 163/163/163
f 163/163/163 162/162/162 167/167/167
f 162/162/162 163/163/163 166/166/166
f 166/166/166 163/163/163 165/165/165
f 164/164/164 162/162/162 166/166/166
f 169/169/169 171/171/171 170/170/170
f 171/171/171 173/173/173 174/174/174
f 172/172/172 170/170/170 174/174/174
f 176/176/176 178/178/178 177/177/177
f 180/180/180 182/182/182 181/181/181
f 184/184/184 186/186/186 185/185/185
f 189/189/189 187/187/187 193/193/193
f 190/190/190 193/193/193 188/188/188
f 191/191/191 189/189/189 190/190/190
f 193/193/193 190/190/190 189/189/189
f 195/195/195 197/197/197 198/198/198
f 194/194/194 198/198/198 196/196/196
f 200/200/200 202/202/202 201/201/201
f 204/204/204 206/206/206 205/205/205
f 208/208/208 210/210/210 209/209/209
f 213/213/213 211/211/211 215/215/215
f 212/212/212 214/214/214 215/215/215
f 213/213/213 215/215/215 214/214/214
f 217/217/217 219/219/219 218/218/218
f 218/218/218 219/219/219 222/222/222
f 222/222/222 219/219/219 221/221/221
f 220/220/220 218/218/218 222/222/222
f 224/224/224 226/226/226 225/225/225
f 228/228/228 230/230/230 229/229/229
f 232/232/232 234/234/234 233/233/233
f 237/237/237 235/235/235 241/241/241
f 238/238/238 241/241/241 236/236/236
f 239/239/239 237/237/237 238/238/238
f 241/241/241 238/238/238 237/237/237
f 249/249/249 244/244/244 242/242/242
f 249/249/249 243/243/243 245/245/245
f 245/245/245 244/244/244 249/249/249
f 244/244/244 245/245/245 248/248/248
f 248/248/248 245/245/245 247/247/247
f 246/246/246 244/244/244 248/248/248
f 251/251/251 253/253/253 254/254/254
f 250/250/250 254/254/254 252/252/252
f 256/256/256 258/258/258 257/257/257
f 260/260/260 262/262/262 261/261/261
f 264/264/264 266/266/266 265/265/265
f 268/268/268 270/270/270 269/269/269
f 277/277/277 286/286/286 276/276/276
f 275/275/275 276/276/276 286/286/286
f 285/285/285 286/286/286 277/277/277
f 278/278/278 285/285/285 277/277/277
f 286/286/286 302/302/302 274/274/274
f 286/286/286 274/274/274 275/275/275
f 287/287/287 301/301/301 302/302/302
f 286/286/286 287/287/287 302/302/302
f 273/273/273 274/274/274 302/302/302
f 279/279/279 271/271/271 284/284/284
f 284/284/284 271/271/271 283/283/283
f 279/279/279 284/284/284 285/285/285
f 282/282/282 279/279/279 280/280/280
f 280/280/280 281/281/281 282/282/282
f 271/271/271 279/279/279 282/282/282
f 279/279/279 285/285/285 278/278/278
f 301/301/301 288/288/288 300/300/300
f 300/300/300 289/289/289 273/273/273
f 289/289/289 300/300/300 288/288/288
f 298/298/298 299/299/299 289/289/289
f 273/273/273 289/289/289 299/299/299
f 298/298/298 290/290/290 297/297/297
f 290/290/290 298/298/298 289/289/289
f 293/293/293 295/295/295 296/296/296
f 295/295/295 293/293/293 294/294/294
f 293/293/293 296/296/296 272/272/272
f 296/296/296 291/291/291 272/272/272
f 291/291/291 292/292/292 272/272/272
f 290/290/290 291/291/291 296/296/296
f 290/290/290 296/296/296 297/297/297
f 301/301/301 287/287/287 288/288/288
f 309/309/309 308/308/308 318/318/318
f 307/307/307 318/318/318 308/308/308
f 317/317/317 309/309/309 318/318/318
f 310/310/310 309/309/309 317/317/317
f 318/318/318 306/306/306 334/334/334
f 318/318/318 307/307/307 306/306/306
f 319/319/319 334/334/334 333/333/333
f 318/318/318 334/334/334 319/319/319
f 305/305/305 332/332/332 334/334/334
f 311/311/311 316/316/316 303/303/303
f 316/316/316 315/315/315 303/303/303
f 311/311/311 317/317/317 316/316/316
f 314/314/314 312/312/312 311/311/311
f 312/312/312 314/314/314 313/313/313
f 303/303/303 314/314/314 311/311/311
f 311/311/311 310/310/310 317/317/317
f 333/333/333 332/332/332 320/320/320
f 332/332/332 305/305/305 321/321/321
f 321/321/321 320/320/320 332/332/332
f 330/330/330 321/321/321 331/331/331
f 305/305/305 331/331/331 321/321/321
f 330/330/330 329/329/329 322/322/322
f 322/322/322 321/321/321 330/330/330
f 325/325/325 328/328/328 327/327/327
f 327/327/327 326/326/326 325/325/325
f 325/325/325 304/304/304 328/328/328
f 328/328/328 304/304/304 323/323/323
f 323/323/323 304/304/304 324/324/324
f 322/322/322 328/328/328 323/323/323
f 322/322/322 329/329/329 328/328/328
f 333/333/333 320/320/320 319/319/319
f 336/336/336 338/338/338 337/337/337
f 340/340/340 342/342/342 341/341/341
f 345/345/345 343/343/343 349/349/349
f 346/346/346 349/349/349 344/344/344
f 347/347/347 345/345/345 346/346/346
f 349/349/349 346/346/346 345/345/345
f 357/357/357 352/352/352 350/350/350
f 357/357/357 351/351/351 353/353/353
f 353/353/353 352/352/352 357/357/357
f 353/353/353 355/355/355 356/356/356
f 354/354/354 352/352/352 356/356/356
f 359/359/359 361/361/361 360/360/360
f 361/361/361 363/363/363 364/364/364
f 362/362/362 360/360/360 364/364/364
f 366/366/366 368/368/368 367/367/367
f 370/370/370 372/372/372 371/371/371
f 374/374/374 376/376/376 375/375/375
f 379/379/379 377/377/377 383/383/383
f 380/380/380 383/383/383 378/378/378
f 381/381/381 379/379/379 380/380/380
f 383/383/383 380/380/380 379/379/379
f 388/388/388 384/384/384 385/385/385
f 384/384/384 388/388/388 386/386/386
f 385/385/385 387/387/387 388/388/388
f 390/390/390 392/392/392 391/391/391
f 394/394/394 396/396/396 395/395/395
f 398/398/398 400/400/400 399/399/399
f 403/403/403 401/401/401 405/405/405
f 402/402/402 404/404/404 405/405/405
f 403/403/403 405/405/405 404/404/404
f 407/407/407 409/409/409 408/408/408
f 409/409/409 411/411/411 412/412/412
f 410/410/410 408/408/408 412/412/412
f 414/414/414 416/416/416 415/415/415
f 418/418/418 420/420/420 419/419/419
f 422/422/422 424/424/424 423/423/423
f 427/427/427 425/425/425 431/431/431
f 428/428/428 431/431/431 426/426/426
f 429/429/429 427/427/427 428/428/428
f 431/431/431 428/428/428 427/427/427
f 439/439/439 434/434/434 432/432/432
f 439/439/439 433/433/433 435/435/435
f 435/435/435 434/434/434 439/439/439
f 434/434/434 435/435/435 438/438/438
f 438/438/438 435/435/435 437/437/437
f 436/436/436 434/434/434 438/438/438
f 444/444/444 440/440/440 441/441/441
f 440/440/440 444/444/444 442/442/442
f 441/441/441 443/443/443 444/444/444
f 446/446/446 448/448/448 447/447/447
f 450/450/450 452/452/452 451/451/451
f 454/454/454 456/456/456 455/455/455
f 458/458/458 460/460/460 459/459/459
f 467/467/467 476/476/476 466/466/466
f 465/465/465 466/466/466 476/476/476
f 475/475/475 476/476/476 467/467/467
f 468/468/468 475/475/475 467/467/467
f 476/476/476 492/492/492 464/464/464
f 476/476/476 464/464/464 465/465/465
f 477/477/477 491/491/491 492/492/492
f 476/476/476 477/477/477 492/492/492
f 463/463/463 464/464/464 492/492/492
f 469/469/469 461/461/461 474/474/474
f 474/474/474 461/461/461 473/473/473
f 469/469/469 474/474/474 475/475/475
f 472/472/472 469/469/469 470/470/470
f 470/470/470 471/471/471 472/472/472
f 461/461/461 469/469/469 472/472/472
f 469/469/469 475/475/475 468/468/468
f 491/491/491 478/478/478 490/490/490
f 490/490/490 479/479/479 463/463/463
f 479/479/479 490/490/490 478/478/478
f 488/488/488 489/489/489 479/479/479
f 463/463/463 479/479/479 489/489/489
f 488/488/488 480/480/480 487/487/487
f 480/480/480 488/488/488 479/479/479
f 483/483/483 485/485/485 486/486/486
f 485/485/485 483/483/483 484/484/484
f 483/483/483 486/486/486 462/462/462
f 486/486/486 481/481/481 462/462/462
f 481/481/481 482/482/482 462/462/462
f 480/480/480 481/481/481 486/486/486
f 480/480/480 486/486/486 487/487/487
f 491/491/491 477/477/477 478/478/478
f 4/4/4 3/3/3 1/1/1
f 6/6/6 7/7/7 5/5/5
f 10/10/10 11/11/11 9/9/9
f 14/14/14 15/15/15 13/13/13
f 18/18/18 19/19/19 17/17/17
f 21/21/21 23/23/23 24/24/24
f 26/26/26 27/27/27 28/28/28
f 30/30/30 31/31/31 32/32/32
f 34/34/34 35/35/35 36/36/36
f 38/38/38 39/39/39 40/40/40
f 42/42/42 43/43/43 41/41/41
f 45/45/45 48/48/48 46/46/46
f 49/49/49 52/52/52 50/50/50
f 53/53/53 56/56/56 54/54/54
f 57/57/57 60/60/60 58/58/58
f 70/70/70 71/71/71 72/72/72
f 74/74/74 75/75/75 76/76/76
f 78/78/78 79/79/79 80/80/80
f 82/82/82 83/83/83 84/84/84
f 86/86/86 87/87/87 85/85/85
f 89/89/89 92/92/92 90/90/90
f 93/93/93 96/96/96 94/94/94
f 97/97/97 100/100/100 98/98/98
f 101/101/101 104/104/104 102/102/102
f 115/115/115 144/144/144 116/116/116
f 146/146/146 147/147/147 145/145/145
f 150/150/150 151/151/151 149/149/149
f 157/157/157 156/156/156 158/158/158
f 169/169/169 170/170/170 168/168/168
f 171/171/171 174/174/174 170/170/170
f 176/176/176 177/177/177 175/175/175
f 180/180/180 181/181/181 179/179/179
f 184/184/184 185/185/185 183/183/183
f 191/191/191 190/190/190 192/192/192
f 195/195/195 198/198/198 194/194/194
f 200/200/200 201/201/201 199/199/199
f 204/204/204 205/205/205 203/203/203
f 208/208/208 209/209/209 207/207/207
f 217/217/217 218/218/218 216/216/216
f 224/224/224 225/225/225 223/223/223
f 228/228/228 229/229/229 227/227/227
f 232/232/232 233/233/233 231/231/231
f 239/239/239 238/238/238 240/240/240
f 251/251/251 254/254/254 250/250/250
f 256/256/256 257/257/257 255/255/255
f 260/260/260 261/261/261 259/259/259
f 264/264/264 265/265/265 263/263/263
f 268/268/268 269/269/269 267/267/267
f 273/273/273 302/302/302 300/300/300
f 305/305/305 334/334/334 306/306/306
f 336/336/336 337/337/337 335/335/335
f 340/340/340 341/341/341 339/339/339
f 347/347/347 346/346/346 348/348/348
f 353/353/353 356/356/356 352/352/352
f 359/359/359 360/360/360 358/358/358
f 361/361/361 364/364/364 360/360/360
f 366/366/366 367/367/367 365/365/365
f 370/370/370 371/371/371 369/369/369
f 374/374/374 375/375/375 373/373/373
f 381/381/381 380/380/380 382/382/382
f 390/390/390 391/391/391 389/389/389
f 394/394/394 395/395/395 393/393/393
f 398/398/398 399/399/399 397/397/397
f 407/407/407 408/408/408 406/406/406
f 409/409/409 412/412/412 408/408/408
f 414/414/414 415/415/415 413/413/413
f 418/418/418 419/419/419 417/417/417
f 422/422/422 423/423/423 421/421/421
f 429/429/429 428/428/428 430/430/430
f 446/446/446 447/447/447 445/445/445
f 450/450/450 451/451/451 449/449/449
f 454/454/454 455/455/455 453/453/453
f 458/458/458 459/459/459 457/457/457
f 463/463/463 492/492/492 490/490/490

