g mesh_support0
v 3.600000 1.500000 2.500000
v 3.600000 1.500000 -2.500000
v 3.600000 -3.500000 -2.500000
v 3.600000 -3.500000 2.500000
v 3.500000 1.500000 2.500000
v 3.500000 1.500000 -2.500000
v 3.500000 -3.500000 -2.500000
v 3.500000 -3.500000 2.500000
v 3.500000 1.500000 -2.500000
v 3.500000 -3.500000 -2.500000
v 3.600000 -3.500000 -2.500000
v 3.600000 1.500000 -2.500000
v 3.500000 -3.500000 -2.500000
v 3.500000 -3.500000 2.500000
v 3.600000 -3.500000 2.500000
v 3.600000 -3.500000 -2.500000
v 3.500000 1.500000 2.500000
v 3.500000 1.500000 -2.500000
v 3.600000 1.500000 -2.500000
v 3.600000 1.500000 2.500000
v 3.500000 -3.500000 2.500000
v 3.500000 1.500000 2.500000
v 3.600000 1.500000 2.500000
v 3.600000 -3.500000 2.500000
vt 0.750000 0.750000
vt 0.250000 0.750000
vt 0.250000 0.250000
vt 0.750000 0.250000
vt 1.000000 1.000000
vt 0.000000 1.000000
vt 0.000000 0.000000
vt 1.000000 0.000000
vt 0.000000 1.000000
vt 0.000000 0.000000
vt 0.250000 0.250000
vt 0.250000 0.750000
vt 0.000000 0.000000
vt 1.000000 0.000000
vt 0.750000 0.250000
vt 0.250000 0.250000
vt 1.000000 1.000000
vt 0.000000 1.000000
vt 0.250000 0.750000
vt 0.750000 0.750000
vt 1.000000 0.000000
vt 1.000000 1.000000
vt 0.750000 0.750000
vt 0.750000 0.250000
vn 1.000000 -0.000000 -0.000000
vn 1.000000 -0.000000 -0.000000
vn 1.000000 -0.000000 -0.000000
vn 1.000000 -0.000000 -0.000000
vn -1.000000 0.000000 0.000000
vn -1.000000 0.000000 0.000000
vn -1.000000 0.000000 0.000000
vn -1.000000 0.000000 0.000000
vn 0.000000 -0.000000 -1.000000
vn -0.000000 0.000000 -1.000000
vn -0.000000 0.000000 -1.000000
vn -0.000000 0.000000 -1.000000
vn -0.000000 -1.000000 0.000000
vn 0.000000 -1.000000 -0.000000
vn -0.000000 -1.000000 0.000000
vn -0.000000 -1.000000 0.000000
vn -0.000000 1.000000 0.000000
vn -0.000000 1.000000 0.000000
vn -0.000000 1.000000 0.000000
vn -0.000000 1.000000 0.000000
vn -0.000000 0.000000 1.000000
vn -0.000000 0.000000 1.000000
vn -0.000000 0.000000 1.000000
vn -0.000000 0.000000 1.000000
f 1/1/1 4/4/4 3/3/3
f 5/5/5 6/6/6 7/7/7
f 9/9/9 12/12/12 11/11/11
f 13/13/13 16/16/16 15/15/15
f 17/17/17 20/20/20 19/19/19
f 21/21/21 24/24/24 23/23/23
f 1/1/1 3/3/3 2/2/2
f 5/5/5 7/7/7 8/8/8
f 9/9/9 11/11/11 10/10/10
f 13/13/13 15/15/15 14/14/14
f 17/17/17 19/19/19 18/18/18
f 21/21/21 23/23/23 22/22/22

